M48
;DRILL file {KiCad 4.0.7-e1-6374~58~ubuntu14.04.1} date Tue Aug  8 23:27:46 2017
;FORMAT={-:-/ absolute / metric / decimal}
FMAT,2
METRIC,TZ
T1C0.762
T2C0.800
T3C0.800
T4C1.001
T5C1.016
T6C1.100
T7C1.199
T8C1.200
T9C1.270
T10C1.501
T11C3.048
%
G90
G05
M71
T1
X218.973Y-101.092
X219.1Y-120.269
X241.325Y-119.507
X241.452Y-100.203
T2
X115.748Y-101.067
X115.748Y-103.567
X116.205Y-91.389
X118.186Y-109.652
X118.705Y-91.389
X120.752Y-134.595
X123.186Y-109.652
X123.19Y-100.66
X123.19Y-103.16
X123.977Y-125.197
X123.977Y-127.697
X125.752Y-134.595
X127.762Y-82.144
X127.762Y-84.644
X128.118Y-89.702
X128.118Y-92.202
X129.921Y-121.539
X129.921Y-124.079
X129.921Y-126.619
X129.921Y-129.159
X129.921Y-131.699
X129.921Y-134.239
X129.921Y-136.779
X131.216Y-97.612
X131.216Y-100.152
X131.216Y-102.692
X131.216Y-105.232
X131.216Y-107.772
X131.216Y-110.312
X131.216Y-112.852
X137.541Y-121.539
X137.541Y-124.079
X137.541Y-126.619
X137.541Y-129.159
X137.541Y-131.699
X137.541Y-134.239
X137.541Y-136.779
X138.836Y-97.612
X138.836Y-100.152
X138.836Y-102.692
X138.836Y-105.232
X138.836Y-107.772
X138.836Y-110.312
X138.836Y-112.852
X141.021Y-134.468
X143.535Y-124.384
X143.535Y-126.884
X144.247Y-111.662
X144.247Y-116.662
X145.491Y-104.826
X145.491Y-107.326
X146.021Y-134.468
X150.063Y-133.198
X152.563Y-133.198
X152.603Y-104.55
X152.603Y-109.55
X163.627Y-96.317
X163.627Y-98.857
X163.627Y-101.397
X163.627Y-103.937
X163.627Y-106.477
X163.627Y-109.017
X163.627Y-111.557
X163.627Y-114.097
X163.627Y-116.637
X163.627Y-119.177
X163.627Y-121.717
X163.627Y-124.257
X163.627Y-126.797
X163.627Y-129.337
X163.627Y-131.877
X163.627Y-134.417
X169.494Y-90.678
X169.52Y-138.608
X174.494Y-90.678
X174.52Y-138.608
X178.867Y-96.317
X178.867Y-98.857
X178.867Y-101.397
X178.867Y-103.937
X178.867Y-106.477
X178.867Y-109.017
X178.867Y-111.557
X178.867Y-114.097
X178.867Y-116.637
X178.867Y-119.177
X178.867Y-121.717
X178.867Y-124.257
X178.867Y-126.797
X178.867Y-129.337
X178.867Y-131.877
X178.867Y-134.417
X183.617Y-117.907
X183.769Y-111.887
X184.379Y-90.221
X189.379Y-90.221
X202.209Y-103.581
X207.209Y-103.581
X211.328Y-112.522
X213.828Y-112.522
X226.822Y-141.605
X229.322Y-141.605
T3
X183.617Y-115.407
X183.769Y-109.387
X194.488Y-109.497
X194.488Y-114.379
T4
X103.226Y-115.57
X113.716Y-82.855
X119.507Y-77.876
X127.127Y-77.876
X141.224Y-130.048
X142.113Y-79.375
X142.291Y-84.125
X142.469Y-100.279
X148.768Y-141.275
X148.869Y-148.742
X149.733Y-79.375
X153.568Y-141.173
X157.48Y-141.275
X158.547Y-119.507
X158.547Y-127.127
X183.032Y-99.06
X183.617Y-95.199
X184.76Y-133.147
X184.76Y-140.767
X189.56Y-124.333
X189.865Y-128.168
X190.652Y-99.06
X190.805Y-133.248
X190.805Y-140.868
X191.237Y-95.199
X193.142Y-146.558
X193.142Y-149.098
X197.18Y-124.333
X197.485Y-128.168
X200.914Y-108.585
X200.914Y-116.205
X201.295Y-146.939
X201.295Y-149.479
X204.673Y-108.712
X204.673Y-116.332
X211.226Y-100.
X211.506Y-126.162
X211.836Y-120.523
X214.732Y-103.683
X219.126Y-126.162
X219.685Y-131.572
X223.393Y-148.971
X231.013Y-148.971
T5
X105.715Y-133.629
X105.715Y-136.169
X105.715Y-138.709
X105.715Y-141.249
X105.715Y-143.789
X108.255Y-133.629
X108.255Y-136.169
X108.255Y-138.709
X108.255Y-141.249
X108.255Y-143.789
T6
X250.952Y-102.489
X250.952Y-124.841
T7
X103.226Y-85.57
T8
X154.991Y-148.031
X157.531Y-148.031
X162.382Y-148.209
X164.922Y-148.209
X170.459Y-148.209
X172.999Y-148.209
X177.927Y-148.133
X180.467Y-148.133
X185.217Y-147.955
X187.757Y-147.955
T9
X117.526Y-82.855
X145.034Y-130.048
X146.101Y-84.125
X146.279Y-100.279
X148.768Y-137.465
X148.869Y-144.932
X153.568Y-137.363
X157.48Y-137.465
X204.216Y-136.398
X204.216Y-141.478
X210.922Y-103.683
X214.376Y-138.938
X215.036Y-100.
X215.646Y-120.523
X223.495Y-131.572
X237.236Y-141.224
X237.236Y-146.304
X247.396Y-143.764
T10
X99.949Y-76.987
X105.537Y-76.987
X111.125Y-76.987
X140.081Y-73.889
X145.669Y-73.889
X151.257Y-73.889
T11
X251.079Y-93.269
X251.358Y-132.156
T0
M30
