G04 #@! TF.FileFunction,Legend,Top*
%FSLAX46Y46*%
G04 Gerber Fmt 4.6, Leading zero omitted, Abs format (unit mm)*
G04 Created by KiCad (PCBNEW 4.0.7-e1-6374~58~ubuntu14.04.1) date Tue Aug  8 23:27:43 2017*
%MOMM*%
%LPD*%
G01*
G04 APERTURE LIST*
%ADD10C,0.100000*%
%ADD11C,0.150000*%
G04 APERTURE END LIST*
D10*
D11*
X117530000Y-88890200D02*
X117530000Y-93888200D01*
X117670000Y-88898200D02*
X117670000Y-93880200D01*
X117810000Y-88914200D02*
X117810000Y-91294200D01*
X117810000Y-91484200D02*
X117810000Y-93864200D01*
X117950000Y-88938200D02*
X117950000Y-90899200D01*
X117950000Y-91879200D02*
X117950000Y-93840200D01*
X118090000Y-88971200D02*
X118090000Y-90732200D01*
X118090000Y-92046200D02*
X118090000Y-93807200D01*
X118230000Y-89012200D02*
X118230000Y-90625200D01*
X118230000Y-92153200D02*
X118230000Y-93766200D01*
X118370000Y-89062200D02*
X118370000Y-90554200D01*
X118370000Y-92224200D02*
X118370000Y-93716200D01*
X118510000Y-89123200D02*
X118510000Y-90510200D01*
X118510000Y-92268200D02*
X118510000Y-93655200D01*
X118650000Y-89193200D02*
X118650000Y-90491200D01*
X118650000Y-92287200D02*
X118650000Y-93585200D01*
X118790000Y-89275200D02*
X118790000Y-90493200D01*
X118790000Y-92285200D02*
X118790000Y-93503200D01*
X118930000Y-89370200D02*
X118930000Y-90518200D01*
X118930000Y-92260200D02*
X118930000Y-93408200D01*
X119070000Y-89481200D02*
X119070000Y-90566200D01*
X119070000Y-92212200D02*
X119070000Y-93297200D01*
X119210000Y-89609200D02*
X119210000Y-90644200D01*
X119210000Y-92134200D02*
X119210000Y-93169200D01*
X119350000Y-89758200D02*
X119350000Y-90761200D01*
X119350000Y-92017200D02*
X119350000Y-93020200D01*
X119490000Y-89937200D02*
X119490000Y-90949200D01*
X119490000Y-91829200D02*
X119490000Y-92841200D01*
X119630000Y-90156200D02*
X119630000Y-92622200D01*
X119770000Y-90445200D02*
X119770000Y-92333200D01*
X119910000Y-90917200D02*
X119910000Y-91861200D01*
X119605000Y-91389200D02*
G75*
G03X119605000Y-91389200I-900000J0D01*
G01*
X119992500Y-91389200D02*
G75*
G03X119992500Y-91389200I-2537500J0D01*
G01*
X125619000Y-90877000D02*
X130617000Y-90877000D01*
X125627000Y-90737000D02*
X130609000Y-90737000D01*
X125643000Y-90597000D02*
X128023000Y-90597000D01*
X128213000Y-90597000D02*
X130593000Y-90597000D01*
X125667000Y-90457000D02*
X127628000Y-90457000D01*
X128608000Y-90457000D02*
X130569000Y-90457000D01*
X125700000Y-90317000D02*
X127461000Y-90317000D01*
X128775000Y-90317000D02*
X130536000Y-90317000D01*
X125741000Y-90177000D02*
X127354000Y-90177000D01*
X128882000Y-90177000D02*
X130495000Y-90177000D01*
X125791000Y-90037000D02*
X127283000Y-90037000D01*
X128953000Y-90037000D02*
X130445000Y-90037000D01*
X125852000Y-89897000D02*
X127239000Y-89897000D01*
X128997000Y-89897000D02*
X130384000Y-89897000D01*
X125922000Y-89757000D02*
X127220000Y-89757000D01*
X129016000Y-89757000D02*
X130314000Y-89757000D01*
X126004000Y-89617000D02*
X127222000Y-89617000D01*
X129014000Y-89617000D02*
X130232000Y-89617000D01*
X126099000Y-89477000D02*
X127247000Y-89477000D01*
X128989000Y-89477000D02*
X130137000Y-89477000D01*
X126210000Y-89337000D02*
X127295000Y-89337000D01*
X128941000Y-89337000D02*
X130026000Y-89337000D01*
X126338000Y-89197000D02*
X127373000Y-89197000D01*
X128863000Y-89197000D02*
X129898000Y-89197000D01*
X126487000Y-89057000D02*
X127490000Y-89057000D01*
X128746000Y-89057000D02*
X129749000Y-89057000D01*
X126666000Y-88917000D02*
X127678000Y-88917000D01*
X128558000Y-88917000D02*
X129570000Y-88917000D01*
X126885000Y-88777000D02*
X129351000Y-88777000D01*
X127174000Y-88637000D02*
X129062000Y-88637000D01*
X127646000Y-88497000D02*
X128590000Y-88497000D01*
X129018000Y-89702000D02*
G75*
G03X129018000Y-89702000I-900000J0D01*
G01*
X130655500Y-90952000D02*
G75*
G03X130655500Y-90952000I-2537500J0D01*
G01*
X151353000Y-110550000D02*
X151353000Y-103550000D01*
X151353000Y-103550000D02*
X153853000Y-103550000D01*
X153853000Y-103550000D02*
X153853000Y-110550000D01*
X153853000Y-110550000D02*
X151353000Y-110550000D01*
X151388000Y-130699000D02*
X151388000Y-135697000D01*
X151528000Y-130707000D02*
X151528000Y-135689000D01*
X151668000Y-130723000D02*
X151668000Y-133103000D01*
X151668000Y-133293000D02*
X151668000Y-135673000D01*
X151808000Y-130747000D02*
X151808000Y-132708000D01*
X151808000Y-133688000D02*
X151808000Y-135649000D01*
X151948000Y-130780000D02*
X151948000Y-132541000D01*
X151948000Y-133855000D02*
X151948000Y-135616000D01*
X152088000Y-130821000D02*
X152088000Y-132434000D01*
X152088000Y-133962000D02*
X152088000Y-135575000D01*
X152228000Y-130871000D02*
X152228000Y-132363000D01*
X152228000Y-134033000D02*
X152228000Y-135525000D01*
X152368000Y-130932000D02*
X152368000Y-132319000D01*
X152368000Y-134077000D02*
X152368000Y-135464000D01*
X152508000Y-131002000D02*
X152508000Y-132300000D01*
X152508000Y-134096000D02*
X152508000Y-135394000D01*
X152648000Y-131084000D02*
X152648000Y-132302000D01*
X152648000Y-134094000D02*
X152648000Y-135312000D01*
X152788000Y-131179000D02*
X152788000Y-132327000D01*
X152788000Y-134069000D02*
X152788000Y-135217000D01*
X152928000Y-131290000D02*
X152928000Y-132375000D01*
X152928000Y-134021000D02*
X152928000Y-135106000D01*
X153068000Y-131418000D02*
X153068000Y-132453000D01*
X153068000Y-133943000D02*
X153068000Y-134978000D01*
X153208000Y-131567000D02*
X153208000Y-132570000D01*
X153208000Y-133826000D02*
X153208000Y-134829000D01*
X153348000Y-131746000D02*
X153348000Y-132758000D01*
X153348000Y-133638000D02*
X153348000Y-134650000D01*
X153488000Y-131965000D02*
X153488000Y-134431000D01*
X153628000Y-132254000D02*
X153628000Y-134142000D01*
X153768000Y-132726000D02*
X153768000Y-133670000D01*
X153463000Y-133198000D02*
G75*
G03X153463000Y-133198000I-900000J0D01*
G01*
X153850500Y-133198000D02*
G75*
G03X153850500Y-133198000I-2537500J0D01*
G01*
X140021000Y-133218000D02*
X147021000Y-133218000D01*
X147021000Y-133218000D02*
X147021000Y-135718000D01*
X147021000Y-135718000D02*
X140021000Y-135718000D01*
X140021000Y-135718000D02*
X140021000Y-133218000D01*
X146034000Y-125709000D02*
X141036000Y-125709000D01*
X146026000Y-125849000D02*
X141044000Y-125849000D01*
X146010000Y-125989000D02*
X143630000Y-125989000D01*
X143440000Y-125989000D02*
X141060000Y-125989000D01*
X145986000Y-126129000D02*
X144025000Y-126129000D01*
X143045000Y-126129000D02*
X141084000Y-126129000D01*
X145953000Y-126269000D02*
X144192000Y-126269000D01*
X142878000Y-126269000D02*
X141117000Y-126269000D01*
X145912000Y-126409000D02*
X144299000Y-126409000D01*
X142771000Y-126409000D02*
X141158000Y-126409000D01*
X145862000Y-126549000D02*
X144370000Y-126549000D01*
X142700000Y-126549000D02*
X141208000Y-126549000D01*
X145801000Y-126689000D02*
X144414000Y-126689000D01*
X142656000Y-126689000D02*
X141269000Y-126689000D01*
X145731000Y-126829000D02*
X144433000Y-126829000D01*
X142637000Y-126829000D02*
X141339000Y-126829000D01*
X145649000Y-126969000D02*
X144431000Y-126969000D01*
X142639000Y-126969000D02*
X141421000Y-126969000D01*
X145554000Y-127109000D02*
X144406000Y-127109000D01*
X142664000Y-127109000D02*
X141516000Y-127109000D01*
X145443000Y-127249000D02*
X144358000Y-127249000D01*
X142712000Y-127249000D02*
X141627000Y-127249000D01*
X145315000Y-127389000D02*
X144280000Y-127389000D01*
X142790000Y-127389000D02*
X141755000Y-127389000D01*
X145166000Y-127529000D02*
X144163000Y-127529000D01*
X142907000Y-127529000D02*
X141904000Y-127529000D01*
X144987000Y-127669000D02*
X143975000Y-127669000D01*
X143095000Y-127669000D02*
X142083000Y-127669000D01*
X144768000Y-127809000D02*
X142302000Y-127809000D01*
X144479000Y-127949000D02*
X142591000Y-127949000D01*
X144007000Y-128089000D02*
X143063000Y-128089000D01*
X144435000Y-126884000D02*
G75*
G03X144435000Y-126884000I-900000J0D01*
G01*
X146072500Y-125634000D02*
G75*
G03X146072500Y-125634000I-2537500J0D01*
G01*
X147990000Y-106151000D02*
X142992000Y-106151000D01*
X147982000Y-106291000D02*
X143000000Y-106291000D01*
X147966000Y-106431000D02*
X145586000Y-106431000D01*
X145396000Y-106431000D02*
X143016000Y-106431000D01*
X147942000Y-106571000D02*
X145981000Y-106571000D01*
X145001000Y-106571000D02*
X143040000Y-106571000D01*
X147909000Y-106711000D02*
X146148000Y-106711000D01*
X144834000Y-106711000D02*
X143073000Y-106711000D01*
X147868000Y-106851000D02*
X146255000Y-106851000D01*
X144727000Y-106851000D02*
X143114000Y-106851000D01*
X147818000Y-106991000D02*
X146326000Y-106991000D01*
X144656000Y-106991000D02*
X143164000Y-106991000D01*
X147757000Y-107131000D02*
X146370000Y-107131000D01*
X144612000Y-107131000D02*
X143225000Y-107131000D01*
X147687000Y-107271000D02*
X146389000Y-107271000D01*
X144593000Y-107271000D02*
X143295000Y-107271000D01*
X147605000Y-107411000D02*
X146387000Y-107411000D01*
X144595000Y-107411000D02*
X143377000Y-107411000D01*
X147510000Y-107551000D02*
X146362000Y-107551000D01*
X144620000Y-107551000D02*
X143472000Y-107551000D01*
X147399000Y-107691000D02*
X146314000Y-107691000D01*
X144668000Y-107691000D02*
X143583000Y-107691000D01*
X147271000Y-107831000D02*
X146236000Y-107831000D01*
X144746000Y-107831000D02*
X143711000Y-107831000D01*
X147122000Y-107971000D02*
X146119000Y-107971000D01*
X144863000Y-107971000D02*
X143860000Y-107971000D01*
X146943000Y-108111000D02*
X145931000Y-108111000D01*
X145051000Y-108111000D02*
X144039000Y-108111000D01*
X146724000Y-108251000D02*
X144258000Y-108251000D01*
X146435000Y-108391000D02*
X144547000Y-108391000D01*
X145963000Y-108531000D02*
X145019000Y-108531000D01*
X146391000Y-107326000D02*
G75*
G03X146391000Y-107326000I-900000J0D01*
G01*
X148028500Y-106076000D02*
G75*
G03X148028500Y-106076000I-2537500J0D01*
G01*
X168520000Y-137358000D02*
X175520000Y-137358000D01*
X175520000Y-137358000D02*
X175520000Y-139858000D01*
X175520000Y-139858000D02*
X168520000Y-139858000D01*
X168520000Y-139858000D02*
X168520000Y-137358000D01*
X130911000Y-83468600D02*
X124613000Y-83468600D01*
X130905000Y-83608600D02*
X124619000Y-83608600D01*
X130892000Y-83748600D02*
X128208000Y-83748600D01*
X127316000Y-83748600D02*
X124632000Y-83748600D01*
X130873000Y-83888600D02*
X128418000Y-83888600D01*
X127106000Y-83888600D02*
X124651000Y-83888600D01*
X130847000Y-84028600D02*
X128551000Y-84028600D01*
X126973000Y-84028600D02*
X124677000Y-84028600D01*
X130815000Y-84168600D02*
X128642000Y-84168600D01*
X126882000Y-84168600D02*
X124709000Y-84168600D01*
X130776000Y-84308600D02*
X128704000Y-84308600D01*
X126820000Y-84308600D02*
X124748000Y-84308600D01*
X130730000Y-84448600D02*
X128743000Y-84448600D01*
X126781000Y-84448600D02*
X124794000Y-84448600D01*
X130677000Y-84588600D02*
X128760000Y-84588600D01*
X126764000Y-84588600D02*
X124847000Y-84588600D01*
X130615000Y-84728600D02*
X128758000Y-84728600D01*
X126766000Y-84728600D02*
X124909000Y-84728600D01*
X130545000Y-84868600D02*
X128736000Y-84868600D01*
X126788000Y-84868600D02*
X124979000Y-84868600D01*
X130466000Y-85008600D02*
X128693000Y-85008600D01*
X126831000Y-85008600D02*
X125058000Y-85008600D01*
X130378000Y-85148600D02*
X128625000Y-85148600D01*
X126899000Y-85148600D02*
X125146000Y-85148600D01*
X130278000Y-85288600D02*
X128526000Y-85288600D01*
X126998000Y-85288600D02*
X125246000Y-85288600D01*
X130166000Y-85428600D02*
X128381000Y-85428600D01*
X127143000Y-85428600D02*
X125358000Y-85428600D01*
X130041000Y-85568600D02*
X128142000Y-85568600D01*
X127382000Y-85568600D02*
X125483000Y-85568600D01*
X129898000Y-85708600D02*
X125626000Y-85708600D01*
X129736000Y-85848600D02*
X125788000Y-85848600D01*
X129548000Y-85988600D02*
X125976000Y-85988600D01*
X129325000Y-86128600D02*
X126199000Y-86128600D01*
X129049000Y-86268600D02*
X126475000Y-86268600D01*
X128674000Y-86408600D02*
X126850000Y-86408600D01*
X128762000Y-84643600D02*
G75*
G03X128762000Y-84643600I-1000000J0D01*
G01*
X130949500Y-83393600D02*
G75*
G03X130949500Y-83393600I-3187500J0D01*
G01*
X126476000Y-126522000D02*
X121478000Y-126522000D01*
X126468000Y-126662000D02*
X121486000Y-126662000D01*
X126452000Y-126802000D02*
X124072000Y-126802000D01*
X123882000Y-126802000D02*
X121502000Y-126802000D01*
X126428000Y-126942000D02*
X124467000Y-126942000D01*
X123487000Y-126942000D02*
X121526000Y-126942000D01*
X126395000Y-127082000D02*
X124634000Y-127082000D01*
X123320000Y-127082000D02*
X121559000Y-127082000D01*
X126354000Y-127222000D02*
X124741000Y-127222000D01*
X123213000Y-127222000D02*
X121600000Y-127222000D01*
X126304000Y-127362000D02*
X124812000Y-127362000D01*
X123142000Y-127362000D02*
X121650000Y-127362000D01*
X126243000Y-127502000D02*
X124856000Y-127502000D01*
X123098000Y-127502000D02*
X121711000Y-127502000D01*
X126173000Y-127642000D02*
X124875000Y-127642000D01*
X123079000Y-127642000D02*
X121781000Y-127642000D01*
X126091000Y-127782000D02*
X124873000Y-127782000D01*
X123081000Y-127782000D02*
X121863000Y-127782000D01*
X125996000Y-127922000D02*
X124848000Y-127922000D01*
X123106000Y-127922000D02*
X121958000Y-127922000D01*
X125885000Y-128062000D02*
X124800000Y-128062000D01*
X123154000Y-128062000D02*
X122069000Y-128062000D01*
X125757000Y-128202000D02*
X124722000Y-128202000D01*
X123232000Y-128202000D02*
X122197000Y-128202000D01*
X125608000Y-128342000D02*
X124605000Y-128342000D01*
X123349000Y-128342000D02*
X122346000Y-128342000D01*
X125429000Y-128482000D02*
X124417000Y-128482000D01*
X123537000Y-128482000D02*
X122525000Y-128482000D01*
X125210000Y-128622000D02*
X122744000Y-128622000D01*
X124921000Y-128762000D02*
X123033000Y-128762000D01*
X124449000Y-128902000D02*
X123505000Y-128902000D01*
X124877000Y-127697000D02*
G75*
G03X124877000Y-127697000I-900000J0D01*
G01*
X126514500Y-126447000D02*
G75*
G03X126514500Y-126447000I-2537500J0D01*
G01*
X118247000Y-102392000D02*
X113249000Y-102392000D01*
X118239000Y-102532000D02*
X113257000Y-102532000D01*
X118223000Y-102672000D02*
X115843000Y-102672000D01*
X115653000Y-102672000D02*
X113273000Y-102672000D01*
X118199000Y-102812000D02*
X116238000Y-102812000D01*
X115258000Y-102812000D02*
X113297000Y-102812000D01*
X118166000Y-102952000D02*
X116405000Y-102952000D01*
X115091000Y-102952000D02*
X113330000Y-102952000D01*
X118125000Y-103092000D02*
X116512000Y-103092000D01*
X114984000Y-103092000D02*
X113371000Y-103092000D01*
X118075000Y-103232000D02*
X116583000Y-103232000D01*
X114913000Y-103232000D02*
X113421000Y-103232000D01*
X118014000Y-103372000D02*
X116627000Y-103372000D01*
X114869000Y-103372000D02*
X113482000Y-103372000D01*
X117944000Y-103512000D02*
X116646000Y-103512000D01*
X114850000Y-103512000D02*
X113552000Y-103512000D01*
X117862000Y-103652000D02*
X116644000Y-103652000D01*
X114852000Y-103652000D02*
X113634000Y-103652000D01*
X117767000Y-103792000D02*
X116619000Y-103792000D01*
X114877000Y-103792000D02*
X113729000Y-103792000D01*
X117656000Y-103932000D02*
X116571000Y-103932000D01*
X114925000Y-103932000D02*
X113840000Y-103932000D01*
X117528000Y-104072000D02*
X116493000Y-104072000D01*
X115003000Y-104072000D02*
X113968000Y-104072000D01*
X117379000Y-104212000D02*
X116376000Y-104212000D01*
X115120000Y-104212000D02*
X114117000Y-104212000D01*
X117200000Y-104352000D02*
X116188000Y-104352000D01*
X115308000Y-104352000D02*
X114296000Y-104352000D01*
X116981000Y-104492000D02*
X114515000Y-104492000D01*
X116692000Y-104632000D02*
X114804000Y-104632000D01*
X116220000Y-104772000D02*
X115276000Y-104772000D01*
X116648000Y-103567000D02*
G75*
G03X116648000Y-103567000I-900000J0D01*
G01*
X118285500Y-102317000D02*
G75*
G03X118285500Y-102317000I-2537500J0D01*
G01*
X119752000Y-133345000D02*
X126752000Y-133345000D01*
X126752000Y-133345000D02*
X126752000Y-135845000D01*
X126752000Y-135845000D02*
X119752000Y-135845000D01*
X119752000Y-135845000D02*
X119752000Y-133345000D01*
X117186000Y-108402000D02*
X124186000Y-108402000D01*
X124186000Y-108402000D02*
X124186000Y-110902000D01*
X124186000Y-110902000D02*
X117186000Y-110902000D01*
X117186000Y-110902000D02*
X117186000Y-108402000D01*
X125689000Y-101985000D02*
X120691000Y-101985000D01*
X125681000Y-102125000D02*
X120699000Y-102125000D01*
X125665000Y-102265000D02*
X123285000Y-102265000D01*
X123095000Y-102265000D02*
X120715000Y-102265000D01*
X125641000Y-102405000D02*
X123680000Y-102405000D01*
X122700000Y-102405000D02*
X120739000Y-102405000D01*
X125608000Y-102545000D02*
X123847000Y-102545000D01*
X122533000Y-102545000D02*
X120772000Y-102545000D01*
X125567000Y-102685000D02*
X123954000Y-102685000D01*
X122426000Y-102685000D02*
X120813000Y-102685000D01*
X125517000Y-102825000D02*
X124025000Y-102825000D01*
X122355000Y-102825000D02*
X120863000Y-102825000D01*
X125456000Y-102965000D02*
X124069000Y-102965000D01*
X122311000Y-102965000D02*
X120924000Y-102965000D01*
X125386000Y-103105000D02*
X124088000Y-103105000D01*
X122292000Y-103105000D02*
X120994000Y-103105000D01*
X125304000Y-103245000D02*
X124086000Y-103245000D01*
X122294000Y-103245000D02*
X121076000Y-103245000D01*
X125209000Y-103385000D02*
X124061000Y-103385000D01*
X122319000Y-103385000D02*
X121171000Y-103385000D01*
X125098000Y-103525000D02*
X124013000Y-103525000D01*
X122367000Y-103525000D02*
X121282000Y-103525000D01*
X124970000Y-103665000D02*
X123935000Y-103665000D01*
X122445000Y-103665000D02*
X121410000Y-103665000D01*
X124821000Y-103805000D02*
X123818000Y-103805000D01*
X122562000Y-103805000D02*
X121559000Y-103805000D01*
X124642000Y-103945000D02*
X123630000Y-103945000D01*
X122750000Y-103945000D02*
X121738000Y-103945000D01*
X124423000Y-104085000D02*
X121957000Y-104085000D01*
X124134000Y-104225000D02*
X122246000Y-104225000D01*
X123662000Y-104365000D02*
X122718000Y-104365000D01*
X124090000Y-103160000D02*
G75*
G03X124090000Y-103160000I-900000J0D01*
G01*
X125727500Y-101910000D02*
G75*
G03X125727500Y-101910000I-2537500J0D01*
G01*
X142997000Y-117662000D02*
X142997000Y-110662000D01*
X142997000Y-110662000D02*
X145497000Y-110662000D01*
X145497000Y-110662000D02*
X145497000Y-117662000D01*
X145497000Y-117662000D02*
X142997000Y-117662000D01*
X183379000Y-88970800D02*
X190379000Y-88970800D01*
X190379000Y-88970800D02*
X190379000Y-91470800D01*
X190379000Y-91470800D02*
X183379000Y-91470800D01*
X183379000Y-91470800D02*
X183379000Y-88970800D01*
X168494000Y-89428000D02*
X175494000Y-89428000D01*
X175494000Y-89428000D02*
X175494000Y-91928000D01*
X175494000Y-91928000D02*
X168494000Y-91928000D01*
X168494000Y-91928000D02*
X168494000Y-89428000D01*
X182367000Y-118157000D02*
X182367000Y-115157000D01*
X184867000Y-115157000D02*
X184867000Y-118157000D01*
X182519000Y-112137000D02*
X182519000Y-109137000D01*
X185019000Y-109137000D02*
X185019000Y-112137000D01*
X201209000Y-102331000D02*
X208209000Y-102331000D01*
X208209000Y-102331000D02*
X208209000Y-104831000D01*
X208209000Y-104831000D02*
X201209000Y-104831000D01*
X201209000Y-104831000D02*
X201209000Y-102331000D01*
X228147000Y-139106000D02*
X228147000Y-144104000D01*
X228287000Y-139114000D02*
X228287000Y-144096000D01*
X228427000Y-139130000D02*
X228427000Y-141510000D01*
X228427000Y-141700000D02*
X228427000Y-144080000D01*
X228567000Y-139154000D02*
X228567000Y-141115000D01*
X228567000Y-142095000D02*
X228567000Y-144056000D01*
X228707000Y-139187000D02*
X228707000Y-140948000D01*
X228707000Y-142262000D02*
X228707000Y-144023000D01*
X228847000Y-139228000D02*
X228847000Y-140841000D01*
X228847000Y-142369000D02*
X228847000Y-143982000D01*
X228987000Y-139278000D02*
X228987000Y-140770000D01*
X228987000Y-142440000D02*
X228987000Y-143932000D01*
X229127000Y-139339000D02*
X229127000Y-140726000D01*
X229127000Y-142484000D02*
X229127000Y-143871000D01*
X229267000Y-139409000D02*
X229267000Y-140707000D01*
X229267000Y-142503000D02*
X229267000Y-143801000D01*
X229407000Y-139491000D02*
X229407000Y-140709000D01*
X229407000Y-142501000D02*
X229407000Y-143719000D01*
X229547000Y-139586000D02*
X229547000Y-140734000D01*
X229547000Y-142476000D02*
X229547000Y-143624000D01*
X229687000Y-139697000D02*
X229687000Y-140782000D01*
X229687000Y-142428000D02*
X229687000Y-143513000D01*
X229827000Y-139825000D02*
X229827000Y-140860000D01*
X229827000Y-142350000D02*
X229827000Y-143385000D01*
X229967000Y-139974000D02*
X229967000Y-140977000D01*
X229967000Y-142233000D02*
X229967000Y-143236000D01*
X230107000Y-140153000D02*
X230107000Y-141165000D01*
X230107000Y-142045000D02*
X230107000Y-143057000D01*
X230247000Y-140372000D02*
X230247000Y-142838000D01*
X230387000Y-140661000D02*
X230387000Y-142549000D01*
X230527000Y-141133000D02*
X230527000Y-142077000D01*
X230222000Y-141605000D02*
G75*
G03X230222000Y-141605000I-900000J0D01*
G01*
X230609500Y-141605000D02*
G75*
G03X230609500Y-141605000I-2537500J0D01*
G01*
X212653000Y-110023000D02*
X212653000Y-115021000D01*
X212793000Y-110031000D02*
X212793000Y-115013000D01*
X212933000Y-110047000D02*
X212933000Y-112427000D01*
X212933000Y-112617000D02*
X212933000Y-114997000D01*
X213073000Y-110071000D02*
X213073000Y-112032000D01*
X213073000Y-113012000D02*
X213073000Y-114973000D01*
X213213000Y-110104000D02*
X213213000Y-111865000D01*
X213213000Y-113179000D02*
X213213000Y-114940000D01*
X213353000Y-110145000D02*
X213353000Y-111758000D01*
X213353000Y-113286000D02*
X213353000Y-114899000D01*
X213493000Y-110195000D02*
X213493000Y-111687000D01*
X213493000Y-113357000D02*
X213493000Y-114849000D01*
X213633000Y-110256000D02*
X213633000Y-111643000D01*
X213633000Y-113401000D02*
X213633000Y-114788000D01*
X213773000Y-110326000D02*
X213773000Y-111624000D01*
X213773000Y-113420000D02*
X213773000Y-114718000D01*
X213913000Y-110408000D02*
X213913000Y-111626000D01*
X213913000Y-113418000D02*
X213913000Y-114636000D01*
X214053000Y-110503000D02*
X214053000Y-111651000D01*
X214053000Y-113393000D02*
X214053000Y-114541000D01*
X214193000Y-110614000D02*
X214193000Y-111699000D01*
X214193000Y-113345000D02*
X214193000Y-114430000D01*
X214333000Y-110742000D02*
X214333000Y-111777000D01*
X214333000Y-113267000D02*
X214333000Y-114302000D01*
X214473000Y-110891000D02*
X214473000Y-111894000D01*
X214473000Y-113150000D02*
X214473000Y-114153000D01*
X214613000Y-111070000D02*
X214613000Y-112082000D01*
X214613000Y-112962000D02*
X214613000Y-113974000D01*
X214753000Y-111289000D02*
X214753000Y-113755000D01*
X214893000Y-111578000D02*
X214893000Y-113466000D01*
X215033000Y-112050000D02*
X215033000Y-112994000D01*
X214728000Y-112522000D02*
G75*
G03X214728000Y-112522000I-900000J0D01*
G01*
X215115500Y-112522000D02*
G75*
G03X215115500Y-112522000I-2537500J0D01*
G01*
X115240000Y-82854800D02*
X116002000Y-83870800D01*
X115240000Y-82854800D02*
X116002000Y-81838800D01*
X115240000Y-81838800D02*
X115240000Y-83870800D01*
X116002000Y-81838800D02*
X116002000Y-83870800D01*
X142748000Y-130048000D02*
X143510000Y-131064000D01*
X142748000Y-130048000D02*
X143510000Y-129032000D01*
X142748000Y-129032000D02*
X142748000Y-131064000D01*
X143510000Y-129032000D02*
X143510000Y-131064000D01*
X143993000Y-100279000D02*
X144755000Y-101295000D01*
X143993000Y-100279000D02*
X144755000Y-99263000D01*
X143993000Y-99263000D02*
X143993000Y-101295000D01*
X144755000Y-99263000D02*
X144755000Y-101295000D01*
X143815000Y-84124800D02*
X144577000Y-85140800D01*
X143815000Y-84124800D02*
X144577000Y-83108800D01*
X143815000Y-83108800D02*
X143815000Y-85140800D01*
X144577000Y-83108800D02*
X144577000Y-85140800D01*
X191617096Y-145343112D02*
G75*
G03X194642000Y-145328000I1524904J-2484888D01*
G01*
X191642000Y-145328000D02*
X194642000Y-145328000D01*
X195659936Y-147828000D02*
G75*
G03X195659936Y-147828000I-2517936J0D01*
G01*
X148768000Y-139751000D02*
X149784000Y-138989000D01*
X148768000Y-139751000D02*
X147752000Y-138989000D01*
X147752000Y-139751000D02*
X149784000Y-139751000D01*
X147752000Y-138989000D02*
X149784000Y-138989000D01*
X153568000Y-139649000D02*
X154584000Y-138887000D01*
X153568000Y-139649000D02*
X152552000Y-138887000D01*
X152552000Y-139649000D02*
X154584000Y-139649000D01*
X152552000Y-138887000D02*
X154584000Y-138887000D01*
X157480000Y-139751000D02*
X158496000Y-138989000D01*
X157480000Y-139751000D02*
X156464000Y-138989000D01*
X156464000Y-139751000D02*
X158496000Y-139751000D01*
X156464000Y-138989000D02*
X158496000Y-138989000D01*
X148869000Y-147218000D02*
X149885000Y-146456000D01*
X148869000Y-147218000D02*
X147853000Y-146456000D01*
X147853000Y-147218000D02*
X149885000Y-147218000D01*
X147853000Y-146456000D02*
X149885000Y-146456000D01*
X212750000Y-99999800D02*
X213512000Y-101015800D01*
X212750000Y-99999800D02*
X213512000Y-98983800D01*
X212750000Y-98983800D02*
X212750000Y-101015800D01*
X213512000Y-98983800D02*
X213512000Y-101015800D01*
X213360000Y-120523000D02*
X214122000Y-121539000D01*
X213360000Y-120523000D02*
X214122000Y-119507000D01*
X213360000Y-119507000D02*
X213360000Y-121539000D01*
X214122000Y-119507000D02*
X214122000Y-121539000D01*
X213208000Y-103683000D02*
X212446000Y-102667000D01*
X213208000Y-103683000D02*
X212446000Y-104699000D01*
X213208000Y-104699000D02*
X213208000Y-102667000D01*
X212446000Y-104699000D02*
X212446000Y-102667000D01*
X221209000Y-131572000D02*
X221971000Y-132588000D01*
X221209000Y-131572000D02*
X221971000Y-130556000D01*
X221209000Y-130556000D02*
X221209000Y-132588000D01*
X221971000Y-130556000D02*
X221971000Y-132588000D01*
X199770096Y-145724112D02*
G75*
G03X202795000Y-145709000I1524904J-2484888D01*
G01*
X199795000Y-145709000D02*
X202795000Y-145709000D01*
X203812936Y-148209000D02*
G75*
G03X203812936Y-148209000I-2517936J0D01*
G01*
X102435000Y-148869000D02*
X102435000Y-128549000D01*
X102985000Y-148329000D02*
X102985000Y-129109000D01*
X111535000Y-148869000D02*
X111535000Y-128549000D01*
X110985000Y-148329000D02*
X110985000Y-140959000D01*
X110985000Y-136459000D02*
X110985000Y-129109000D01*
X110985000Y-140959000D02*
X111535000Y-140959000D01*
X110985000Y-136459000D02*
X111535000Y-136459000D01*
X102435000Y-148869000D02*
X111535000Y-148869000D01*
X102985000Y-148329000D02*
X110985000Y-148329000D01*
X102435000Y-128549000D02*
X111535000Y-128549000D01*
X102985000Y-129109000D02*
X110985000Y-129109000D01*
X102435000Y-148869000D02*
X102985000Y-148329000D01*
X102435000Y-128549000D02*
X102985000Y-129109000D01*
X111535000Y-148869000D02*
X110985000Y-148329000D01*
X111535000Y-128549000D02*
X110985000Y-129109000D01*
X183847000Y-144935000D02*
X183847000Y-150935000D01*
X183847000Y-150935000D02*
X189127000Y-150935000D01*
X189127000Y-150935000D02*
X189127000Y-144935000D01*
X189127000Y-144935000D02*
X183847000Y-144935000D01*
X185217000Y-150935000D02*
X185217000Y-149935000D01*
X185217000Y-149935000D02*
X187757000Y-149935000D01*
X187757000Y-149935000D02*
X187757000Y-150935000D01*
X185217000Y-149935000D02*
X185467000Y-149505000D01*
X185467000Y-149505000D02*
X187507000Y-149505000D01*
X187507000Y-149505000D02*
X187757000Y-149935000D01*
X185467000Y-150935000D02*
X185467000Y-149935000D01*
X187507000Y-150935000D02*
X187507000Y-149935000D01*
X184417000Y-144935000D02*
X184417000Y-145555000D01*
X184417000Y-145555000D02*
X186017000Y-145555000D01*
X186017000Y-145555000D02*
X186017000Y-144935000D01*
X186957000Y-144935000D02*
X186957000Y-145555000D01*
X186957000Y-145555000D02*
X188557000Y-145555000D01*
X188557000Y-145555000D02*
X188557000Y-144935000D01*
X169089000Y-145189000D02*
X169089000Y-151189000D01*
X169089000Y-151189000D02*
X174369000Y-151189000D01*
X174369000Y-151189000D02*
X174369000Y-145189000D01*
X174369000Y-145189000D02*
X169089000Y-145189000D01*
X170459000Y-151189000D02*
X170459000Y-150189000D01*
X170459000Y-150189000D02*
X172999000Y-150189000D01*
X172999000Y-150189000D02*
X172999000Y-151189000D01*
X170459000Y-150189000D02*
X170709000Y-149759000D01*
X170709000Y-149759000D02*
X172749000Y-149759000D01*
X172749000Y-149759000D02*
X172999000Y-150189000D01*
X170709000Y-151189000D02*
X170709000Y-150189000D01*
X172749000Y-151189000D02*
X172749000Y-150189000D01*
X169659000Y-145189000D02*
X169659000Y-145809000D01*
X169659000Y-145809000D02*
X171259000Y-145809000D01*
X171259000Y-145809000D02*
X171259000Y-145189000D01*
X172199000Y-145189000D02*
X172199000Y-145809000D01*
X172199000Y-145809000D02*
X173799000Y-145809000D01*
X173799000Y-145809000D02*
X173799000Y-145189000D01*
X176557000Y-145113000D02*
X176557000Y-151113000D01*
X176557000Y-151113000D02*
X181837000Y-151113000D01*
X181837000Y-151113000D02*
X181837000Y-145113000D01*
X181837000Y-145113000D02*
X176557000Y-145113000D01*
X177927000Y-151113000D02*
X177927000Y-150113000D01*
X177927000Y-150113000D02*
X180467000Y-150113000D01*
X180467000Y-150113000D02*
X180467000Y-151113000D01*
X177927000Y-150113000D02*
X178177000Y-149683000D01*
X178177000Y-149683000D02*
X180217000Y-149683000D01*
X180217000Y-149683000D02*
X180467000Y-150113000D01*
X178177000Y-151113000D02*
X178177000Y-150113000D01*
X180217000Y-151113000D02*
X180217000Y-150113000D01*
X177127000Y-145113000D02*
X177127000Y-145733000D01*
X177127000Y-145733000D02*
X178727000Y-145733000D01*
X178727000Y-145733000D02*
X178727000Y-145113000D01*
X179667000Y-145113000D02*
X179667000Y-145733000D01*
X179667000Y-145733000D02*
X181267000Y-145733000D01*
X181267000Y-145733000D02*
X181267000Y-145113000D01*
X153621000Y-145011000D02*
X153621000Y-151011000D01*
X153621000Y-151011000D02*
X158901000Y-151011000D01*
X158901000Y-151011000D02*
X158901000Y-145011000D01*
X158901000Y-145011000D02*
X153621000Y-145011000D01*
X154991000Y-151011000D02*
X154991000Y-150011000D01*
X154991000Y-150011000D02*
X157531000Y-150011000D01*
X157531000Y-150011000D02*
X157531000Y-151011000D01*
X154991000Y-150011000D02*
X155241000Y-149581000D01*
X155241000Y-149581000D02*
X157281000Y-149581000D01*
X157281000Y-149581000D02*
X157531000Y-150011000D01*
X155241000Y-151011000D02*
X155241000Y-150011000D01*
X157281000Y-151011000D02*
X157281000Y-150011000D01*
X154191000Y-145011000D02*
X154191000Y-145631000D01*
X154191000Y-145631000D02*
X155791000Y-145631000D01*
X155791000Y-145631000D02*
X155791000Y-145011000D01*
X156731000Y-145011000D02*
X156731000Y-145631000D01*
X156731000Y-145631000D02*
X158331000Y-145631000D01*
X158331000Y-145631000D02*
X158331000Y-145011000D01*
X253365000Y-93268800D02*
G75*
G03X253365000Y-93268800I-2286000J0D01*
G01*
X253644000Y-132156000D02*
G75*
G03X253644000Y-132156000I-2286000J0D01*
G01*
X161012000Y-145189000D02*
X161012000Y-151189000D01*
X161012000Y-151189000D02*
X166292000Y-151189000D01*
X166292000Y-151189000D02*
X166292000Y-145189000D01*
X166292000Y-145189000D02*
X161012000Y-145189000D01*
X162382000Y-151189000D02*
X162382000Y-150189000D01*
X162382000Y-150189000D02*
X164922000Y-150189000D01*
X164922000Y-150189000D02*
X164922000Y-151189000D01*
X162382000Y-150189000D02*
X162632000Y-149759000D01*
X162632000Y-149759000D02*
X164672000Y-149759000D01*
X164672000Y-149759000D02*
X164922000Y-150189000D01*
X162632000Y-151189000D02*
X162632000Y-150189000D01*
X164672000Y-151189000D02*
X164672000Y-150189000D01*
X161582000Y-145189000D02*
X161582000Y-145809000D01*
X161582000Y-145809000D02*
X163182000Y-145809000D01*
X163182000Y-145809000D02*
X163182000Y-145189000D01*
X164122000Y-145189000D02*
X164122000Y-145809000D01*
X164122000Y-145809000D02*
X165722000Y-145809000D01*
X165722000Y-145809000D02*
X165722000Y-145189000D01*
X97409000Y-74193400D02*
X97409000Y-79781400D01*
X97409000Y-79781400D02*
X113665000Y-79781400D01*
X113665000Y-79781400D02*
X113665000Y-74193400D01*
X113665000Y-74193400D02*
X97409000Y-74193400D01*
X153797000Y-76682600D02*
X153797000Y-71094600D01*
X153797000Y-71094600D02*
X137541000Y-71094600D01*
X137541000Y-71094600D02*
X137541000Y-76682600D01*
X137541000Y-76682600D02*
X153797000Y-76682600D01*
X103226000Y-112015240D02*
X103226000Y-114047240D01*
X103226000Y-88647240D02*
X103226000Y-87123240D01*
X98146000Y-111761240D02*
X98146000Y-88901240D01*
X98146000Y-88901240D02*
X108306000Y-88901240D01*
X108306000Y-88901240D02*
X108306000Y-111761240D01*
X108306000Y-111761240D02*
X98146000Y-111761240D01*
X125857000Y-79146400D02*
X120777000Y-79146400D01*
X120777000Y-79146400D02*
X120777000Y-76606400D01*
X120777000Y-76606400D02*
X125857000Y-76606400D01*
X125857000Y-76606400D02*
X125857000Y-79146400D01*
X148463000Y-80645000D02*
X143383000Y-80645000D01*
X143383000Y-80645000D02*
X143383000Y-78105000D01*
X143383000Y-78105000D02*
X148463000Y-78105000D01*
X148463000Y-78105000D02*
X148463000Y-80645000D01*
X192075000Y-134518000D02*
X192075000Y-139598000D01*
X192075000Y-139598000D02*
X189535000Y-139598000D01*
X189535000Y-139598000D02*
X189535000Y-134518000D01*
X189535000Y-134518000D02*
X192075000Y-134518000D01*
X186030000Y-134417000D02*
X186030000Y-139497000D01*
X186030000Y-139497000D02*
X183490000Y-139497000D01*
X183490000Y-139497000D02*
X183490000Y-134417000D01*
X183490000Y-134417000D02*
X186030000Y-134417000D01*
X184302000Y-97790000D02*
X189382000Y-97790000D01*
X189382000Y-97790000D02*
X189382000Y-100330000D01*
X189382000Y-100330000D02*
X184302000Y-100330000D01*
X184302000Y-100330000D02*
X184302000Y-97790000D01*
X189967000Y-96469200D02*
X184887000Y-96469200D01*
X184887000Y-96469200D02*
X184887000Y-93929200D01*
X184887000Y-93929200D02*
X189967000Y-93929200D01*
X189967000Y-93929200D02*
X189967000Y-96469200D01*
X203403000Y-115062000D02*
X203403000Y-109982000D01*
X203403000Y-109982000D02*
X205943000Y-109982000D01*
X205943000Y-109982000D02*
X205943000Y-115062000D01*
X205943000Y-115062000D02*
X203403000Y-115062000D01*
X190830000Y-123063000D02*
X195910000Y-123063000D01*
X195910000Y-123063000D02*
X195910000Y-125603000D01*
X195910000Y-125603000D02*
X190830000Y-125603000D01*
X190830000Y-125603000D02*
X190830000Y-123063000D01*
X224663000Y-147701000D02*
X229743000Y-147701000D01*
X229743000Y-147701000D02*
X229743000Y-150241000D01*
X229743000Y-150241000D02*
X224663000Y-150241000D01*
X224663000Y-150241000D02*
X224663000Y-147701000D01*
X202184000Y-109855000D02*
X202184000Y-114935000D01*
X202184000Y-114935000D02*
X199644000Y-114935000D01*
X199644000Y-114935000D02*
X199644000Y-109855000D01*
X199644000Y-109855000D02*
X202184000Y-109855000D01*
X217856000Y-127432000D02*
X212776000Y-127432000D01*
X212776000Y-127432000D02*
X212776000Y-124892000D01*
X212776000Y-124892000D02*
X217856000Y-124892000D01*
X217856000Y-124892000D02*
X217856000Y-127432000D01*
X191135000Y-126898000D02*
X196215000Y-126898000D01*
X196215000Y-126898000D02*
X196215000Y-129438000D01*
X196215000Y-129438000D02*
X191135000Y-129438000D01*
X191135000Y-129438000D02*
X191135000Y-126898000D01*
X159817000Y-120777000D02*
X159817000Y-125857000D01*
X159817000Y-125857000D02*
X157277000Y-125857000D01*
X157277000Y-125857000D02*
X157277000Y-120777000D01*
X157277000Y-120777000D02*
X159817000Y-120777000D01*
X234696000Y-139954000D02*
X246126000Y-139954000D01*
X246126000Y-139954000D02*
X248666000Y-142494000D01*
X248666000Y-142494000D02*
X248666000Y-145034000D01*
X248666000Y-145034000D02*
X246126000Y-147574000D01*
X246126000Y-147574000D02*
X234696000Y-147574000D01*
X234696000Y-147574000D02*
X234696000Y-139954000D01*
X243078000Y-139954000D02*
X244221000Y-139954000D01*
X243967000Y-147574000D02*
X243078000Y-147574000D01*
X239776000Y-143256000D02*
X247269000Y-143256000D01*
X239776000Y-144272000D02*
X247269000Y-144272000D01*
X247448554Y-143764000D02*
G75*
G03X247448554Y-143764000I-3862554J0D01*
G01*
X221513000Y-128270000D02*
X238023000Y-128143000D01*
X238023000Y-128143000D02*
X238023000Y-93091000D01*
X238023000Y-93091000D02*
X221640000Y-93091000D01*
X221640000Y-93091000D02*
X221513000Y-128270000D01*
X137406000Y-139074000D02*
X137406000Y-137804000D01*
X130056000Y-139074000D02*
X130056000Y-137804000D01*
X130056000Y-119244000D02*
X130056000Y-120514000D01*
X137406000Y-119244000D02*
X137406000Y-120514000D01*
X137406000Y-139074000D02*
X130056000Y-139074000D01*
X137406000Y-119244000D02*
X130056000Y-119244000D01*
X137406000Y-137804000D02*
X138341000Y-137804000D01*
X138701000Y-115147000D02*
X138701000Y-113877000D01*
X131351000Y-115147000D02*
X131351000Y-113877000D01*
X131351000Y-95317000D02*
X131351000Y-96587000D01*
X138701000Y-95317000D02*
X138701000Y-96587000D01*
X138701000Y-115147000D02*
X131351000Y-115147000D01*
X138701000Y-95317000D02*
X131351000Y-95317000D01*
X138701000Y-113877000D02*
X139636000Y-113877000D01*
X178732000Y-136712000D02*
X178732000Y-135442000D01*
X163762000Y-136712000D02*
X163762000Y-135442000D01*
X163762000Y-94022000D02*
X163762000Y-95292000D01*
X178732000Y-94022000D02*
X178732000Y-95292000D01*
X178732000Y-136712000D02*
X163762000Y-136712000D01*
X178732000Y-94022000D02*
X163762000Y-94022000D01*
X178732000Y-135442000D02*
X179667000Y-135442000D01*
X201676000Y-135128000D02*
X213106000Y-135128000D01*
X213106000Y-135128000D02*
X215646000Y-137668000D01*
X215646000Y-137668000D02*
X215646000Y-140208000D01*
X215646000Y-140208000D02*
X213106000Y-142748000D01*
X213106000Y-142748000D02*
X201676000Y-142748000D01*
X201676000Y-142748000D02*
X201676000Y-135128000D01*
X210058000Y-135128000D02*
X211201000Y-135128000D01*
X210947000Y-142748000D02*
X210058000Y-142748000D01*
X206756000Y-138430000D02*
X214249000Y-138430000D01*
X206756000Y-139446000D02*
X214249000Y-139446000D01*
X214428554Y-138938000D02*
G75*
G03X214428554Y-138938000I-3862554J0D01*
G01*
X195488760Y-116637000D02*
X195087440Y-116837660D01*
X195087440Y-116837660D02*
X194488000Y-116939260D01*
X194488000Y-116939260D02*
X193987620Y-116837660D01*
X193987620Y-116837660D02*
X193289120Y-116438880D01*
X193289120Y-116438880D02*
X192887800Y-115836900D01*
X192887800Y-115836900D02*
X192687140Y-115237460D01*
X192687140Y-115237460D02*
X192687140Y-108638540D01*
X192687140Y-108638540D02*
X192887800Y-107937500D01*
X192887800Y-107937500D02*
X193187520Y-107538720D01*
X193187520Y-107538720D02*
X193687900Y-107137400D01*
X193687900Y-107137400D02*
X194287340Y-106936740D01*
X194287340Y-106936740D02*
X194787720Y-106936740D01*
X194787720Y-106936740D02*
X195288100Y-107137400D01*
X195288100Y-107137400D02*
X195887540Y-107637780D01*
X195887540Y-107637780D02*
X196187260Y-108138160D01*
X196187260Y-108138160D02*
X196288860Y-108638540D01*
X196288860Y-108737600D02*
X196288860Y-115339060D01*
X196288860Y-115339060D02*
X196187260Y-115737840D01*
X196187260Y-115737840D02*
X195887540Y-116238220D01*
X195887540Y-116238220D02*
X195387160Y-116738600D01*
X196817180Y-108747760D02*
X196768920Y-108288020D01*
X196768920Y-108288020D02*
X196657160Y-107889240D01*
X196657160Y-107889240D02*
X196438720Y-107457440D01*
X196438720Y-107457440D02*
X196207580Y-107167880D01*
X196207580Y-107167880D02*
X195857060Y-106837680D01*
X195857060Y-106837680D02*
X195318580Y-106548120D01*
X195318580Y-106548120D02*
X194719140Y-106418580D01*
X194719140Y-106418580D02*
X194208600Y-106418580D01*
X194208600Y-106418580D02*
X193507560Y-106588760D01*
X193507560Y-106588760D02*
X192918280Y-106987540D01*
X192918280Y-106987540D02*
X192547440Y-107447280D01*
X192547440Y-107447280D02*
X192339160Y-107868920D01*
X192339160Y-107868920D02*
X192179140Y-108318500D01*
X192179140Y-108318500D02*
X192148660Y-108757920D01*
X192367100Y-116098520D02*
X192588080Y-116476980D01*
X192588080Y-116476980D02*
X192867480Y-116797020D01*
X192867480Y-116797020D02*
X193197680Y-117048480D01*
X193197680Y-117048480D02*
X193748860Y-117348200D01*
X193748860Y-117348200D02*
X194218760Y-117457420D01*
X194218760Y-117457420D02*
X194678500Y-117477740D01*
X194678500Y-117477740D02*
X195138240Y-117388840D01*
X195138240Y-117388840D02*
X195587820Y-117198340D01*
X195587820Y-117198340D02*
X196057720Y-116837660D01*
X196057720Y-116837660D02*
X196377760Y-116487140D01*
X196377760Y-116487140D02*
X196608900Y-116098520D01*
X196608900Y-116098520D02*
X196748600Y-115669260D01*
X196748600Y-115669260D02*
X196817180Y-115227300D01*
X192158820Y-108737600D02*
X192158820Y-115189200D01*
X192158820Y-115189200D02*
X192196920Y-115608300D01*
X192196920Y-115608300D02*
X192367100Y-116098520D01*
X196817180Y-108737600D02*
X196817180Y-115189200D01*
X256452000Y-99989000D02*
X256452000Y-126989000D01*
X256452000Y-126989000D02*
X245452000Y-126989000D01*
X245452000Y-126989000D02*
X245452000Y-99989000D01*
X245452000Y-99989000D02*
X256452000Y-99989000D01*
X117288334Y-87946343D02*
X117240715Y-87993962D01*
X117097858Y-88041581D01*
X117002620Y-88041581D01*
X116859762Y-87993962D01*
X116764524Y-87898724D01*
X116716905Y-87803486D01*
X116669286Y-87613010D01*
X116669286Y-87470152D01*
X116716905Y-87279676D01*
X116764524Y-87184438D01*
X116859762Y-87089200D01*
X117002620Y-87041581D01*
X117097858Y-87041581D01*
X117240715Y-87089200D01*
X117288334Y-87136819D01*
X118240715Y-88041581D02*
X117669286Y-88041581D01*
X117955000Y-88041581D02*
X117955000Y-87041581D01*
X117859762Y-87184438D01*
X117764524Y-87279676D01*
X117669286Y-87327295D01*
X116526429Y-95641581D02*
X115955000Y-95641581D01*
X116240714Y-95641581D02*
X116240714Y-94641581D01*
X116145476Y-94784438D01*
X116050238Y-94879676D01*
X115955000Y-94927295D01*
X117145476Y-94641581D02*
X117240715Y-94641581D01*
X117335953Y-94689200D01*
X117383572Y-94736819D01*
X117431191Y-94832057D01*
X117478810Y-95022533D01*
X117478810Y-95260629D01*
X117431191Y-95451105D01*
X117383572Y-95546343D01*
X117335953Y-95593962D01*
X117240715Y-95641581D01*
X117145476Y-95641581D01*
X117050238Y-95593962D01*
X117002619Y-95546343D01*
X116955000Y-95451105D01*
X116907381Y-95260629D01*
X116907381Y-95022533D01*
X116955000Y-94832057D01*
X117002619Y-94736819D01*
X117050238Y-94689200D01*
X117145476Y-94641581D01*
X118335953Y-94974914D02*
X118335953Y-95641581D01*
X117907381Y-94974914D02*
X117907381Y-95498724D01*
X117955000Y-95593962D01*
X118050238Y-95641581D01*
X118193096Y-95641581D01*
X118288334Y-95593962D01*
X118335953Y-95546343D01*
X118669286Y-94974914D02*
X119050238Y-94974914D01*
X118812143Y-95641581D02*
X118812143Y-94784438D01*
X118859762Y-94689200D01*
X118955000Y-94641581D01*
X119050238Y-94641581D01*
X124675143Y-91118666D02*
X124722762Y-91166285D01*
X124770381Y-91309142D01*
X124770381Y-91404380D01*
X124722762Y-91547238D01*
X124627524Y-91642476D01*
X124532286Y-91690095D01*
X124341810Y-91737714D01*
X124198952Y-91737714D01*
X124008476Y-91690095D01*
X123913238Y-91642476D01*
X123818000Y-91547238D01*
X123770381Y-91404380D01*
X123770381Y-91309142D01*
X123818000Y-91166285D01*
X123865619Y-91118666D01*
X123865619Y-90737714D02*
X123818000Y-90690095D01*
X123770381Y-90594857D01*
X123770381Y-90356761D01*
X123818000Y-90261523D01*
X123865619Y-90213904D01*
X123960857Y-90166285D01*
X124056095Y-90166285D01*
X124198952Y-90213904D01*
X124770381Y-90785333D01*
X124770381Y-90166285D01*
X132370381Y-91880571D02*
X132370381Y-92452000D01*
X132370381Y-92166286D02*
X131370381Y-92166286D01*
X131513238Y-92261524D01*
X131608476Y-92356762D01*
X131656095Y-92452000D01*
X131370381Y-91261524D02*
X131370381Y-91166285D01*
X131418000Y-91071047D01*
X131465619Y-91023428D01*
X131560857Y-90975809D01*
X131751333Y-90928190D01*
X131989429Y-90928190D01*
X132179905Y-90975809D01*
X132275143Y-91023428D01*
X132322762Y-91071047D01*
X132370381Y-91166285D01*
X132370381Y-91261524D01*
X132322762Y-91356762D01*
X132275143Y-91404381D01*
X132179905Y-91452000D01*
X131989429Y-91499619D01*
X131751333Y-91499619D01*
X131560857Y-91452000D01*
X131465619Y-91404381D01*
X131418000Y-91356762D01*
X131370381Y-91261524D01*
X131703714Y-90071047D02*
X132370381Y-90071047D01*
X131703714Y-90499619D02*
X132227524Y-90499619D01*
X132322762Y-90452000D01*
X132370381Y-90356762D01*
X132370381Y-90213904D01*
X132322762Y-90118666D01*
X132275143Y-90071047D01*
X131703714Y-89737714D02*
X131703714Y-89356762D01*
X132370381Y-89594857D02*
X131513238Y-89594857D01*
X131418000Y-89547238D01*
X131370381Y-89452000D01*
X131370381Y-89356762D01*
X150460143Y-107216666D02*
X150507762Y-107264285D01*
X150555381Y-107407142D01*
X150555381Y-107502380D01*
X150507762Y-107645238D01*
X150412524Y-107740476D01*
X150317286Y-107788095D01*
X150126810Y-107835714D01*
X149983952Y-107835714D01*
X149793476Y-107788095D01*
X149698238Y-107740476D01*
X149603000Y-107645238D01*
X149555381Y-107502380D01*
X149555381Y-107407142D01*
X149603000Y-107264285D01*
X149650619Y-107216666D01*
X149555381Y-106883333D02*
X149555381Y-106264285D01*
X149936333Y-106597619D01*
X149936333Y-106454761D01*
X149983952Y-106359523D01*
X150031571Y-106311904D01*
X150126810Y-106264285D01*
X150364905Y-106264285D01*
X150460143Y-106311904D01*
X150507762Y-106359523D01*
X150555381Y-106454761D01*
X150555381Y-106740476D01*
X150507762Y-106835714D01*
X150460143Y-106883333D01*
X153207981Y-108078447D02*
X153207981Y-108649876D01*
X153207981Y-108364162D02*
X152207981Y-108364162D01*
X152350838Y-108459400D01*
X152446076Y-108554638D01*
X152493695Y-108649876D01*
X152207981Y-107459400D02*
X152207981Y-107364161D01*
X152255600Y-107268923D01*
X152303219Y-107221304D01*
X152398457Y-107173685D01*
X152588933Y-107126066D01*
X152827029Y-107126066D01*
X153017505Y-107173685D01*
X153112743Y-107221304D01*
X153160362Y-107268923D01*
X153207981Y-107364161D01*
X153207981Y-107459400D01*
X153160362Y-107554638D01*
X153112743Y-107602257D01*
X153017505Y-107649876D01*
X152827029Y-107697495D01*
X152588933Y-107697495D01*
X152398457Y-107649876D01*
X152303219Y-107602257D01*
X152255600Y-107554638D01*
X152207981Y-107459400D01*
X152207981Y-106507019D02*
X152207981Y-106411780D01*
X152255600Y-106316542D01*
X152303219Y-106268923D01*
X152398457Y-106221304D01*
X152588933Y-106173685D01*
X152827029Y-106173685D01*
X153017505Y-106221304D01*
X153112743Y-106268923D01*
X153160362Y-106316542D01*
X153207981Y-106411780D01*
X153207981Y-106507019D01*
X153160362Y-106602257D01*
X153112743Y-106649876D01*
X153017505Y-106697495D01*
X152827029Y-106745114D01*
X152588933Y-106745114D01*
X152398457Y-106697495D01*
X152303219Y-106649876D01*
X152255600Y-106602257D01*
X152207981Y-106507019D01*
X152541314Y-105745114D02*
X153207981Y-105745114D01*
X152636552Y-105745114D02*
X152588933Y-105697495D01*
X152541314Y-105602257D01*
X152541314Y-105459399D01*
X152588933Y-105364161D01*
X152684171Y-105316542D01*
X153207981Y-105316542D01*
X151146334Y-129755143D02*
X151098715Y-129802762D01*
X150955858Y-129850381D01*
X150860620Y-129850381D01*
X150717762Y-129802762D01*
X150622524Y-129707524D01*
X150574905Y-129612286D01*
X150527286Y-129421810D01*
X150527286Y-129278952D01*
X150574905Y-129088476D01*
X150622524Y-128993238D01*
X150717762Y-128898000D01*
X150860620Y-128850381D01*
X150955858Y-128850381D01*
X151098715Y-128898000D01*
X151146334Y-128945619D01*
X152003477Y-129183714D02*
X152003477Y-129850381D01*
X151765381Y-128802762D02*
X151527286Y-129517048D01*
X152146334Y-129517048D01*
X154821096Y-132500714D02*
X154821096Y-133167381D01*
X154583000Y-132119762D02*
X154344905Y-132834048D01*
X154963953Y-132834048D01*
X155344905Y-133072143D02*
X155392524Y-133119762D01*
X155344905Y-133167381D01*
X155297286Y-133119762D01*
X155344905Y-133072143D01*
X155344905Y-133167381D01*
X155725857Y-132167381D02*
X156392524Y-132167381D01*
X155963952Y-133167381D01*
X157202048Y-132500714D02*
X157202048Y-133167381D01*
X156773476Y-132500714D02*
X156773476Y-133024524D01*
X156821095Y-133119762D01*
X156916333Y-133167381D01*
X157059191Y-133167381D01*
X157154429Y-133119762D01*
X157202048Y-133072143D01*
X157535381Y-132500714D02*
X157916333Y-132500714D01*
X157678238Y-133167381D02*
X157678238Y-132310238D01*
X157725857Y-132215000D01*
X157821095Y-132167381D01*
X157916333Y-132167381D01*
X143354334Y-132325143D02*
X143306715Y-132372762D01*
X143163858Y-132420381D01*
X143068620Y-132420381D01*
X142925762Y-132372762D01*
X142830524Y-132277524D01*
X142782905Y-132182286D01*
X142735286Y-131991810D01*
X142735286Y-131848952D01*
X142782905Y-131658476D01*
X142830524Y-131563238D01*
X142925762Y-131468000D01*
X143068620Y-131420381D01*
X143163858Y-131420381D01*
X143306715Y-131468000D01*
X143354334Y-131515619D01*
X144259096Y-131420381D02*
X143782905Y-131420381D01*
X143735286Y-131896571D01*
X143782905Y-131848952D01*
X143878143Y-131801333D01*
X144116239Y-131801333D01*
X144211477Y-131848952D01*
X144259096Y-131896571D01*
X144306715Y-131991810D01*
X144306715Y-132229905D01*
X144259096Y-132325143D01*
X144211477Y-132372762D01*
X144116239Y-132420381D01*
X143878143Y-132420381D01*
X143782905Y-132372762D01*
X143735286Y-132325143D01*
X142401953Y-137420381D02*
X141830524Y-137420381D01*
X142116238Y-137420381D02*
X142116238Y-136420381D01*
X142021000Y-136563238D01*
X141925762Y-136658476D01*
X141830524Y-136706095D01*
X143021000Y-136420381D02*
X143116239Y-136420381D01*
X143211477Y-136468000D01*
X143259096Y-136515619D01*
X143306715Y-136610857D01*
X143354334Y-136801333D01*
X143354334Y-137039429D01*
X143306715Y-137229905D01*
X143259096Y-137325143D01*
X143211477Y-137372762D01*
X143116239Y-137420381D01*
X143021000Y-137420381D01*
X142925762Y-137372762D01*
X142878143Y-137325143D01*
X142830524Y-137229905D01*
X142782905Y-137039429D01*
X142782905Y-136801333D01*
X142830524Y-136610857D01*
X142878143Y-136515619D01*
X142925762Y-136468000D01*
X143021000Y-136420381D01*
X143973381Y-136420381D02*
X144068620Y-136420381D01*
X144163858Y-136468000D01*
X144211477Y-136515619D01*
X144259096Y-136610857D01*
X144306715Y-136801333D01*
X144306715Y-137039429D01*
X144259096Y-137229905D01*
X144211477Y-137325143D01*
X144163858Y-137372762D01*
X144068620Y-137420381D01*
X143973381Y-137420381D01*
X143878143Y-137372762D01*
X143830524Y-137325143D01*
X143782905Y-137229905D01*
X143735286Y-137039429D01*
X143735286Y-136801333D01*
X143782905Y-136610857D01*
X143830524Y-136515619D01*
X143878143Y-136468000D01*
X143973381Y-136420381D01*
X144735286Y-136753714D02*
X144735286Y-137420381D01*
X144735286Y-136848952D02*
X144782905Y-136801333D01*
X144878143Y-136753714D01*
X145021001Y-136753714D01*
X145116239Y-136801333D01*
X145163858Y-136896571D01*
X145163858Y-137420381D01*
X147692143Y-125800666D02*
X147739762Y-125848285D01*
X147787381Y-125991142D01*
X147787381Y-126086380D01*
X147739762Y-126229238D01*
X147644524Y-126324476D01*
X147549286Y-126372095D01*
X147358810Y-126419714D01*
X147215952Y-126419714D01*
X147025476Y-126372095D01*
X146930238Y-126324476D01*
X146835000Y-126229238D01*
X146787381Y-126086380D01*
X146787381Y-125991142D01*
X146835000Y-125848285D01*
X146882619Y-125800666D01*
X146787381Y-124943523D02*
X146787381Y-125134000D01*
X146835000Y-125229238D01*
X146882619Y-125276857D01*
X147025476Y-125372095D01*
X147215952Y-125419714D01*
X147596905Y-125419714D01*
X147692143Y-125372095D01*
X147739762Y-125324476D01*
X147787381Y-125229238D01*
X147787381Y-125038761D01*
X147739762Y-124943523D01*
X147692143Y-124895904D01*
X147596905Y-124848285D01*
X147358810Y-124848285D01*
X147263571Y-124895904D01*
X147215952Y-124943523D01*
X147168333Y-125038761D01*
X147168333Y-125229238D01*
X147215952Y-125324476D01*
X147263571Y-125372095D01*
X147358810Y-125419714D01*
X144343381Y-122102428D02*
X144343381Y-122673857D01*
X144343381Y-122388143D02*
X143343381Y-122388143D01*
X143486238Y-122483381D01*
X143581476Y-122578619D01*
X143629095Y-122673857D01*
X143343381Y-121483381D02*
X143343381Y-121388142D01*
X143391000Y-121292904D01*
X143438619Y-121245285D01*
X143533857Y-121197666D01*
X143724333Y-121150047D01*
X143962429Y-121150047D01*
X144152905Y-121197666D01*
X144248143Y-121245285D01*
X144295762Y-121292904D01*
X144343381Y-121388142D01*
X144343381Y-121483381D01*
X144295762Y-121578619D01*
X144248143Y-121626238D01*
X144152905Y-121673857D01*
X143962429Y-121721476D01*
X143724333Y-121721476D01*
X143533857Y-121673857D01*
X143438619Y-121626238D01*
X143391000Y-121578619D01*
X143343381Y-121483381D01*
X143676714Y-120292904D02*
X144343381Y-120292904D01*
X143676714Y-120721476D02*
X144200524Y-120721476D01*
X144295762Y-120673857D01*
X144343381Y-120578619D01*
X144343381Y-120435761D01*
X144295762Y-120340523D01*
X144248143Y-120292904D01*
X143819571Y-119483380D02*
X143819571Y-119816714D01*
X144343381Y-119816714D02*
X143343381Y-119816714D01*
X143343381Y-119340523D01*
X149648143Y-106242666D02*
X149695762Y-106290285D01*
X149743381Y-106433142D01*
X149743381Y-106528380D01*
X149695762Y-106671238D01*
X149600524Y-106766476D01*
X149505286Y-106814095D01*
X149314810Y-106861714D01*
X149171952Y-106861714D01*
X148981476Y-106814095D01*
X148886238Y-106766476D01*
X148791000Y-106671238D01*
X148743381Y-106528380D01*
X148743381Y-106433142D01*
X148791000Y-106290285D01*
X148838619Y-106242666D01*
X148743381Y-105909333D02*
X148743381Y-105242666D01*
X149743381Y-105671238D01*
X142143381Y-107147428D02*
X142143381Y-107718857D01*
X142143381Y-107433143D02*
X141143381Y-107433143D01*
X141286238Y-107528381D01*
X141381476Y-107623619D01*
X141429095Y-107718857D01*
X141143381Y-106528381D02*
X141143381Y-106433142D01*
X141191000Y-106337904D01*
X141238619Y-106290285D01*
X141333857Y-106242666D01*
X141524333Y-106195047D01*
X141762429Y-106195047D01*
X141952905Y-106242666D01*
X142048143Y-106290285D01*
X142095762Y-106337904D01*
X142143381Y-106433142D01*
X142143381Y-106528381D01*
X142095762Y-106623619D01*
X142048143Y-106671238D01*
X141952905Y-106718857D01*
X141762429Y-106766476D01*
X141524333Y-106766476D01*
X141333857Y-106718857D01*
X141238619Y-106671238D01*
X141191000Y-106623619D01*
X141143381Y-106528381D01*
X141476714Y-105337904D02*
X142143381Y-105337904D01*
X141476714Y-105766476D02*
X142000524Y-105766476D01*
X142095762Y-105718857D01*
X142143381Y-105623619D01*
X142143381Y-105480761D01*
X142095762Y-105385523D01*
X142048143Y-105337904D01*
X141619571Y-104528380D02*
X141619571Y-104861714D01*
X142143381Y-104861714D02*
X141143381Y-104861714D01*
X141143381Y-104385523D01*
X171853334Y-136465143D02*
X171805715Y-136512762D01*
X171662858Y-136560381D01*
X171567620Y-136560381D01*
X171424762Y-136512762D01*
X171329524Y-136417524D01*
X171281905Y-136322286D01*
X171234286Y-136131810D01*
X171234286Y-135988952D01*
X171281905Y-135798476D01*
X171329524Y-135703238D01*
X171424762Y-135608000D01*
X171567620Y-135560381D01*
X171662858Y-135560381D01*
X171805715Y-135608000D01*
X171853334Y-135655619D01*
X172424762Y-135988952D02*
X172329524Y-135941333D01*
X172281905Y-135893714D01*
X172234286Y-135798476D01*
X172234286Y-135750857D01*
X172281905Y-135655619D01*
X172329524Y-135608000D01*
X172424762Y-135560381D01*
X172615239Y-135560381D01*
X172710477Y-135608000D01*
X172758096Y-135655619D01*
X172805715Y-135750857D01*
X172805715Y-135798476D01*
X172758096Y-135893714D01*
X172710477Y-135941333D01*
X172615239Y-135988952D01*
X172424762Y-135988952D01*
X172329524Y-136036571D01*
X172281905Y-136084190D01*
X172234286Y-136179429D01*
X172234286Y-136369905D01*
X172281905Y-136465143D01*
X172329524Y-136512762D01*
X172424762Y-136560381D01*
X172615239Y-136560381D01*
X172710477Y-136512762D01*
X172758096Y-136465143D01*
X172805715Y-136369905D01*
X172805715Y-136179429D01*
X172758096Y-136084190D01*
X172710477Y-136036571D01*
X172615239Y-135988952D01*
X170615238Y-141560381D02*
X170043809Y-141560381D01*
X170329523Y-141560381D02*
X170329523Y-140560381D01*
X170234285Y-140703238D01*
X170139047Y-140798476D01*
X170043809Y-140846095D01*
X171234285Y-140560381D02*
X171329524Y-140560381D01*
X171424762Y-140608000D01*
X171472381Y-140655619D01*
X171520000Y-140750857D01*
X171567619Y-140941333D01*
X171567619Y-141179429D01*
X171520000Y-141369905D01*
X171472381Y-141465143D01*
X171424762Y-141512762D01*
X171329524Y-141560381D01*
X171234285Y-141560381D01*
X171139047Y-141512762D01*
X171091428Y-141465143D01*
X171043809Y-141369905D01*
X170996190Y-141179429D01*
X170996190Y-140941333D01*
X171043809Y-140750857D01*
X171091428Y-140655619D01*
X171139047Y-140608000D01*
X171234285Y-140560381D01*
X172186666Y-140560381D02*
X172281905Y-140560381D01*
X172377143Y-140608000D01*
X172424762Y-140655619D01*
X172472381Y-140750857D01*
X172520000Y-140941333D01*
X172520000Y-141179429D01*
X172472381Y-141369905D01*
X172424762Y-141465143D01*
X172377143Y-141512762D01*
X172281905Y-141560381D01*
X172186666Y-141560381D01*
X172091428Y-141512762D01*
X172043809Y-141465143D01*
X171996190Y-141369905D01*
X171948571Y-141179429D01*
X171948571Y-140941333D01*
X171996190Y-140750857D01*
X172043809Y-140655619D01*
X172091428Y-140608000D01*
X172186666Y-140560381D01*
X172948571Y-140893714D02*
X172948571Y-141560381D01*
X172948571Y-140988952D02*
X172996190Y-140941333D01*
X173091428Y-140893714D01*
X173234286Y-140893714D01*
X173329524Y-140941333D01*
X173377143Y-141036571D01*
X173377143Y-141560381D01*
X173710476Y-140893714D02*
X174091428Y-140893714D01*
X173853333Y-141560381D02*
X173853333Y-140703238D01*
X173900952Y-140608000D01*
X173996190Y-140560381D01*
X174091428Y-140560381D01*
X132519143Y-83560266D02*
X132566762Y-83607885D01*
X132614381Y-83750742D01*
X132614381Y-83845980D01*
X132566762Y-83988838D01*
X132471524Y-84084076D01*
X132376286Y-84131695D01*
X132185810Y-84179314D01*
X132042952Y-84179314D01*
X131852476Y-84131695D01*
X131757238Y-84084076D01*
X131662000Y-83988838D01*
X131614381Y-83845980D01*
X131614381Y-83750742D01*
X131662000Y-83607885D01*
X131709619Y-83560266D01*
X132614381Y-83084076D02*
X132614381Y-82893600D01*
X132566762Y-82798361D01*
X132519143Y-82750742D01*
X132376286Y-82655504D01*
X132185810Y-82607885D01*
X131804857Y-82607885D01*
X131709619Y-82655504D01*
X131662000Y-82703123D01*
X131614381Y-82798361D01*
X131614381Y-82988838D01*
X131662000Y-83084076D01*
X131709619Y-83131695D01*
X131804857Y-83179314D01*
X132042952Y-83179314D01*
X132138190Y-83131695D01*
X132185810Y-83084076D01*
X132233429Y-82988838D01*
X132233429Y-82798361D01*
X132185810Y-82703123D01*
X132138190Y-82655504D01*
X132042952Y-82607885D01*
X123814381Y-84798362D02*
X123814381Y-85369791D01*
X123814381Y-85084077D02*
X122814381Y-85084077D01*
X122957238Y-85179315D01*
X123052476Y-85274553D01*
X123100095Y-85369791D01*
X122814381Y-84179315D02*
X122814381Y-84084076D01*
X122862000Y-83988838D01*
X122909619Y-83941219D01*
X123004857Y-83893600D01*
X123195333Y-83845981D01*
X123433429Y-83845981D01*
X123623905Y-83893600D01*
X123719143Y-83941219D01*
X123766762Y-83988838D01*
X123814381Y-84084076D01*
X123814381Y-84179315D01*
X123766762Y-84274553D01*
X123719143Y-84322172D01*
X123623905Y-84369791D01*
X123433429Y-84417410D01*
X123195333Y-84417410D01*
X123004857Y-84369791D01*
X122909619Y-84322172D01*
X122862000Y-84274553D01*
X122814381Y-84179315D01*
X122814381Y-83226934D02*
X122814381Y-83131695D01*
X122862000Y-83036457D01*
X122909619Y-82988838D01*
X123004857Y-82941219D01*
X123195333Y-82893600D01*
X123433429Y-82893600D01*
X123623905Y-82941219D01*
X123719143Y-82988838D01*
X123766762Y-83036457D01*
X123814381Y-83131695D01*
X123814381Y-83226934D01*
X123766762Y-83322172D01*
X123719143Y-83369791D01*
X123623905Y-83417410D01*
X123433429Y-83465029D01*
X123195333Y-83465029D01*
X123004857Y-83417410D01*
X122909619Y-83369791D01*
X122862000Y-83322172D01*
X122814381Y-83226934D01*
X123147714Y-82036457D02*
X123814381Y-82036457D01*
X123147714Y-82465029D02*
X123671524Y-82465029D01*
X123766762Y-82417410D01*
X123814381Y-82322172D01*
X123814381Y-82179314D01*
X123766762Y-82084076D01*
X123719143Y-82036457D01*
X123147714Y-81703124D02*
X123147714Y-81322172D01*
X123814381Y-81560267D02*
X122957238Y-81560267D01*
X122862000Y-81512648D01*
X122814381Y-81417410D01*
X122814381Y-81322172D01*
X128134143Y-127089857D02*
X128181762Y-127137476D01*
X128229381Y-127280333D01*
X128229381Y-127375571D01*
X128181762Y-127518429D01*
X128086524Y-127613667D01*
X127991286Y-127661286D01*
X127800810Y-127708905D01*
X127657952Y-127708905D01*
X127467476Y-127661286D01*
X127372238Y-127613667D01*
X127277000Y-127518429D01*
X127229381Y-127375571D01*
X127229381Y-127280333D01*
X127277000Y-127137476D01*
X127324619Y-127089857D01*
X128229381Y-126137476D02*
X128229381Y-126708905D01*
X128229381Y-126423191D02*
X127229381Y-126423191D01*
X127372238Y-126518429D01*
X127467476Y-126613667D01*
X127515095Y-126708905D01*
X127229381Y-125518429D02*
X127229381Y-125423190D01*
X127277000Y-125327952D01*
X127324619Y-125280333D01*
X127419857Y-125232714D01*
X127610333Y-125185095D01*
X127848429Y-125185095D01*
X128038905Y-125232714D01*
X128134143Y-125280333D01*
X128181762Y-125327952D01*
X128229381Y-125423190D01*
X128229381Y-125518429D01*
X128181762Y-125613667D01*
X128134143Y-125661286D01*
X128038905Y-125708905D01*
X127848429Y-125756524D01*
X127610333Y-125756524D01*
X127419857Y-125708905D01*
X127324619Y-125661286D01*
X127277000Y-125613667D01*
X127229381Y-125518429D01*
X120629381Y-127375571D02*
X120629381Y-127947000D01*
X120629381Y-127661286D02*
X119629381Y-127661286D01*
X119772238Y-127756524D01*
X119867476Y-127851762D01*
X119915095Y-127947000D01*
X119629381Y-126756524D02*
X119629381Y-126661285D01*
X119677000Y-126566047D01*
X119724619Y-126518428D01*
X119819857Y-126470809D01*
X120010333Y-126423190D01*
X120248429Y-126423190D01*
X120438905Y-126470809D01*
X120534143Y-126518428D01*
X120581762Y-126566047D01*
X120629381Y-126661285D01*
X120629381Y-126756524D01*
X120581762Y-126851762D01*
X120534143Y-126899381D01*
X120438905Y-126947000D01*
X120248429Y-126994619D01*
X120010333Y-126994619D01*
X119819857Y-126947000D01*
X119724619Y-126899381D01*
X119677000Y-126851762D01*
X119629381Y-126756524D01*
X119962714Y-125566047D02*
X120629381Y-125566047D01*
X119962714Y-125994619D02*
X120486524Y-125994619D01*
X120581762Y-125947000D01*
X120629381Y-125851762D01*
X120629381Y-125708904D01*
X120581762Y-125613666D01*
X120534143Y-125566047D01*
X119962714Y-125232714D02*
X119962714Y-124851762D01*
X120629381Y-125089857D02*
X119772238Y-125089857D01*
X119677000Y-125042238D01*
X119629381Y-124947000D01*
X119629381Y-124851762D01*
X119905143Y-102959857D02*
X119952762Y-103007476D01*
X120000381Y-103150333D01*
X120000381Y-103245571D01*
X119952762Y-103388429D01*
X119857524Y-103483667D01*
X119762286Y-103531286D01*
X119571810Y-103578905D01*
X119428952Y-103578905D01*
X119238476Y-103531286D01*
X119143238Y-103483667D01*
X119048000Y-103388429D01*
X119000381Y-103245571D01*
X119000381Y-103150333D01*
X119048000Y-103007476D01*
X119095619Y-102959857D01*
X120000381Y-102007476D02*
X120000381Y-102578905D01*
X120000381Y-102293191D02*
X119000381Y-102293191D01*
X119143238Y-102388429D01*
X119238476Y-102483667D01*
X119286095Y-102578905D01*
X120000381Y-101055095D02*
X120000381Y-101626524D01*
X120000381Y-101340810D02*
X119000381Y-101340810D01*
X119143238Y-101436048D01*
X119238476Y-101531286D01*
X119286095Y-101626524D01*
X112400381Y-103245571D02*
X112400381Y-103817000D01*
X112400381Y-103531286D02*
X111400381Y-103531286D01*
X111543238Y-103626524D01*
X111638476Y-103721762D01*
X111686095Y-103817000D01*
X111400381Y-102626524D02*
X111400381Y-102531285D01*
X111448000Y-102436047D01*
X111495619Y-102388428D01*
X111590857Y-102340809D01*
X111781333Y-102293190D01*
X112019429Y-102293190D01*
X112209905Y-102340809D01*
X112305143Y-102388428D01*
X112352762Y-102436047D01*
X112400381Y-102531285D01*
X112400381Y-102626524D01*
X112352762Y-102721762D01*
X112305143Y-102769381D01*
X112209905Y-102817000D01*
X112019429Y-102864619D01*
X111781333Y-102864619D01*
X111590857Y-102817000D01*
X111495619Y-102769381D01*
X111448000Y-102721762D01*
X111400381Y-102626524D01*
X111733714Y-101436047D02*
X112400381Y-101436047D01*
X111733714Y-101864619D02*
X112257524Y-101864619D01*
X112352762Y-101817000D01*
X112400381Y-101721762D01*
X112400381Y-101578904D01*
X112352762Y-101483666D01*
X112305143Y-101436047D01*
X111733714Y-101102714D02*
X111733714Y-100721762D01*
X112400381Y-100959857D02*
X111543238Y-100959857D01*
X111448000Y-100912238D01*
X111400381Y-100817000D01*
X111400381Y-100721762D01*
X122609143Y-132452143D02*
X122561524Y-132499762D01*
X122418667Y-132547381D01*
X122323429Y-132547381D01*
X122180571Y-132499762D01*
X122085333Y-132404524D01*
X122037714Y-132309286D01*
X121990095Y-132118810D01*
X121990095Y-131975952D01*
X122037714Y-131785476D01*
X122085333Y-131690238D01*
X122180571Y-131595000D01*
X122323429Y-131547381D01*
X122418667Y-131547381D01*
X122561524Y-131595000D01*
X122609143Y-131642619D01*
X123561524Y-132547381D02*
X122990095Y-132547381D01*
X123275809Y-132547381D02*
X123275809Y-131547381D01*
X123180571Y-131690238D01*
X123085333Y-131785476D01*
X122990095Y-131833095D01*
X123942476Y-131642619D02*
X123990095Y-131595000D01*
X124085333Y-131547381D01*
X124323429Y-131547381D01*
X124418667Y-131595000D01*
X124466286Y-131642619D01*
X124513905Y-131737857D01*
X124513905Y-131833095D01*
X124466286Y-131975952D01*
X123894857Y-132547381D01*
X124513905Y-132547381D01*
X122132953Y-137547381D02*
X121561524Y-137547381D01*
X121847238Y-137547381D02*
X121847238Y-136547381D01*
X121752000Y-136690238D01*
X121656762Y-136785476D01*
X121561524Y-136833095D01*
X122752000Y-136547381D02*
X122847239Y-136547381D01*
X122942477Y-136595000D01*
X122990096Y-136642619D01*
X123037715Y-136737857D01*
X123085334Y-136928333D01*
X123085334Y-137166429D01*
X123037715Y-137356905D01*
X122990096Y-137452143D01*
X122942477Y-137499762D01*
X122847239Y-137547381D01*
X122752000Y-137547381D01*
X122656762Y-137499762D01*
X122609143Y-137452143D01*
X122561524Y-137356905D01*
X122513905Y-137166429D01*
X122513905Y-136928333D01*
X122561524Y-136737857D01*
X122609143Y-136642619D01*
X122656762Y-136595000D01*
X122752000Y-136547381D01*
X123704381Y-136547381D02*
X123799620Y-136547381D01*
X123894858Y-136595000D01*
X123942477Y-136642619D01*
X123990096Y-136737857D01*
X124037715Y-136928333D01*
X124037715Y-137166429D01*
X123990096Y-137356905D01*
X123942477Y-137452143D01*
X123894858Y-137499762D01*
X123799620Y-137547381D01*
X123704381Y-137547381D01*
X123609143Y-137499762D01*
X123561524Y-137452143D01*
X123513905Y-137356905D01*
X123466286Y-137166429D01*
X123466286Y-136928333D01*
X123513905Y-136737857D01*
X123561524Y-136642619D01*
X123609143Y-136595000D01*
X123704381Y-136547381D01*
X124466286Y-136880714D02*
X124466286Y-137547381D01*
X124466286Y-136975952D02*
X124513905Y-136928333D01*
X124609143Y-136880714D01*
X124752001Y-136880714D01*
X124847239Y-136928333D01*
X124894858Y-137023571D01*
X124894858Y-137547381D01*
X120043143Y-107509143D02*
X119995524Y-107556762D01*
X119852667Y-107604381D01*
X119757429Y-107604381D01*
X119614571Y-107556762D01*
X119519333Y-107461524D01*
X119471714Y-107366286D01*
X119424095Y-107175810D01*
X119424095Y-107032952D01*
X119471714Y-106842476D01*
X119519333Y-106747238D01*
X119614571Y-106652000D01*
X119757429Y-106604381D01*
X119852667Y-106604381D01*
X119995524Y-106652000D01*
X120043143Y-106699619D01*
X120995524Y-107604381D02*
X120424095Y-107604381D01*
X120709809Y-107604381D02*
X120709809Y-106604381D01*
X120614571Y-106747238D01*
X120519333Y-106842476D01*
X120424095Y-106890095D01*
X121328857Y-106604381D02*
X121947905Y-106604381D01*
X121614571Y-106985333D01*
X121757429Y-106985333D01*
X121852667Y-107032952D01*
X121900286Y-107080571D01*
X121947905Y-107175810D01*
X121947905Y-107413905D01*
X121900286Y-107509143D01*
X121852667Y-107556762D01*
X121757429Y-107604381D01*
X121471714Y-107604381D01*
X121376476Y-107556762D01*
X121328857Y-107509143D01*
X119657953Y-110078781D02*
X119086524Y-110078781D01*
X119372238Y-110078781D02*
X119372238Y-109078781D01*
X119277000Y-109221638D01*
X119181762Y-109316876D01*
X119086524Y-109364495D01*
X120277000Y-109078781D02*
X120372239Y-109078781D01*
X120467477Y-109126400D01*
X120515096Y-109174019D01*
X120562715Y-109269257D01*
X120610334Y-109459733D01*
X120610334Y-109697829D01*
X120562715Y-109888305D01*
X120515096Y-109983543D01*
X120467477Y-110031162D01*
X120372239Y-110078781D01*
X120277000Y-110078781D01*
X120181762Y-110031162D01*
X120134143Y-109983543D01*
X120086524Y-109888305D01*
X120038905Y-109697829D01*
X120038905Y-109459733D01*
X120086524Y-109269257D01*
X120134143Y-109174019D01*
X120181762Y-109126400D01*
X120277000Y-109078781D01*
X121229381Y-109078781D02*
X121324620Y-109078781D01*
X121419858Y-109126400D01*
X121467477Y-109174019D01*
X121515096Y-109269257D01*
X121562715Y-109459733D01*
X121562715Y-109697829D01*
X121515096Y-109888305D01*
X121467477Y-109983543D01*
X121419858Y-110031162D01*
X121324620Y-110078781D01*
X121229381Y-110078781D01*
X121134143Y-110031162D01*
X121086524Y-109983543D01*
X121038905Y-109888305D01*
X120991286Y-109697829D01*
X120991286Y-109459733D01*
X121038905Y-109269257D01*
X121086524Y-109174019D01*
X121134143Y-109126400D01*
X121229381Y-109078781D01*
X121991286Y-109412114D02*
X121991286Y-110078781D01*
X121991286Y-109507352D02*
X122038905Y-109459733D01*
X122134143Y-109412114D01*
X122277001Y-109412114D01*
X122372239Y-109459733D01*
X122419858Y-109554971D01*
X122419858Y-110078781D01*
X127347143Y-102552857D02*
X127394762Y-102600476D01*
X127442381Y-102743333D01*
X127442381Y-102838571D01*
X127394762Y-102981429D01*
X127299524Y-103076667D01*
X127204286Y-103124286D01*
X127013810Y-103171905D01*
X126870952Y-103171905D01*
X126680476Y-103124286D01*
X126585238Y-103076667D01*
X126490000Y-102981429D01*
X126442381Y-102838571D01*
X126442381Y-102743333D01*
X126490000Y-102600476D01*
X126537619Y-102552857D01*
X127442381Y-101600476D02*
X127442381Y-102171905D01*
X127442381Y-101886191D02*
X126442381Y-101886191D01*
X126585238Y-101981429D01*
X126680476Y-102076667D01*
X126728095Y-102171905D01*
X126775714Y-100743333D02*
X127442381Y-100743333D01*
X126394762Y-100981429D02*
X127109048Y-101219524D01*
X127109048Y-100600476D01*
X123280514Y-98340704D02*
X123947181Y-98340704D01*
X122899562Y-98578800D02*
X123613848Y-98816895D01*
X123613848Y-98197847D01*
X123851943Y-97816895D02*
X123899562Y-97769276D01*
X123947181Y-97816895D01*
X123899562Y-97864514D01*
X123851943Y-97816895D01*
X123947181Y-97816895D01*
X122947181Y-97435943D02*
X122947181Y-96769276D01*
X123947181Y-97197848D01*
X123280514Y-95959752D02*
X123947181Y-95959752D01*
X123280514Y-96388324D02*
X123804324Y-96388324D01*
X123899562Y-96340705D01*
X123947181Y-96245467D01*
X123947181Y-96102609D01*
X123899562Y-96007371D01*
X123851943Y-95959752D01*
X123280514Y-95626419D02*
X123280514Y-95245467D01*
X123947181Y-95483562D02*
X123090038Y-95483562D01*
X122994800Y-95435943D01*
X122947181Y-95340705D01*
X122947181Y-95245467D01*
X142104143Y-114804857D02*
X142151762Y-114852476D01*
X142199381Y-114995333D01*
X142199381Y-115090571D01*
X142151762Y-115233429D01*
X142056524Y-115328667D01*
X141961286Y-115376286D01*
X141770810Y-115423905D01*
X141627952Y-115423905D01*
X141437476Y-115376286D01*
X141342238Y-115328667D01*
X141247000Y-115233429D01*
X141199381Y-115090571D01*
X141199381Y-114995333D01*
X141247000Y-114852476D01*
X141294619Y-114804857D01*
X142199381Y-113852476D02*
X142199381Y-114423905D01*
X142199381Y-114138191D02*
X141199381Y-114138191D01*
X141342238Y-114233429D01*
X141437476Y-114328667D01*
X141485095Y-114423905D01*
X141199381Y-112947714D02*
X141199381Y-113423905D01*
X141675571Y-113471524D01*
X141627952Y-113423905D01*
X141580333Y-113328667D01*
X141580333Y-113090571D01*
X141627952Y-112995333D01*
X141675571Y-112947714D01*
X141770810Y-112900095D01*
X142008905Y-112900095D01*
X142104143Y-112947714D01*
X142151762Y-112995333D01*
X142199381Y-113090571D01*
X142199381Y-113328667D01*
X142151762Y-113423905D01*
X142104143Y-113471524D01*
X146730981Y-115831762D02*
X146730981Y-116403191D01*
X146730981Y-116117477D02*
X145730981Y-116117477D01*
X145873838Y-116212715D01*
X145969076Y-116307953D01*
X146016695Y-116403191D01*
X145730981Y-115212715D02*
X145730981Y-115117476D01*
X145778600Y-115022238D01*
X145826219Y-114974619D01*
X145921457Y-114927000D01*
X146111933Y-114879381D01*
X146350029Y-114879381D01*
X146540505Y-114927000D01*
X146635743Y-114974619D01*
X146683362Y-115022238D01*
X146730981Y-115117476D01*
X146730981Y-115212715D01*
X146683362Y-115307953D01*
X146635743Y-115355572D01*
X146540505Y-115403191D01*
X146350029Y-115450810D01*
X146111933Y-115450810D01*
X145921457Y-115403191D01*
X145826219Y-115355572D01*
X145778600Y-115307953D01*
X145730981Y-115212715D01*
X145730981Y-114260334D02*
X145730981Y-114165095D01*
X145778600Y-114069857D01*
X145826219Y-114022238D01*
X145921457Y-113974619D01*
X146111933Y-113927000D01*
X146350029Y-113927000D01*
X146540505Y-113974619D01*
X146635743Y-114022238D01*
X146683362Y-114069857D01*
X146730981Y-114165095D01*
X146730981Y-114260334D01*
X146683362Y-114355572D01*
X146635743Y-114403191D01*
X146540505Y-114450810D01*
X146350029Y-114498429D01*
X146111933Y-114498429D01*
X145921457Y-114450810D01*
X145826219Y-114403191D01*
X145778600Y-114355572D01*
X145730981Y-114260334D01*
X146064314Y-113498429D02*
X146730981Y-113498429D01*
X146159552Y-113498429D02*
X146111933Y-113450810D01*
X146064314Y-113355572D01*
X146064314Y-113212714D01*
X146111933Y-113117476D01*
X146207171Y-113069857D01*
X146730981Y-113069857D01*
X146064314Y-112736524D02*
X146064314Y-112355572D01*
X146730981Y-112593667D02*
X145873838Y-112593667D01*
X145778600Y-112546048D01*
X145730981Y-112450810D01*
X145730981Y-112355572D01*
X186236143Y-88077943D02*
X186188524Y-88125562D01*
X186045667Y-88173181D01*
X185950429Y-88173181D01*
X185807571Y-88125562D01*
X185712333Y-88030324D01*
X185664714Y-87935086D01*
X185617095Y-87744610D01*
X185617095Y-87601752D01*
X185664714Y-87411276D01*
X185712333Y-87316038D01*
X185807571Y-87220800D01*
X185950429Y-87173181D01*
X186045667Y-87173181D01*
X186188524Y-87220800D01*
X186236143Y-87268419D01*
X187188524Y-88173181D02*
X186617095Y-88173181D01*
X186902809Y-88173181D02*
X186902809Y-87173181D01*
X186807571Y-87316038D01*
X186712333Y-87411276D01*
X186617095Y-87458895D01*
X188045667Y-87173181D02*
X187855190Y-87173181D01*
X187759952Y-87220800D01*
X187712333Y-87268419D01*
X187617095Y-87411276D01*
X187569476Y-87601752D01*
X187569476Y-87982705D01*
X187617095Y-88077943D01*
X187664714Y-88125562D01*
X187759952Y-88173181D01*
X187950429Y-88173181D01*
X188045667Y-88125562D01*
X188093286Y-88077943D01*
X188140905Y-87982705D01*
X188140905Y-87744610D01*
X188093286Y-87649371D01*
X188045667Y-87601752D01*
X187950429Y-87554133D01*
X187759952Y-87554133D01*
X187664714Y-87601752D01*
X187617095Y-87649371D01*
X187569476Y-87744610D01*
X185774153Y-91511381D02*
X185202724Y-91511381D01*
X185488438Y-91511381D02*
X185488438Y-90511381D01*
X185393200Y-90654238D01*
X185297962Y-90749476D01*
X185202724Y-90797095D01*
X186393200Y-90511381D02*
X186488439Y-90511381D01*
X186583677Y-90559000D01*
X186631296Y-90606619D01*
X186678915Y-90701857D01*
X186726534Y-90892333D01*
X186726534Y-91130429D01*
X186678915Y-91320905D01*
X186631296Y-91416143D01*
X186583677Y-91463762D01*
X186488439Y-91511381D01*
X186393200Y-91511381D01*
X186297962Y-91463762D01*
X186250343Y-91416143D01*
X186202724Y-91320905D01*
X186155105Y-91130429D01*
X186155105Y-90892333D01*
X186202724Y-90701857D01*
X186250343Y-90606619D01*
X186297962Y-90559000D01*
X186393200Y-90511381D01*
X187345581Y-90511381D02*
X187440820Y-90511381D01*
X187536058Y-90559000D01*
X187583677Y-90606619D01*
X187631296Y-90701857D01*
X187678915Y-90892333D01*
X187678915Y-91130429D01*
X187631296Y-91320905D01*
X187583677Y-91416143D01*
X187536058Y-91463762D01*
X187440820Y-91511381D01*
X187345581Y-91511381D01*
X187250343Y-91463762D01*
X187202724Y-91416143D01*
X187155105Y-91320905D01*
X187107486Y-91130429D01*
X187107486Y-90892333D01*
X187155105Y-90701857D01*
X187202724Y-90606619D01*
X187250343Y-90559000D01*
X187345581Y-90511381D01*
X188107486Y-90844714D02*
X188107486Y-91511381D01*
X188107486Y-90939952D02*
X188155105Y-90892333D01*
X188250343Y-90844714D01*
X188393201Y-90844714D01*
X188488439Y-90892333D01*
X188536058Y-90987571D01*
X188536058Y-91511381D01*
X171351143Y-88535143D02*
X171303524Y-88582762D01*
X171160667Y-88630381D01*
X171065429Y-88630381D01*
X170922571Y-88582762D01*
X170827333Y-88487524D01*
X170779714Y-88392286D01*
X170732095Y-88201810D01*
X170732095Y-88058952D01*
X170779714Y-87868476D01*
X170827333Y-87773238D01*
X170922571Y-87678000D01*
X171065429Y-87630381D01*
X171160667Y-87630381D01*
X171303524Y-87678000D01*
X171351143Y-87725619D01*
X172303524Y-88630381D02*
X171732095Y-88630381D01*
X172017809Y-88630381D02*
X172017809Y-87630381D01*
X171922571Y-87773238D01*
X171827333Y-87868476D01*
X171732095Y-87916095D01*
X172636857Y-87630381D02*
X173303524Y-87630381D01*
X172874952Y-88630381D01*
X171398762Y-93630381D02*
X170827333Y-93630381D01*
X171113047Y-93630381D02*
X171113047Y-92630381D01*
X171017809Y-92773238D01*
X170922571Y-92868476D01*
X170827333Y-92916095D01*
X171827333Y-92963714D02*
X171827333Y-93630381D01*
X171827333Y-93058952D02*
X171874952Y-93011333D01*
X171970190Y-92963714D01*
X172113048Y-92963714D01*
X172208286Y-93011333D01*
X172255905Y-93106571D01*
X172255905Y-93630381D01*
X173065429Y-93106571D02*
X172732095Y-93106571D01*
X172732095Y-93630381D02*
X172732095Y-92630381D01*
X173208286Y-92630381D01*
X181474143Y-117299857D02*
X181521762Y-117347476D01*
X181569381Y-117490333D01*
X181569381Y-117585571D01*
X181521762Y-117728429D01*
X181426524Y-117823667D01*
X181331286Y-117871286D01*
X181140810Y-117918905D01*
X180997952Y-117918905D01*
X180807476Y-117871286D01*
X180712238Y-117823667D01*
X180617000Y-117728429D01*
X180569381Y-117585571D01*
X180569381Y-117490333D01*
X180617000Y-117347476D01*
X180664619Y-117299857D01*
X181569381Y-116347476D02*
X181569381Y-116918905D01*
X181569381Y-116633191D02*
X180569381Y-116633191D01*
X180712238Y-116728429D01*
X180807476Y-116823667D01*
X180855095Y-116918905D01*
X180997952Y-115776048D02*
X180950333Y-115871286D01*
X180902714Y-115918905D01*
X180807476Y-115966524D01*
X180759857Y-115966524D01*
X180664619Y-115918905D01*
X180617000Y-115871286D01*
X180569381Y-115776048D01*
X180569381Y-115585571D01*
X180617000Y-115490333D01*
X180664619Y-115442714D01*
X180759857Y-115395095D01*
X180807476Y-115395095D01*
X180902714Y-115442714D01*
X180950333Y-115490333D01*
X180997952Y-115585571D01*
X180997952Y-115776048D01*
X181045571Y-115871286D01*
X181093190Y-115918905D01*
X181188429Y-115966524D01*
X181378905Y-115966524D01*
X181474143Y-115918905D01*
X181521762Y-115871286D01*
X181569381Y-115776048D01*
X181569381Y-115585571D01*
X181521762Y-115490333D01*
X181474143Y-115442714D01*
X181378905Y-115395095D01*
X181188429Y-115395095D01*
X181093190Y-115442714D01*
X181045571Y-115490333D01*
X180997952Y-115585571D01*
X185664619Y-118299857D02*
X185617000Y-118252238D01*
X185569381Y-118157000D01*
X185569381Y-117918904D01*
X185617000Y-117823666D01*
X185664619Y-117776047D01*
X185759857Y-117728428D01*
X185855095Y-117728428D01*
X185997952Y-117776047D01*
X186569381Y-118347476D01*
X186569381Y-117728428D01*
X185664619Y-117347476D02*
X185617000Y-117299857D01*
X185569381Y-117204619D01*
X185569381Y-116966523D01*
X185617000Y-116871285D01*
X185664619Y-116823666D01*
X185759857Y-116776047D01*
X185855095Y-116776047D01*
X185997952Y-116823666D01*
X186569381Y-117395095D01*
X186569381Y-116776047D01*
X185902714Y-116347476D02*
X186902714Y-116347476D01*
X185950333Y-116347476D02*
X185902714Y-116252238D01*
X185902714Y-116061761D01*
X185950333Y-115966523D01*
X185997952Y-115918904D01*
X186093190Y-115871285D01*
X186378905Y-115871285D01*
X186474143Y-115918904D01*
X186521762Y-115966523D01*
X186569381Y-116061761D01*
X186569381Y-116252238D01*
X186521762Y-116347476D01*
X186045571Y-115109380D02*
X186045571Y-115442714D01*
X186569381Y-115442714D02*
X185569381Y-115442714D01*
X185569381Y-114966523D01*
X181626143Y-111279857D02*
X181673762Y-111327476D01*
X181721381Y-111470333D01*
X181721381Y-111565571D01*
X181673762Y-111708429D01*
X181578524Y-111803667D01*
X181483286Y-111851286D01*
X181292810Y-111898905D01*
X181149952Y-111898905D01*
X180959476Y-111851286D01*
X180864238Y-111803667D01*
X180769000Y-111708429D01*
X180721381Y-111565571D01*
X180721381Y-111470333D01*
X180769000Y-111327476D01*
X180816619Y-111279857D01*
X181721381Y-110327476D02*
X181721381Y-110898905D01*
X181721381Y-110613191D02*
X180721381Y-110613191D01*
X180864238Y-110708429D01*
X180959476Y-110803667D01*
X181007095Y-110898905D01*
X181721381Y-109851286D02*
X181721381Y-109660810D01*
X181673762Y-109565571D01*
X181626143Y-109517952D01*
X181483286Y-109422714D01*
X181292810Y-109375095D01*
X180911857Y-109375095D01*
X180816619Y-109422714D01*
X180769000Y-109470333D01*
X180721381Y-109565571D01*
X180721381Y-109756048D01*
X180769000Y-109851286D01*
X180816619Y-109898905D01*
X180911857Y-109946524D01*
X181149952Y-109946524D01*
X181245190Y-109898905D01*
X181292810Y-109851286D01*
X181340429Y-109756048D01*
X181340429Y-109565571D01*
X181292810Y-109470333D01*
X181245190Y-109422714D01*
X181149952Y-109375095D01*
X185816619Y-112279857D02*
X185769000Y-112232238D01*
X185721381Y-112137000D01*
X185721381Y-111898904D01*
X185769000Y-111803666D01*
X185816619Y-111756047D01*
X185911857Y-111708428D01*
X186007095Y-111708428D01*
X186149952Y-111756047D01*
X186721381Y-112327476D01*
X186721381Y-111708428D01*
X185816619Y-111327476D02*
X185769000Y-111279857D01*
X185721381Y-111184619D01*
X185721381Y-110946523D01*
X185769000Y-110851285D01*
X185816619Y-110803666D01*
X185911857Y-110756047D01*
X186007095Y-110756047D01*
X186149952Y-110803666D01*
X186721381Y-111375095D01*
X186721381Y-110756047D01*
X186054714Y-110327476D02*
X187054714Y-110327476D01*
X186102333Y-110327476D02*
X186054714Y-110232238D01*
X186054714Y-110041761D01*
X186102333Y-109946523D01*
X186149952Y-109898904D01*
X186245190Y-109851285D01*
X186530905Y-109851285D01*
X186626143Y-109898904D01*
X186673762Y-109946523D01*
X186721381Y-110041761D01*
X186721381Y-110232238D01*
X186673762Y-110327476D01*
X186197571Y-109089380D02*
X186197571Y-109422714D01*
X186721381Y-109422714D02*
X185721381Y-109422714D01*
X185721381Y-108946523D01*
X204066143Y-101438143D02*
X204018524Y-101485762D01*
X203875667Y-101533381D01*
X203780429Y-101533381D01*
X203637571Y-101485762D01*
X203542333Y-101390524D01*
X203494714Y-101295286D01*
X203447095Y-101104810D01*
X203447095Y-100961952D01*
X203494714Y-100771476D01*
X203542333Y-100676238D01*
X203637571Y-100581000D01*
X203780429Y-100533381D01*
X203875667Y-100533381D01*
X204018524Y-100581000D01*
X204066143Y-100628619D01*
X204447095Y-100628619D02*
X204494714Y-100581000D01*
X204589952Y-100533381D01*
X204828048Y-100533381D01*
X204923286Y-100581000D01*
X204970905Y-100628619D01*
X205018524Y-100723857D01*
X205018524Y-100819095D01*
X204970905Y-100961952D01*
X204399476Y-101533381D01*
X205018524Y-101533381D01*
X205637571Y-100533381D02*
X205732810Y-100533381D01*
X205828048Y-100581000D01*
X205875667Y-100628619D01*
X205923286Y-100723857D01*
X205970905Y-100914333D01*
X205970905Y-101152429D01*
X205923286Y-101342905D01*
X205875667Y-101438143D01*
X205828048Y-101485762D01*
X205732810Y-101533381D01*
X205637571Y-101533381D01*
X205542333Y-101485762D01*
X205494714Y-101438143D01*
X205447095Y-101342905D01*
X205399476Y-101152429D01*
X205399476Y-100914333D01*
X205447095Y-100723857D01*
X205494714Y-100628619D01*
X205542333Y-100581000D01*
X205637571Y-100533381D01*
X203589953Y-106533381D02*
X203018524Y-106533381D01*
X203304238Y-106533381D02*
X203304238Y-105533381D01*
X203209000Y-105676238D01*
X203113762Y-105771476D01*
X203018524Y-105819095D01*
X204209000Y-105533381D02*
X204304239Y-105533381D01*
X204399477Y-105581000D01*
X204447096Y-105628619D01*
X204494715Y-105723857D01*
X204542334Y-105914333D01*
X204542334Y-106152429D01*
X204494715Y-106342905D01*
X204447096Y-106438143D01*
X204399477Y-106485762D01*
X204304239Y-106533381D01*
X204209000Y-106533381D01*
X204113762Y-106485762D01*
X204066143Y-106438143D01*
X204018524Y-106342905D01*
X203970905Y-106152429D01*
X203970905Y-105914333D01*
X204018524Y-105723857D01*
X204066143Y-105628619D01*
X204113762Y-105581000D01*
X204209000Y-105533381D01*
X205161381Y-105533381D02*
X205256620Y-105533381D01*
X205351858Y-105581000D01*
X205399477Y-105628619D01*
X205447096Y-105723857D01*
X205494715Y-105914333D01*
X205494715Y-106152429D01*
X205447096Y-106342905D01*
X205399477Y-106438143D01*
X205351858Y-106485762D01*
X205256620Y-106533381D01*
X205161381Y-106533381D01*
X205066143Y-106485762D01*
X205018524Y-106438143D01*
X204970905Y-106342905D01*
X204923286Y-106152429D01*
X204923286Y-105914333D01*
X204970905Y-105723857D01*
X205018524Y-105628619D01*
X205066143Y-105581000D01*
X205161381Y-105533381D01*
X205923286Y-105866714D02*
X205923286Y-106533381D01*
X205923286Y-105961952D02*
X205970905Y-105914333D01*
X206066143Y-105866714D01*
X206209001Y-105866714D01*
X206304239Y-105914333D01*
X206351858Y-106009571D01*
X206351858Y-106533381D01*
X227429143Y-138162143D02*
X227381524Y-138209762D01*
X227238667Y-138257381D01*
X227143429Y-138257381D01*
X227000571Y-138209762D01*
X226905333Y-138114524D01*
X226857714Y-138019286D01*
X226810095Y-137828810D01*
X226810095Y-137685952D01*
X226857714Y-137495476D01*
X226905333Y-137400238D01*
X227000571Y-137305000D01*
X227143429Y-137257381D01*
X227238667Y-137257381D01*
X227381524Y-137305000D01*
X227429143Y-137352619D01*
X227810095Y-137352619D02*
X227857714Y-137305000D01*
X227952952Y-137257381D01*
X228191048Y-137257381D01*
X228286286Y-137305000D01*
X228333905Y-137352619D01*
X228381524Y-137447857D01*
X228381524Y-137543095D01*
X228333905Y-137685952D01*
X227762476Y-138257381D01*
X228381524Y-138257381D01*
X229333905Y-138257381D02*
X228762476Y-138257381D01*
X229048190Y-138257381D02*
X229048190Y-137257381D01*
X228952952Y-137400238D01*
X228857714Y-137495476D01*
X228762476Y-137543095D01*
X222039039Y-142838514D02*
X222039039Y-143505181D01*
X221800943Y-142457562D02*
X221562848Y-143171848D01*
X222181896Y-143171848D01*
X222562848Y-143409943D02*
X222610467Y-143457562D01*
X222562848Y-143505181D01*
X222515229Y-143457562D01*
X222562848Y-143409943D01*
X222562848Y-143505181D01*
X222943800Y-142505181D02*
X223610467Y-142505181D01*
X223181895Y-143505181D01*
X224419991Y-142838514D02*
X224419991Y-143505181D01*
X223991419Y-142838514D02*
X223991419Y-143362324D01*
X224039038Y-143457562D01*
X224134276Y-143505181D01*
X224277134Y-143505181D01*
X224372372Y-143457562D01*
X224419991Y-143409943D01*
X225229515Y-142981371D02*
X224896181Y-142981371D01*
X224896181Y-143505181D02*
X224896181Y-142505181D01*
X225372372Y-142505181D01*
X211935143Y-109079143D02*
X211887524Y-109126762D01*
X211744667Y-109174381D01*
X211649429Y-109174381D01*
X211506571Y-109126762D01*
X211411333Y-109031524D01*
X211363714Y-108936286D01*
X211316095Y-108745810D01*
X211316095Y-108602952D01*
X211363714Y-108412476D01*
X211411333Y-108317238D01*
X211506571Y-108222000D01*
X211649429Y-108174381D01*
X211744667Y-108174381D01*
X211887524Y-108222000D01*
X211935143Y-108269619D01*
X212316095Y-108269619D02*
X212363714Y-108222000D01*
X212458952Y-108174381D01*
X212697048Y-108174381D01*
X212792286Y-108222000D01*
X212839905Y-108269619D01*
X212887524Y-108364857D01*
X212887524Y-108460095D01*
X212839905Y-108602952D01*
X212268476Y-109174381D01*
X212887524Y-109174381D01*
X213268476Y-108269619D02*
X213316095Y-108222000D01*
X213411333Y-108174381D01*
X213649429Y-108174381D01*
X213744667Y-108222000D01*
X213792286Y-108269619D01*
X213839905Y-108364857D01*
X213839905Y-108460095D01*
X213792286Y-108602952D01*
X213220857Y-109174381D01*
X213839905Y-109174381D01*
X211173239Y-116107714D02*
X211173239Y-116774381D01*
X210935143Y-115726762D02*
X210697048Y-116441048D01*
X211316096Y-116441048D01*
X211697048Y-116679143D02*
X211744667Y-116726762D01*
X211697048Y-116774381D01*
X211649429Y-116726762D01*
X211697048Y-116679143D01*
X211697048Y-116774381D01*
X212078000Y-115774381D02*
X212744667Y-115774381D01*
X212316095Y-116774381D01*
X213554191Y-116107714D02*
X213554191Y-116774381D01*
X213125619Y-116107714D02*
X213125619Y-116631524D01*
X213173238Y-116726762D01*
X213268476Y-116774381D01*
X213411334Y-116774381D01*
X213506572Y-116726762D01*
X213554191Y-116679143D01*
X214363715Y-116250571D02*
X214030381Y-116250571D01*
X214030381Y-116774381D02*
X214030381Y-115774381D01*
X214506572Y-115774381D01*
X112977905Y-86482181D02*
X112977905Y-85482181D01*
X113216000Y-85482181D01*
X113358858Y-85529800D01*
X113454096Y-85625038D01*
X113501715Y-85720276D01*
X113549334Y-85910752D01*
X113549334Y-86053610D01*
X113501715Y-86244086D01*
X113454096Y-86339324D01*
X113358858Y-86434562D01*
X113216000Y-86482181D01*
X112977905Y-86482181D01*
X114501715Y-86482181D02*
X113930286Y-86482181D01*
X114216000Y-86482181D02*
X114216000Y-85482181D01*
X114120762Y-85625038D01*
X114025524Y-85720276D01*
X113930286Y-85767895D01*
X113194572Y-81307181D02*
X112623143Y-81307181D01*
X112908857Y-81307181D02*
X112908857Y-80307181D01*
X112813619Y-80450038D01*
X112718381Y-80545276D01*
X112623143Y-80592895D01*
X113527905Y-80307181D02*
X114146953Y-80307181D01*
X113813619Y-80688133D01*
X113956477Y-80688133D01*
X114051715Y-80735752D01*
X114099334Y-80783371D01*
X114146953Y-80878610D01*
X114146953Y-81116705D01*
X114099334Y-81211943D01*
X114051715Y-81259562D01*
X113956477Y-81307181D01*
X113670762Y-81307181D01*
X113575524Y-81259562D01*
X113527905Y-81211943D01*
X114480286Y-80640514D02*
X114718381Y-81307181D01*
X114956477Y-80640514D01*
X116271905Y-84672467D02*
X116748096Y-84672467D01*
X116176667Y-84958181D02*
X116510000Y-83958181D01*
X116843334Y-84958181D01*
X140485905Y-133675381D02*
X140485905Y-132675381D01*
X140724000Y-132675381D01*
X140866858Y-132723000D01*
X140962096Y-132818238D01*
X141009715Y-132913476D01*
X141057334Y-133103952D01*
X141057334Y-133246810D01*
X141009715Y-133437286D01*
X140962096Y-133532524D01*
X140866858Y-133627762D01*
X140724000Y-133675381D01*
X140485905Y-133675381D01*
X141438286Y-132770619D02*
X141485905Y-132723000D01*
X141581143Y-132675381D01*
X141819239Y-132675381D01*
X141914477Y-132723000D01*
X141962096Y-132770619D01*
X142009715Y-132865857D01*
X142009715Y-132961095D01*
X141962096Y-133103952D01*
X141390667Y-133675381D01*
X142009715Y-133675381D01*
X146016886Y-128223971D02*
X145683552Y-128223971D01*
X145683552Y-128747781D02*
X145683552Y-127747781D01*
X146159743Y-127747781D01*
X147112124Y-128747781D02*
X146778790Y-128271590D01*
X146540695Y-128747781D02*
X146540695Y-127747781D01*
X146921648Y-127747781D01*
X147016886Y-127795400D01*
X147064505Y-127843019D01*
X147112124Y-127938257D01*
X147112124Y-128081114D01*
X147064505Y-128176352D01*
X147016886Y-128223971D01*
X146921648Y-128271590D01*
X146540695Y-128271590D01*
X148064505Y-128747781D02*
X147493076Y-128747781D01*
X147778790Y-128747781D02*
X147778790Y-127747781D01*
X147683552Y-127890638D01*
X147588314Y-127985876D01*
X147493076Y-128033495D01*
X148683552Y-127747781D02*
X148778791Y-127747781D01*
X148874029Y-127795400D01*
X148921648Y-127843019D01*
X148969267Y-127938257D01*
X149016886Y-128128733D01*
X149016886Y-128366829D01*
X148969267Y-128557305D01*
X148921648Y-128652543D01*
X148874029Y-128700162D01*
X148778791Y-128747781D01*
X148683552Y-128747781D01*
X148588314Y-128700162D01*
X148540695Y-128652543D01*
X148493076Y-128557305D01*
X148445457Y-128366829D01*
X148445457Y-128128733D01*
X148493076Y-127938257D01*
X148540695Y-127843019D01*
X148588314Y-127795400D01*
X148683552Y-127747781D01*
X149350219Y-127747781D02*
X150016886Y-127747781D01*
X149588314Y-128747781D01*
X143779905Y-131865667D02*
X144256096Y-131865667D01*
X143684667Y-132151381D02*
X144018000Y-131151381D01*
X144351334Y-132151381D01*
X141730905Y-103906381D02*
X141730905Y-102906381D01*
X141969000Y-102906381D01*
X142111858Y-102954000D01*
X142207096Y-103049238D01*
X142254715Y-103144476D01*
X142302334Y-103334952D01*
X142302334Y-103477810D01*
X142254715Y-103668286D01*
X142207096Y-103763524D01*
X142111858Y-103858762D01*
X141969000Y-103906381D01*
X141730905Y-103906381D01*
X142635667Y-102906381D02*
X143254715Y-102906381D01*
X142921381Y-103287333D01*
X143064239Y-103287333D01*
X143159477Y-103334952D01*
X143207096Y-103382571D01*
X143254715Y-103477810D01*
X143254715Y-103715905D01*
X143207096Y-103811143D01*
X143159477Y-103858762D01*
X143064239Y-103906381D01*
X142778524Y-103906381D01*
X142683286Y-103858762D01*
X142635667Y-103811143D01*
X140733286Y-98207571D02*
X140399952Y-98207571D01*
X140399952Y-98731381D02*
X140399952Y-97731381D01*
X140876143Y-97731381D01*
X141828524Y-98731381D02*
X141495190Y-98255190D01*
X141257095Y-98731381D02*
X141257095Y-97731381D01*
X141638048Y-97731381D01*
X141733286Y-97779000D01*
X141780905Y-97826619D01*
X141828524Y-97921857D01*
X141828524Y-98064714D01*
X141780905Y-98159952D01*
X141733286Y-98207571D01*
X141638048Y-98255190D01*
X141257095Y-98255190D01*
X142780905Y-98731381D02*
X142209476Y-98731381D01*
X142495190Y-98731381D02*
X142495190Y-97731381D01*
X142399952Y-97874238D01*
X142304714Y-97969476D01*
X142209476Y-98017095D01*
X143399952Y-97731381D02*
X143495191Y-97731381D01*
X143590429Y-97779000D01*
X143638048Y-97826619D01*
X143685667Y-97921857D01*
X143733286Y-98112333D01*
X143733286Y-98350429D01*
X143685667Y-98540905D01*
X143638048Y-98636143D01*
X143590429Y-98683762D01*
X143495191Y-98731381D01*
X143399952Y-98731381D01*
X143304714Y-98683762D01*
X143257095Y-98636143D01*
X143209476Y-98540905D01*
X143161857Y-98350429D01*
X143161857Y-98112333D01*
X143209476Y-97921857D01*
X143257095Y-97826619D01*
X143304714Y-97779000D01*
X143399952Y-97731381D01*
X144066619Y-97731381D02*
X144733286Y-97731381D01*
X144304714Y-98731381D01*
X145024905Y-102096667D02*
X145501096Y-102096667D01*
X144929667Y-102382381D02*
X145263000Y-101382381D01*
X145596334Y-102382381D01*
X141552905Y-87752181D02*
X141552905Y-86752181D01*
X141791000Y-86752181D01*
X141933858Y-86799800D01*
X142029096Y-86895038D01*
X142076715Y-86990276D01*
X142124334Y-87180752D01*
X142124334Y-87323610D01*
X142076715Y-87514086D01*
X142029096Y-87609324D01*
X141933858Y-87704562D01*
X141791000Y-87752181D01*
X141552905Y-87752181D01*
X142981477Y-87085514D02*
X142981477Y-87752181D01*
X142743381Y-86704562D02*
X142505286Y-87418848D01*
X143124334Y-87418848D01*
X144532458Y-86701381D02*
X144056267Y-86701381D01*
X144008648Y-87177571D01*
X144056267Y-87129952D01*
X144151505Y-87082333D01*
X144389601Y-87082333D01*
X144484839Y-87129952D01*
X144532458Y-87177571D01*
X144580077Y-87272810D01*
X144580077Y-87510905D01*
X144532458Y-87606143D01*
X144484839Y-87653762D01*
X144389601Y-87701381D01*
X144151505Y-87701381D01*
X144056267Y-87653762D01*
X144008648Y-87606143D01*
X145008648Y-87606143D02*
X145056267Y-87653762D01*
X145008648Y-87701381D01*
X144961029Y-87653762D01*
X145008648Y-87606143D01*
X145008648Y-87701381D01*
X145913410Y-86701381D02*
X145722933Y-86701381D01*
X145627695Y-86749000D01*
X145580076Y-86796619D01*
X145484838Y-86939476D01*
X145437219Y-87129952D01*
X145437219Y-87510905D01*
X145484838Y-87606143D01*
X145532457Y-87653762D01*
X145627695Y-87701381D01*
X145818172Y-87701381D01*
X145913410Y-87653762D01*
X145961029Y-87606143D01*
X146008648Y-87510905D01*
X146008648Y-87272810D01*
X145961029Y-87177571D01*
X145913410Y-87129952D01*
X145818172Y-87082333D01*
X145627695Y-87082333D01*
X145532457Y-87129952D01*
X145484838Y-87177571D01*
X145437219Y-87272810D01*
X146341981Y-87034714D02*
X146580076Y-87701381D01*
X146818172Y-87034714D01*
X144846905Y-85942467D02*
X145323096Y-85942467D01*
X144751667Y-86228181D02*
X145085000Y-85228181D01*
X145418334Y-86228181D01*
X189530381Y-148820095D02*
X188530381Y-148820095D01*
X188530381Y-148582000D01*
X188578000Y-148439142D01*
X188673238Y-148343904D01*
X188768476Y-148296285D01*
X188958952Y-148248666D01*
X189101810Y-148248666D01*
X189292286Y-148296285D01*
X189387524Y-148343904D01*
X189482762Y-148439142D01*
X189530381Y-148582000D01*
X189530381Y-148820095D01*
X188530381Y-147343904D02*
X188530381Y-147820095D01*
X189006571Y-147867714D01*
X188958952Y-147820095D01*
X188911333Y-147724857D01*
X188911333Y-147486761D01*
X188958952Y-147391523D01*
X189006571Y-147343904D01*
X189101810Y-147296285D01*
X189339905Y-147296285D01*
X189435143Y-147343904D01*
X189482762Y-147391523D01*
X189530381Y-147486761D01*
X189530381Y-147724857D01*
X189482762Y-147820095D01*
X189435143Y-147867714D01*
X197531381Y-148724857D02*
X197531381Y-149201048D01*
X196531381Y-149201048D01*
X197007571Y-148391524D02*
X197007571Y-148058190D01*
X197531381Y-147915333D02*
X197531381Y-148391524D01*
X196531381Y-148391524D01*
X196531381Y-147915333D01*
X197531381Y-147486762D02*
X196531381Y-147486762D01*
X196531381Y-147248667D01*
X196579000Y-147105809D01*
X196674238Y-147010571D01*
X196769476Y-146962952D01*
X196959952Y-146915333D01*
X197102810Y-146915333D01*
X197293286Y-146962952D01*
X197388524Y-147010571D01*
X197483762Y-147105809D01*
X197531381Y-147248667D01*
X197531381Y-147486762D01*
X191689381Y-144914905D02*
X190689381Y-144914905D01*
X191689381Y-144343476D02*
X191117952Y-144772048D01*
X190689381Y-144343476D02*
X191260810Y-144914905D01*
X152395381Y-142013095D02*
X151395381Y-142013095D01*
X151395381Y-141775000D01*
X151443000Y-141632142D01*
X151538238Y-141536904D01*
X151633476Y-141489285D01*
X151823952Y-141441666D01*
X151966810Y-141441666D01*
X152157286Y-141489285D01*
X152252524Y-141536904D01*
X152347762Y-141632142D01*
X152395381Y-141775000D01*
X152395381Y-142013095D01*
X151395381Y-140584523D02*
X151395381Y-140775000D01*
X151443000Y-140870238D01*
X151490619Y-140917857D01*
X151633476Y-141013095D01*
X151823952Y-141060714D01*
X152204905Y-141060714D01*
X152300143Y-141013095D01*
X152347762Y-140965476D01*
X152395381Y-140870238D01*
X152395381Y-140679761D01*
X152347762Y-140584523D01*
X152300143Y-140536904D01*
X152204905Y-140489285D01*
X151966810Y-140489285D01*
X151871571Y-140536904D01*
X151823952Y-140584523D01*
X151776333Y-140679761D01*
X151776333Y-140870238D01*
X151823952Y-140965476D01*
X151871571Y-141013095D01*
X151966810Y-141060714D01*
X150585667Y-138719095D02*
X150585667Y-138242904D01*
X150871381Y-138814333D02*
X149871381Y-138481000D01*
X150871381Y-138147666D01*
X157195381Y-141911095D02*
X156195381Y-141911095D01*
X156195381Y-141673000D01*
X156243000Y-141530142D01*
X156338238Y-141434904D01*
X156433476Y-141387285D01*
X156623952Y-141339666D01*
X156766810Y-141339666D01*
X156957286Y-141387285D01*
X157052524Y-141434904D01*
X157147762Y-141530142D01*
X157195381Y-141673000D01*
X157195381Y-141911095D01*
X156195381Y-141006333D02*
X156195381Y-140339666D01*
X157195381Y-140768238D01*
X155385667Y-138617095D02*
X155385667Y-138140904D01*
X155671381Y-138712333D02*
X154671381Y-138379000D01*
X155671381Y-138045666D01*
X161107381Y-142013095D02*
X160107381Y-142013095D01*
X160107381Y-141775000D01*
X160155000Y-141632142D01*
X160250238Y-141536904D01*
X160345476Y-141489285D01*
X160535952Y-141441666D01*
X160678810Y-141441666D01*
X160869286Y-141489285D01*
X160964524Y-141536904D01*
X161059762Y-141632142D01*
X161107381Y-141775000D01*
X161107381Y-142013095D01*
X160535952Y-140870238D02*
X160488333Y-140965476D01*
X160440714Y-141013095D01*
X160345476Y-141060714D01*
X160297857Y-141060714D01*
X160202619Y-141013095D01*
X160155000Y-140965476D01*
X160107381Y-140870238D01*
X160107381Y-140679761D01*
X160155000Y-140584523D01*
X160202619Y-140536904D01*
X160297857Y-140489285D01*
X160345476Y-140489285D01*
X160440714Y-140536904D01*
X160488333Y-140584523D01*
X160535952Y-140679761D01*
X160535952Y-140870238D01*
X160583571Y-140965476D01*
X160631190Y-141013095D01*
X160726429Y-141060714D01*
X160916905Y-141060714D01*
X161012143Y-141013095D01*
X161059762Y-140965476D01*
X161107381Y-140870238D01*
X161107381Y-140679761D01*
X161059762Y-140584523D01*
X161012143Y-140536904D01*
X160916905Y-140489285D01*
X160726429Y-140489285D01*
X160631190Y-140536904D01*
X160583571Y-140584523D01*
X160535952Y-140679761D01*
X159297667Y-138719095D02*
X159297667Y-138242904D01*
X159583381Y-138814333D02*
X158583381Y-138481000D01*
X159583381Y-138147666D01*
X152496381Y-149480095D02*
X151496381Y-149480095D01*
X151496381Y-149242000D01*
X151544000Y-149099142D01*
X151639238Y-149003904D01*
X151734476Y-148956285D01*
X151924952Y-148908666D01*
X152067810Y-148908666D01*
X152258286Y-148956285D01*
X152353524Y-149003904D01*
X152448762Y-149099142D01*
X152496381Y-149242000D01*
X152496381Y-149480095D01*
X152496381Y-148432476D02*
X152496381Y-148242000D01*
X152448762Y-148146761D01*
X152401143Y-148099142D01*
X152258286Y-148003904D01*
X152067810Y-147956285D01*
X151686857Y-147956285D01*
X151591619Y-148003904D01*
X151544000Y-148051523D01*
X151496381Y-148146761D01*
X151496381Y-148337238D01*
X151544000Y-148432476D01*
X151591619Y-148480095D01*
X151686857Y-148527714D01*
X151924952Y-148527714D01*
X152020190Y-148480095D01*
X152067810Y-148432476D01*
X152115429Y-148337238D01*
X152115429Y-148146761D01*
X152067810Y-148051523D01*
X152020190Y-148003904D01*
X151924952Y-147956285D01*
X150686667Y-146186095D02*
X150686667Y-145709904D01*
X150972381Y-146281333D02*
X149972381Y-145948000D01*
X150972381Y-145614666D01*
X207421314Y-100096581D02*
X207421314Y-99096581D01*
X207659409Y-99096581D01*
X207802267Y-99144200D01*
X207897505Y-99239438D01*
X207945124Y-99334676D01*
X207992743Y-99525152D01*
X207992743Y-99668010D01*
X207945124Y-99858486D01*
X207897505Y-99953724D01*
X207802267Y-100048962D01*
X207659409Y-100096581D01*
X207421314Y-100096581D01*
X208945124Y-100096581D02*
X208373695Y-100096581D01*
X208659409Y-100096581D02*
X208659409Y-99096581D01*
X208564171Y-99239438D01*
X208468933Y-99334676D01*
X208373695Y-99382295D01*
X209564171Y-99096581D02*
X209659410Y-99096581D01*
X209754648Y-99144200D01*
X209802267Y-99191819D01*
X209849886Y-99287057D01*
X209897505Y-99477533D01*
X209897505Y-99715629D01*
X209849886Y-99906105D01*
X209802267Y-100001343D01*
X209754648Y-100048962D01*
X209659410Y-100096581D01*
X209564171Y-100096581D01*
X209468933Y-100048962D01*
X209421314Y-100001343D01*
X209373695Y-99906105D01*
X209326076Y-99715629D01*
X209326076Y-99477533D01*
X209373695Y-99287057D01*
X209421314Y-99191819D01*
X209468933Y-99144200D01*
X209564171Y-99096581D01*
X211034572Y-98064581D02*
X210463143Y-98064581D01*
X210748857Y-98064581D02*
X210748857Y-97064581D01*
X210653619Y-97207438D01*
X210558381Y-97302676D01*
X210463143Y-97350295D01*
X211463143Y-97397914D02*
X211463143Y-98064581D01*
X211463143Y-97493152D02*
X211510762Y-97445533D01*
X211606000Y-97397914D01*
X211748858Y-97397914D01*
X211844096Y-97445533D01*
X211891715Y-97540771D01*
X211891715Y-98064581D01*
X212796477Y-97397914D02*
X212796477Y-98064581D01*
X212558381Y-97016962D02*
X212320286Y-97731248D01*
X212939334Y-97731248D01*
X213510762Y-97064581D02*
X213606001Y-97064581D01*
X213701239Y-97112200D01*
X213748858Y-97159819D01*
X213796477Y-97255057D01*
X213844096Y-97445533D01*
X213844096Y-97683629D01*
X213796477Y-97874105D01*
X213748858Y-97969343D01*
X213701239Y-98016962D01*
X213606001Y-98064581D01*
X213510762Y-98064581D01*
X213415524Y-98016962D01*
X213367905Y-97969343D01*
X213320286Y-97874105D01*
X213272667Y-97683629D01*
X213272667Y-97445533D01*
X213320286Y-97255057D01*
X213367905Y-97159819D01*
X213415524Y-97112200D01*
X213510762Y-97064581D01*
X214463143Y-97064581D02*
X214558382Y-97064581D01*
X214653620Y-97112200D01*
X214701239Y-97159819D01*
X214748858Y-97255057D01*
X214796477Y-97445533D01*
X214796477Y-97683629D01*
X214748858Y-97874105D01*
X214701239Y-97969343D01*
X214653620Y-98016962D01*
X214558382Y-98064581D01*
X214463143Y-98064581D01*
X214367905Y-98016962D01*
X214320286Y-97969343D01*
X214272667Y-97874105D01*
X214225048Y-97683629D01*
X214225048Y-97445533D01*
X214272667Y-97255057D01*
X214320286Y-97159819D01*
X214367905Y-97112200D01*
X214463143Y-97064581D01*
X215129810Y-97064581D02*
X215796477Y-97064581D01*
X215367905Y-98064581D01*
X215611105Y-102096867D02*
X216087296Y-102096867D01*
X215515867Y-102382581D02*
X215849200Y-101382581D01*
X216182534Y-102382581D01*
X210850314Y-123439181D02*
X210850314Y-122439181D01*
X211088409Y-122439181D01*
X211231267Y-122486800D01*
X211326505Y-122582038D01*
X211374124Y-122677276D01*
X211421743Y-122867752D01*
X211421743Y-123010610D01*
X211374124Y-123201086D01*
X211326505Y-123296324D01*
X211231267Y-123391562D01*
X211088409Y-123439181D01*
X210850314Y-123439181D01*
X212374124Y-123439181D02*
X211802695Y-123439181D01*
X212088409Y-123439181D02*
X212088409Y-122439181D01*
X211993171Y-122582038D01*
X211897933Y-122677276D01*
X211802695Y-122724895D01*
X213326505Y-123439181D02*
X212755076Y-123439181D01*
X213040790Y-123439181D02*
X213040790Y-122439181D01*
X212945552Y-122582038D01*
X212850314Y-122677276D01*
X212755076Y-122724895D01*
X209338381Y-118975381D02*
X208766952Y-118975381D01*
X209052666Y-118975381D02*
X209052666Y-117975381D01*
X208957428Y-118118238D01*
X208862190Y-118213476D01*
X208766952Y-118261095D01*
X209766952Y-118308714D02*
X209766952Y-118975381D01*
X209766952Y-118403952D02*
X209814571Y-118356333D01*
X209909809Y-118308714D01*
X210052667Y-118308714D01*
X210147905Y-118356333D01*
X210195524Y-118451571D01*
X210195524Y-118975381D01*
X211100286Y-118308714D02*
X211100286Y-118975381D01*
X210862190Y-117927762D02*
X210624095Y-118642048D01*
X211243143Y-118642048D01*
X212100286Y-117975381D02*
X211624095Y-117975381D01*
X211576476Y-118451571D01*
X211624095Y-118403952D01*
X211719333Y-118356333D01*
X211957429Y-118356333D01*
X212052667Y-118403952D01*
X212100286Y-118451571D01*
X212147905Y-118546810D01*
X212147905Y-118784905D01*
X212100286Y-118880143D01*
X212052667Y-118927762D01*
X211957429Y-118975381D01*
X211719333Y-118975381D01*
X211624095Y-118927762D01*
X211576476Y-118880143D01*
X212766952Y-117975381D02*
X212862191Y-117975381D01*
X212957429Y-118023000D01*
X213005048Y-118070619D01*
X213052667Y-118165857D01*
X213100286Y-118356333D01*
X213100286Y-118594429D01*
X213052667Y-118784905D01*
X213005048Y-118880143D01*
X212957429Y-118927762D01*
X212862191Y-118975381D01*
X212766952Y-118975381D01*
X212671714Y-118927762D01*
X212624095Y-118880143D01*
X212576476Y-118784905D01*
X212528857Y-118594429D01*
X212528857Y-118356333D01*
X212576476Y-118165857D01*
X212624095Y-118070619D01*
X212671714Y-118023000D01*
X212766952Y-117975381D01*
X213719333Y-117975381D02*
X213814572Y-117975381D01*
X213909810Y-118023000D01*
X213957429Y-118070619D01*
X214005048Y-118165857D01*
X214052667Y-118356333D01*
X214052667Y-118594429D01*
X214005048Y-118784905D01*
X213957429Y-118880143D01*
X213909810Y-118927762D01*
X213814572Y-118975381D01*
X213719333Y-118975381D01*
X213624095Y-118927762D01*
X213576476Y-118880143D01*
X213528857Y-118784905D01*
X213481238Y-118594429D01*
X213481238Y-118356333D01*
X213528857Y-118165857D01*
X213576476Y-118070619D01*
X213624095Y-118023000D01*
X213719333Y-117975381D01*
X214386000Y-117975381D02*
X215052667Y-117975381D01*
X214624095Y-118975381D01*
X214391905Y-122340667D02*
X214868096Y-122340667D01*
X214296667Y-122626381D02*
X214630000Y-121626381D01*
X214963334Y-122626381D01*
X216793914Y-104135181D02*
X216793914Y-103135181D01*
X217032009Y-103135181D01*
X217174867Y-103182800D01*
X217270105Y-103278038D01*
X217317724Y-103373276D01*
X217365343Y-103563752D01*
X217365343Y-103706610D01*
X217317724Y-103897086D01*
X217270105Y-103992324D01*
X217174867Y-104087562D01*
X217032009Y-104135181D01*
X216793914Y-104135181D01*
X218317724Y-104135181D02*
X217746295Y-104135181D01*
X218032009Y-104135181D02*
X218032009Y-103135181D01*
X217936771Y-103278038D01*
X217841533Y-103373276D01*
X217746295Y-103420895D01*
X218698676Y-103230419D02*
X218746295Y-103182800D01*
X218841533Y-103135181D01*
X219079629Y-103135181D01*
X219174867Y-103182800D01*
X219222486Y-103230419D01*
X219270105Y-103325657D01*
X219270105Y-103420895D01*
X219222486Y-103563752D01*
X218651057Y-104135181D01*
X219270105Y-104135181D01*
X212610572Y-106135381D02*
X212039143Y-106135381D01*
X212324857Y-106135381D02*
X212324857Y-105135381D01*
X212229619Y-105278238D01*
X212134381Y-105373476D01*
X212039143Y-105421095D01*
X213039143Y-105468714D02*
X213039143Y-106135381D01*
X213039143Y-105563952D02*
X213086762Y-105516333D01*
X213182000Y-105468714D01*
X213324858Y-105468714D01*
X213420096Y-105516333D01*
X213467715Y-105611571D01*
X213467715Y-106135381D01*
X214372477Y-105468714D02*
X214372477Y-106135381D01*
X214134381Y-105087762D02*
X213896286Y-105802048D01*
X214515334Y-105802048D01*
X215086762Y-105135381D02*
X215182001Y-105135381D01*
X215277239Y-105183000D01*
X215324858Y-105230619D01*
X215372477Y-105325857D01*
X215420096Y-105516333D01*
X215420096Y-105754429D01*
X215372477Y-105944905D01*
X215324858Y-106040143D01*
X215277239Y-106087762D01*
X215182001Y-106135381D01*
X215086762Y-106135381D01*
X214991524Y-106087762D01*
X214943905Y-106040143D01*
X214896286Y-105944905D01*
X214848667Y-105754429D01*
X214848667Y-105516333D01*
X214896286Y-105325857D01*
X214943905Y-105230619D01*
X214991524Y-105183000D01*
X215086762Y-105135381D01*
X216039143Y-105135381D02*
X216134382Y-105135381D01*
X216229620Y-105183000D01*
X216277239Y-105230619D01*
X216324858Y-105325857D01*
X216372477Y-105516333D01*
X216372477Y-105754429D01*
X216324858Y-105944905D01*
X216277239Y-106040143D01*
X216229620Y-106087762D01*
X216134382Y-106135381D01*
X216039143Y-106135381D01*
X215943905Y-106087762D01*
X215896286Y-106040143D01*
X215848667Y-105944905D01*
X215801048Y-105754429D01*
X215801048Y-105516333D01*
X215848667Y-105325857D01*
X215896286Y-105230619D01*
X215943905Y-105183000D01*
X216039143Y-105135381D01*
X216705810Y-105135381D02*
X217372477Y-105135381D01*
X216943905Y-106135381D01*
X211699905Y-102198667D02*
X212176096Y-102198667D01*
X211604667Y-102484381D02*
X211938000Y-101484381D01*
X212271334Y-102484381D01*
X218470714Y-135199381D02*
X218470714Y-134199381D01*
X218708809Y-134199381D01*
X218851667Y-134247000D01*
X218946905Y-134342238D01*
X218994524Y-134437476D01*
X219042143Y-134627952D01*
X219042143Y-134770810D01*
X218994524Y-134961286D01*
X218946905Y-135056524D01*
X218851667Y-135151762D01*
X218708809Y-135199381D01*
X218470714Y-135199381D01*
X219994524Y-135199381D02*
X219423095Y-135199381D01*
X219708809Y-135199381D02*
X219708809Y-134199381D01*
X219613571Y-134342238D01*
X219518333Y-134437476D01*
X219423095Y-134485095D01*
X220327857Y-134199381D02*
X220946905Y-134199381D01*
X220613571Y-134580333D01*
X220756429Y-134580333D01*
X220851667Y-134627952D01*
X220899286Y-134675571D01*
X220946905Y-134770810D01*
X220946905Y-135008905D01*
X220899286Y-135104143D01*
X220851667Y-135151762D01*
X220756429Y-135199381D01*
X220470714Y-135199381D01*
X220375476Y-135151762D01*
X220327857Y-135104143D01*
X222540772Y-135173981D02*
X221969343Y-135173981D01*
X222255057Y-135173981D02*
X222255057Y-134173981D01*
X222159819Y-134316838D01*
X222064581Y-134412076D01*
X221969343Y-134459695D01*
X222969343Y-134507314D02*
X222969343Y-135173981D01*
X222969343Y-134602552D02*
X223016962Y-134554933D01*
X223112200Y-134507314D01*
X223255058Y-134507314D01*
X223350296Y-134554933D01*
X223397915Y-134650171D01*
X223397915Y-135173981D01*
X224302677Y-134507314D02*
X224302677Y-135173981D01*
X224064581Y-134126362D02*
X223826486Y-134840648D01*
X224445534Y-134840648D01*
X225016962Y-134173981D02*
X225112201Y-134173981D01*
X225207439Y-134221600D01*
X225255058Y-134269219D01*
X225302677Y-134364457D01*
X225350296Y-134554933D01*
X225350296Y-134793029D01*
X225302677Y-134983505D01*
X225255058Y-135078743D01*
X225207439Y-135126362D01*
X225112201Y-135173981D01*
X225016962Y-135173981D01*
X224921724Y-135126362D01*
X224874105Y-135078743D01*
X224826486Y-134983505D01*
X224778867Y-134793029D01*
X224778867Y-134554933D01*
X224826486Y-134364457D01*
X224874105Y-134269219D01*
X224921724Y-134221600D01*
X225016962Y-134173981D01*
X225969343Y-134173981D02*
X226064582Y-134173981D01*
X226159820Y-134221600D01*
X226207439Y-134269219D01*
X226255058Y-134364457D01*
X226302677Y-134554933D01*
X226302677Y-134793029D01*
X226255058Y-134983505D01*
X226207439Y-135078743D01*
X226159820Y-135126362D01*
X226064582Y-135173981D01*
X225969343Y-135173981D01*
X225874105Y-135126362D01*
X225826486Y-135078743D01*
X225778867Y-134983505D01*
X225731248Y-134793029D01*
X225731248Y-134554933D01*
X225778867Y-134364457D01*
X225826486Y-134269219D01*
X225874105Y-134221600D01*
X225969343Y-134173981D01*
X226636010Y-134173981D02*
X227302677Y-134173981D01*
X226874105Y-135173981D01*
X222240905Y-133389667D02*
X222717096Y-133389667D01*
X222145667Y-133675381D02*
X222479000Y-132675381D01*
X222812334Y-133675381D01*
X197683381Y-149677286D02*
X196683381Y-149677286D01*
X196683381Y-149439191D01*
X196731000Y-149296333D01*
X196826238Y-149201095D01*
X196921476Y-149153476D01*
X197111952Y-149105857D01*
X197254810Y-149105857D01*
X197445286Y-149153476D01*
X197540524Y-149201095D01*
X197635762Y-149296333D01*
X197683381Y-149439191D01*
X197683381Y-149677286D01*
X197683381Y-148153476D02*
X197683381Y-148724905D01*
X197683381Y-148439191D02*
X196683381Y-148439191D01*
X196826238Y-148534429D01*
X196921476Y-148629667D01*
X196969095Y-148724905D01*
X197016714Y-147296333D02*
X197683381Y-147296333D01*
X196635762Y-147534429D02*
X197350048Y-147772524D01*
X197350048Y-147153476D01*
X205684381Y-149105857D02*
X205684381Y-149582048D01*
X204684381Y-149582048D01*
X205160571Y-148772524D02*
X205160571Y-148439190D01*
X205684381Y-148296333D02*
X205684381Y-148772524D01*
X204684381Y-148772524D01*
X204684381Y-148296333D01*
X205684381Y-147867762D02*
X204684381Y-147867762D01*
X204684381Y-147629667D01*
X204732000Y-147486809D01*
X204827238Y-147391571D01*
X204922476Y-147343952D01*
X205112952Y-147296333D01*
X205255810Y-147296333D01*
X205446286Y-147343952D01*
X205541524Y-147391571D01*
X205636762Y-147486809D01*
X205684381Y-147629667D01*
X205684381Y-147867762D01*
X199842381Y-145295905D02*
X198842381Y-145295905D01*
X199842381Y-144724476D02*
X199270952Y-145153048D01*
X198842381Y-144724476D02*
X199413810Y-145295905D01*
X101087381Y-139447095D02*
X100087381Y-139447095D01*
X100087381Y-139066142D01*
X100135000Y-138970904D01*
X100182619Y-138923285D01*
X100277857Y-138875666D01*
X100420714Y-138875666D01*
X100515952Y-138923285D01*
X100563571Y-138970904D01*
X100611190Y-139066142D01*
X100611190Y-139447095D01*
X101087381Y-137923285D02*
X101087381Y-138494714D01*
X101087381Y-138209000D02*
X100087381Y-138209000D01*
X100230238Y-138304238D01*
X100325476Y-138399476D01*
X100373095Y-138494714D01*
X113835143Y-142732809D02*
X113882762Y-142780428D01*
X113930381Y-142923285D01*
X113930381Y-143018523D01*
X113882762Y-143161381D01*
X113787524Y-143256619D01*
X113692286Y-143304238D01*
X113501810Y-143351857D01*
X113358952Y-143351857D01*
X113168476Y-143304238D01*
X113073238Y-143256619D01*
X112978000Y-143161381D01*
X112930381Y-143018523D01*
X112930381Y-142923285D01*
X112978000Y-142780428D01*
X113025619Y-142732809D01*
X112930381Y-142113762D02*
X112930381Y-141923285D01*
X112978000Y-141828047D01*
X113073238Y-141732809D01*
X113263714Y-141685190D01*
X113597048Y-141685190D01*
X113787524Y-141732809D01*
X113882762Y-141828047D01*
X113930381Y-141923285D01*
X113930381Y-142113762D01*
X113882762Y-142209000D01*
X113787524Y-142304238D01*
X113597048Y-142351857D01*
X113263714Y-142351857D01*
X113073238Y-142304238D01*
X112978000Y-142209000D01*
X112930381Y-142113762D01*
X113930381Y-141256619D02*
X112930381Y-141256619D01*
X113930381Y-140685190D01*
X112930381Y-140685190D01*
X113930381Y-140209000D02*
X112930381Y-140209000D01*
X113930381Y-139637571D01*
X112930381Y-139637571D01*
X114025619Y-139399476D02*
X114025619Y-138637571D01*
X112930381Y-138209000D02*
X112930381Y-138113761D01*
X112978000Y-138018523D01*
X113025619Y-137970904D01*
X113120857Y-137923285D01*
X113311333Y-137875666D01*
X113549429Y-137875666D01*
X113739905Y-137923285D01*
X113835143Y-137970904D01*
X113882762Y-138018523D01*
X113930381Y-138113761D01*
X113930381Y-138209000D01*
X113882762Y-138304238D01*
X113835143Y-138351857D01*
X113739905Y-138399476D01*
X113549429Y-138447095D01*
X113311333Y-138447095D01*
X113120857Y-138399476D01*
X113025619Y-138351857D01*
X112978000Y-138304238D01*
X112930381Y-138209000D01*
X113025619Y-137494714D02*
X112978000Y-137447095D01*
X112930381Y-137351857D01*
X112930381Y-137113761D01*
X112978000Y-137018523D01*
X113025619Y-136970904D01*
X113120857Y-136923285D01*
X113216095Y-136923285D01*
X113358952Y-136970904D01*
X113930381Y-137542333D01*
X113930381Y-136923285D01*
X112930381Y-136589952D02*
X113930381Y-135923285D01*
X112930381Y-135923285D02*
X113930381Y-136589952D01*
X112930381Y-135351857D02*
X112930381Y-135256618D01*
X112978000Y-135161380D01*
X113025619Y-135113761D01*
X113120857Y-135066142D01*
X113311333Y-135018523D01*
X113549429Y-135018523D01*
X113739905Y-135066142D01*
X113835143Y-135113761D01*
X113882762Y-135161380D01*
X113930381Y-135256618D01*
X113930381Y-135351857D01*
X113882762Y-135447095D01*
X113835143Y-135494714D01*
X113739905Y-135542333D01*
X113549429Y-135589952D01*
X113311333Y-135589952D01*
X113120857Y-135542333D01*
X113025619Y-135494714D01*
X112978000Y-135447095D01*
X112930381Y-135351857D01*
X112930381Y-134113761D02*
X112930381Y-134589952D01*
X113406571Y-134637571D01*
X113358952Y-134589952D01*
X113311333Y-134494714D01*
X113311333Y-134256618D01*
X113358952Y-134161380D01*
X113406571Y-134113761D01*
X113501810Y-134066142D01*
X113739905Y-134066142D01*
X113835143Y-134113761D01*
X113882762Y-134161380D01*
X113930381Y-134256618D01*
X113930381Y-134494714D01*
X113882762Y-134589952D01*
X113835143Y-134637571D01*
X185478905Y-143907381D02*
X185478905Y-142907381D01*
X185859858Y-142907381D01*
X185955096Y-142955000D01*
X186002715Y-143002619D01*
X186050334Y-143097857D01*
X186050334Y-143240714D01*
X186002715Y-143335952D01*
X185955096Y-143383571D01*
X185859858Y-143431190D01*
X185478905Y-143431190D01*
X186431286Y-143002619D02*
X186478905Y-142955000D01*
X186574143Y-142907381D01*
X186812239Y-142907381D01*
X186907477Y-142955000D01*
X186955096Y-143002619D01*
X187002715Y-143097857D01*
X187002715Y-143193095D01*
X186955096Y-143335952D01*
X186383667Y-143907381D01*
X187002715Y-143907381D01*
X183224991Y-151969743D02*
X183177372Y-152017362D01*
X183034515Y-152064981D01*
X182939277Y-152064981D01*
X182796419Y-152017362D01*
X182701181Y-151922124D01*
X182653562Y-151826886D01*
X182605943Y-151636410D01*
X182605943Y-151493552D01*
X182653562Y-151303076D01*
X182701181Y-151207838D01*
X182796419Y-151112600D01*
X182939277Y-151064981D01*
X183034515Y-151064981D01*
X183177372Y-151112600D01*
X183224991Y-151160219D01*
X183844038Y-151064981D02*
X184034515Y-151064981D01*
X184129753Y-151112600D01*
X184224991Y-151207838D01*
X184272610Y-151398314D01*
X184272610Y-151731648D01*
X184224991Y-151922124D01*
X184129753Y-152017362D01*
X184034515Y-152064981D01*
X183844038Y-152064981D01*
X183748800Y-152017362D01*
X183653562Y-151922124D01*
X183605943Y-151731648D01*
X183605943Y-151398314D01*
X183653562Y-151207838D01*
X183748800Y-151112600D01*
X183844038Y-151064981D01*
X184701181Y-152064981D02*
X184701181Y-151064981D01*
X185272610Y-152064981D01*
X185272610Y-151064981D01*
X185748800Y-152064981D02*
X185748800Y-151064981D01*
X186320229Y-152064981D01*
X186320229Y-151064981D01*
X186558324Y-152160219D02*
X187320229Y-152160219D01*
X187748800Y-151064981D02*
X187844039Y-151064981D01*
X187939277Y-151112600D01*
X187986896Y-151160219D01*
X188034515Y-151255457D01*
X188082134Y-151445933D01*
X188082134Y-151684029D01*
X188034515Y-151874505D01*
X187986896Y-151969743D01*
X187939277Y-152017362D01*
X187844039Y-152064981D01*
X187748800Y-152064981D01*
X187653562Y-152017362D01*
X187605943Y-151969743D01*
X187558324Y-151874505D01*
X187510705Y-151684029D01*
X187510705Y-151445933D01*
X187558324Y-151255457D01*
X187605943Y-151160219D01*
X187653562Y-151112600D01*
X187748800Y-151064981D01*
X189034515Y-152064981D02*
X188463086Y-152064981D01*
X188748800Y-152064981D02*
X188748800Y-151064981D01*
X188653562Y-151207838D01*
X188558324Y-151303076D01*
X188463086Y-151350695D01*
X189367848Y-151064981D02*
X190034515Y-152064981D01*
X190034515Y-151064981D02*
X189367848Y-152064981D01*
X190605943Y-151064981D02*
X190701182Y-151064981D01*
X190796420Y-151112600D01*
X190844039Y-151160219D01*
X190891658Y-151255457D01*
X190939277Y-151445933D01*
X190939277Y-151684029D01*
X190891658Y-151874505D01*
X190844039Y-151969743D01*
X190796420Y-152017362D01*
X190701182Y-152064981D01*
X190605943Y-152064981D01*
X190510705Y-152017362D01*
X190463086Y-151969743D01*
X190415467Y-151874505D01*
X190367848Y-151684029D01*
X190367848Y-151445933D01*
X190415467Y-151255457D01*
X190463086Y-151160219D01*
X190510705Y-151112600D01*
X190605943Y-151064981D01*
X191320229Y-151160219D02*
X191367848Y-151112600D01*
X191463086Y-151064981D01*
X191701182Y-151064981D01*
X191796420Y-151112600D01*
X191844039Y-151160219D01*
X191891658Y-151255457D01*
X191891658Y-151350695D01*
X191844039Y-151493552D01*
X191272610Y-152064981D01*
X191891658Y-152064981D01*
X170720905Y-144161381D02*
X170720905Y-143161381D01*
X171101858Y-143161381D01*
X171197096Y-143209000D01*
X171244715Y-143256619D01*
X171292334Y-143351857D01*
X171292334Y-143494714D01*
X171244715Y-143589952D01*
X171197096Y-143637571D01*
X171101858Y-143685190D01*
X170720905Y-143685190D01*
X171625667Y-143161381D02*
X172244715Y-143161381D01*
X171911381Y-143542333D01*
X172054239Y-143542333D01*
X172149477Y-143589952D01*
X172197096Y-143637571D01*
X172244715Y-143732810D01*
X172244715Y-143970905D01*
X172197096Y-144066143D01*
X172149477Y-144113762D01*
X172054239Y-144161381D01*
X171768524Y-144161381D01*
X171673286Y-144113762D01*
X171625667Y-144066143D01*
X169480171Y-152268181D02*
X169384933Y-152220562D01*
X169337314Y-152172943D01*
X169289695Y-152077705D01*
X169289695Y-151791990D01*
X169337314Y-151696752D01*
X169384933Y-151649133D01*
X169480171Y-151601514D01*
X169623029Y-151601514D01*
X169718267Y-151649133D01*
X169765886Y-151696752D01*
X169813505Y-151791990D01*
X169813505Y-152077705D01*
X169765886Y-152172943D01*
X169718267Y-152220562D01*
X169623029Y-152268181D01*
X169480171Y-152268181D01*
X170242076Y-151601514D02*
X170242076Y-152268181D01*
X170242076Y-151696752D02*
X170289695Y-151649133D01*
X170384933Y-151601514D01*
X170527791Y-151601514D01*
X170623029Y-151649133D01*
X170670648Y-151744371D01*
X170670648Y-152268181D01*
X171861124Y-151220562D02*
X171003981Y-152506276D01*
X172337314Y-152268181D02*
X172242076Y-152220562D01*
X172194457Y-152172943D01*
X172146838Y-152077705D01*
X172146838Y-151791990D01*
X172194457Y-151696752D01*
X172242076Y-151649133D01*
X172337314Y-151601514D01*
X172480172Y-151601514D01*
X172575410Y-151649133D01*
X172623029Y-151696752D01*
X172670648Y-151791990D01*
X172670648Y-152077705D01*
X172623029Y-152172943D01*
X172575410Y-152220562D01*
X172480172Y-152268181D01*
X172337314Y-152268181D01*
X172956362Y-151601514D02*
X173337314Y-151601514D01*
X173099219Y-152268181D02*
X173099219Y-151411038D01*
X173146838Y-151315800D01*
X173242076Y-151268181D01*
X173337314Y-151268181D01*
X173527791Y-151601514D02*
X173908743Y-151601514D01*
X173670648Y-152268181D02*
X173670648Y-151411038D01*
X173718267Y-151315800D01*
X173813505Y-151268181D01*
X173908743Y-151268181D01*
X178188905Y-144085381D02*
X178188905Y-143085381D01*
X178569858Y-143085381D01*
X178665096Y-143133000D01*
X178712715Y-143180619D01*
X178760334Y-143275857D01*
X178760334Y-143418714D01*
X178712715Y-143513952D01*
X178665096Y-143561571D01*
X178569858Y-143609190D01*
X178188905Y-143609190D01*
X179617477Y-143418714D02*
X179617477Y-144085381D01*
X179379381Y-143037762D02*
X179141286Y-143752048D01*
X179760334Y-143752048D01*
X177738305Y-151830114D02*
X178119257Y-151830114D01*
X177881162Y-151496781D02*
X177881162Y-152353924D01*
X177928781Y-152449162D01*
X178024019Y-152496781D01*
X178119257Y-152496781D01*
X178833544Y-152449162D02*
X178738306Y-152496781D01*
X178547829Y-152496781D01*
X178452591Y-152449162D01*
X178404972Y-152353924D01*
X178404972Y-151972971D01*
X178452591Y-151877733D01*
X178547829Y-151830114D01*
X178738306Y-151830114D01*
X178833544Y-151877733D01*
X178881163Y-151972971D01*
X178881163Y-152068210D01*
X178404972Y-152163448D01*
X179309734Y-152496781D02*
X179309734Y-151830114D01*
X179309734Y-151925352D02*
X179357353Y-151877733D01*
X179452591Y-151830114D01*
X179595449Y-151830114D01*
X179690687Y-151877733D01*
X179738306Y-151972971D01*
X179738306Y-152496781D01*
X179738306Y-151972971D02*
X179785925Y-151877733D01*
X179881163Y-151830114D01*
X180024020Y-151830114D01*
X180119258Y-151877733D01*
X180166877Y-151972971D01*
X180166877Y-152496781D01*
X180643067Y-151830114D02*
X180643067Y-152830114D01*
X180643067Y-151877733D02*
X180738305Y-151830114D01*
X180928782Y-151830114D01*
X181024020Y-151877733D01*
X181071639Y-151925352D01*
X181119258Y-152020590D01*
X181119258Y-152306305D01*
X181071639Y-152401543D01*
X181024020Y-152449162D01*
X180928782Y-152496781D01*
X180738305Y-152496781D01*
X180643067Y-152449162D01*
X155252905Y-143983381D02*
X155252905Y-142983381D01*
X155633858Y-142983381D01*
X155729096Y-143031000D01*
X155776715Y-143078619D01*
X155824334Y-143173857D01*
X155824334Y-143316714D01*
X155776715Y-143411952D01*
X155729096Y-143459571D01*
X155633858Y-143507190D01*
X155252905Y-143507190D01*
X156729096Y-142983381D02*
X156252905Y-142983381D01*
X156205286Y-143459571D01*
X156252905Y-143411952D01*
X156348143Y-143364333D01*
X156586239Y-143364333D01*
X156681477Y-143411952D01*
X156729096Y-143459571D01*
X156776715Y-143554810D01*
X156776715Y-143792905D01*
X156729096Y-143888143D01*
X156681477Y-143935762D01*
X156586239Y-143983381D01*
X156348143Y-143983381D01*
X156252905Y-143935762D01*
X156205286Y-143888143D01*
X153814781Y-152169762D02*
X153719543Y-152217381D01*
X153529066Y-152217381D01*
X153433828Y-152169762D01*
X153386209Y-152122143D01*
X153338590Y-152026905D01*
X153338590Y-151741190D01*
X153386209Y-151645952D01*
X153433828Y-151598333D01*
X153529066Y-151550714D01*
X153719543Y-151550714D01*
X153814781Y-151598333D01*
X154100495Y-151550714D02*
X154481447Y-151550714D01*
X154243352Y-151217381D02*
X154243352Y-152074524D01*
X154290971Y-152169762D01*
X154386209Y-152217381D01*
X154481447Y-152217381D01*
X155529067Y-152169762D02*
X155624305Y-152217381D01*
X155814781Y-152217381D01*
X155910020Y-152169762D01*
X155957639Y-152074524D01*
X155957639Y-152026905D01*
X155910020Y-151931667D01*
X155814781Y-151884048D01*
X155671924Y-151884048D01*
X155576686Y-151836429D01*
X155529067Y-151741190D01*
X155529067Y-151693571D01*
X155576686Y-151598333D01*
X155671924Y-151550714D01*
X155814781Y-151550714D01*
X155910020Y-151598333D01*
X156767163Y-152169762D02*
X156671925Y-152217381D01*
X156481448Y-152217381D01*
X156386210Y-152169762D01*
X156338591Y-152074524D01*
X156338591Y-151693571D01*
X156386210Y-151598333D01*
X156481448Y-151550714D01*
X156671925Y-151550714D01*
X156767163Y-151598333D01*
X156814782Y-151693571D01*
X156814782Y-151788810D01*
X156338591Y-151884048D01*
X157243353Y-151550714D02*
X157243353Y-152217381D01*
X157243353Y-151645952D02*
X157290972Y-151598333D01*
X157386210Y-151550714D01*
X157529068Y-151550714D01*
X157624306Y-151598333D01*
X157671925Y-151693571D01*
X157671925Y-152217381D01*
X158100496Y-152169762D02*
X158195734Y-152217381D01*
X158386210Y-152217381D01*
X158481449Y-152169762D01*
X158529068Y-152074524D01*
X158529068Y-152026905D01*
X158481449Y-151931667D01*
X158386210Y-151884048D01*
X158243353Y-151884048D01*
X158148115Y-151836429D01*
X158100496Y-151741190D01*
X158100496Y-151693571D01*
X158148115Y-151598333D01*
X158243353Y-151550714D01*
X158386210Y-151550714D01*
X158481449Y-151598333D01*
X159338592Y-152169762D02*
X159243354Y-152217381D01*
X159052877Y-152217381D01*
X158957639Y-152169762D01*
X158910020Y-152074524D01*
X158910020Y-151693571D01*
X158957639Y-151598333D01*
X159052877Y-151550714D01*
X159243354Y-151550714D01*
X159338592Y-151598333D01*
X159386211Y-151693571D01*
X159386211Y-151788810D01*
X158910020Y-151884048D01*
X250340905Y-90673181D02*
X250340905Y-89673181D01*
X250721858Y-89673181D01*
X250817096Y-89720800D01*
X250864715Y-89768419D01*
X250912334Y-89863657D01*
X250912334Y-90006514D01*
X250864715Y-90101752D01*
X250817096Y-90149371D01*
X250721858Y-90196990D01*
X250340905Y-90196990D01*
X251769477Y-89673181D02*
X251579000Y-89673181D01*
X251483762Y-89720800D01*
X251436143Y-89768419D01*
X251340905Y-89911276D01*
X251293286Y-90101752D01*
X251293286Y-90482705D01*
X251340905Y-90577943D01*
X251388524Y-90625562D01*
X251483762Y-90673181D01*
X251674239Y-90673181D01*
X251769477Y-90625562D01*
X251817096Y-90577943D01*
X251864715Y-90482705D01*
X251864715Y-90244610D01*
X251817096Y-90149371D01*
X251769477Y-90101752D01*
X251674239Y-90054133D01*
X251483762Y-90054133D01*
X251388524Y-90101752D01*
X251340905Y-90149371D01*
X251293286Y-90244610D01*
X246483762Y-96229467D02*
X246959953Y-96229467D01*
X246388524Y-96515181D02*
X246721857Y-95515181D01*
X247055191Y-96515181D01*
X247817096Y-96467562D02*
X247721858Y-96515181D01*
X247531381Y-96515181D01*
X247436143Y-96467562D01*
X247388524Y-96419943D01*
X247340905Y-96324705D01*
X247340905Y-96038990D01*
X247388524Y-95943752D01*
X247436143Y-95896133D01*
X247531381Y-95848514D01*
X247721858Y-95848514D01*
X247817096Y-95896133D01*
X248102810Y-95848514D02*
X248483762Y-95848514D01*
X248245667Y-95515181D02*
X248245667Y-96372324D01*
X248293286Y-96467562D01*
X248388524Y-96515181D01*
X248483762Y-96515181D01*
X248817096Y-96515181D02*
X248817096Y-95848514D01*
X248817096Y-95515181D02*
X248769477Y-95562800D01*
X248817096Y-95610419D01*
X248864715Y-95562800D01*
X248817096Y-95515181D01*
X248817096Y-95610419D01*
X249198048Y-95848514D02*
X249436143Y-96515181D01*
X249674239Y-95848514D01*
X250436144Y-96467562D02*
X250340906Y-96515181D01*
X250150429Y-96515181D01*
X250055191Y-96467562D01*
X250007572Y-96372324D01*
X250007572Y-95991371D01*
X250055191Y-95896133D01*
X250150429Y-95848514D01*
X250340906Y-95848514D01*
X250436144Y-95896133D01*
X250483763Y-95991371D01*
X250483763Y-96086610D01*
X250007572Y-96181848D01*
X251674239Y-96515181D02*
X251674239Y-95848514D01*
X251674239Y-95943752D02*
X251721858Y-95896133D01*
X251817096Y-95848514D01*
X251959954Y-95848514D01*
X252055192Y-95896133D01*
X252102811Y-95991371D01*
X252102811Y-96515181D01*
X252102811Y-95991371D02*
X252150430Y-95896133D01*
X252245668Y-95848514D01*
X252388525Y-95848514D01*
X252483763Y-95896133D01*
X252531382Y-95991371D01*
X252531382Y-96515181D01*
X253436144Y-96515181D02*
X253436144Y-95991371D01*
X253388525Y-95896133D01*
X253293287Y-95848514D01*
X253102810Y-95848514D01*
X253007572Y-95896133D01*
X253436144Y-96467562D02*
X253340906Y-96515181D01*
X253102810Y-96515181D01*
X253007572Y-96467562D01*
X252959953Y-96372324D01*
X252959953Y-96277086D01*
X253007572Y-96181848D01*
X253102810Y-96134229D01*
X253340906Y-96134229D01*
X253436144Y-96086610D01*
X253912334Y-96515181D02*
X253912334Y-95848514D01*
X253912334Y-95515181D02*
X253864715Y-95562800D01*
X253912334Y-95610419D01*
X253959953Y-95562800D01*
X253912334Y-95515181D01*
X253912334Y-95610419D01*
X254388524Y-95848514D02*
X254388524Y-96515181D01*
X254388524Y-95943752D02*
X254436143Y-95896133D01*
X254531381Y-95848514D01*
X254674239Y-95848514D01*
X254769477Y-95896133D01*
X254817096Y-95991371D01*
X254817096Y-96515181D01*
X255245667Y-96467562D02*
X255340905Y-96515181D01*
X255531381Y-96515181D01*
X255626620Y-96467562D01*
X255674239Y-96372324D01*
X255674239Y-96324705D01*
X255626620Y-96229467D01*
X255531381Y-96181848D01*
X255388524Y-96181848D01*
X255293286Y-96134229D01*
X255245667Y-96038990D01*
X255245667Y-95991371D01*
X255293286Y-95896133D01*
X255388524Y-95848514D01*
X255531381Y-95848514D01*
X255626620Y-95896133D01*
X250619905Y-129560381D02*
X250619905Y-128560381D01*
X251000858Y-128560381D01*
X251096096Y-128608000D01*
X251143715Y-128655619D01*
X251191334Y-128750857D01*
X251191334Y-128893714D01*
X251143715Y-128988952D01*
X251096096Y-129036571D01*
X251000858Y-129084190D01*
X250619905Y-129084190D01*
X251524667Y-128560381D02*
X252191334Y-128560381D01*
X251762762Y-129560381D01*
X246357999Y-134735714D02*
X246357999Y-135402381D01*
X246357999Y-134830952D02*
X246405618Y-134783333D01*
X246500856Y-134735714D01*
X246643714Y-134735714D01*
X246738952Y-134783333D01*
X246786571Y-134878571D01*
X246786571Y-135402381D01*
X247643714Y-135354762D02*
X247548476Y-135402381D01*
X247357999Y-135402381D01*
X247262761Y-135354762D01*
X247215142Y-135259524D01*
X247215142Y-134878571D01*
X247262761Y-134783333D01*
X247357999Y-134735714D01*
X247548476Y-134735714D01*
X247643714Y-134783333D01*
X247691333Y-134878571D01*
X247691333Y-134973810D01*
X247215142Y-135069048D01*
X248548476Y-134735714D02*
X248548476Y-135402381D01*
X248119904Y-134735714D02*
X248119904Y-135259524D01*
X248167523Y-135354762D01*
X248262761Y-135402381D01*
X248405619Y-135402381D01*
X248500857Y-135354762D01*
X248548476Y-135307143D01*
X248881809Y-134735714D02*
X249262761Y-134735714D01*
X249024666Y-134402381D02*
X249024666Y-135259524D01*
X249072285Y-135354762D01*
X249167523Y-135402381D01*
X249262761Y-135402381D01*
X249596095Y-135402381D02*
X249596095Y-134735714D01*
X249596095Y-134926190D02*
X249643714Y-134830952D01*
X249691333Y-134783333D01*
X249786571Y-134735714D01*
X249881810Y-134735714D01*
X250643715Y-135402381D02*
X250643715Y-134878571D01*
X250596096Y-134783333D01*
X250500858Y-134735714D01*
X250310381Y-134735714D01*
X250215143Y-134783333D01*
X250643715Y-135354762D02*
X250548477Y-135402381D01*
X250310381Y-135402381D01*
X250215143Y-135354762D01*
X250167524Y-135259524D01*
X250167524Y-135164286D01*
X250215143Y-135069048D01*
X250310381Y-135021429D01*
X250548477Y-135021429D01*
X250643715Y-134973810D01*
X251262762Y-135402381D02*
X251167524Y-135354762D01*
X251119905Y-135259524D01*
X251119905Y-134402381D01*
X252405620Y-135402381D02*
X252405620Y-134735714D01*
X252405620Y-134830952D02*
X252453239Y-134783333D01*
X252548477Y-134735714D01*
X252691335Y-134735714D01*
X252786573Y-134783333D01*
X252834192Y-134878571D01*
X252834192Y-135402381D01*
X252834192Y-134878571D02*
X252881811Y-134783333D01*
X252977049Y-134735714D01*
X253119906Y-134735714D01*
X253215144Y-134783333D01*
X253262763Y-134878571D01*
X253262763Y-135402381D01*
X254167525Y-135402381D02*
X254167525Y-134878571D01*
X254119906Y-134783333D01*
X254024668Y-134735714D01*
X253834191Y-134735714D01*
X253738953Y-134783333D01*
X254167525Y-135354762D02*
X254072287Y-135402381D01*
X253834191Y-135402381D01*
X253738953Y-135354762D01*
X253691334Y-135259524D01*
X253691334Y-135164286D01*
X253738953Y-135069048D01*
X253834191Y-135021429D01*
X254072287Y-135021429D01*
X254167525Y-134973810D01*
X254643715Y-135402381D02*
X254643715Y-134735714D01*
X254643715Y-134402381D02*
X254596096Y-134450000D01*
X254643715Y-134497619D01*
X254691334Y-134450000D01*
X254643715Y-134402381D01*
X254643715Y-134497619D01*
X255119905Y-134735714D02*
X255119905Y-135402381D01*
X255119905Y-134830952D02*
X255167524Y-134783333D01*
X255262762Y-134735714D01*
X255405620Y-134735714D01*
X255500858Y-134783333D01*
X255548477Y-134878571D01*
X255548477Y-135402381D01*
X255977048Y-135354762D02*
X256072286Y-135402381D01*
X256262762Y-135402381D01*
X256358001Y-135354762D01*
X256405620Y-135259524D01*
X256405620Y-135211905D01*
X256358001Y-135116667D01*
X256262762Y-135069048D01*
X256119905Y-135069048D01*
X256024667Y-135021429D01*
X255977048Y-134926190D01*
X255977048Y-134878571D01*
X256024667Y-134783333D01*
X256119905Y-134735714D01*
X256262762Y-134735714D01*
X256358001Y-134783333D01*
X162643905Y-144161381D02*
X162643905Y-143161381D01*
X163024858Y-143161381D01*
X163120096Y-143209000D01*
X163167715Y-143256619D01*
X163215334Y-143351857D01*
X163215334Y-143494714D01*
X163167715Y-143589952D01*
X163120096Y-143637571D01*
X163024858Y-143685190D01*
X162643905Y-143685190D01*
X163786762Y-143589952D02*
X163691524Y-143542333D01*
X163643905Y-143494714D01*
X163596286Y-143399476D01*
X163596286Y-143351857D01*
X163643905Y-143256619D01*
X163691524Y-143209000D01*
X163786762Y-143161381D01*
X163977239Y-143161381D01*
X164072477Y-143209000D01*
X164120096Y-143256619D01*
X164167715Y-143351857D01*
X164167715Y-143399476D01*
X164120096Y-143494714D01*
X164072477Y-143542333D01*
X163977239Y-143589952D01*
X163786762Y-143589952D01*
X163691524Y-143637571D01*
X163643905Y-143685190D01*
X163596286Y-143780429D01*
X163596286Y-143970905D01*
X163643905Y-144066143D01*
X163691524Y-144113762D01*
X163786762Y-144161381D01*
X163977239Y-144161381D01*
X164072477Y-144113762D01*
X164120096Y-144066143D01*
X164167715Y-143970905D01*
X164167715Y-143780429D01*
X164120096Y-143685190D01*
X164072477Y-143637571D01*
X163977239Y-143589952D01*
X160534790Y-152118962D02*
X160630028Y-152166581D01*
X160820504Y-152166581D01*
X160915743Y-152118962D01*
X160963362Y-152023724D01*
X160963362Y-151976105D01*
X160915743Y-151880867D01*
X160820504Y-151833248D01*
X160677647Y-151833248D01*
X160582409Y-151785629D01*
X160534790Y-151690390D01*
X160534790Y-151642771D01*
X160582409Y-151547533D01*
X160677647Y-151499914D01*
X160820504Y-151499914D01*
X160915743Y-151547533D01*
X161296695Y-151499914D02*
X161534790Y-152166581D01*
X161772886Y-151499914D02*
X161534790Y-152166581D01*
X161439552Y-152404676D01*
X161391933Y-152452295D01*
X161296695Y-152499914D01*
X162106219Y-152118962D02*
X162201457Y-152166581D01*
X162391933Y-152166581D01*
X162487172Y-152118962D01*
X162534791Y-152023724D01*
X162534791Y-151976105D01*
X162487172Y-151880867D01*
X162391933Y-151833248D01*
X162249076Y-151833248D01*
X162153838Y-151785629D01*
X162106219Y-151690390D01*
X162106219Y-151642771D01*
X162153838Y-151547533D01*
X162249076Y-151499914D01*
X162391933Y-151499914D01*
X162487172Y-151547533D01*
X162820505Y-151499914D02*
X163201457Y-151499914D01*
X162963362Y-151166581D02*
X162963362Y-152023724D01*
X163010981Y-152118962D01*
X163106219Y-152166581D01*
X163201457Y-152166581D01*
X163915744Y-152118962D02*
X163820506Y-152166581D01*
X163630029Y-152166581D01*
X163534791Y-152118962D01*
X163487172Y-152023724D01*
X163487172Y-151642771D01*
X163534791Y-151547533D01*
X163630029Y-151499914D01*
X163820506Y-151499914D01*
X163915744Y-151547533D01*
X163963363Y-151642771D01*
X163963363Y-151738010D01*
X163487172Y-151833248D01*
X164391934Y-152166581D02*
X164391934Y-151499914D01*
X164391934Y-151595152D02*
X164439553Y-151547533D01*
X164534791Y-151499914D01*
X164677649Y-151499914D01*
X164772887Y-151547533D01*
X164820506Y-151642771D01*
X164820506Y-152166581D01*
X164820506Y-151642771D02*
X164868125Y-151547533D01*
X164963363Y-151499914D01*
X165106220Y-151499914D01*
X165201458Y-151547533D01*
X165249077Y-151642771D01*
X165249077Y-152166581D01*
X165868124Y-152166581D02*
X165772886Y-152118962D01*
X165725267Y-152023724D01*
X165725267Y-151166581D01*
X166630030Y-152118962D02*
X166534792Y-152166581D01*
X166344315Y-152166581D01*
X166249077Y-152118962D01*
X166201458Y-152023724D01*
X166201458Y-151642771D01*
X166249077Y-151547533D01*
X166344315Y-151499914D01*
X166534792Y-151499914D01*
X166630030Y-151547533D01*
X166677649Y-151642771D01*
X166677649Y-151738010D01*
X166201458Y-151833248D01*
X167534792Y-152166581D02*
X167534792Y-151166581D01*
X167534792Y-152118962D02*
X167439554Y-152166581D01*
X167249077Y-152166581D01*
X167153839Y-152118962D01*
X167106220Y-152071343D01*
X167058601Y-151976105D01*
X167058601Y-151690390D01*
X167106220Y-151595152D01*
X167153839Y-151547533D01*
X167249077Y-151499914D01*
X167439554Y-151499914D01*
X167534792Y-151547533D01*
X104171762Y-82615019D02*
X104076524Y-82567400D01*
X103981286Y-82472162D01*
X103838429Y-82329305D01*
X103743190Y-82281686D01*
X103647952Y-82281686D01*
X103695571Y-82519781D02*
X103600333Y-82472162D01*
X103505095Y-82376924D01*
X103457476Y-82186448D01*
X103457476Y-81853114D01*
X103505095Y-81662638D01*
X103600333Y-81567400D01*
X103695571Y-81519781D01*
X103886048Y-81519781D01*
X103981286Y-81567400D01*
X104076524Y-81662638D01*
X104124143Y-81853114D01*
X104124143Y-82186448D01*
X104076524Y-82376924D01*
X103981286Y-82472162D01*
X103886048Y-82519781D01*
X103695571Y-82519781D01*
X105076524Y-82519781D02*
X104505095Y-82519781D01*
X104790809Y-82519781D02*
X104790809Y-81519781D01*
X104695571Y-81662638D01*
X104600333Y-81757876D01*
X104505095Y-81805495D01*
X103249695Y-72531314D02*
X103630647Y-72531314D01*
X103392552Y-72197981D02*
X103392552Y-73055124D01*
X103440171Y-73150362D01*
X103535409Y-73197981D01*
X103630647Y-73197981D01*
X103963981Y-73197981D02*
X103963981Y-72531314D01*
X103963981Y-72197981D02*
X103916362Y-72245600D01*
X103963981Y-72293219D01*
X104011600Y-72245600D01*
X103963981Y-72197981D01*
X103963981Y-72293219D01*
X104440171Y-72531314D02*
X104440171Y-73531314D01*
X104440171Y-72578933D02*
X104535409Y-72531314D01*
X104725886Y-72531314D01*
X104821124Y-72578933D01*
X104868743Y-72626552D01*
X104916362Y-72721790D01*
X104916362Y-73007505D01*
X104868743Y-73102743D01*
X104821124Y-73150362D01*
X104725886Y-73197981D01*
X104535409Y-73197981D01*
X104440171Y-73150362D01*
X105249695Y-72197981D02*
X105868743Y-72197981D01*
X105535409Y-72578933D01*
X105678267Y-72578933D01*
X105773505Y-72626552D01*
X105821124Y-72674171D01*
X105868743Y-72769410D01*
X105868743Y-73007505D01*
X105821124Y-73102743D01*
X105773505Y-73150362D01*
X105678267Y-73197981D01*
X105392552Y-73197981D01*
X105297314Y-73150362D01*
X105249695Y-73102743D01*
X106773505Y-72197981D02*
X106297314Y-72197981D01*
X106249695Y-72674171D01*
X106297314Y-72626552D01*
X106392552Y-72578933D01*
X106630648Y-72578933D01*
X106725886Y-72626552D01*
X106773505Y-72674171D01*
X106821124Y-72769410D01*
X106821124Y-73007505D01*
X106773505Y-73102743D01*
X106725886Y-73150362D01*
X106630648Y-73197981D01*
X106392552Y-73197981D01*
X106297314Y-73150362D01*
X106249695Y-73102743D01*
X107678267Y-73150362D02*
X107583029Y-73197981D01*
X107392552Y-73197981D01*
X107297314Y-73150362D01*
X107249695Y-73102743D01*
X107202076Y-73007505D01*
X107202076Y-72721790D01*
X107249695Y-72626552D01*
X107297314Y-72578933D01*
X107392552Y-72531314D01*
X107583029Y-72531314D01*
X107678267Y-72578933D01*
X146843762Y-69356219D02*
X146748524Y-69308600D01*
X146653286Y-69213362D01*
X146510429Y-69070505D01*
X146415190Y-69022886D01*
X146319952Y-69022886D01*
X146367571Y-69260981D02*
X146272333Y-69213362D01*
X146177095Y-69118124D01*
X146129476Y-68927648D01*
X146129476Y-68594314D01*
X146177095Y-68403838D01*
X146272333Y-68308600D01*
X146367571Y-68260981D01*
X146558048Y-68260981D01*
X146653286Y-68308600D01*
X146748524Y-68403838D01*
X146796143Y-68594314D01*
X146796143Y-68927648D01*
X146748524Y-69118124D01*
X146653286Y-69213362D01*
X146558048Y-69260981D01*
X146367571Y-69260981D01*
X147177095Y-68356219D02*
X147224714Y-68308600D01*
X147319952Y-68260981D01*
X147558048Y-68260981D01*
X147653286Y-68308600D01*
X147700905Y-68356219D01*
X147748524Y-68451457D01*
X147748524Y-68546695D01*
X147700905Y-68689552D01*
X147129476Y-69260981D01*
X147748524Y-69260981D01*
X154633895Y-76061914D02*
X155014847Y-76061914D01*
X154776752Y-75728581D02*
X154776752Y-76585724D01*
X154824371Y-76680962D01*
X154919609Y-76728581D01*
X155014847Y-76728581D01*
X155348181Y-76728581D02*
X155348181Y-76061914D01*
X155348181Y-75728581D02*
X155300562Y-75776200D01*
X155348181Y-75823819D01*
X155395800Y-75776200D01*
X155348181Y-75728581D01*
X155348181Y-75823819D01*
X155824371Y-76061914D02*
X155824371Y-77061914D01*
X155824371Y-76109533D02*
X155919609Y-76061914D01*
X156110086Y-76061914D01*
X156205324Y-76109533D01*
X156252943Y-76157152D01*
X156300562Y-76252390D01*
X156300562Y-76538105D01*
X156252943Y-76633343D01*
X156205324Y-76680962D01*
X156110086Y-76728581D01*
X155919609Y-76728581D01*
X155824371Y-76680962D01*
X156633895Y-75728581D02*
X157252943Y-75728581D01*
X156919609Y-76109533D01*
X157062467Y-76109533D01*
X157157705Y-76157152D01*
X157205324Y-76204771D01*
X157252943Y-76300010D01*
X157252943Y-76538105D01*
X157205324Y-76633343D01*
X157157705Y-76680962D01*
X157062467Y-76728581D01*
X156776752Y-76728581D01*
X156681514Y-76680962D01*
X156633895Y-76633343D01*
X158157705Y-75728581D02*
X157681514Y-75728581D01*
X157633895Y-76204771D01*
X157681514Y-76157152D01*
X157776752Y-76109533D01*
X158014848Y-76109533D01*
X158110086Y-76157152D01*
X158157705Y-76204771D01*
X158205324Y-76300010D01*
X158205324Y-76538105D01*
X158157705Y-76633343D01*
X158110086Y-76680962D01*
X158014848Y-76728581D01*
X157776752Y-76728581D01*
X157681514Y-76680962D01*
X157633895Y-76633343D01*
X159062467Y-76680962D02*
X158967229Y-76728581D01*
X158776752Y-76728581D01*
X158681514Y-76680962D01*
X158633895Y-76633343D01*
X158586276Y-76538105D01*
X158586276Y-76252390D01*
X158633895Y-76157152D01*
X158681514Y-76109533D01*
X158776752Y-76061914D01*
X158967229Y-76061914D01*
X159062467Y-76109533D01*
X97178521Y-100736666D02*
X96702330Y-101070000D01*
X97178521Y-101308095D02*
X96178521Y-101308095D01*
X96178521Y-100927142D01*
X96226140Y-100831904D01*
X96273759Y-100784285D01*
X96368997Y-100736666D01*
X96511854Y-100736666D01*
X96607092Y-100784285D01*
X96654711Y-100831904D01*
X96702330Y-100927142D01*
X96702330Y-101308095D01*
X97178521Y-99784285D02*
X97178521Y-100355714D01*
X97178521Y-100070000D02*
X96178521Y-100070000D01*
X96321378Y-100165238D01*
X96416616Y-100260476D01*
X96464235Y-100355714D01*
X102576381Y-103179238D02*
X102576381Y-103655429D01*
X103052571Y-103703048D01*
X103004952Y-103655429D01*
X102957333Y-103560191D01*
X102957333Y-103322095D01*
X103004952Y-103226857D01*
X103052571Y-103179238D01*
X103147810Y-103131619D01*
X103385905Y-103131619D01*
X103481143Y-103179238D01*
X103528762Y-103226857D01*
X103576381Y-103322095D01*
X103576381Y-103560191D01*
X103528762Y-103655429D01*
X103481143Y-103703048D01*
X102909714Y-102798286D02*
X103576381Y-102607810D01*
X103100190Y-102417333D01*
X103576381Y-102226857D01*
X102909714Y-102036381D01*
X103576381Y-100369714D02*
X103576381Y-100941143D01*
X103576381Y-100655429D02*
X102576381Y-100655429D01*
X102719238Y-100750667D01*
X102814476Y-100845905D01*
X102862095Y-100941143D01*
X102671619Y-99988762D02*
X102624000Y-99941143D01*
X102576381Y-99845905D01*
X102576381Y-99607809D01*
X102624000Y-99512571D01*
X102671619Y-99464952D01*
X102766857Y-99417333D01*
X102862095Y-99417333D01*
X103004952Y-99464952D01*
X103576381Y-100036381D01*
X103576381Y-99417333D01*
X102576381Y-98798286D02*
X102576381Y-98703047D01*
X102624000Y-98607809D01*
X102671619Y-98560190D01*
X102766857Y-98512571D01*
X102957333Y-98464952D01*
X103195429Y-98464952D01*
X103385905Y-98512571D01*
X103481143Y-98560190D01*
X103528762Y-98607809D01*
X103576381Y-98703047D01*
X103576381Y-98798286D01*
X103528762Y-98893524D01*
X103481143Y-98941143D01*
X103385905Y-98988762D01*
X103195429Y-99036381D01*
X102957333Y-99036381D01*
X102766857Y-98988762D01*
X102671619Y-98941143D01*
X102624000Y-98893524D01*
X102576381Y-98798286D01*
X103576381Y-97464952D02*
X103100190Y-97798286D01*
X103576381Y-98036381D02*
X102576381Y-98036381D01*
X102576381Y-97655428D01*
X102624000Y-97560190D01*
X102671619Y-97512571D01*
X102766857Y-97464952D01*
X102909714Y-97464952D01*
X103004952Y-97512571D01*
X103052571Y-97560190D01*
X103100190Y-97655428D01*
X103100190Y-98036381D01*
X122439134Y-75610981D02*
X122105800Y-75134790D01*
X121867705Y-75610981D02*
X121867705Y-74610981D01*
X122248658Y-74610981D01*
X122343896Y-74658600D01*
X122391515Y-74706219D01*
X122439134Y-74801457D01*
X122439134Y-74944314D01*
X122391515Y-75039552D01*
X122343896Y-75087171D01*
X122248658Y-75134790D01*
X121867705Y-75134790D01*
X122820086Y-74706219D02*
X122867705Y-74658600D01*
X122962943Y-74610981D01*
X123201039Y-74610981D01*
X123296277Y-74658600D01*
X123343896Y-74706219D01*
X123391515Y-74801457D01*
X123391515Y-74896695D01*
X123343896Y-75039552D01*
X122772467Y-75610981D01*
X123391515Y-75610981D01*
X122518562Y-78074781D02*
X121947133Y-78074781D01*
X122232847Y-78074781D02*
X122232847Y-77074781D01*
X122137609Y-77217638D01*
X122042371Y-77312876D01*
X121947133Y-77360495D01*
X123137609Y-77074781D02*
X123232848Y-77074781D01*
X123328086Y-77122400D01*
X123375705Y-77170019D01*
X123423324Y-77265257D01*
X123470943Y-77455733D01*
X123470943Y-77693829D01*
X123423324Y-77884305D01*
X123375705Y-77979543D01*
X123328086Y-78027162D01*
X123232848Y-78074781D01*
X123137609Y-78074781D01*
X123042371Y-78027162D01*
X122994752Y-77979543D01*
X122947133Y-77884305D01*
X122899514Y-77693829D01*
X122899514Y-77455733D01*
X122947133Y-77265257D01*
X122994752Y-77170019D01*
X123042371Y-77122400D01*
X123137609Y-77074781D01*
X123899514Y-78074781D02*
X123899514Y-77074781D01*
X123994752Y-77693829D02*
X124280467Y-78074781D01*
X124280467Y-77408114D02*
X123899514Y-77789067D01*
X145507414Y-83327501D02*
X145174080Y-82851310D01*
X144935985Y-83327501D02*
X144935985Y-82327501D01*
X145316938Y-82327501D01*
X145412176Y-82375120D01*
X145459795Y-82422739D01*
X145507414Y-82517977D01*
X145507414Y-82660834D01*
X145459795Y-82756072D01*
X145412176Y-82803691D01*
X145316938Y-82851310D01*
X144935985Y-82851310D01*
X145840747Y-82327501D02*
X146459795Y-82327501D01*
X146126461Y-82708453D01*
X146269319Y-82708453D01*
X146364557Y-82756072D01*
X146412176Y-82803691D01*
X146459795Y-82898930D01*
X146459795Y-83137025D01*
X146412176Y-83232263D01*
X146364557Y-83279882D01*
X146269319Y-83327501D01*
X145983604Y-83327501D01*
X145888366Y-83279882D01*
X145840747Y-83232263D01*
X144997562Y-79674981D02*
X144426133Y-79674981D01*
X144711847Y-79674981D02*
X144711847Y-78674981D01*
X144616609Y-78817838D01*
X144521371Y-78913076D01*
X144426133Y-78960695D01*
X145616609Y-78674981D02*
X145711848Y-78674981D01*
X145807086Y-78722600D01*
X145854705Y-78770219D01*
X145902324Y-78865457D01*
X145949943Y-79055933D01*
X145949943Y-79294029D01*
X145902324Y-79484505D01*
X145854705Y-79579743D01*
X145807086Y-79627362D01*
X145711848Y-79674981D01*
X145616609Y-79674981D01*
X145521371Y-79627362D01*
X145473752Y-79579743D01*
X145426133Y-79484505D01*
X145378514Y-79294029D01*
X145378514Y-79055933D01*
X145426133Y-78865457D01*
X145473752Y-78770219D01*
X145521371Y-78722600D01*
X145616609Y-78674981D01*
X146378514Y-79674981D02*
X146378514Y-78674981D01*
X146473752Y-79294029D02*
X146759467Y-79674981D01*
X146759467Y-79008314D02*
X146378514Y-79389267D01*
X191180981Y-131306866D02*
X190704790Y-131640200D01*
X191180981Y-131878295D02*
X190180981Y-131878295D01*
X190180981Y-131497342D01*
X190228600Y-131402104D01*
X190276219Y-131354485D01*
X190371457Y-131306866D01*
X190514314Y-131306866D01*
X190609552Y-131354485D01*
X190657171Y-131402104D01*
X190704790Y-131497342D01*
X190704790Y-131878295D01*
X190514314Y-130449723D02*
X191180981Y-130449723D01*
X190133362Y-130687819D02*
X190847648Y-130925914D01*
X190847648Y-130306866D01*
X191282581Y-137577485D02*
X191282581Y-138148914D01*
X191282581Y-137863200D02*
X190282581Y-137863200D01*
X190425438Y-137958438D01*
X190520676Y-138053676D01*
X190568295Y-138148914D01*
X191282581Y-137148914D02*
X190282581Y-137148914D01*
X191282581Y-136577485D02*
X190711152Y-137006057D01*
X190282581Y-136577485D02*
X190854010Y-137148914D01*
X185034181Y-131027466D02*
X184557990Y-131360800D01*
X185034181Y-131598895D02*
X184034181Y-131598895D01*
X184034181Y-131217942D01*
X184081800Y-131122704D01*
X184129419Y-131075085D01*
X184224657Y-131027466D01*
X184367514Y-131027466D01*
X184462752Y-131075085D01*
X184510371Y-131122704D01*
X184557990Y-131217942D01*
X184557990Y-131598895D01*
X184034181Y-130122704D02*
X184034181Y-130598895D01*
X184510371Y-130646514D01*
X184462752Y-130598895D01*
X184415133Y-130503657D01*
X184415133Y-130265561D01*
X184462752Y-130170323D01*
X184510371Y-130122704D01*
X184605610Y-130075085D01*
X184843705Y-130075085D01*
X184938943Y-130122704D01*
X184986562Y-130170323D01*
X185034181Y-130265561D01*
X185034181Y-130503657D01*
X184986562Y-130598895D01*
X184938943Y-130646514D01*
X185135781Y-137221885D02*
X185135781Y-137793314D01*
X185135781Y-137507600D02*
X184135781Y-137507600D01*
X184278638Y-137602838D01*
X184373876Y-137698076D01*
X184421495Y-137793314D01*
X185135781Y-136793314D02*
X184135781Y-136793314D01*
X185135781Y-136221885D02*
X184564352Y-136650457D01*
X184135781Y-136221885D02*
X184707210Y-136793314D01*
X193457534Y-99639381D02*
X193124200Y-99163190D01*
X192886105Y-99639381D02*
X192886105Y-98639381D01*
X193267058Y-98639381D01*
X193362296Y-98687000D01*
X193409915Y-98734619D01*
X193457534Y-98829857D01*
X193457534Y-98972714D01*
X193409915Y-99067952D01*
X193362296Y-99115571D01*
X193267058Y-99163190D01*
X192886105Y-99163190D01*
X194314677Y-98639381D02*
X194124200Y-98639381D01*
X194028962Y-98687000D01*
X193981343Y-98734619D01*
X193886105Y-98877476D01*
X193838486Y-99067952D01*
X193838486Y-99448905D01*
X193886105Y-99544143D01*
X193933724Y-99591762D01*
X194028962Y-99639381D01*
X194219439Y-99639381D01*
X194314677Y-99591762D01*
X194362296Y-99544143D01*
X194409915Y-99448905D01*
X194409915Y-99210810D01*
X194362296Y-99115571D01*
X194314677Y-99067952D01*
X194219439Y-99020333D01*
X194028962Y-99020333D01*
X193933724Y-99067952D01*
X193886105Y-99115571D01*
X193838486Y-99210810D01*
X186221762Y-99512381D02*
X185650333Y-99512381D01*
X185936047Y-99512381D02*
X185936047Y-98512381D01*
X185840809Y-98655238D01*
X185745571Y-98750476D01*
X185650333Y-98798095D01*
X186840809Y-98512381D02*
X186936048Y-98512381D01*
X187031286Y-98560000D01*
X187078905Y-98607619D01*
X187126524Y-98702857D01*
X187174143Y-98893333D01*
X187174143Y-99131429D01*
X187126524Y-99321905D01*
X187078905Y-99417143D01*
X187031286Y-99464762D01*
X186936048Y-99512381D01*
X186840809Y-99512381D01*
X186745571Y-99464762D01*
X186697952Y-99417143D01*
X186650333Y-99321905D01*
X186602714Y-99131429D01*
X186602714Y-98893333D01*
X186650333Y-98702857D01*
X186697952Y-98607619D01*
X186745571Y-98560000D01*
X186840809Y-98512381D01*
X187602714Y-99512381D02*
X187602714Y-98512381D01*
X187697952Y-99131429D02*
X187983667Y-99512381D01*
X187983667Y-98845714D02*
X187602714Y-99226667D01*
X194016334Y-95981781D02*
X193683000Y-95505590D01*
X193444905Y-95981781D02*
X193444905Y-94981781D01*
X193825858Y-94981781D01*
X193921096Y-95029400D01*
X193968715Y-95077019D01*
X194016334Y-95172257D01*
X194016334Y-95315114D01*
X193968715Y-95410352D01*
X193921096Y-95457971D01*
X193825858Y-95505590D01*
X193444905Y-95505590D01*
X194349667Y-94981781D02*
X195016334Y-94981781D01*
X194587762Y-95981781D01*
X185955134Y-95524581D02*
X185383705Y-95524581D01*
X185669419Y-95524581D02*
X185669419Y-94524581D01*
X185574181Y-94667438D01*
X185478943Y-94762676D01*
X185383705Y-94810295D01*
X186574181Y-94524581D02*
X186669420Y-94524581D01*
X186764658Y-94572200D01*
X186812277Y-94619819D01*
X186859896Y-94715057D01*
X186907515Y-94905533D01*
X186907515Y-95143629D01*
X186859896Y-95334105D01*
X186812277Y-95429343D01*
X186764658Y-95476962D01*
X186669420Y-95524581D01*
X186574181Y-95524581D01*
X186478943Y-95476962D01*
X186431324Y-95429343D01*
X186383705Y-95334105D01*
X186336086Y-95143629D01*
X186336086Y-94905533D01*
X186383705Y-94715057D01*
X186431324Y-94619819D01*
X186478943Y-94572200D01*
X186574181Y-94524581D01*
X187526562Y-94524581D02*
X187621801Y-94524581D01*
X187717039Y-94572200D01*
X187764658Y-94619819D01*
X187812277Y-94715057D01*
X187859896Y-94905533D01*
X187859896Y-95143629D01*
X187812277Y-95334105D01*
X187764658Y-95429343D01*
X187717039Y-95476962D01*
X187621801Y-95524581D01*
X187526562Y-95524581D01*
X187431324Y-95476962D01*
X187383705Y-95429343D01*
X187336086Y-95334105D01*
X187288467Y-95143629D01*
X187288467Y-94905533D01*
X187336086Y-94715057D01*
X187383705Y-94619819D01*
X187431324Y-94572200D01*
X187526562Y-94524581D01*
X188859896Y-95524581D02*
X188526562Y-95048390D01*
X188288467Y-95524581D02*
X188288467Y-94524581D01*
X188669420Y-94524581D01*
X188764658Y-94572200D01*
X188812277Y-94619819D01*
X188859896Y-94715057D01*
X188859896Y-94857914D01*
X188812277Y-94953152D01*
X188764658Y-95000771D01*
X188669420Y-95048390D01*
X188288467Y-95048390D01*
X201391781Y-118860866D02*
X200915590Y-119194200D01*
X201391781Y-119432295D02*
X200391781Y-119432295D01*
X200391781Y-119051342D01*
X200439400Y-118956104D01*
X200487019Y-118908485D01*
X200582257Y-118860866D01*
X200725114Y-118860866D01*
X200820352Y-118908485D01*
X200867971Y-118956104D01*
X200915590Y-119051342D01*
X200915590Y-119432295D01*
X200820352Y-118289438D02*
X200772733Y-118384676D01*
X200725114Y-118432295D01*
X200629876Y-118479914D01*
X200582257Y-118479914D01*
X200487019Y-118432295D01*
X200439400Y-118384676D01*
X200391781Y-118289438D01*
X200391781Y-118098961D01*
X200439400Y-118003723D01*
X200487019Y-117956104D01*
X200582257Y-117908485D01*
X200629876Y-117908485D01*
X200725114Y-117956104D01*
X200772733Y-118003723D01*
X200820352Y-118098961D01*
X200820352Y-118289438D01*
X200867971Y-118384676D01*
X200915590Y-118432295D01*
X201010829Y-118479914D01*
X201201305Y-118479914D01*
X201296543Y-118432295D01*
X201344162Y-118384676D01*
X201391781Y-118289438D01*
X201391781Y-118098961D01*
X201344162Y-118003723D01*
X201296543Y-117956104D01*
X201201305Y-117908485D01*
X201010829Y-117908485D01*
X200915590Y-117956104D01*
X200867971Y-118003723D01*
X200820352Y-118098961D01*
X205303381Y-112209247D02*
X205303381Y-112780676D01*
X205303381Y-112494962D02*
X204303381Y-112494962D01*
X204446238Y-112590200D01*
X204541476Y-112685438D01*
X204589095Y-112780676D01*
X205303381Y-111780676D02*
X204303381Y-111780676D01*
X204922429Y-111685438D02*
X205303381Y-111399723D01*
X204636714Y-111399723D02*
X205017667Y-111780676D01*
X199401134Y-124785381D02*
X199067800Y-124309190D01*
X198829705Y-124785381D02*
X198829705Y-123785381D01*
X199210658Y-123785381D01*
X199305896Y-123833000D01*
X199353515Y-123880619D01*
X199401134Y-123975857D01*
X199401134Y-124118714D01*
X199353515Y-124213952D01*
X199305896Y-124261571D01*
X199210658Y-124309190D01*
X198829705Y-124309190D01*
X199877324Y-124785381D02*
X200067800Y-124785381D01*
X200163039Y-124737762D01*
X200210658Y-124690143D01*
X200305896Y-124547286D01*
X200353515Y-124356810D01*
X200353515Y-123975857D01*
X200305896Y-123880619D01*
X200258277Y-123833000D01*
X200163039Y-123785381D01*
X199972562Y-123785381D01*
X199877324Y-123833000D01*
X199829705Y-123880619D01*
X199782086Y-123975857D01*
X199782086Y-124213952D01*
X199829705Y-124309190D01*
X199877324Y-124356810D01*
X199972562Y-124404429D01*
X200163039Y-124404429D01*
X200258277Y-124356810D01*
X200305896Y-124309190D01*
X200353515Y-124213952D01*
X192089162Y-124277381D02*
X191517733Y-124277381D01*
X191803447Y-124277381D02*
X191803447Y-123277381D01*
X191708209Y-123420238D01*
X191612971Y-123515476D01*
X191517733Y-123563095D01*
X192517733Y-124277381D02*
X192517733Y-123277381D01*
X192612971Y-123896429D02*
X192898686Y-124277381D01*
X192898686Y-123610714D02*
X192517733Y-123991667D01*
X193470114Y-123705952D02*
X193374876Y-123658333D01*
X193327257Y-123610714D01*
X193279638Y-123515476D01*
X193279638Y-123467857D01*
X193327257Y-123372619D01*
X193374876Y-123325000D01*
X193470114Y-123277381D01*
X193660591Y-123277381D01*
X193755829Y-123325000D01*
X193803448Y-123372619D01*
X193851067Y-123467857D01*
X193851067Y-123515476D01*
X193803448Y-123610714D01*
X193755829Y-123658333D01*
X193660591Y-123705952D01*
X193470114Y-123705952D01*
X193374876Y-123753571D01*
X193327257Y-123801190D01*
X193279638Y-123896429D01*
X193279638Y-124086905D01*
X193327257Y-124182143D01*
X193374876Y-124229762D01*
X193470114Y-124277381D01*
X193660591Y-124277381D01*
X193755829Y-124229762D01*
X193803448Y-124182143D01*
X193851067Y-124086905D01*
X193851067Y-123896429D01*
X193803448Y-123801190D01*
X193755829Y-123753571D01*
X193660591Y-123705952D01*
X226610943Y-151150581D02*
X226277609Y-150674390D01*
X226039514Y-151150581D02*
X226039514Y-150150581D01*
X226420467Y-150150581D01*
X226515705Y-150198200D01*
X226563324Y-150245819D01*
X226610943Y-150341057D01*
X226610943Y-150483914D01*
X226563324Y-150579152D01*
X226515705Y-150626771D01*
X226420467Y-150674390D01*
X226039514Y-150674390D01*
X227563324Y-151150581D02*
X226991895Y-151150581D01*
X227277609Y-151150581D02*
X227277609Y-150150581D01*
X227182371Y-150293438D01*
X227087133Y-150388676D01*
X226991895Y-150436295D01*
X228182371Y-150150581D02*
X228277610Y-150150581D01*
X228372848Y-150198200D01*
X228420467Y-150245819D01*
X228468086Y-150341057D01*
X228515705Y-150531533D01*
X228515705Y-150769629D01*
X228468086Y-150960105D01*
X228420467Y-151055343D01*
X228372848Y-151102962D01*
X228277610Y-151150581D01*
X228182371Y-151150581D01*
X228087133Y-151102962D01*
X228039514Y-151055343D01*
X227991895Y-150960105D01*
X227944276Y-150769629D01*
X227944276Y-150531533D01*
X227991895Y-150341057D01*
X228039514Y-150245819D01*
X228087133Y-150198200D01*
X228182371Y-150150581D01*
X227210953Y-149194781D02*
X226639524Y-149194781D01*
X226925238Y-149194781D02*
X226925238Y-148194781D01*
X226830000Y-148337638D01*
X226734762Y-148432876D01*
X226639524Y-148480495D01*
X227639524Y-149194781D02*
X227639524Y-148194781D01*
X227734762Y-148813829D02*
X228020477Y-149194781D01*
X228020477Y-148528114D02*
X227639524Y-148909067D01*
X205252581Y-120048257D02*
X204776390Y-120381591D01*
X205252581Y-120619686D02*
X204252581Y-120619686D01*
X204252581Y-120238733D01*
X204300200Y-120143495D01*
X204347819Y-120095876D01*
X204443057Y-120048257D01*
X204585914Y-120048257D01*
X204681152Y-120095876D01*
X204728771Y-120143495D01*
X204776390Y-120238733D01*
X204776390Y-120619686D01*
X205252581Y-119095876D02*
X205252581Y-119667305D01*
X205252581Y-119381591D02*
X204252581Y-119381591D01*
X204395438Y-119476829D01*
X204490676Y-119572067D01*
X204538295Y-119667305D01*
X205252581Y-118143495D02*
X205252581Y-118714924D01*
X205252581Y-118429210D02*
X204252581Y-118429210D01*
X204395438Y-118524448D01*
X204490676Y-118619686D01*
X204538295Y-118714924D01*
X201290181Y-113993466D02*
X201290181Y-114564895D01*
X201290181Y-114279181D02*
X200290181Y-114279181D01*
X200433038Y-114374419D01*
X200528276Y-114469657D01*
X200575895Y-114564895D01*
X200290181Y-113374419D02*
X200290181Y-113279180D01*
X200337800Y-113183942D01*
X200385419Y-113136323D01*
X200480657Y-113088704D01*
X200671133Y-113041085D01*
X200909229Y-113041085D01*
X201099705Y-113088704D01*
X201194943Y-113136323D01*
X201242562Y-113183942D01*
X201290181Y-113279180D01*
X201290181Y-113374419D01*
X201242562Y-113469657D01*
X201194943Y-113517276D01*
X201099705Y-113564895D01*
X200909229Y-113612514D01*
X200671133Y-113612514D01*
X200480657Y-113564895D01*
X200385419Y-113517276D01*
X200337800Y-113469657D01*
X200290181Y-113374419D01*
X200290181Y-112422038D02*
X200290181Y-112326799D01*
X200337800Y-112231561D01*
X200385419Y-112183942D01*
X200480657Y-112136323D01*
X200671133Y-112088704D01*
X200909229Y-112088704D01*
X201099705Y-112136323D01*
X201194943Y-112183942D01*
X201242562Y-112231561D01*
X201290181Y-112326799D01*
X201290181Y-112422038D01*
X201242562Y-112517276D01*
X201194943Y-112564895D01*
X201099705Y-112612514D01*
X200909229Y-112660133D01*
X200671133Y-112660133D01*
X200480657Y-112612514D01*
X200385419Y-112564895D01*
X200337800Y-112517276D01*
X200290181Y-112422038D01*
X201290181Y-111088704D02*
X200813990Y-111422038D01*
X201290181Y-111660133D02*
X200290181Y-111660133D01*
X200290181Y-111279180D01*
X200337800Y-111183942D01*
X200385419Y-111136323D01*
X200480657Y-111088704D01*
X200623514Y-111088704D01*
X200718752Y-111136323D01*
X200766371Y-111183942D01*
X200813990Y-111279180D01*
X200813990Y-111660133D01*
X214424223Y-130114501D02*
X214090889Y-129638310D01*
X213852794Y-130114501D02*
X213852794Y-129114501D01*
X214233747Y-129114501D01*
X214328985Y-129162120D01*
X214376604Y-129209739D01*
X214424223Y-129304977D01*
X214424223Y-129447834D01*
X214376604Y-129543072D01*
X214328985Y-129590691D01*
X214233747Y-129638310D01*
X213852794Y-129638310D01*
X215376604Y-130114501D02*
X214805175Y-130114501D01*
X215090889Y-130114501D02*
X215090889Y-129114501D01*
X214995651Y-129257358D01*
X214900413Y-129352596D01*
X214805175Y-129400215D01*
X215757556Y-129209739D02*
X215805175Y-129162120D01*
X215900413Y-129114501D01*
X216138509Y-129114501D01*
X216233747Y-129162120D01*
X216281366Y-129209739D01*
X216328985Y-129304977D01*
X216328985Y-129400215D01*
X216281366Y-129543072D01*
X215709937Y-130114501D01*
X216328985Y-130114501D01*
X213872914Y-125461781D02*
X214539581Y-125461781D01*
X214111009Y-126461781D01*
X214920533Y-126461781D02*
X214920533Y-125461781D01*
X215015771Y-126080829D02*
X215301486Y-126461781D01*
X215301486Y-125795114D02*
X214920533Y-126176067D01*
X216158629Y-125461781D02*
X215968152Y-125461781D01*
X215872914Y-125509400D01*
X215825295Y-125557019D01*
X215730057Y-125699876D01*
X215682438Y-125890352D01*
X215682438Y-126271305D01*
X215730057Y-126366543D01*
X215777676Y-126414162D01*
X215872914Y-126461781D01*
X216063391Y-126461781D01*
X216158629Y-126414162D01*
X216206248Y-126366543D01*
X216253867Y-126271305D01*
X216253867Y-126033210D01*
X216206248Y-125937971D01*
X216158629Y-125890352D01*
X216063391Y-125842733D01*
X215872914Y-125842733D01*
X215777676Y-125890352D01*
X215730057Y-125937971D01*
X215682438Y-126033210D01*
X200118743Y-128620781D02*
X199785409Y-128144590D01*
X199547314Y-128620781D02*
X199547314Y-127620781D01*
X199928267Y-127620781D01*
X200023505Y-127668400D01*
X200071124Y-127716019D01*
X200118743Y-127811257D01*
X200118743Y-127954114D01*
X200071124Y-128049352D01*
X200023505Y-128096971D01*
X199928267Y-128144590D01*
X199547314Y-128144590D01*
X201071124Y-128620781D02*
X200499695Y-128620781D01*
X200785409Y-128620781D02*
X200785409Y-127620781D01*
X200690171Y-127763638D01*
X200594933Y-127858876D01*
X200499695Y-127906495D01*
X201404457Y-127620781D02*
X202023505Y-127620781D01*
X201690171Y-128001733D01*
X201833029Y-128001733D01*
X201928267Y-128049352D01*
X201975886Y-128096971D01*
X202023505Y-128192210D01*
X202023505Y-128430305D01*
X201975886Y-128525543D01*
X201928267Y-128573162D01*
X201833029Y-128620781D01*
X201547314Y-128620781D01*
X201452076Y-128573162D01*
X201404457Y-128525543D01*
X193352753Y-128900181D02*
X192781324Y-128900181D01*
X193067038Y-128900181D02*
X193067038Y-127900181D01*
X192971800Y-128043038D01*
X192876562Y-128138276D01*
X192781324Y-128185895D01*
X193781324Y-128900181D02*
X193781324Y-127900181D01*
X193876562Y-128519229D02*
X194162277Y-128900181D01*
X194162277Y-128233514D02*
X193781324Y-128614467D01*
X161056581Y-124086857D02*
X160580390Y-124420191D01*
X161056581Y-124658286D02*
X160056581Y-124658286D01*
X160056581Y-124277333D01*
X160104200Y-124182095D01*
X160151819Y-124134476D01*
X160247057Y-124086857D01*
X160389914Y-124086857D01*
X160485152Y-124134476D01*
X160532771Y-124182095D01*
X160580390Y-124277333D01*
X160580390Y-124658286D01*
X161056581Y-123134476D02*
X161056581Y-123705905D01*
X161056581Y-123420191D02*
X160056581Y-123420191D01*
X160199438Y-123515429D01*
X160294676Y-123610667D01*
X160342295Y-123705905D01*
X160389914Y-122277333D02*
X161056581Y-122277333D01*
X160008962Y-122515429D02*
X160723248Y-122753524D01*
X160723248Y-122134476D01*
X158821381Y-123436047D02*
X158821381Y-124007476D01*
X158821381Y-123721762D02*
X157821381Y-123721762D01*
X157964238Y-123817000D01*
X158059476Y-123912238D01*
X158107095Y-124007476D01*
X158821381Y-123007476D02*
X157821381Y-123007476D01*
X158440429Y-122912238D02*
X158821381Y-122626523D01*
X158154714Y-122626523D02*
X158535667Y-123007476D01*
X239180762Y-139136381D02*
X238847428Y-138660190D01*
X238609333Y-139136381D02*
X238609333Y-138136381D01*
X238990286Y-138136381D01*
X239085524Y-138184000D01*
X239133143Y-138231619D01*
X239180762Y-138326857D01*
X239180762Y-138469714D01*
X239133143Y-138564952D01*
X239085524Y-138612571D01*
X238990286Y-138660190D01*
X238609333Y-138660190D01*
X239466476Y-138136381D02*
X239799809Y-139136381D01*
X240133143Y-138136381D01*
X240990286Y-139136381D02*
X240418857Y-139136381D01*
X240704571Y-139136381D02*
X240704571Y-138136381D01*
X240609333Y-138279238D01*
X240514095Y-138374476D01*
X240418857Y-138422095D01*
X236977324Y-143387819D02*
X237024943Y-143340200D01*
X237120181Y-143292581D01*
X237358277Y-143292581D01*
X237453515Y-143340200D01*
X237501134Y-143387819D01*
X237548753Y-143483057D01*
X237548753Y-143578295D01*
X237501134Y-143721152D01*
X236929705Y-144292581D01*
X237548753Y-144292581D01*
X237977324Y-144292581D02*
X237977324Y-143292581D01*
X238072562Y-143911629D02*
X238358277Y-144292581D01*
X238358277Y-143625914D02*
X237977324Y-144006867D01*
X230355381Y-113410905D02*
X230355381Y-112839476D01*
X231355381Y-113125191D02*
X230355381Y-113125191D01*
X231355381Y-111982333D02*
X231355381Y-112553762D01*
X231355381Y-112268048D02*
X230355381Y-112268048D01*
X230498238Y-112363286D01*
X230593476Y-112458524D01*
X230641095Y-112553762D01*
X230355381Y-118529953D02*
X230355381Y-119101382D01*
X230355381Y-118815668D02*
X229355381Y-118815668D01*
X229498238Y-118910906D01*
X229593476Y-119006144D01*
X229641095Y-119101382D01*
X229450619Y-118149001D02*
X229403000Y-118101382D01*
X229355381Y-118006144D01*
X229355381Y-117768048D01*
X229403000Y-117672810D01*
X229450619Y-117625191D01*
X229545857Y-117577572D01*
X229641095Y-117577572D01*
X229783952Y-117625191D01*
X230355381Y-118196620D01*
X230355381Y-117577572D01*
X229688714Y-117244239D02*
X230355381Y-117006144D01*
X229688714Y-116768048D01*
X230355381Y-115958524D02*
X229831571Y-115958524D01*
X229736333Y-116006143D01*
X229688714Y-116101381D01*
X229688714Y-116291858D01*
X229736333Y-116387096D01*
X230307762Y-115958524D02*
X230355381Y-116053762D01*
X230355381Y-116291858D01*
X230307762Y-116387096D01*
X230212524Y-116434715D01*
X230117286Y-116434715D01*
X230022048Y-116387096D01*
X229974429Y-116291858D01*
X229974429Y-116053762D01*
X229926810Y-115958524D01*
X230307762Y-115053762D02*
X230355381Y-115149000D01*
X230355381Y-115339477D01*
X230307762Y-115434715D01*
X230260143Y-115482334D01*
X230164905Y-115529953D01*
X229879190Y-115529953D01*
X229783952Y-115482334D01*
X229736333Y-115434715D01*
X229688714Y-115339477D01*
X229688714Y-115149000D01*
X229736333Y-115053762D01*
X229688714Y-114006143D02*
X229688714Y-113625191D01*
X229355381Y-113863286D02*
X230212524Y-113863286D01*
X230307762Y-113815667D01*
X230355381Y-113720429D01*
X230355381Y-113625191D01*
X230355381Y-113291857D02*
X229688714Y-113291857D01*
X229879190Y-113291857D02*
X229783952Y-113244238D01*
X229736333Y-113196619D01*
X229688714Y-113101381D01*
X229688714Y-113006142D01*
X230355381Y-112244237D02*
X229831571Y-112244237D01*
X229736333Y-112291856D01*
X229688714Y-112387094D01*
X229688714Y-112577571D01*
X229736333Y-112672809D01*
X230307762Y-112244237D02*
X230355381Y-112339475D01*
X230355381Y-112577571D01*
X230307762Y-112672809D01*
X230212524Y-112720428D01*
X230117286Y-112720428D01*
X230022048Y-112672809D01*
X229974429Y-112577571D01*
X229974429Y-112339475D01*
X229926810Y-112244237D01*
X229688714Y-111768047D02*
X230355381Y-111768047D01*
X229783952Y-111768047D02*
X229736333Y-111720428D01*
X229688714Y-111625190D01*
X229688714Y-111482332D01*
X229736333Y-111387094D01*
X229831571Y-111339475D01*
X230355381Y-111339475D01*
X230307762Y-110910904D02*
X230355381Y-110815666D01*
X230355381Y-110625190D01*
X230307762Y-110529951D01*
X230212524Y-110482332D01*
X230164905Y-110482332D01*
X230069667Y-110529951D01*
X230022048Y-110625190D01*
X230022048Y-110768047D01*
X229974429Y-110863285D01*
X229879190Y-110910904D01*
X229831571Y-110910904D01*
X229736333Y-110863285D01*
X229688714Y-110768047D01*
X229688714Y-110625190D01*
X229736333Y-110529951D01*
X229688714Y-110196618D02*
X229688714Y-109815666D01*
X230355381Y-110053761D02*
X229498238Y-110053761D01*
X229403000Y-110006142D01*
X229355381Y-109910904D01*
X229355381Y-109815666D01*
X230355381Y-109339475D02*
X230307762Y-109434713D01*
X230260143Y-109482332D01*
X230164905Y-109529951D01*
X229879190Y-109529951D01*
X229783952Y-109482332D01*
X229736333Y-109434713D01*
X229688714Y-109339475D01*
X229688714Y-109196617D01*
X229736333Y-109101379D01*
X229783952Y-109053760D01*
X229879190Y-109006141D01*
X230164905Y-109006141D01*
X230260143Y-109053760D01*
X230307762Y-109101379D01*
X230355381Y-109196617D01*
X230355381Y-109339475D01*
X230355381Y-108577570D02*
X229688714Y-108577570D01*
X229879190Y-108577570D02*
X229783952Y-108529951D01*
X229736333Y-108482332D01*
X229688714Y-108387094D01*
X229688714Y-108291855D01*
X230355381Y-107958522D02*
X229688714Y-107958522D01*
X229783952Y-107958522D02*
X229736333Y-107910903D01*
X229688714Y-107815665D01*
X229688714Y-107672807D01*
X229736333Y-107577569D01*
X229831571Y-107529950D01*
X230355381Y-107529950D01*
X229831571Y-107529950D02*
X229736333Y-107482331D01*
X229688714Y-107387093D01*
X229688714Y-107244236D01*
X229736333Y-107148998D01*
X229831571Y-107101379D01*
X230355381Y-107101379D01*
X230307762Y-106244236D02*
X230355381Y-106339474D01*
X230355381Y-106529951D01*
X230307762Y-106625189D01*
X230212524Y-106672808D01*
X229831571Y-106672808D01*
X229736333Y-106625189D01*
X229688714Y-106529951D01*
X229688714Y-106339474D01*
X229736333Y-106244236D01*
X229831571Y-106196617D01*
X229926810Y-106196617D01*
X230022048Y-106672808D01*
X136779095Y-141451381D02*
X136779095Y-142260905D01*
X136826714Y-142356143D01*
X136874333Y-142403762D01*
X136969571Y-142451381D01*
X137160048Y-142451381D01*
X137255286Y-142403762D01*
X137302905Y-142356143D01*
X137350524Y-142260905D01*
X137350524Y-141451381D01*
X138350524Y-142451381D02*
X137779095Y-142451381D01*
X138064809Y-142451381D02*
X138064809Y-141451381D01*
X137969571Y-141594238D01*
X137874333Y-141689476D01*
X137779095Y-141737095D01*
X135326714Y-140951381D02*
X135326714Y-140284714D01*
X135326714Y-139951381D02*
X135279095Y-139999000D01*
X135326714Y-140046619D01*
X135374333Y-139999000D01*
X135326714Y-139951381D01*
X135326714Y-140046619D01*
X135802904Y-140951381D02*
X135802904Y-140284714D01*
X135802904Y-140475190D02*
X135850523Y-140379952D01*
X135898142Y-140332333D01*
X135993380Y-140284714D01*
X136088619Y-140284714D01*
X136374333Y-140046619D02*
X136421952Y-139999000D01*
X136517190Y-139951381D01*
X136755286Y-139951381D01*
X136850524Y-139999000D01*
X136898143Y-140046619D01*
X136945762Y-140141857D01*
X136945762Y-140237095D01*
X136898143Y-140379952D01*
X136326714Y-140951381D01*
X136945762Y-140951381D01*
X137898143Y-140951381D02*
X137326714Y-140951381D01*
X137612428Y-140951381D02*
X137612428Y-139951381D01*
X137517190Y-140094238D01*
X137421952Y-140189476D01*
X137326714Y-140237095D01*
X138850524Y-140951381D02*
X138279095Y-140951381D01*
X138564809Y-140951381D02*
X138564809Y-139951381D01*
X138469571Y-140094238D01*
X138374333Y-140189476D01*
X138279095Y-140237095D01*
X139469571Y-139951381D02*
X139564810Y-139951381D01*
X139660048Y-139999000D01*
X139707667Y-140046619D01*
X139755286Y-140141857D01*
X139802905Y-140332333D01*
X139802905Y-140570429D01*
X139755286Y-140760905D01*
X139707667Y-140856143D01*
X139660048Y-140903762D01*
X139564810Y-140951381D01*
X139469571Y-140951381D01*
X139374333Y-140903762D01*
X139326714Y-140856143D01*
X139279095Y-140760905D01*
X139231476Y-140570429D01*
X139231476Y-140332333D01*
X139279095Y-140141857D01*
X139326714Y-140046619D01*
X139374333Y-139999000D01*
X139469571Y-139951381D01*
X138074095Y-117524381D02*
X138074095Y-118333905D01*
X138121714Y-118429143D01*
X138169333Y-118476762D01*
X138264571Y-118524381D01*
X138455048Y-118524381D01*
X138550286Y-118476762D01*
X138597905Y-118429143D01*
X138645524Y-118333905D01*
X138645524Y-117524381D01*
X139074095Y-117619619D02*
X139121714Y-117572000D01*
X139216952Y-117524381D01*
X139455048Y-117524381D01*
X139550286Y-117572000D01*
X139597905Y-117619619D01*
X139645524Y-117714857D01*
X139645524Y-117810095D01*
X139597905Y-117952952D01*
X139026476Y-118524381D01*
X139645524Y-118524381D01*
X132558114Y-114117381D02*
X132558114Y-113450714D01*
X132558114Y-113117381D02*
X132510495Y-113165000D01*
X132558114Y-113212619D01*
X132605733Y-113165000D01*
X132558114Y-113117381D01*
X132558114Y-113212619D01*
X133034304Y-114117381D02*
X133034304Y-113450714D01*
X133034304Y-113641190D02*
X133081923Y-113545952D01*
X133129542Y-113498333D01*
X133224780Y-113450714D01*
X133320019Y-113450714D01*
X133605733Y-113212619D02*
X133653352Y-113165000D01*
X133748590Y-113117381D01*
X133986686Y-113117381D01*
X134081924Y-113165000D01*
X134129543Y-113212619D01*
X134177162Y-113307857D01*
X134177162Y-113403095D01*
X134129543Y-113545952D01*
X133558114Y-114117381D01*
X134177162Y-114117381D01*
X135129543Y-114117381D02*
X134558114Y-114117381D01*
X134843828Y-114117381D02*
X134843828Y-113117381D01*
X134748590Y-113260238D01*
X134653352Y-113355476D01*
X134558114Y-113403095D01*
X136081924Y-114117381D02*
X135510495Y-114117381D01*
X135796209Y-114117381D02*
X135796209Y-113117381D01*
X135700971Y-113260238D01*
X135605733Y-113355476D01*
X135510495Y-113403095D01*
X136700971Y-113117381D02*
X136796210Y-113117381D01*
X136891448Y-113165000D01*
X136939067Y-113212619D01*
X136986686Y-113307857D01*
X137034305Y-113498333D01*
X137034305Y-113736429D01*
X136986686Y-113926905D01*
X136939067Y-114022143D01*
X136891448Y-114069762D01*
X136796210Y-114117381D01*
X136700971Y-114117381D01*
X136605733Y-114069762D01*
X136558114Y-114022143D01*
X136510495Y-113926905D01*
X136462876Y-113736429D01*
X136462876Y-113498333D01*
X136510495Y-113307857D01*
X136558114Y-113212619D01*
X136605733Y-113165000D01*
X136700971Y-113117381D01*
X178105095Y-139089381D02*
X178105095Y-139898905D01*
X178152714Y-139994143D01*
X178200333Y-140041762D01*
X178295571Y-140089381D01*
X178486048Y-140089381D01*
X178581286Y-140041762D01*
X178628905Y-139994143D01*
X178676524Y-139898905D01*
X178676524Y-139089381D01*
X179057476Y-139089381D02*
X179676524Y-139089381D01*
X179343190Y-139470333D01*
X179486048Y-139470333D01*
X179581286Y-139517952D01*
X179628905Y-139565571D01*
X179676524Y-139660810D01*
X179676524Y-139898905D01*
X179628905Y-139994143D01*
X179581286Y-140041762D01*
X179486048Y-140089381D01*
X179200333Y-140089381D01*
X179105095Y-140041762D01*
X179057476Y-139994143D01*
X170840590Y-132748352D02*
X170745352Y-132700733D01*
X170697733Y-132653114D01*
X170650114Y-132557876D01*
X170650114Y-132510257D01*
X170697733Y-132415019D01*
X170745352Y-132367400D01*
X170840590Y-132319781D01*
X171031067Y-132319781D01*
X171126305Y-132367400D01*
X171173924Y-132415019D01*
X171221543Y-132510257D01*
X171221543Y-132557876D01*
X171173924Y-132653114D01*
X171126305Y-132700733D01*
X171031067Y-132748352D01*
X170840590Y-132748352D01*
X170745352Y-132795971D01*
X170697733Y-132843590D01*
X170650114Y-132938829D01*
X170650114Y-133129305D01*
X170697733Y-133224543D01*
X170745352Y-133272162D01*
X170840590Y-133319781D01*
X171031067Y-133319781D01*
X171126305Y-133272162D01*
X171173924Y-133224543D01*
X171221543Y-133129305D01*
X171221543Y-132938829D01*
X171173924Y-132843590D01*
X171126305Y-132795971D01*
X171031067Y-132748352D01*
X171840590Y-132319781D02*
X171935829Y-132319781D01*
X172031067Y-132367400D01*
X172078686Y-132415019D01*
X172126305Y-132510257D01*
X172173924Y-132700733D01*
X172173924Y-132938829D01*
X172126305Y-133129305D01*
X172078686Y-133224543D01*
X172031067Y-133272162D01*
X171935829Y-133319781D01*
X171840590Y-133319781D01*
X171745352Y-133272162D01*
X171697733Y-133224543D01*
X171650114Y-133129305D01*
X171602495Y-132938829D01*
X171602495Y-132700733D01*
X171650114Y-132510257D01*
X171697733Y-132415019D01*
X171745352Y-132367400D01*
X171840590Y-132319781D01*
X173126305Y-133319781D02*
X172554876Y-133319781D01*
X172840590Y-133319781D02*
X172840590Y-132319781D01*
X172745352Y-132462638D01*
X172650114Y-132557876D01*
X172554876Y-132605495D01*
X173745352Y-132319781D02*
X173840591Y-132319781D01*
X173935829Y-132367400D01*
X173983448Y-132415019D01*
X174031067Y-132510257D01*
X174078686Y-132700733D01*
X174078686Y-132938829D01*
X174031067Y-133129305D01*
X173983448Y-133224543D01*
X173935829Y-133272162D01*
X173840591Y-133319781D01*
X173745352Y-133319781D01*
X173650114Y-133272162D01*
X173602495Y-133224543D01*
X173554876Y-133129305D01*
X173507257Y-132938829D01*
X173507257Y-132700733D01*
X173554876Y-132510257D01*
X173602495Y-132415019D01*
X173650114Y-132367400D01*
X173745352Y-132319781D01*
X202517904Y-133643714D02*
X202755999Y-134310381D01*
X202994095Y-133643714D01*
X203517904Y-134310381D02*
X203422666Y-134262762D01*
X203375047Y-134215143D01*
X203327428Y-134119905D01*
X203327428Y-133834190D01*
X203375047Y-133738952D01*
X203422666Y-133691333D01*
X203517904Y-133643714D01*
X203660762Y-133643714D01*
X203756000Y-133691333D01*
X203803619Y-133738952D01*
X203851238Y-133834190D01*
X203851238Y-134119905D01*
X203803619Y-134215143D01*
X203756000Y-134262762D01*
X203660762Y-134310381D01*
X203517904Y-134310381D01*
X204422666Y-134310381D02*
X204327428Y-134262762D01*
X204279809Y-134167524D01*
X204279809Y-133310381D01*
X204660762Y-133643714D02*
X205041714Y-133643714D01*
X204803619Y-133310381D02*
X204803619Y-134167524D01*
X204851238Y-134262762D01*
X204946476Y-134310381D01*
X205041714Y-134310381D01*
X205803620Y-134310381D02*
X205803620Y-133786571D01*
X205756001Y-133691333D01*
X205660763Y-133643714D01*
X205470286Y-133643714D01*
X205375048Y-133691333D01*
X205803620Y-134262762D02*
X205708382Y-134310381D01*
X205470286Y-134310381D01*
X205375048Y-134262762D01*
X205327429Y-134167524D01*
X205327429Y-134072286D01*
X205375048Y-133977048D01*
X205470286Y-133929429D01*
X205708382Y-133929429D01*
X205803620Y-133881810D01*
X206708382Y-133643714D02*
X206708382Y-134453238D01*
X206660763Y-134548476D01*
X206613144Y-134596095D01*
X206517905Y-134643714D01*
X206375048Y-134643714D01*
X206279810Y-134596095D01*
X206708382Y-134262762D02*
X206613144Y-134310381D01*
X206422667Y-134310381D01*
X206327429Y-134262762D01*
X206279810Y-134215143D01*
X206232191Y-134119905D01*
X206232191Y-133834190D01*
X206279810Y-133738952D01*
X206327429Y-133691333D01*
X206422667Y-133643714D01*
X206613144Y-133643714D01*
X206708382Y-133691333D01*
X207565525Y-134262762D02*
X207470287Y-134310381D01*
X207279810Y-134310381D01*
X207184572Y-134262762D01*
X207136953Y-134167524D01*
X207136953Y-133786571D01*
X207184572Y-133691333D01*
X207279810Y-133643714D01*
X207470287Y-133643714D01*
X207565525Y-133691333D01*
X207613144Y-133786571D01*
X207613144Y-133881810D01*
X207136953Y-133977048D01*
X208184572Y-134310381D02*
X208089334Y-134262762D01*
X208041715Y-134215143D01*
X207994096Y-134119905D01*
X207994096Y-133834190D01*
X208041715Y-133738952D01*
X208089334Y-133691333D01*
X208184572Y-133643714D01*
X208327430Y-133643714D01*
X208422668Y-133691333D01*
X208470287Y-133738952D01*
X208517906Y-133834190D01*
X208517906Y-134119905D01*
X208470287Y-134215143D01*
X208422668Y-134262762D01*
X208327430Y-134310381D01*
X208184572Y-134310381D01*
X209375049Y-133643714D02*
X209375049Y-134310381D01*
X208946477Y-133643714D02*
X208946477Y-134167524D01*
X208994096Y-134262762D01*
X209089334Y-134310381D01*
X209232192Y-134310381D01*
X209327430Y-134262762D01*
X209375049Y-134215143D01*
X209708382Y-133643714D02*
X210089334Y-133643714D01*
X209851239Y-133310381D02*
X209851239Y-134167524D01*
X209898858Y-134262762D01*
X209994096Y-134310381D01*
X210089334Y-134310381D01*
X210946478Y-134310381D02*
X210375049Y-134310381D01*
X210660763Y-134310381D02*
X210660763Y-133310381D01*
X210565525Y-133453238D01*
X210470287Y-133548476D01*
X210375049Y-133596095D01*
X206621191Y-143851381D02*
X206145000Y-143851381D01*
X206097381Y-144327571D01*
X206145000Y-144279952D01*
X206240238Y-144232333D01*
X206478334Y-144232333D01*
X206573572Y-144279952D01*
X206621191Y-144327571D01*
X206668810Y-144422810D01*
X206668810Y-144660905D01*
X206621191Y-144756143D01*
X206573572Y-144803762D01*
X206478334Y-144851381D01*
X206240238Y-144851381D01*
X206145000Y-144803762D01*
X206097381Y-144756143D01*
X207287857Y-143851381D02*
X207383096Y-143851381D01*
X207478334Y-143899000D01*
X207525953Y-143946619D01*
X207573572Y-144041857D01*
X207621191Y-144232333D01*
X207621191Y-144470429D01*
X207573572Y-144660905D01*
X207525953Y-144756143D01*
X207478334Y-144803762D01*
X207383096Y-144851381D01*
X207287857Y-144851381D01*
X207192619Y-144803762D01*
X207145000Y-144756143D01*
X207097381Y-144660905D01*
X207049762Y-144470429D01*
X207049762Y-144232333D01*
X207097381Y-144041857D01*
X207145000Y-143946619D01*
X207192619Y-143899000D01*
X207287857Y-143851381D01*
X208240238Y-143851381D02*
X208335477Y-143851381D01*
X208430715Y-143899000D01*
X208478334Y-143946619D01*
X208525953Y-144041857D01*
X208573572Y-144232333D01*
X208573572Y-144470429D01*
X208525953Y-144660905D01*
X208478334Y-144756143D01*
X208430715Y-144803762D01*
X208335477Y-144851381D01*
X208240238Y-144851381D01*
X208145000Y-144803762D01*
X208097381Y-144756143D01*
X208049762Y-144660905D01*
X208002143Y-144470429D01*
X208002143Y-144232333D01*
X208049762Y-144041857D01*
X208097381Y-143946619D01*
X208145000Y-143899000D01*
X208240238Y-143851381D01*
X209002143Y-144851381D02*
X209002143Y-144184714D01*
X209002143Y-144375190D02*
X209049762Y-144279952D01*
X209097381Y-144232333D01*
X209192619Y-144184714D01*
X209287858Y-144184714D01*
X198274190Y-112414191D02*
X198750381Y-112414191D01*
X197750381Y-112747524D02*
X198274190Y-112414191D01*
X197750381Y-112080857D01*
X198750381Y-111223714D02*
X198750381Y-111795143D01*
X198750381Y-111509429D02*
X197750381Y-111509429D01*
X197893238Y-111604667D01*
X197988476Y-111699905D01*
X198036095Y-111795143D01*
X191130381Y-116676096D02*
X191130381Y-117247525D01*
X191130381Y-116961811D02*
X190130381Y-116961811D01*
X190273238Y-117057049D01*
X190368476Y-117152287D01*
X190416095Y-117247525D01*
X190225619Y-116295144D02*
X190178000Y-116247525D01*
X190130381Y-116152287D01*
X190130381Y-115914191D01*
X190178000Y-115818953D01*
X190225619Y-115771334D01*
X190320857Y-115723715D01*
X190416095Y-115723715D01*
X190558952Y-115771334D01*
X191130381Y-116342763D01*
X191130381Y-115723715D01*
X191130381Y-115295144D02*
X190130381Y-115295144D01*
X190844667Y-114961810D01*
X190130381Y-114628477D01*
X191130381Y-114628477D01*
X191130381Y-114152287D02*
X190130381Y-114152287D01*
X190606571Y-114152287D02*
X190606571Y-113580858D01*
X191130381Y-113580858D02*
X190130381Y-113580858D01*
X190130381Y-113199906D02*
X190130381Y-112533239D01*
X191130381Y-113199906D01*
X191130381Y-112533239D01*
X191035143Y-110818953D02*
X191082762Y-110866572D01*
X191130381Y-111009429D01*
X191130381Y-111104667D01*
X191082762Y-111247525D01*
X190987524Y-111342763D01*
X190892286Y-111390382D01*
X190701810Y-111438001D01*
X190558952Y-111438001D01*
X190368476Y-111390382D01*
X190273238Y-111342763D01*
X190178000Y-111247525D01*
X190130381Y-111104667D01*
X190130381Y-111009429D01*
X190178000Y-110866572D01*
X190225619Y-110818953D01*
X191130381Y-110390382D02*
X190463714Y-110390382D01*
X190654190Y-110390382D02*
X190558952Y-110342763D01*
X190511333Y-110295144D01*
X190463714Y-110199906D01*
X190463714Y-110104667D01*
X190463714Y-109866572D02*
X191130381Y-109628477D01*
X190463714Y-109390381D02*
X191130381Y-109628477D01*
X191368476Y-109723715D01*
X191416095Y-109771334D01*
X191463714Y-109866572D01*
X191082762Y-109057048D02*
X191130381Y-108961810D01*
X191130381Y-108771334D01*
X191082762Y-108676095D01*
X190987524Y-108628476D01*
X190939905Y-108628476D01*
X190844667Y-108676095D01*
X190797048Y-108771334D01*
X190797048Y-108914191D01*
X190749429Y-109009429D01*
X190654190Y-109057048D01*
X190606571Y-109057048D01*
X190511333Y-109009429D01*
X190463714Y-108914191D01*
X190463714Y-108771334D01*
X190511333Y-108676095D01*
X190463714Y-108342762D02*
X190463714Y-107961810D01*
X190130381Y-108199905D02*
X190987524Y-108199905D01*
X191082762Y-108152286D01*
X191130381Y-108057048D01*
X191130381Y-107961810D01*
X191130381Y-107199904D02*
X190606571Y-107199904D01*
X190511333Y-107247523D01*
X190463714Y-107342761D01*
X190463714Y-107533238D01*
X190511333Y-107628476D01*
X191082762Y-107199904D02*
X191130381Y-107295142D01*
X191130381Y-107533238D01*
X191082762Y-107628476D01*
X190987524Y-107676095D01*
X190892286Y-107676095D01*
X190797048Y-107628476D01*
X190749429Y-107533238D01*
X190749429Y-107295142D01*
X190701810Y-107199904D01*
X191130381Y-106580857D02*
X191082762Y-106676095D01*
X190987524Y-106723714D01*
X190130381Y-106723714D01*
X258059143Y-114131857D02*
X258106762Y-114179476D01*
X258154381Y-114322333D01*
X258154381Y-114417571D01*
X258106762Y-114560429D01*
X258011524Y-114655667D01*
X257916286Y-114703286D01*
X257725810Y-114750905D01*
X257582952Y-114750905D01*
X257392476Y-114703286D01*
X257297238Y-114655667D01*
X257202000Y-114560429D01*
X257154381Y-114417571D01*
X257154381Y-114322333D01*
X257202000Y-114179476D01*
X257249619Y-114131857D01*
X257249619Y-113750905D02*
X257202000Y-113703286D01*
X257154381Y-113608048D01*
X257154381Y-113369952D01*
X257202000Y-113274714D01*
X257249619Y-113227095D01*
X257344857Y-113179476D01*
X257440095Y-113179476D01*
X257582952Y-113227095D01*
X258154381Y-113798524D01*
X258154381Y-113179476D01*
X257154381Y-112846143D02*
X257154381Y-112227095D01*
X257535333Y-112560429D01*
X257535333Y-112417571D01*
X257582952Y-112322333D01*
X257630571Y-112274714D01*
X257725810Y-112227095D01*
X257963905Y-112227095D01*
X258059143Y-112274714D01*
X258106762Y-112322333D01*
X258154381Y-112417571D01*
X258154381Y-112703286D01*
X258106762Y-112798524D01*
X258059143Y-112846143D01*
M02*
