G04 #@! TF.FileFunction,Copper,L1,Top,Signal*
%FSLAX46Y46*%
G04 Gerber Fmt 4.6, Leading zero omitted, Abs format (unit mm)*
G04 Created by KiCad (PCBNEW 4.0.3+e1-6302~38~ubuntu14.04.1-stable) date Sun Sep  4 15:17:47 2016*
%MOMM*%
%LPD*%
G01*
G04 APERTURE LIST*
%ADD10C,0.100000*%
%ADD11R,1.300000X1.300000*%
%ADD12C,1.300000*%
%ADD13C,1.998980*%
%ADD14R,1.998980X1.998980*%
%ADD15R,2.000000X1.900000*%
%ADD16C,1.900000*%
%ADD17R,1.727200X1.727200*%
%ADD18O,1.727200X1.727200*%
%ADD19R,2.000000X2.600000*%
%ADD20O,2.000000X2.600000*%
%ADD21C,4.064000*%
%ADD22O,2.499360X4.500880*%
%ADD23C,2.301240*%
%ADD24C,2.032000*%
%ADD25C,1.524000*%
%ADD26O,1.600000X1.600000*%
%ADD27C,1.501140*%
%ADD28R,1.600000X1.600000*%
%ADD29C,1.600000*%
%ADD30C,0.250000*%
%ADD31C,0.254000*%
G04 APERTURE END LIST*
D10*
D11*
X116205000Y-91389200D03*
D12*
X118705000Y-91389200D03*
D11*
X128118000Y-92202000D03*
D12*
X128118000Y-89702000D03*
D11*
X152603000Y-109550000D03*
D12*
X152603000Y-104550000D03*
D11*
X150063000Y-133198000D03*
D12*
X152563000Y-133198000D03*
D11*
X141021000Y-134468000D03*
D12*
X146021000Y-134468000D03*
D11*
X143535000Y-124384000D03*
D12*
X143535000Y-126884000D03*
D11*
X145491000Y-104826000D03*
D12*
X145491000Y-107326000D03*
D11*
X169520000Y-138608000D03*
D12*
X174520000Y-138608000D03*
X127762000Y-84643600D03*
D11*
X127762000Y-82143600D03*
X123977000Y-125197000D03*
D12*
X123977000Y-127697000D03*
D11*
X115748000Y-101067000D03*
D12*
X115748000Y-103567000D03*
D11*
X120752000Y-134595000D03*
D12*
X125752000Y-134595000D03*
D11*
X118186000Y-109652000D03*
D12*
X123186000Y-109652000D03*
D11*
X123190000Y-100660000D03*
D12*
X123190000Y-103160000D03*
D11*
X144247000Y-116662000D03*
D12*
X144247000Y-111662000D03*
D11*
X184379000Y-90220800D03*
D12*
X189379000Y-90220800D03*
D11*
X169494000Y-90678000D03*
D12*
X174494000Y-90678000D03*
D11*
X183617000Y-117907000D03*
D12*
X183617000Y-115407000D03*
D11*
X183769000Y-111887000D03*
D12*
X183769000Y-109387000D03*
D11*
X202209000Y-103581000D03*
D12*
X207209000Y-103581000D03*
D11*
X226822000Y-141605000D03*
D12*
X229322000Y-141605000D03*
D11*
X211328000Y-112522000D03*
D12*
X213828000Y-112522000D03*
D13*
X117526000Y-82854800D03*
D14*
X113716000Y-82854800D03*
D13*
X145034000Y-130048000D03*
D14*
X141224000Y-130048000D03*
D13*
X146279000Y-100279000D03*
D14*
X142469000Y-100279000D03*
D13*
X146101000Y-84124800D03*
D14*
X142291000Y-84124800D03*
D15*
X193142000Y-146558000D03*
D16*
X193142000Y-149098000D03*
D13*
X148768000Y-137465000D03*
D14*
X148768000Y-141275000D03*
D13*
X153568000Y-137363000D03*
D14*
X153568000Y-141173000D03*
D13*
X157480000Y-137465000D03*
D14*
X157480000Y-141275000D03*
D13*
X148869000Y-144932000D03*
D14*
X148869000Y-148742000D03*
D13*
X215036000Y-99999800D03*
D14*
X211226000Y-99999800D03*
D13*
X215646000Y-120523000D03*
D14*
X211836000Y-120523000D03*
D13*
X210922000Y-103683000D03*
D14*
X214732000Y-103683000D03*
D13*
X223495000Y-131572000D03*
D14*
X219685000Y-131572000D03*
D15*
X201295000Y-146939000D03*
D16*
X201295000Y-149479000D03*
D17*
X108255000Y-143789000D03*
D18*
X105715000Y-143789000D03*
X108255000Y-141249000D03*
X105715000Y-141249000D03*
X108255000Y-138709000D03*
X105715000Y-138709000D03*
X108255000Y-136169000D03*
X105715000Y-136169000D03*
X108255000Y-133629000D03*
X105715000Y-133629000D03*
D19*
X185217000Y-147955000D03*
D20*
X187757000Y-147955000D03*
D19*
X170459000Y-148209000D03*
D20*
X172999000Y-148209000D03*
D19*
X177927000Y-148133000D03*
D20*
X180467000Y-148133000D03*
D19*
X154991000Y-148031000D03*
D20*
X157531000Y-148031000D03*
D21*
X251079000Y-93268800D03*
X251358000Y-132156000D03*
D19*
X162382000Y-148209000D03*
D20*
X164922000Y-148209000D03*
D22*
X105537000Y-76987400D03*
X111125000Y-76987400D03*
X99949000Y-76987400D03*
X145669000Y-73888600D03*
X140081000Y-73888600D03*
X151257000Y-73888600D03*
D23*
X103226000Y-115570000D03*
X103226000Y-85570000D03*
D13*
X127127000Y-77876400D03*
X119507000Y-77876400D03*
X149733000Y-79375000D03*
X142113000Y-79375000D03*
X190805000Y-133248000D03*
X190805000Y-140868000D03*
X184760000Y-133147000D03*
X184760000Y-140767000D03*
X183032000Y-99060000D03*
X190652000Y-99060000D03*
X191237000Y-95199200D03*
X183617000Y-95199200D03*
X204673000Y-116332000D03*
X204673000Y-108712000D03*
X189560000Y-124333000D03*
X197180000Y-124333000D03*
X223393000Y-148971000D03*
X231013000Y-148971000D03*
X200914000Y-108585000D03*
X200914000Y-116205000D03*
X219126000Y-126162000D03*
X211506000Y-126162000D03*
X189865000Y-128168000D03*
X197485000Y-128168000D03*
X158547000Y-119507000D03*
X158547000Y-127127000D03*
D24*
X237236000Y-141224000D03*
X247396000Y-143764000D03*
X237236000Y-146304000D03*
D25*
X219100000Y-120269000D03*
X218973000Y-101092000D03*
X241325000Y-119507000D03*
X241452000Y-100203000D03*
D26*
X137541000Y-136779000D03*
X137541000Y-134239000D03*
X137541000Y-131699000D03*
X137541000Y-129159000D03*
X137541000Y-126619000D03*
X137541000Y-124079000D03*
X137541000Y-121539000D03*
X129921000Y-121539000D03*
X129921000Y-124079000D03*
X129921000Y-126619000D03*
X129921000Y-129159000D03*
X129921000Y-131699000D03*
X129921000Y-134239000D03*
X129921000Y-136779000D03*
X138836000Y-112852000D03*
X138836000Y-110312000D03*
X138836000Y-107772000D03*
X138836000Y-105232000D03*
X138836000Y-102692000D03*
X138836000Y-100152000D03*
X138836000Y-97612000D03*
X131216000Y-97612000D03*
X131216000Y-100152000D03*
X131216000Y-102692000D03*
X131216000Y-105232000D03*
X131216000Y-107772000D03*
X131216000Y-110312000D03*
X131216000Y-112852000D03*
X178867000Y-134417000D03*
X178867000Y-131877000D03*
X178867000Y-129337000D03*
X178867000Y-126797000D03*
X178867000Y-124257000D03*
X178867000Y-121717000D03*
X178867000Y-119177000D03*
X178867000Y-116637000D03*
X178867000Y-114097000D03*
X178867000Y-111557000D03*
X178867000Y-109017000D03*
X178867000Y-106477000D03*
X178867000Y-103937000D03*
X178867000Y-101397000D03*
X178867000Y-98857000D03*
X178867000Y-96317000D03*
X163627000Y-96317000D03*
X163627000Y-98857000D03*
X163627000Y-101397000D03*
X163627000Y-103937000D03*
X163627000Y-106477000D03*
X163627000Y-109017000D03*
X163627000Y-111557000D03*
X163627000Y-114097000D03*
X163627000Y-116637000D03*
X163627000Y-119177000D03*
X163627000Y-121717000D03*
X163627000Y-124257000D03*
X163627000Y-126797000D03*
X163627000Y-129337000D03*
X163627000Y-131877000D03*
X163627000Y-134417000D03*
D24*
X204216000Y-136398000D03*
X214376000Y-138938000D03*
X204216000Y-141478000D03*
D27*
X194488000Y-109497060D03*
X194488000Y-114378940D03*
D28*
X250952000Y-102489000D03*
D29*
X250952000Y-124841000D03*
D30*
X153878400Y-136038100D02*
X151038300Y-133198000D01*
X165974800Y-136038100D02*
X153878400Y-136038100D01*
X168544700Y-138608000D02*
X165974800Y-136038100D01*
X169520000Y-138608000D02*
X168544700Y-138608000D01*
X150063000Y-133198000D02*
X151038300Y-133198000D01*
X147817700Y-134468000D02*
X149087700Y-133198000D01*
X146021000Y-134468000D02*
X147817700Y-134468000D01*
X150063000Y-133198000D02*
X149087700Y-133198000D01*
X116205000Y-91389200D02*
X117180300Y-91389200D01*
X118177600Y-92386500D02*
X117180300Y-91389200D01*
X126958200Y-92386500D02*
X118177600Y-92386500D01*
X127142700Y-92202000D02*
X126958200Y-92386500D01*
X128118000Y-92202000D02*
X127142700Y-92202000D01*
X138836000Y-107772000D02*
X138836000Y-106646700D01*
X128118000Y-92202000D02*
X128118000Y-93177300D01*
X142687600Y-103870400D02*
X146279000Y-100279000D01*
X137710700Y-103870400D02*
X142687600Y-103870400D01*
X137710700Y-105802800D02*
X137710700Y-103870400D01*
X138554600Y-106646700D02*
X137710700Y-105802800D01*
X138836000Y-106646700D02*
X138554600Y-106646700D01*
X128392300Y-93177300D02*
X128118000Y-93177300D01*
X137710700Y-102495700D02*
X128392300Y-93177300D01*
X137710700Y-103870400D02*
X137710700Y-102495700D01*
X129921000Y-134239000D02*
X137541000Y-134239000D01*
X105715000Y-143789000D02*
X108255000Y-143789000D01*
X153670000Y-137465000D02*
X153568000Y-137363000D01*
X157480000Y-137465000D02*
X153670000Y-137465000D01*
X178867000Y-96317000D02*
X179992300Y-96317000D01*
X138895300Y-134468000D02*
X138666300Y-134239000D01*
X141021000Y-134468000D02*
X138895300Y-134468000D01*
X137541000Y-134239000D02*
X138666300Y-134239000D01*
X128568100Y-89251900D02*
X128118000Y-89702000D01*
X128568100Y-85449700D02*
X128568100Y-89251900D01*
X144776100Y-85449700D02*
X128568100Y-85449700D01*
X146101000Y-84124800D02*
X144776100Y-85449700D01*
X128568100Y-85449700D02*
X127762000Y-84643600D01*
X123992000Y-103962000D02*
X123190000Y-103160000D01*
X131593700Y-103962000D02*
X123992000Y-103962000D01*
X132344500Y-104712800D02*
X131593700Y-103962000D01*
X132344500Y-110312000D02*
X132344500Y-104712800D01*
X131216000Y-110312000D02*
X132344500Y-110312000D01*
X132344500Y-110312000D02*
X138836000Y-110312000D01*
X138836000Y-110312000D02*
X139961300Y-110312000D01*
X144247000Y-110525800D02*
X144247000Y-111662000D01*
X145222800Y-109550000D02*
X144247000Y-110525800D01*
X152603000Y-109550000D02*
X145222800Y-109550000D01*
X140175100Y-110525800D02*
X139961300Y-110312000D01*
X144247000Y-110525800D02*
X140175100Y-110525800D01*
X183589100Y-112862300D02*
X182330700Y-114120700D01*
X183769000Y-112862300D02*
X183589100Y-112862300D01*
X182307000Y-114097000D02*
X182330700Y-114120700D01*
X178867000Y-114097000D02*
X182307000Y-114097000D01*
X182330700Y-114120700D02*
X183617000Y-115407000D01*
X183769000Y-111887000D02*
X183769000Y-112862300D01*
X180225400Y-96550100D02*
X179992300Y-96317000D01*
X188375300Y-96550100D02*
X180225400Y-96550100D01*
X188375300Y-91224500D02*
X189379000Y-90220800D01*
X188375300Y-96550100D02*
X188375300Y-91224500D01*
X201295000Y-136068000D02*
X201295000Y-146939000D01*
X189560000Y-124333000D02*
X201295000Y-136068000D01*
X178867000Y-106477000D02*
X178867000Y-105351700D01*
X177739700Y-104505700D02*
X177739700Y-96317000D01*
X178585700Y-105351700D02*
X177739700Y-104505700D01*
X178867000Y-105351700D02*
X178585700Y-105351700D01*
X176108300Y-96317000D02*
X177739700Y-96317000D01*
X170469300Y-90678000D02*
X176108300Y-96317000D01*
X177739700Y-96317000D02*
X178867000Y-96317000D01*
X169494000Y-90678000D02*
X170469300Y-90678000D01*
X188375300Y-96783300D02*
X188375300Y-96550100D01*
X190652000Y-99060000D02*
X188375300Y-96783300D01*
X207311000Y-103683000D02*
X207209000Y-103581000D01*
X210922000Y-103683000D02*
X207311000Y-103683000D01*
X202688000Y-99060000D02*
X190652000Y-99060000D01*
X207209000Y-103581000D02*
X202688000Y-99060000D01*
X142254700Y-124079000D02*
X142559700Y-124384000D01*
X137541000Y-124079000D02*
X142254700Y-124079000D01*
X143535000Y-124384000D02*
X142559700Y-124384000D01*
X143270000Y-126619000D02*
X143535000Y-126884000D01*
X137541000Y-126619000D02*
X143270000Y-126619000D01*
X186443300Y-128168000D02*
X179992300Y-121717000D01*
X189865000Y-128168000D02*
X186443300Y-128168000D01*
X178867000Y-121717000D02*
X179992300Y-121717000D01*
X163627000Y-90271600D02*
X147244000Y-73888600D01*
X163627000Y-96317000D02*
X163627000Y-90271600D01*
X145669000Y-73888600D02*
X147244000Y-73888600D01*
X163345600Y-97442300D02*
X163627000Y-97442300D01*
X162501700Y-98286200D02*
X163345600Y-97442300D01*
X162501700Y-104507700D02*
X162501700Y-98286200D01*
X163345700Y-105351700D02*
X162501700Y-104507700D01*
X163627000Y-105351700D02*
X163345700Y-105351700D01*
X163627000Y-106477000D02*
X163627000Y-105351700D01*
X163627000Y-96317000D02*
X163627000Y-97442300D01*
X117130300Y-100660000D02*
X116723300Y-101067000D01*
X123190000Y-100660000D02*
X117130300Y-100660000D01*
X115748000Y-101067000D02*
X116723300Y-101067000D01*
X163627000Y-106477000D02*
X163627000Y-107602300D01*
X163345700Y-107602300D02*
X163627000Y-107602300D01*
X162471300Y-108476700D02*
X163345700Y-107602300D01*
X162471300Y-119177000D02*
X162471300Y-108476700D01*
X162471300Y-119177000D02*
X163627000Y-119177000D01*
X167292300Y-121717000D02*
X178867000Y-121717000D01*
X164752300Y-119177000D02*
X167292300Y-121717000D01*
X163627000Y-119177000D02*
X164752300Y-119177000D01*
X175873600Y-149758300D02*
X174324300Y-148209000D01*
X180467000Y-149758300D02*
X175873600Y-149758300D01*
X180467000Y-148133000D02*
X180467000Y-149758300D01*
X172999000Y-148209000D02*
X174324300Y-148209000D01*
X129921000Y-124079000D02*
X131046300Y-124079000D01*
X139993100Y-112406300D02*
X139993100Y-116662000D01*
X139158600Y-111571800D02*
X139993100Y-112406300D01*
X125105800Y-111571800D02*
X139158600Y-111571800D01*
X123186000Y-109652000D02*
X125105800Y-111571800D01*
X144247000Y-116662000D02*
X139993100Y-116662000D01*
X138463300Y-116662000D02*
X131046300Y-124079000D01*
X139993100Y-116662000D02*
X138463300Y-116662000D01*
X144247000Y-116662000D02*
X145222300Y-116662000D01*
X158547000Y-119342000D02*
X158547000Y-119507000D01*
X158712000Y-119177000D02*
X158547000Y-119342000D01*
X162471300Y-119177000D02*
X158712000Y-119177000D01*
X147902300Y-119342000D02*
X145222300Y-116662000D01*
X158547000Y-119342000D02*
X147902300Y-119342000D01*
X118186000Y-105232000D02*
X118186000Y-109652000D01*
X131216000Y-105232000D02*
X118186000Y-105232000D01*
X117413000Y-105232000D02*
X115748000Y-103567000D01*
X118186000Y-105232000D02*
X117413000Y-105232000D01*
X204673000Y-104253400D02*
X204673000Y-108712000D01*
X201816600Y-101397000D02*
X204673000Y-104253400D01*
X178867000Y-101397000D02*
X201816600Y-101397000D01*
X188120400Y-114378900D02*
X184592300Y-117907000D01*
X194488000Y-114378900D02*
X188120400Y-114378900D01*
X183617000Y-117907000D02*
X184592300Y-117907000D01*
X183399000Y-109017000D02*
X183769000Y-109387000D01*
X178867000Y-109017000D02*
X183399000Y-109017000D01*
X183879100Y-109497100D02*
X183769000Y-109387000D01*
X194488000Y-109497100D02*
X183879100Y-109497100D01*
X202209000Y-103581000D02*
X201233700Y-103581000D01*
X200877700Y-108548700D02*
X200914000Y-108585000D01*
X200877700Y-103937000D02*
X200877700Y-108548700D01*
X178867000Y-103937000D02*
X200877700Y-103937000D01*
X200877700Y-103937000D02*
X201233700Y-103581000D01*
X221606400Y-150757600D02*
X223393000Y-148971000D01*
X152209400Y-150757600D02*
X221606400Y-150757600D01*
X150193800Y-148742000D02*
X152209400Y-150757600D01*
X148869000Y-148742000D02*
X150193800Y-148742000D01*
X204597000Y-112522000D02*
X211328000Y-112522000D01*
X200914000Y-116205000D02*
X204597000Y-112522000D01*
X250952000Y-102489000D02*
X249826700Y-102489000D01*
X247540700Y-96807100D02*
X251079000Y-93268800D01*
X247540700Y-100203000D02*
X247540700Y-96807100D01*
X241452000Y-100203000D02*
X247540700Y-100203000D01*
X247540700Y-100203000D02*
X249826700Y-102489000D01*
X111125000Y-76987400D02*
X112700000Y-76987400D01*
X113716000Y-77876400D02*
X113716000Y-82854800D01*
X119507000Y-77876400D02*
X113716000Y-77876400D01*
X113589000Y-77876400D02*
X112700000Y-76987400D01*
X113716000Y-77876400D02*
X113589000Y-77876400D01*
X193142000Y-143205000D02*
X193142000Y-146558000D01*
X190805000Y-140868000D02*
X193142000Y-143205000D01*
X152243200Y-140940200D02*
X148768000Y-137465000D01*
X152243200Y-141173000D02*
X152243200Y-140940200D01*
X153568000Y-141173000D02*
X152243200Y-141173000D01*
X157480000Y-141275000D02*
X156155200Y-141275000D01*
X157531000Y-148031000D02*
X157531000Y-146405700D01*
X156057300Y-141372900D02*
X156155200Y-141275000D01*
X156057300Y-144932000D02*
X156057300Y-141372900D01*
X148869000Y-144932000D02*
X156057300Y-144932000D01*
X156057300Y-144932000D02*
X157531000Y-146405700D01*
X213487000Y-120523000D02*
X211836000Y-120523000D01*
X219126000Y-126162000D02*
X213487000Y-120523000D01*
X215900000Y-120269000D02*
X215646000Y-120523000D01*
X219100000Y-120269000D02*
X215900000Y-120269000D01*
X131945700Y-141249000D02*
X108255000Y-141249000D01*
X136415700Y-136779000D02*
X131945700Y-141249000D01*
X137541000Y-136779000D02*
X136415700Y-136779000D01*
X137541000Y-121539000D02*
X136415700Y-121539000D01*
X108255000Y-136169000D02*
X109443900Y-136169000D01*
X132605700Y-125349000D02*
X136415700Y-121539000D01*
X128795600Y-125349000D02*
X132605700Y-125349000D01*
X124522600Y-129622000D02*
X128795600Y-125349000D01*
X115990900Y-129622000D02*
X124522600Y-129622000D01*
X109443900Y-136169000D02*
X115990900Y-129622000D01*
X105715000Y-136169000D02*
X106903900Y-136169000D01*
X136585400Y-113977300D02*
X137710700Y-112852000D01*
X130223700Y-113977300D02*
X136585400Y-113977300D01*
X109302000Y-134899000D02*
X130223700Y-113977300D01*
X107802400Y-134899000D02*
X109302000Y-134899000D01*
X106903900Y-135797500D02*
X107802400Y-134899000D01*
X106903900Y-136169000D02*
X106903900Y-135797500D01*
X138836000Y-112852000D02*
X137710700Y-112852000D01*
X190704000Y-133147000D02*
X190805000Y-133248000D01*
X184760000Y-133147000D02*
X190704000Y-133147000D01*
X219964000Y-116332000D02*
X204673000Y-116332000D01*
X247396000Y-143764000D02*
X219964000Y-116332000D01*
X132171600Y-127744300D02*
X131046300Y-126619000D01*
X143015900Y-127744300D02*
X132171600Y-127744300D01*
X143736100Y-128464500D02*
X143015900Y-127744300D01*
X160834200Y-128464500D02*
X143736100Y-128464500D01*
X162501700Y-126797000D02*
X160834200Y-128464500D01*
X163627000Y-126797000D02*
X162501700Y-126797000D01*
X129921000Y-126619000D02*
X131046300Y-126619000D01*
X132171600Y-132824300D02*
X131046300Y-131699000D01*
X139964000Y-132824300D02*
X132171600Y-132824300D01*
X140638900Y-132149400D02*
X139964000Y-132824300D01*
X159689300Y-132149400D02*
X140638900Y-132149400D01*
X162501700Y-129337000D02*
X159689300Y-132149400D01*
X163627000Y-129337000D02*
X162501700Y-129337000D01*
X129921000Y-131699000D02*
X131046300Y-131699000D01*
D31*
G36*
X263677400Y-88087200D02*
X234289600Y-88087200D01*
X234223592Y-88105701D01*
X234186580Y-88139931D01*
X234165802Y-88185862D01*
X234164530Y-88236259D01*
X234182966Y-88283180D01*
X234218205Y-88319232D01*
X234264693Y-88338734D01*
X234289600Y-88343715D01*
X234289600Y-124231400D01*
X234298285Y-124277559D01*
X234325565Y-124319953D01*
X234367190Y-124348394D01*
X234416600Y-124358400D01*
X244297200Y-124358400D01*
X244297200Y-138582400D01*
X244305885Y-138628559D01*
X244333165Y-138670953D01*
X244374790Y-138699394D01*
X244424200Y-138709400D01*
X263677400Y-138709400D01*
X263677400Y-152960000D01*
X96850200Y-152960000D01*
X96850200Y-147742510D01*
X147222070Y-147742510D01*
X147222070Y-149741490D01*
X147266348Y-149976807D01*
X147405420Y-150192931D01*
X147617620Y-150337921D01*
X147869510Y-150388930D01*
X149868490Y-150388930D01*
X150103807Y-150344652D01*
X150319931Y-150205580D01*
X150426544Y-150049546D01*
X151671999Y-151295001D01*
X151918561Y-151459748D01*
X152209400Y-151517600D01*
X221606400Y-151517600D01*
X221897239Y-151459748D01*
X222143801Y-151295001D01*
X222901917Y-150536885D01*
X223066453Y-150605206D01*
X223716694Y-150605774D01*
X224317655Y-150357462D01*
X224777846Y-149898073D01*
X225027206Y-149297547D01*
X225027208Y-149294694D01*
X229378226Y-149294694D01*
X229626538Y-149895655D01*
X230085927Y-150355846D01*
X230686453Y-150605206D01*
X231336694Y-150605774D01*
X231937655Y-150357462D01*
X232397846Y-149898073D01*
X232647206Y-149297547D01*
X232647774Y-148647306D01*
X232399462Y-148046345D01*
X231940073Y-147586154D01*
X231339547Y-147336794D01*
X230689306Y-147336226D01*
X230088345Y-147584538D01*
X229628154Y-148043927D01*
X229378794Y-148644453D01*
X229378226Y-149294694D01*
X225027208Y-149294694D01*
X225027774Y-148647306D01*
X224779462Y-148046345D01*
X224320073Y-147586154D01*
X223719547Y-147336794D01*
X223069306Y-147336226D01*
X222468345Y-147584538D01*
X222008154Y-148043927D01*
X221758794Y-148644453D01*
X221758226Y-149294694D01*
X221827309Y-149461889D01*
X221291598Y-149997600D01*
X202795871Y-149997600D01*
X202879724Y-149795659D01*
X202880275Y-149165107D01*
X202639481Y-148582343D01*
X202541971Y-148484663D01*
X202746441Y-148353090D01*
X202891431Y-148140890D01*
X202942440Y-147889000D01*
X202942440Y-146630963D01*
X235584714Y-146630963D01*
X235835534Y-147237995D01*
X236299563Y-147702834D01*
X236906155Y-147954713D01*
X237562963Y-147955286D01*
X238169995Y-147704466D01*
X238634834Y-147240437D01*
X238886713Y-146633845D01*
X238887286Y-145977037D01*
X238636466Y-145370005D01*
X238172437Y-144905166D01*
X237565845Y-144653287D01*
X236909037Y-144652714D01*
X236302005Y-144903534D01*
X235837166Y-145367563D01*
X235585287Y-145974155D01*
X235584714Y-146630963D01*
X202942440Y-146630963D01*
X202942440Y-145989000D01*
X202898162Y-145753683D01*
X202759090Y-145537559D01*
X202546890Y-145392569D01*
X202295000Y-145341560D01*
X202055000Y-145341560D01*
X202055000Y-141804963D01*
X202564714Y-141804963D01*
X202815534Y-142411995D01*
X203279563Y-142876834D01*
X203886155Y-143128713D01*
X204542963Y-143129286D01*
X205149995Y-142878466D01*
X205614834Y-142414437D01*
X205866713Y-141807845D01*
X205867286Y-141151037D01*
X205786286Y-140955000D01*
X225524560Y-140955000D01*
X225524560Y-142255000D01*
X225568838Y-142490317D01*
X225707910Y-142706441D01*
X225920110Y-142851431D01*
X226172000Y-142902440D01*
X227472000Y-142902440D01*
X227707317Y-142858162D01*
X227923441Y-142719090D01*
X228068431Y-142506890D01*
X228119440Y-142255000D01*
X228119440Y-142059540D01*
X228231995Y-142331943D01*
X228593155Y-142693735D01*
X229065276Y-142889777D01*
X229576481Y-142890223D01*
X230048943Y-142695005D01*
X230410735Y-142333845D01*
X230606777Y-141861724D01*
X230607048Y-141550963D01*
X235584714Y-141550963D01*
X235835534Y-142157995D01*
X236299563Y-142622834D01*
X236906155Y-142874713D01*
X237562963Y-142875286D01*
X238169995Y-142624466D01*
X238634834Y-142160437D01*
X238886713Y-141553845D01*
X238887286Y-140897037D01*
X238636466Y-140290005D01*
X238172437Y-139825166D01*
X237565845Y-139573287D01*
X236909037Y-139572714D01*
X236302005Y-139823534D01*
X235837166Y-140287563D01*
X235585287Y-140894155D01*
X235584714Y-141550963D01*
X230607048Y-141550963D01*
X230607223Y-141350519D01*
X230412005Y-140878057D01*
X230050845Y-140516265D01*
X229578724Y-140320223D01*
X229067519Y-140319777D01*
X228595057Y-140514995D01*
X228233265Y-140876155D01*
X228119440Y-141150276D01*
X228119440Y-140955000D01*
X228075162Y-140719683D01*
X227936090Y-140503559D01*
X227723890Y-140358569D01*
X227472000Y-140307560D01*
X226172000Y-140307560D01*
X225936683Y-140351838D01*
X225720559Y-140490910D01*
X225575569Y-140703110D01*
X225524560Y-140955000D01*
X205786286Y-140955000D01*
X205616466Y-140544005D01*
X205152437Y-140079166D01*
X204545845Y-139827287D01*
X203889037Y-139826714D01*
X203282005Y-140077534D01*
X202817166Y-140541563D01*
X202565287Y-141148155D01*
X202564714Y-141804963D01*
X202055000Y-141804963D01*
X202055000Y-139264963D01*
X212724714Y-139264963D01*
X212975534Y-139871995D01*
X213439563Y-140336834D01*
X214046155Y-140588713D01*
X214702963Y-140589286D01*
X215309995Y-140338466D01*
X215774834Y-139874437D01*
X216026713Y-139267845D01*
X216027286Y-138611037D01*
X215776466Y-138004005D01*
X215312437Y-137539166D01*
X214705845Y-137287287D01*
X214049037Y-137286714D01*
X213442005Y-137537534D01*
X212977166Y-138001563D01*
X212725287Y-138608155D01*
X212724714Y-139264963D01*
X202055000Y-139264963D01*
X202055000Y-136724963D01*
X202564714Y-136724963D01*
X202815534Y-137331995D01*
X203279563Y-137796834D01*
X203886155Y-138048713D01*
X204542963Y-138049286D01*
X205149995Y-137798466D01*
X205614834Y-137334437D01*
X205866713Y-136727845D01*
X205867286Y-136071037D01*
X205616466Y-135464005D01*
X205152437Y-134999166D01*
X204545845Y-134747287D01*
X203889037Y-134746714D01*
X203282005Y-134997534D01*
X202817166Y-135461563D01*
X202565287Y-136068155D01*
X202564714Y-136724963D01*
X202055000Y-136724963D01*
X202055000Y-136068000D01*
X201997148Y-135777161D01*
X201832401Y-135530599D01*
X196874312Y-130572510D01*
X218038070Y-130572510D01*
X218038070Y-132571490D01*
X218082348Y-132806807D01*
X218221420Y-133022931D01*
X218433620Y-133167921D01*
X218685510Y-133218930D01*
X220684490Y-133218930D01*
X220919807Y-133174652D01*
X221135931Y-133035580D01*
X221280921Y-132823380D01*
X221331930Y-132571490D01*
X221331930Y-131895694D01*
X221860226Y-131895694D01*
X222108538Y-132496655D01*
X222567927Y-132956846D01*
X223168453Y-133206206D01*
X223818694Y-133206774D01*
X224419655Y-132958462D01*
X224879846Y-132499073D01*
X225129206Y-131898547D01*
X225129774Y-131248306D01*
X224881462Y-130647345D01*
X224422073Y-130187154D01*
X223821547Y-129937794D01*
X223171306Y-129937226D01*
X222570345Y-130185538D01*
X222110154Y-130644927D01*
X221860794Y-131245453D01*
X221860226Y-131895694D01*
X221331930Y-131895694D01*
X221331930Y-130572510D01*
X221287652Y-130337193D01*
X221148580Y-130121069D01*
X220936380Y-129976079D01*
X220684490Y-129925070D01*
X218685510Y-129925070D01*
X218450193Y-129969348D01*
X218234069Y-130108420D01*
X218089079Y-130320620D01*
X218038070Y-130572510D01*
X196874312Y-130572510D01*
X194793496Y-128491694D01*
X195850226Y-128491694D01*
X196098538Y-129092655D01*
X196557927Y-129552846D01*
X197158453Y-129802206D01*
X197808694Y-129802774D01*
X198409655Y-129554462D01*
X198869846Y-129095073D01*
X199119206Y-128494547D01*
X199119774Y-127844306D01*
X198871462Y-127243345D01*
X198412073Y-126783154D01*
X197811547Y-126533794D01*
X197161306Y-126533226D01*
X196560345Y-126781538D01*
X196100154Y-127240927D01*
X195850794Y-127841453D01*
X195850226Y-128491694D01*
X194793496Y-128491694D01*
X192787496Y-126485694D01*
X209871226Y-126485694D01*
X210119538Y-127086655D01*
X210578927Y-127546846D01*
X211179453Y-127796206D01*
X211829694Y-127796774D01*
X212430655Y-127548462D01*
X212890846Y-127089073D01*
X213140206Y-126488547D01*
X213140774Y-125838306D01*
X212892462Y-125237345D01*
X212433073Y-124777154D01*
X211832547Y-124527794D01*
X211182306Y-124527226D01*
X210581345Y-124775538D01*
X210121154Y-125234927D01*
X209871794Y-125835453D01*
X209871226Y-126485694D01*
X192787496Y-126485694D01*
X191125885Y-124824083D01*
X191194206Y-124659547D01*
X191194208Y-124656694D01*
X195545226Y-124656694D01*
X195793538Y-125257655D01*
X196252927Y-125717846D01*
X196853453Y-125967206D01*
X197503694Y-125967774D01*
X198104655Y-125719462D01*
X198564846Y-125260073D01*
X198814206Y-124659547D01*
X198814774Y-124009306D01*
X198566462Y-123408345D01*
X198107073Y-122948154D01*
X197506547Y-122698794D01*
X196856306Y-122698226D01*
X196255345Y-122946538D01*
X195795154Y-123405927D01*
X195545794Y-124006453D01*
X195545226Y-124656694D01*
X191194208Y-124656694D01*
X191194774Y-124009306D01*
X190946462Y-123408345D01*
X190487073Y-122948154D01*
X189886547Y-122698794D01*
X189236306Y-122698226D01*
X188635345Y-122946538D01*
X188175154Y-123405927D01*
X187925794Y-124006453D01*
X187925226Y-124656694D01*
X188173538Y-125257655D01*
X188632927Y-125717846D01*
X189233453Y-125967206D01*
X189883694Y-125967774D01*
X190050889Y-125898691D01*
X200535000Y-136382802D01*
X200535000Y-145341560D01*
X200295000Y-145341560D01*
X200059683Y-145385838D01*
X199843559Y-145524910D01*
X199698569Y-145737110D01*
X199647560Y-145989000D01*
X199647560Y-147889000D01*
X199691838Y-148124317D01*
X199830910Y-148340441D01*
X200043110Y-148485431D01*
X200046192Y-148486055D01*
X199952086Y-148579997D01*
X199710276Y-149162341D01*
X199709725Y-149792893D01*
X199794308Y-149997600D01*
X194363386Y-149997600D01*
X194520019Y-149942208D01*
X194738188Y-149350602D01*
X194713352Y-148720539D01*
X194520019Y-148253792D01*
X194258352Y-148161256D01*
X194292483Y-148127125D01*
X194377317Y-148111162D01*
X194593441Y-147972090D01*
X194738431Y-147759890D01*
X194789440Y-147508000D01*
X194789440Y-145608000D01*
X194745162Y-145372683D01*
X194606090Y-145156559D01*
X194393890Y-145011569D01*
X194142000Y-144960560D01*
X193902000Y-144960560D01*
X193902000Y-143205000D01*
X193844148Y-142914161D01*
X193679401Y-142667599D01*
X192370885Y-141359083D01*
X192439206Y-141194547D01*
X192439774Y-140544306D01*
X192191462Y-139943345D01*
X191732073Y-139483154D01*
X191131547Y-139233794D01*
X190481306Y-139233226D01*
X189880345Y-139481538D01*
X189420154Y-139940927D01*
X189170794Y-140541453D01*
X189170226Y-141191694D01*
X189418538Y-141792655D01*
X189877927Y-142252846D01*
X190478453Y-142502206D01*
X191128694Y-142502774D01*
X191295889Y-142433691D01*
X192382000Y-143519802D01*
X192382000Y-144960560D01*
X192142000Y-144960560D01*
X191906683Y-145004838D01*
X191690559Y-145143910D01*
X191545569Y-145356110D01*
X191494560Y-145608000D01*
X191494560Y-147508000D01*
X191538838Y-147743317D01*
X191677910Y-147959441D01*
X191890110Y-148104431D01*
X191988810Y-148124418D01*
X192025648Y-148161256D01*
X191763981Y-148253792D01*
X191545812Y-148845398D01*
X191570648Y-149475461D01*
X191763981Y-149942208D01*
X191920614Y-149997600D01*
X180952826Y-149997600D01*
X180975355Y-149992144D01*
X181533317Y-149678922D01*
X181928942Y-149176020D01*
X182102000Y-148560000D01*
X182102000Y-148260000D01*
X180594000Y-148260000D01*
X180594000Y-148280000D01*
X180340000Y-148280000D01*
X180340000Y-148260000D01*
X180320000Y-148260000D01*
X180320000Y-148006000D01*
X180340000Y-148006000D01*
X180340000Y-146362223D01*
X180594000Y-146362223D01*
X180594000Y-148006000D01*
X182102000Y-148006000D01*
X182102000Y-147706000D01*
X181928942Y-147089980D01*
X181586751Y-146655000D01*
X183569560Y-146655000D01*
X183569560Y-149255000D01*
X183613838Y-149490317D01*
X183752910Y-149706441D01*
X183965110Y-149851431D01*
X184217000Y-149902440D01*
X186217000Y-149902440D01*
X186452317Y-149858162D01*
X186668441Y-149719090D01*
X186782349Y-149552380D01*
X187248645Y-149814144D01*
X187376566Y-149845124D01*
X187630000Y-149725777D01*
X187630000Y-148082000D01*
X187884000Y-148082000D01*
X187884000Y-149725777D01*
X188137434Y-149845124D01*
X188265355Y-149814144D01*
X188823317Y-149500922D01*
X189218942Y-148998020D01*
X189392000Y-148382000D01*
X189392000Y-148082000D01*
X187884000Y-148082000D01*
X187630000Y-148082000D01*
X187610000Y-148082000D01*
X187610000Y-147828000D01*
X187630000Y-147828000D01*
X187630000Y-146184223D01*
X187884000Y-146184223D01*
X187884000Y-147828000D01*
X189392000Y-147828000D01*
X189392000Y-147528000D01*
X189218942Y-146911980D01*
X188823317Y-146409078D01*
X188265355Y-146095856D01*
X188137434Y-146064876D01*
X187884000Y-146184223D01*
X187630000Y-146184223D01*
X187376566Y-146064876D01*
X187248645Y-146095856D01*
X186780789Y-146358495D01*
X186681090Y-146203559D01*
X186468890Y-146058569D01*
X186217000Y-146007560D01*
X184217000Y-146007560D01*
X183981683Y-146051838D01*
X183765559Y-146190910D01*
X183620569Y-146403110D01*
X183569560Y-146655000D01*
X181586751Y-146655000D01*
X181533317Y-146587078D01*
X180975355Y-146273856D01*
X180847434Y-146242876D01*
X180594000Y-146362223D01*
X180340000Y-146362223D01*
X180086566Y-146242876D01*
X179958645Y-146273856D01*
X179490789Y-146536495D01*
X179391090Y-146381559D01*
X179178890Y-146236569D01*
X178927000Y-146185560D01*
X176927000Y-146185560D01*
X176691683Y-146229838D01*
X176475559Y-146368910D01*
X176330569Y-146581110D01*
X176279560Y-146833000D01*
X176279560Y-149433000D01*
X176323838Y-149668317D01*
X176462910Y-149884441D01*
X176628524Y-149997600D01*
X173633019Y-149997600D01*
X174065317Y-149754922D01*
X174460942Y-149252020D01*
X174634000Y-148636000D01*
X174634000Y-148336000D01*
X173126000Y-148336000D01*
X173126000Y-148356000D01*
X172872000Y-148356000D01*
X172872000Y-148336000D01*
X172852000Y-148336000D01*
X172852000Y-148082000D01*
X172872000Y-148082000D01*
X172872000Y-146438223D01*
X173126000Y-146438223D01*
X173126000Y-148082000D01*
X174634000Y-148082000D01*
X174634000Y-147782000D01*
X174460942Y-147165980D01*
X174065317Y-146663078D01*
X173507355Y-146349856D01*
X173379434Y-146318876D01*
X173126000Y-146438223D01*
X172872000Y-146438223D01*
X172618566Y-146318876D01*
X172490645Y-146349856D01*
X172022789Y-146612495D01*
X171923090Y-146457559D01*
X171710890Y-146312569D01*
X171459000Y-146261560D01*
X169459000Y-146261560D01*
X169223683Y-146305838D01*
X169007559Y-146444910D01*
X168862569Y-146657110D01*
X168811560Y-146909000D01*
X168811560Y-149509000D01*
X168855838Y-149744317D01*
X168994910Y-149960441D01*
X169049294Y-149997600D01*
X165637262Y-149997600D01*
X166078120Y-149703029D01*
X166432543Y-149172596D01*
X166557000Y-148546909D01*
X166557000Y-147871091D01*
X166432543Y-147245404D01*
X166078120Y-146714971D01*
X165547687Y-146360548D01*
X164922000Y-146236091D01*
X164296313Y-146360548D01*
X163937808Y-146600093D01*
X163846090Y-146457559D01*
X163633890Y-146312569D01*
X163382000Y-146261560D01*
X161382000Y-146261560D01*
X161146683Y-146305838D01*
X160930559Y-146444910D01*
X160785569Y-146657110D01*
X160734560Y-146909000D01*
X160734560Y-149509000D01*
X160778838Y-149744317D01*
X160917910Y-149960441D01*
X160972294Y-149997600D01*
X157562717Y-149997600D01*
X158156687Y-149879452D01*
X158687120Y-149525029D01*
X159041543Y-148994596D01*
X159166000Y-148368909D01*
X159166000Y-147693091D01*
X159041543Y-147067404D01*
X158687120Y-146536971D01*
X158260396Y-146251844D01*
X158233148Y-146114861D01*
X158068401Y-145868299D01*
X156817300Y-144617198D01*
X156817300Y-142921930D01*
X158479490Y-142921930D01*
X158714807Y-142877652D01*
X158930931Y-142738580D01*
X159075921Y-142526380D01*
X159126930Y-142274490D01*
X159126930Y-141090694D01*
X183125226Y-141090694D01*
X183373538Y-141691655D01*
X183832927Y-142151846D01*
X184433453Y-142401206D01*
X185083694Y-142401774D01*
X185684655Y-142153462D01*
X186144846Y-141694073D01*
X186394206Y-141093547D01*
X186394774Y-140443306D01*
X186146462Y-139842345D01*
X185687073Y-139382154D01*
X185086547Y-139132794D01*
X184436306Y-139132226D01*
X183835345Y-139380538D01*
X183375154Y-139839927D01*
X183125794Y-140440453D01*
X183125226Y-141090694D01*
X159126930Y-141090694D01*
X159126930Y-140275510D01*
X159082652Y-140040193D01*
X158943580Y-139824069D01*
X158731380Y-139679079D01*
X158479490Y-139628070D01*
X156480510Y-139628070D01*
X156245193Y-139672348D01*
X156029069Y-139811420D01*
X155884079Y-140023620D01*
X155833070Y-140275510D01*
X155833070Y-140593760D01*
X155617799Y-140737598D01*
X155519899Y-140835499D01*
X155355152Y-141082061D01*
X155297300Y-141372900D01*
X155297300Y-144172000D01*
X150323496Y-144172000D01*
X150255462Y-144007345D01*
X149796073Y-143547154D01*
X149195547Y-143297794D01*
X148545306Y-143297226D01*
X147944345Y-143545538D01*
X147484154Y-144004927D01*
X147234794Y-144605453D01*
X147234226Y-145255694D01*
X147482538Y-145856655D01*
X147941927Y-146316846D01*
X148542453Y-146566206D01*
X149192694Y-146566774D01*
X149793655Y-146318462D01*
X150253846Y-145859073D01*
X150323221Y-145692000D01*
X155742498Y-145692000D01*
X156170384Y-146119886D01*
X155991000Y-146083560D01*
X153991000Y-146083560D01*
X153755683Y-146127838D01*
X153539559Y-146266910D01*
X153394569Y-146479110D01*
X153343560Y-146731000D01*
X153343560Y-149331000D01*
X153387838Y-149566317D01*
X153526910Y-149782441D01*
X153739110Y-149927431D01*
X153991000Y-149978440D01*
X155991000Y-149978440D01*
X156226317Y-149934162D01*
X156442441Y-149795090D01*
X156547951Y-149640671D01*
X156905313Y-149879452D01*
X157499283Y-149997600D01*
X152524202Y-149997600D01*
X150731201Y-148204599D01*
X150515930Y-148060760D01*
X150515930Y-147742510D01*
X150471652Y-147507193D01*
X150332580Y-147291069D01*
X150120380Y-147146079D01*
X149868490Y-147095070D01*
X147869510Y-147095070D01*
X147634193Y-147139348D01*
X147418069Y-147278420D01*
X147273079Y-147490620D01*
X147222070Y-147742510D01*
X96850200Y-147742510D01*
X96850200Y-133599641D01*
X104216400Y-133599641D01*
X104216400Y-133658359D01*
X104330474Y-134231848D01*
X104655330Y-134718029D01*
X104926172Y-134899000D01*
X104655330Y-135079971D01*
X104330474Y-135566152D01*
X104216400Y-136139641D01*
X104216400Y-136198359D01*
X104330474Y-136771848D01*
X104655330Y-137258029D01*
X104926172Y-137439000D01*
X104655330Y-137619971D01*
X104330474Y-138106152D01*
X104216400Y-138679641D01*
X104216400Y-138738359D01*
X104330474Y-139311848D01*
X104655330Y-139798029D01*
X104926172Y-139979000D01*
X104655330Y-140159971D01*
X104330474Y-140646152D01*
X104216400Y-141219641D01*
X104216400Y-141278359D01*
X104330474Y-141851848D01*
X104655330Y-142338029D01*
X104926172Y-142519000D01*
X104655330Y-142699971D01*
X104330474Y-143186152D01*
X104216400Y-143759641D01*
X104216400Y-143818359D01*
X104330474Y-144391848D01*
X104655330Y-144878029D01*
X105141511Y-145202885D01*
X105715000Y-145316959D01*
X106288489Y-145202885D01*
X106774670Y-144878029D01*
X106783805Y-144864358D01*
X106788238Y-144887917D01*
X106927310Y-145104041D01*
X107139510Y-145249031D01*
X107391400Y-145300040D01*
X109118600Y-145300040D01*
X109353917Y-145255762D01*
X109570041Y-145116690D01*
X109715031Y-144904490D01*
X109766040Y-144652600D01*
X109766040Y-142925400D01*
X109721762Y-142690083D01*
X109582690Y-142473959D01*
X109370490Y-142328969D01*
X109326655Y-142320092D01*
X109534520Y-142009000D01*
X131945700Y-142009000D01*
X132236539Y-141951148D01*
X132483101Y-141786401D01*
X133993992Y-140275510D01*
X147121070Y-140275510D01*
X147121070Y-142274490D01*
X147165348Y-142509807D01*
X147304420Y-142725931D01*
X147516620Y-142870921D01*
X147768510Y-142921930D01*
X149767490Y-142921930D01*
X150002807Y-142877652D01*
X150218931Y-142738580D01*
X150363921Y-142526380D01*
X150414930Y-142274490D01*
X150414930Y-140275510D01*
X150394354Y-140166156D01*
X151503562Y-141275364D01*
X151541052Y-141463839D01*
X151705799Y-141710401D01*
X151921070Y-141854240D01*
X151921070Y-142172490D01*
X151965348Y-142407807D01*
X152104420Y-142623931D01*
X152316620Y-142768921D01*
X152568510Y-142819930D01*
X154567490Y-142819930D01*
X154802807Y-142775652D01*
X155018931Y-142636580D01*
X155163921Y-142424380D01*
X155214930Y-142172490D01*
X155214930Y-140173510D01*
X155170652Y-139938193D01*
X155031580Y-139722069D01*
X154819380Y-139577079D01*
X154567490Y-139526070D01*
X152568510Y-139526070D01*
X152333193Y-139570348D01*
X152117069Y-139709420D01*
X152104954Y-139727152D01*
X150333885Y-137956083D01*
X150402206Y-137791547D01*
X150402774Y-137141306D01*
X150154462Y-136540345D01*
X149695073Y-136080154D01*
X149094547Y-135830794D01*
X148444306Y-135830226D01*
X147843345Y-136078538D01*
X147383154Y-136537927D01*
X147133794Y-137138453D01*
X147133226Y-137788694D01*
X147381538Y-138389655D01*
X147840927Y-138849846D01*
X148441453Y-139099206D01*
X149091694Y-139099774D01*
X149258889Y-139030691D01*
X149878811Y-139650613D01*
X149767490Y-139628070D01*
X147768510Y-139628070D01*
X147533193Y-139672348D01*
X147317069Y-139811420D01*
X147172079Y-140023620D01*
X147121070Y-140275510D01*
X133993992Y-140275510D01*
X136489223Y-137780279D01*
X136498189Y-137793698D01*
X136963736Y-138104767D01*
X137512887Y-138214000D01*
X137569113Y-138214000D01*
X138118264Y-138104767D01*
X138583811Y-137793698D01*
X138894880Y-137328151D01*
X139004113Y-136779000D01*
X138894880Y-136229849D01*
X138583811Y-135764302D01*
X138201725Y-135509000D01*
X138583811Y-135253698D01*
X138635511Y-135176324D01*
X138895300Y-135228000D01*
X139744258Y-135228000D01*
X139767838Y-135353317D01*
X139906910Y-135569441D01*
X140119110Y-135714431D01*
X140371000Y-135765440D01*
X141671000Y-135765440D01*
X141906317Y-135721162D01*
X142122441Y-135582090D01*
X142267431Y-135369890D01*
X142318440Y-135118000D01*
X142318440Y-133818000D01*
X142274162Y-133582683D01*
X142135090Y-133366559D01*
X141922890Y-133221569D01*
X141671000Y-133170560D01*
X140692542Y-133170560D01*
X140953702Y-132909400D01*
X148301498Y-132909400D01*
X147502898Y-133708000D01*
X147078006Y-133708000D01*
X146749845Y-133379265D01*
X146277724Y-133183223D01*
X145766519Y-133182777D01*
X145294057Y-133377995D01*
X144932265Y-133739155D01*
X144736223Y-134211276D01*
X144735777Y-134722481D01*
X144930995Y-135194943D01*
X145292155Y-135556735D01*
X145764276Y-135752777D01*
X146275481Y-135753223D01*
X146747943Y-135558005D01*
X147078525Y-135228000D01*
X147817700Y-135228000D01*
X148108539Y-135170148D01*
X148355101Y-135005401D01*
X149015537Y-134344965D01*
X149161110Y-134444431D01*
X149413000Y-134495440D01*
X150713000Y-134495440D01*
X150948317Y-134451162D01*
X151111594Y-134346096D01*
X152713181Y-135947683D01*
X152643345Y-135976538D01*
X152183154Y-136435927D01*
X151933794Y-137036453D01*
X151933226Y-137686694D01*
X152181538Y-138287655D01*
X152640927Y-138747846D01*
X153241453Y-138997206D01*
X153891694Y-138997774D01*
X154492655Y-138749462D01*
X154952846Y-138290073D01*
X154979867Y-138225000D01*
X156025504Y-138225000D01*
X156093538Y-138389655D01*
X156552927Y-138849846D01*
X157153453Y-139099206D01*
X157803694Y-139099774D01*
X158404655Y-138851462D01*
X158864846Y-138392073D01*
X159114206Y-137791547D01*
X159114774Y-137141306D01*
X158972964Y-136798100D01*
X165659998Y-136798100D01*
X168007299Y-139145401D01*
X168229282Y-139293726D01*
X168266838Y-139493317D01*
X168405910Y-139709441D01*
X168618110Y-139854431D01*
X168870000Y-139905440D01*
X170170000Y-139905440D01*
X170405317Y-139861162D01*
X170621441Y-139722090D01*
X170766431Y-139509890D01*
X170817440Y-139258000D01*
X170817440Y-138862481D01*
X173234777Y-138862481D01*
X173429995Y-139334943D01*
X173791155Y-139696735D01*
X174263276Y-139892777D01*
X174774481Y-139893223D01*
X175246943Y-139698005D01*
X175608735Y-139336845D01*
X175804777Y-138864724D01*
X175805223Y-138353519D01*
X175610005Y-137881057D01*
X175248845Y-137519265D01*
X174776724Y-137323223D01*
X174265519Y-137322777D01*
X173793057Y-137517995D01*
X173431265Y-137879155D01*
X173235223Y-138351276D01*
X173234777Y-138862481D01*
X170817440Y-138862481D01*
X170817440Y-137958000D01*
X170773162Y-137722683D01*
X170634090Y-137506559D01*
X170421890Y-137361569D01*
X170170000Y-137310560D01*
X168870000Y-137310560D01*
X168634683Y-137354838D01*
X168471406Y-137459904D01*
X166512201Y-135500699D01*
X166265639Y-135335952D01*
X165974800Y-135278100D01*
X164772442Y-135278100D01*
X164980880Y-134966151D01*
X165090113Y-134417000D01*
X164980880Y-133867849D01*
X164669811Y-133402302D01*
X164287725Y-133147000D01*
X164669811Y-132891698D01*
X164980880Y-132426151D01*
X165090113Y-131877000D01*
X164980880Y-131327849D01*
X164669811Y-130862302D01*
X164287725Y-130607000D01*
X164669811Y-130351698D01*
X164980880Y-129886151D01*
X165090113Y-129337000D01*
X164980880Y-128787849D01*
X164669811Y-128322302D01*
X164287725Y-128067000D01*
X164669811Y-127811698D01*
X164980880Y-127346151D01*
X165090113Y-126797000D01*
X164980880Y-126247849D01*
X164669811Y-125782302D01*
X164287725Y-125527000D01*
X164669811Y-125271698D01*
X164980880Y-124806151D01*
X165090113Y-124257000D01*
X177403887Y-124257000D01*
X177513120Y-124806151D01*
X177824189Y-125271698D01*
X178206275Y-125527000D01*
X177824189Y-125782302D01*
X177513120Y-126247849D01*
X177403887Y-126797000D01*
X177513120Y-127346151D01*
X177824189Y-127811698D01*
X178206275Y-128067000D01*
X177824189Y-128322302D01*
X177513120Y-128787849D01*
X177403887Y-129337000D01*
X177513120Y-129886151D01*
X177824189Y-130351698D01*
X178206275Y-130607000D01*
X177824189Y-130862302D01*
X177513120Y-131327849D01*
X177403887Y-131877000D01*
X177513120Y-132426151D01*
X177824189Y-132891698D01*
X178206275Y-133147000D01*
X177824189Y-133402302D01*
X177513120Y-133867849D01*
X177403887Y-134417000D01*
X177513120Y-134966151D01*
X177824189Y-135431698D01*
X178289736Y-135742767D01*
X178838887Y-135852000D01*
X178895113Y-135852000D01*
X179444264Y-135742767D01*
X179909811Y-135431698D01*
X180220880Y-134966151D01*
X180330113Y-134417000D01*
X180220880Y-133867849D01*
X179955510Y-133470694D01*
X183125226Y-133470694D01*
X183373538Y-134071655D01*
X183832927Y-134531846D01*
X184433453Y-134781206D01*
X185083694Y-134781774D01*
X185684655Y-134533462D01*
X186144846Y-134074073D01*
X186214221Y-133907000D01*
X189308772Y-133907000D01*
X189418538Y-134172655D01*
X189877927Y-134632846D01*
X190478453Y-134882206D01*
X191128694Y-134882774D01*
X191729655Y-134634462D01*
X192189846Y-134175073D01*
X192439206Y-133574547D01*
X192439774Y-132924306D01*
X192191462Y-132323345D01*
X191732073Y-131863154D01*
X191131547Y-131613794D01*
X190481306Y-131613226D01*
X189880345Y-131861538D01*
X189420154Y-132320927D01*
X189392718Y-132387000D01*
X186214496Y-132387000D01*
X186146462Y-132222345D01*
X185687073Y-131762154D01*
X185086547Y-131512794D01*
X184436306Y-131512226D01*
X183835345Y-131760538D01*
X183375154Y-132219927D01*
X183125794Y-132820453D01*
X183125226Y-133470694D01*
X179955510Y-133470694D01*
X179909811Y-133402302D01*
X179527725Y-133147000D01*
X179909811Y-132891698D01*
X180220880Y-132426151D01*
X180330113Y-131877000D01*
X180220880Y-131327849D01*
X179909811Y-130862302D01*
X179527725Y-130607000D01*
X179909811Y-130351698D01*
X180220880Y-129886151D01*
X180330113Y-129337000D01*
X180326764Y-129320163D01*
X188892443Y-129320163D01*
X188991042Y-129586965D01*
X189600582Y-129813401D01*
X190250377Y-129789341D01*
X190738958Y-129586965D01*
X190837557Y-129320163D01*
X189865000Y-128347605D01*
X188892443Y-129320163D01*
X180326764Y-129320163D01*
X180220880Y-128787849D01*
X179909811Y-128322302D01*
X179527725Y-128067000D01*
X179772297Y-127903582D01*
X188219599Y-127903582D01*
X188243659Y-128553377D01*
X188446035Y-129041958D01*
X188712837Y-129140557D01*
X189685395Y-128168000D01*
X190044605Y-128168000D01*
X191017163Y-129140557D01*
X191283965Y-129041958D01*
X191510401Y-128432418D01*
X191486341Y-127782623D01*
X191283965Y-127294042D01*
X191017163Y-127195443D01*
X190044605Y-128168000D01*
X189685395Y-128168000D01*
X188712837Y-127195443D01*
X188446035Y-127294042D01*
X188219599Y-127903582D01*
X179772297Y-127903582D01*
X179909811Y-127811698D01*
X180220880Y-127346151D01*
X180286583Y-127015837D01*
X188892443Y-127015837D01*
X189865000Y-127988395D01*
X190837557Y-127015837D01*
X190738958Y-126749035D01*
X190129418Y-126522599D01*
X189479623Y-126546659D01*
X188991042Y-126749035D01*
X188892443Y-127015837D01*
X180286583Y-127015837D01*
X180330113Y-126797000D01*
X180220880Y-126247849D01*
X179909811Y-125782302D01*
X179527725Y-125527000D01*
X179909811Y-125271698D01*
X180220880Y-124806151D01*
X180330113Y-124257000D01*
X180220880Y-123707849D01*
X179909811Y-123242302D01*
X179505297Y-122972014D01*
X179722134Y-122869389D01*
X180098041Y-122454423D01*
X180258904Y-122066039D01*
X180136915Y-121844000D01*
X178994000Y-121844000D01*
X178994000Y-121864000D01*
X178740000Y-121864000D01*
X178740000Y-121844000D01*
X177597085Y-121844000D01*
X177475096Y-122066039D01*
X177635959Y-122454423D01*
X178011866Y-122869389D01*
X178228703Y-122972014D01*
X177824189Y-123242302D01*
X177513120Y-123707849D01*
X177403887Y-124257000D01*
X165090113Y-124257000D01*
X164980880Y-123707849D01*
X164669811Y-123242302D01*
X164287725Y-122987000D01*
X164669811Y-122731698D01*
X164980880Y-122266151D01*
X165090113Y-121717000D01*
X164980880Y-121167849D01*
X164669811Y-120702302D01*
X164265297Y-120432014D01*
X164482134Y-120329389D01*
X164858041Y-119914423D01*
X165018904Y-119526039D01*
X164896915Y-119304000D01*
X163754000Y-119304000D01*
X163754000Y-119324000D01*
X163500000Y-119324000D01*
X163500000Y-119304000D01*
X162357085Y-119304000D01*
X162235096Y-119526039D01*
X162395959Y-119914423D01*
X162771866Y-120329389D01*
X162988703Y-120432014D01*
X162584189Y-120702302D01*
X162273120Y-121167849D01*
X162163887Y-121717000D01*
X162273120Y-122266151D01*
X162584189Y-122731698D01*
X162966275Y-122987000D01*
X162584189Y-123242302D01*
X162273120Y-123707849D01*
X162163887Y-124257000D01*
X162273120Y-124806151D01*
X162584189Y-125271698D01*
X162966275Y-125527000D01*
X162584189Y-125782302D01*
X162400563Y-126057118D01*
X162210861Y-126094852D01*
X161964299Y-126259599D01*
X160519398Y-127704500D01*
X160077001Y-127704500D01*
X160181206Y-127453547D01*
X160181774Y-126803306D01*
X159933462Y-126202345D01*
X159474073Y-125742154D01*
X158873547Y-125492794D01*
X158223306Y-125492226D01*
X157622345Y-125740538D01*
X157162154Y-126199927D01*
X156912794Y-126800453D01*
X156912226Y-127450694D01*
X157017096Y-127704500D01*
X144531920Y-127704500D01*
X144623735Y-127612845D01*
X144819777Y-127140724D01*
X144820223Y-126629519D01*
X144625005Y-126157057D01*
X144263845Y-125795265D01*
X143989724Y-125681440D01*
X144185000Y-125681440D01*
X144420317Y-125637162D01*
X144636441Y-125498090D01*
X144781431Y-125285890D01*
X144832440Y-125034000D01*
X144832440Y-123734000D01*
X144788162Y-123498683D01*
X144649090Y-123282559D01*
X144436890Y-123137569D01*
X144185000Y-123086560D01*
X142885000Y-123086560D01*
X142649683Y-123130838D01*
X142433559Y-123269910D01*
X142382630Y-123344447D01*
X142254700Y-123319000D01*
X138753995Y-123319000D01*
X138583811Y-123064302D01*
X138201725Y-122809000D01*
X138583811Y-122553698D01*
X138894880Y-122088151D01*
X139004113Y-121539000D01*
X138894880Y-120989849D01*
X138673923Y-120659163D01*
X157574443Y-120659163D01*
X157673042Y-120925965D01*
X158282582Y-121152401D01*
X158932377Y-121128341D01*
X159420958Y-120925965D01*
X159519557Y-120659163D01*
X158547000Y-119686605D01*
X157574443Y-120659163D01*
X138673923Y-120659163D01*
X138583811Y-120524302D01*
X138118264Y-120213233D01*
X137569113Y-120104000D01*
X137512887Y-120104000D01*
X136963736Y-120213233D01*
X136498189Y-120524302D01*
X136314563Y-120799118D01*
X136124861Y-120836852D01*
X135878299Y-121001599D01*
X132290898Y-124589000D01*
X131246236Y-124589000D01*
X131312904Y-124428039D01*
X131190915Y-124206000D01*
X130048000Y-124206000D01*
X130048000Y-124226000D01*
X129794000Y-124226000D01*
X129794000Y-124206000D01*
X128651085Y-124206000D01*
X128529096Y-124428039D01*
X128610975Y-124625725D01*
X128504761Y-124646852D01*
X128258199Y-124811599D01*
X125261904Y-127807894D01*
X125262223Y-127442519D01*
X125067005Y-126970057D01*
X124705845Y-126608265D01*
X124401765Y-126482000D01*
X124753310Y-126482000D01*
X124986699Y-126385327D01*
X125165327Y-126206698D01*
X125262000Y-125973309D01*
X125262000Y-125482750D01*
X125103250Y-125324000D01*
X124104000Y-125324000D01*
X124104000Y-125344000D01*
X123850000Y-125344000D01*
X123850000Y-125324000D01*
X122850750Y-125324000D01*
X122692000Y-125482750D01*
X122692000Y-125973309D01*
X122788673Y-126206698D01*
X122967301Y-126385327D01*
X123200690Y-126482000D01*
X123552567Y-126482000D01*
X123250057Y-126606995D01*
X122888265Y-126968155D01*
X122692223Y-127440276D01*
X122691777Y-127951481D01*
X122886995Y-128423943D01*
X123248155Y-128785735D01*
X123431821Y-128862000D01*
X116413802Y-128862000D01*
X120855111Y-124420691D01*
X122692000Y-124420691D01*
X122692000Y-124911250D01*
X122850750Y-125070000D01*
X123850000Y-125070000D01*
X123850000Y-124070750D01*
X124104000Y-124070750D01*
X124104000Y-125070000D01*
X125103250Y-125070000D01*
X125262000Y-124911250D01*
X125262000Y-124420691D01*
X125165327Y-124187302D01*
X124986699Y-124008673D01*
X124753310Y-123912000D01*
X124262750Y-123912000D01*
X124104000Y-124070750D01*
X123850000Y-124070750D01*
X123691250Y-123912000D01*
X123200690Y-123912000D01*
X122967301Y-124008673D01*
X122788673Y-124187302D01*
X122692000Y-124420691D01*
X120855111Y-124420691D01*
X123736802Y-121539000D01*
X128457887Y-121539000D01*
X128567120Y-122088151D01*
X128878189Y-122553698D01*
X129282703Y-122823986D01*
X129065866Y-122926611D01*
X128689959Y-123341577D01*
X128529096Y-123729961D01*
X128651085Y-123952000D01*
X129794000Y-123952000D01*
X129794000Y-123932000D01*
X130048000Y-123932000D01*
X130048000Y-123952000D01*
X131190915Y-123952000D01*
X131312904Y-123729961D01*
X131152041Y-123341577D01*
X130776134Y-122926611D01*
X130559297Y-122823986D01*
X130963811Y-122553698D01*
X131274880Y-122088151D01*
X131384113Y-121539000D01*
X131274880Y-120989849D01*
X130963811Y-120524302D01*
X130498264Y-120213233D01*
X129949113Y-120104000D01*
X129892887Y-120104000D01*
X129343736Y-120213233D01*
X128878189Y-120524302D01*
X128567120Y-120989849D01*
X128457887Y-121539000D01*
X123736802Y-121539000D01*
X126033220Y-119242582D01*
X156901599Y-119242582D01*
X156925659Y-119892377D01*
X157128035Y-120380958D01*
X157394837Y-120479557D01*
X158367395Y-119507000D01*
X158726605Y-119507000D01*
X159699163Y-120479557D01*
X159965965Y-120380958D01*
X160192401Y-119771418D01*
X160168341Y-119121623D01*
X159965965Y-118633042D01*
X159699163Y-118534443D01*
X158726605Y-119507000D01*
X158367395Y-119507000D01*
X157394837Y-118534443D01*
X157128035Y-118633042D01*
X156901599Y-119242582D01*
X126033220Y-119242582D01*
X126920965Y-118354837D01*
X157574443Y-118354837D01*
X158547000Y-119327395D01*
X159519557Y-118354837D01*
X159420958Y-118088035D01*
X158811418Y-117861599D01*
X158161623Y-117885659D01*
X157673042Y-118088035D01*
X157574443Y-118354837D01*
X126920965Y-118354837D01*
X128328052Y-116947750D01*
X142962000Y-116947750D01*
X142962000Y-117438309D01*
X143058673Y-117671698D01*
X143237301Y-117850327D01*
X143470690Y-117947000D01*
X143961250Y-117947000D01*
X144120000Y-117788250D01*
X144120000Y-116789000D01*
X144374000Y-116789000D01*
X144374000Y-117788250D01*
X144532750Y-117947000D01*
X145023310Y-117947000D01*
X145256699Y-117850327D01*
X145435327Y-117671698D01*
X145532000Y-117438309D01*
X145532000Y-116947750D01*
X145373250Y-116789000D01*
X144374000Y-116789000D01*
X144120000Y-116789000D01*
X143120750Y-116789000D01*
X142962000Y-116947750D01*
X128328052Y-116947750D01*
X129390111Y-115885691D01*
X142962000Y-115885691D01*
X142962000Y-116376250D01*
X143120750Y-116535000D01*
X144120000Y-116535000D01*
X144120000Y-115535750D01*
X144374000Y-115535750D01*
X144374000Y-116535000D01*
X145373250Y-116535000D01*
X145532000Y-116376250D01*
X145532000Y-115885691D01*
X145435327Y-115652302D01*
X145256699Y-115473673D01*
X145023310Y-115377000D01*
X144532750Y-115377000D01*
X144374000Y-115535750D01*
X144120000Y-115535750D01*
X143961250Y-115377000D01*
X143470690Y-115377000D01*
X143237301Y-115473673D01*
X143058673Y-115652302D01*
X142962000Y-115885691D01*
X129390111Y-115885691D01*
X130538502Y-114737300D01*
X136585400Y-114737300D01*
X136876239Y-114679448D01*
X137122801Y-114514701D01*
X137784223Y-113853279D01*
X137793189Y-113866698D01*
X138258736Y-114177767D01*
X138807887Y-114287000D01*
X138864113Y-114287000D01*
X139413264Y-114177767D01*
X139878811Y-113866698D01*
X140189880Y-113401151D01*
X140299113Y-112852000D01*
X140189880Y-112302849D01*
X139878811Y-111837302D01*
X139496725Y-111582000D01*
X139878811Y-111326698D01*
X139937692Y-111238576D01*
X140175100Y-111285800D01*
X143011834Y-111285800D01*
X142962223Y-111405276D01*
X142961777Y-111916481D01*
X143156995Y-112388943D01*
X143518155Y-112750735D01*
X143990276Y-112946777D01*
X144501481Y-112947223D01*
X144973943Y-112752005D01*
X145335735Y-112390845D01*
X145531777Y-111918724D01*
X145532223Y-111407519D01*
X145337005Y-110935057D01*
X145124961Y-110722641D01*
X145537602Y-110310000D01*
X151326258Y-110310000D01*
X151349838Y-110435317D01*
X151488910Y-110651441D01*
X151701110Y-110796431D01*
X151953000Y-110847440D01*
X153253000Y-110847440D01*
X153488317Y-110803162D01*
X153704441Y-110664090D01*
X153849431Y-110451890D01*
X153900440Y-110200000D01*
X153900440Y-109017000D01*
X162163887Y-109017000D01*
X162273120Y-109566151D01*
X162584189Y-110031698D01*
X162966275Y-110287000D01*
X162584189Y-110542302D01*
X162273120Y-111007849D01*
X162163887Y-111557000D01*
X162273120Y-112106151D01*
X162584189Y-112571698D01*
X162966275Y-112827000D01*
X162584189Y-113082302D01*
X162273120Y-113547849D01*
X162163887Y-114097000D01*
X162273120Y-114646151D01*
X162584189Y-115111698D01*
X162966275Y-115367000D01*
X162584189Y-115622302D01*
X162273120Y-116087849D01*
X162163887Y-116637000D01*
X162273120Y-117186151D01*
X162584189Y-117651698D01*
X162988703Y-117921986D01*
X162771866Y-118024611D01*
X162395959Y-118439577D01*
X162235096Y-118827961D01*
X162357085Y-119050000D01*
X163500000Y-119050000D01*
X163500000Y-119030000D01*
X163754000Y-119030000D01*
X163754000Y-119050000D01*
X164896915Y-119050000D01*
X165018904Y-118827961D01*
X164858041Y-118439577D01*
X164482134Y-118024611D01*
X164265297Y-117921986D01*
X164669811Y-117651698D01*
X164980880Y-117186151D01*
X165090113Y-116637000D01*
X164980880Y-116087849D01*
X164669811Y-115622302D01*
X164287725Y-115367000D01*
X164669811Y-115111698D01*
X164980880Y-114646151D01*
X165090113Y-114097000D01*
X164980880Y-113547849D01*
X164669811Y-113082302D01*
X164287725Y-112827000D01*
X164669811Y-112571698D01*
X164980880Y-112106151D01*
X165090113Y-111557000D01*
X164980880Y-111007849D01*
X164669811Y-110542302D01*
X164287725Y-110287000D01*
X164669811Y-110031698D01*
X164980880Y-109566151D01*
X165090113Y-109017000D01*
X164980880Y-108467849D01*
X164669811Y-108002302D01*
X164265297Y-107732014D01*
X164482134Y-107629389D01*
X164858041Y-107214423D01*
X165018904Y-106826039D01*
X164896915Y-106604000D01*
X163754000Y-106604000D01*
X163754000Y-106624000D01*
X163500000Y-106624000D01*
X163500000Y-106604000D01*
X162357085Y-106604000D01*
X162235096Y-106826039D01*
X162395959Y-107214423D01*
X162771866Y-107629389D01*
X162988703Y-107732014D01*
X162584189Y-108002302D01*
X162273120Y-108467849D01*
X162163887Y-109017000D01*
X153900440Y-109017000D01*
X153900440Y-108900000D01*
X153856162Y-108664683D01*
X153717090Y-108448559D01*
X153504890Y-108303569D01*
X153253000Y-108252560D01*
X151953000Y-108252560D01*
X151717683Y-108296838D01*
X151501559Y-108435910D01*
X151356569Y-108648110D01*
X151327836Y-108790000D01*
X145222800Y-108790000D01*
X144931961Y-108847852D01*
X144685399Y-109012599D01*
X143932198Y-109765800D01*
X140485532Y-109765800D01*
X140252139Y-109609852D01*
X140062437Y-109572118D01*
X139878811Y-109297302D01*
X139496725Y-109042000D01*
X139878811Y-108786698D01*
X140189880Y-108321151D01*
X140299113Y-107772000D01*
X140189880Y-107222849D01*
X139878811Y-106757302D01*
X139578022Y-106556321D01*
X139558947Y-106460424D01*
X139878811Y-106246698D01*
X140189880Y-105781151D01*
X140299113Y-105232000D01*
X140189880Y-104682849D01*
X140154835Y-104630400D01*
X142687600Y-104630400D01*
X142978439Y-104572548D01*
X143225001Y-104407801D01*
X143456802Y-104176000D01*
X144193560Y-104176000D01*
X144193560Y-105476000D01*
X144237838Y-105711317D01*
X144376910Y-105927441D01*
X144589110Y-106072431D01*
X144841000Y-106123440D01*
X145036460Y-106123440D01*
X144764057Y-106235995D01*
X144402265Y-106597155D01*
X144206223Y-107069276D01*
X144205777Y-107580481D01*
X144400995Y-108052943D01*
X144762155Y-108414735D01*
X145234276Y-108610777D01*
X145745481Y-108611223D01*
X146217943Y-108416005D01*
X146579735Y-108054845D01*
X146775777Y-107582724D01*
X146776223Y-107071519D01*
X146581005Y-106599057D01*
X146219845Y-106237265D01*
X145945724Y-106123440D01*
X146141000Y-106123440D01*
X146376317Y-106079162D01*
X146592441Y-105940090D01*
X146737431Y-105727890D01*
X146788440Y-105476000D01*
X146788440Y-104804481D01*
X151317777Y-104804481D01*
X151512995Y-105276943D01*
X151874155Y-105638735D01*
X152346276Y-105834777D01*
X152857481Y-105835223D01*
X153329943Y-105640005D01*
X153691735Y-105278845D01*
X153887777Y-104806724D01*
X153888223Y-104295519D01*
X153693005Y-103823057D01*
X153331845Y-103461265D01*
X152859724Y-103265223D01*
X152348519Y-103264777D01*
X151876057Y-103459995D01*
X151514265Y-103821155D01*
X151318223Y-104293276D01*
X151317777Y-104804481D01*
X146788440Y-104804481D01*
X146788440Y-104176000D01*
X146744162Y-103940683D01*
X146605090Y-103724559D01*
X146392890Y-103579569D01*
X146141000Y-103528560D01*
X144841000Y-103528560D01*
X144605683Y-103572838D01*
X144389559Y-103711910D01*
X144244569Y-103924110D01*
X144193560Y-104176000D01*
X143456802Y-104176000D01*
X145787917Y-101844885D01*
X145952453Y-101913206D01*
X146602694Y-101913774D01*
X147203655Y-101665462D01*
X147663846Y-101206073D01*
X147913206Y-100605547D01*
X147913774Y-99955306D01*
X147665462Y-99354345D01*
X147206073Y-98894154D01*
X147116597Y-98857000D01*
X162163887Y-98857000D01*
X162273120Y-99406151D01*
X162584189Y-99871698D01*
X162966275Y-100127000D01*
X162584189Y-100382302D01*
X162273120Y-100847849D01*
X162163887Y-101397000D01*
X162273120Y-101946151D01*
X162584189Y-102411698D01*
X162966275Y-102667000D01*
X162584189Y-102922302D01*
X162273120Y-103387849D01*
X162163887Y-103937000D01*
X162273120Y-104486151D01*
X162584189Y-104951698D01*
X162988703Y-105221986D01*
X162771866Y-105324611D01*
X162395959Y-105739577D01*
X162235096Y-106127961D01*
X162357085Y-106350000D01*
X163500000Y-106350000D01*
X163500000Y-106330000D01*
X163754000Y-106330000D01*
X163754000Y-106350000D01*
X164896915Y-106350000D01*
X165018904Y-106127961D01*
X164858041Y-105739577D01*
X164482134Y-105324611D01*
X164265297Y-105221986D01*
X164669811Y-104951698D01*
X164980880Y-104486151D01*
X165090113Y-103937000D01*
X164980880Y-103387849D01*
X164669811Y-102922302D01*
X164287725Y-102667000D01*
X164669811Y-102411698D01*
X164980880Y-101946151D01*
X165090113Y-101397000D01*
X164980880Y-100847849D01*
X164669811Y-100382302D01*
X164287725Y-100127000D01*
X164669811Y-99871698D01*
X164980880Y-99406151D01*
X165090113Y-98857000D01*
X164980880Y-98307849D01*
X164669811Y-97842302D01*
X164265297Y-97572014D01*
X164482134Y-97469389D01*
X164858041Y-97054423D01*
X165018904Y-96666039D01*
X164896915Y-96444000D01*
X163754000Y-96444000D01*
X163754000Y-96464000D01*
X163500000Y-96464000D01*
X163500000Y-96444000D01*
X162357085Y-96444000D01*
X162235096Y-96666039D01*
X162395959Y-97054423D01*
X162771866Y-97469389D01*
X162988703Y-97572014D01*
X162584189Y-97842302D01*
X162273120Y-98307849D01*
X162163887Y-98857000D01*
X147116597Y-98857000D01*
X146605547Y-98644794D01*
X145955306Y-98644226D01*
X145354345Y-98892538D01*
X144894154Y-99351927D01*
X144644794Y-99952453D01*
X144644226Y-100602694D01*
X144713309Y-100769889D01*
X144093387Y-101389811D01*
X144115930Y-101278490D01*
X144115930Y-99279510D01*
X144071652Y-99044193D01*
X143932580Y-98828069D01*
X143720380Y-98683079D01*
X143468490Y-98632070D01*
X141469510Y-98632070D01*
X141234193Y-98676348D01*
X141018069Y-98815420D01*
X140873079Y-99027620D01*
X140822070Y-99279510D01*
X140822070Y-101278490D01*
X140866348Y-101513807D01*
X141005420Y-101729931D01*
X141217620Y-101874921D01*
X141469510Y-101925930D01*
X143468490Y-101925930D01*
X143577844Y-101905354D01*
X142372798Y-103110400D01*
X140215888Y-103110400D01*
X140299113Y-102692000D01*
X140189880Y-102142849D01*
X139878811Y-101677302D01*
X139496725Y-101422000D01*
X139878811Y-101166698D01*
X140189880Y-100701151D01*
X140299113Y-100152000D01*
X140189880Y-99602849D01*
X139878811Y-99137302D01*
X139496725Y-98882000D01*
X139878811Y-98626698D01*
X140189880Y-98161151D01*
X140299113Y-97612000D01*
X140189880Y-97062849D01*
X139878811Y-96597302D01*
X139413264Y-96286233D01*
X138864113Y-96177000D01*
X138807887Y-96177000D01*
X138258736Y-96286233D01*
X137793189Y-96597302D01*
X137482120Y-97062849D01*
X137372887Y-97612000D01*
X137482120Y-98161151D01*
X137793189Y-98626698D01*
X138175275Y-98882000D01*
X137793189Y-99137302D01*
X137482120Y-99602849D01*
X137372887Y-100152000D01*
X137482120Y-100701151D01*
X137793189Y-101166698D01*
X138175275Y-101422000D01*
X137897443Y-101607641D01*
X132257763Y-95967961D01*
X162235096Y-95967961D01*
X162357085Y-96190000D01*
X163500000Y-96190000D01*
X163500000Y-95046371D01*
X163754000Y-95046371D01*
X163754000Y-96190000D01*
X164896915Y-96190000D01*
X165018904Y-95967961D01*
X164858041Y-95579577D01*
X164482134Y-95164611D01*
X163976041Y-94925086D01*
X163754000Y-95046371D01*
X163500000Y-95046371D01*
X163277959Y-94925086D01*
X162771866Y-95164611D01*
X162395959Y-95579577D01*
X162235096Y-95967961D01*
X132257763Y-95967961D01*
X129369359Y-93079557D01*
X129415440Y-92852000D01*
X129415440Y-91552000D01*
X129371162Y-91316683D01*
X129232090Y-91100559D01*
X129019890Y-90955569D01*
X128768000Y-90904560D01*
X128572540Y-90904560D01*
X128844943Y-90792005D01*
X129206735Y-90430845D01*
X129374011Y-90028000D01*
X168196560Y-90028000D01*
X168196560Y-91328000D01*
X168240838Y-91563317D01*
X168379910Y-91779441D01*
X168592110Y-91924431D01*
X168844000Y-91975440D01*
X170144000Y-91975440D01*
X170379317Y-91931162D01*
X170542594Y-91826096D01*
X175570899Y-96854401D01*
X175817460Y-97019148D01*
X176108300Y-97077000D01*
X176979700Y-97077000D01*
X176979700Y-104505700D01*
X177037552Y-104796539D01*
X177202299Y-105043101D01*
X177743003Y-105583805D01*
X177513120Y-105927849D01*
X177403887Y-106477000D01*
X177513120Y-107026151D01*
X177824189Y-107491698D01*
X178206275Y-107747000D01*
X177824189Y-108002302D01*
X177513120Y-108467849D01*
X177403887Y-109017000D01*
X177513120Y-109566151D01*
X177824189Y-110031698D01*
X178206275Y-110287000D01*
X177824189Y-110542302D01*
X177513120Y-111007849D01*
X177403887Y-111557000D01*
X177513120Y-112106151D01*
X177824189Y-112571698D01*
X178206275Y-112827000D01*
X177824189Y-113082302D01*
X177513120Y-113547849D01*
X177403887Y-114097000D01*
X177513120Y-114646151D01*
X177824189Y-115111698D01*
X178206275Y-115367000D01*
X177824189Y-115622302D01*
X177513120Y-116087849D01*
X177403887Y-116637000D01*
X177513120Y-117186151D01*
X177824189Y-117651698D01*
X178206275Y-117907000D01*
X177824189Y-118162302D01*
X177513120Y-118627849D01*
X177403887Y-119177000D01*
X177513120Y-119726151D01*
X177824189Y-120191698D01*
X178228703Y-120461986D01*
X178011866Y-120564611D01*
X177635959Y-120979577D01*
X177475096Y-121367961D01*
X177597085Y-121590000D01*
X178740000Y-121590000D01*
X178740000Y-121570000D01*
X178994000Y-121570000D01*
X178994000Y-121590000D01*
X180136915Y-121590000D01*
X180258904Y-121367961D01*
X180098041Y-120979577D01*
X179722134Y-120564611D01*
X179505297Y-120461986D01*
X179909811Y-120191698D01*
X180220880Y-119726151D01*
X180261187Y-119523510D01*
X210189070Y-119523510D01*
X210189070Y-121522490D01*
X210233348Y-121757807D01*
X210372420Y-121973931D01*
X210584620Y-122118921D01*
X210836510Y-122169930D01*
X212835490Y-122169930D01*
X213070807Y-122125652D01*
X213286931Y-121986580D01*
X213431921Y-121774380D01*
X213470933Y-121581735D01*
X217560115Y-125670917D01*
X217491794Y-125835453D01*
X217491226Y-126485694D01*
X217739538Y-127086655D01*
X218198927Y-127546846D01*
X218799453Y-127796206D01*
X219449694Y-127796774D01*
X220050655Y-127548462D01*
X220510846Y-127089073D01*
X220760206Y-126488547D01*
X220760774Y-125838306D01*
X220512462Y-125237345D01*
X220053073Y-124777154D01*
X219452547Y-124527794D01*
X218802306Y-124527226D01*
X218635111Y-124596309D01*
X216130240Y-122091438D01*
X216570655Y-121909462D01*
X217030846Y-121450073D01*
X217205691Y-121029000D01*
X217902469Y-121029000D01*
X217914990Y-121059303D01*
X218307630Y-121452629D01*
X218820900Y-121665757D01*
X219376661Y-121666242D01*
X219890303Y-121454010D01*
X220283629Y-121061370D01*
X220496757Y-120548100D01*
X220497242Y-119992339D01*
X220285010Y-119478697D01*
X219892370Y-119085371D01*
X219379100Y-118872243D01*
X218823339Y-118871758D01*
X218309697Y-119083990D01*
X217916371Y-119476630D01*
X217902930Y-119509000D01*
X216943273Y-119509000D01*
X216573073Y-119138154D01*
X215972547Y-118888794D01*
X215322306Y-118888226D01*
X214721345Y-119136538D01*
X214261154Y-119595927D01*
X214077358Y-120038556D01*
X214024401Y-119985599D01*
X213777839Y-119820852D01*
X213487000Y-119763000D01*
X213482930Y-119763000D01*
X213482930Y-119523510D01*
X213438652Y-119288193D01*
X213299580Y-119072069D01*
X213087380Y-118927079D01*
X212835490Y-118876070D01*
X210836510Y-118876070D01*
X210601193Y-118920348D01*
X210385069Y-119059420D01*
X210240079Y-119271620D01*
X210189070Y-119523510D01*
X180261187Y-119523510D01*
X180330113Y-119177000D01*
X180220880Y-118627849D01*
X179909811Y-118162302D01*
X179527725Y-117907000D01*
X179909811Y-117651698D01*
X180220880Y-117186151D01*
X180330113Y-116637000D01*
X180220880Y-116087849D01*
X179909811Y-115622302D01*
X179527725Y-115367000D01*
X179909811Y-115111698D01*
X180079995Y-114857000D01*
X181992198Y-114857000D01*
X182332182Y-115196984D01*
X182331777Y-115661481D01*
X182526995Y-116133943D01*
X182888155Y-116495735D01*
X183162276Y-116609560D01*
X182967000Y-116609560D01*
X182731683Y-116653838D01*
X182515559Y-116792910D01*
X182370569Y-117005110D01*
X182319560Y-117257000D01*
X182319560Y-118557000D01*
X182363838Y-118792317D01*
X182502910Y-119008441D01*
X182715110Y-119153431D01*
X182967000Y-119204440D01*
X184267000Y-119204440D01*
X184502317Y-119160162D01*
X184718441Y-119021090D01*
X184863431Y-118808890D01*
X184907125Y-118593121D01*
X185129701Y-118444401D01*
X187045408Y-116528694D01*
X199279226Y-116528694D01*
X199527538Y-117129655D01*
X199986927Y-117589846D01*
X200587453Y-117839206D01*
X201237694Y-117839774D01*
X201838655Y-117591462D01*
X202298846Y-117132073D01*
X202496655Y-116655694D01*
X203038226Y-116655694D01*
X203286538Y-117256655D01*
X203745927Y-117716846D01*
X204346453Y-117966206D01*
X204996694Y-117966774D01*
X205597655Y-117718462D01*
X206057846Y-117259073D01*
X206127221Y-117092000D01*
X219649198Y-117092000D01*
X245817484Y-143260286D01*
X245745287Y-143434155D01*
X245744714Y-144090963D01*
X245995534Y-144697995D01*
X246459563Y-145162834D01*
X247066155Y-145414713D01*
X247722963Y-145415286D01*
X248329995Y-145164466D01*
X248794834Y-144700437D01*
X249046713Y-144093845D01*
X249047286Y-143437037D01*
X248796466Y-142830005D01*
X248332437Y-142365166D01*
X247725845Y-142113287D01*
X247069037Y-142112714D01*
X246892471Y-142185669D01*
X220501401Y-115794599D01*
X220254839Y-115629852D01*
X219964000Y-115572000D01*
X206127496Y-115572000D01*
X206059462Y-115407345D01*
X205600073Y-114947154D01*
X204999547Y-114697794D01*
X204349306Y-114697226D01*
X203748345Y-114945538D01*
X203288154Y-115404927D01*
X203038794Y-116005453D01*
X203038226Y-116655694D01*
X202496655Y-116655694D01*
X202548206Y-116531547D01*
X202548774Y-115881306D01*
X202479691Y-115714111D01*
X204911802Y-113282000D01*
X210051258Y-113282000D01*
X210074838Y-113407317D01*
X210213910Y-113623441D01*
X210426110Y-113768431D01*
X210678000Y-113819440D01*
X211978000Y-113819440D01*
X212213317Y-113775162D01*
X212429441Y-113636090D01*
X212574431Y-113423890D01*
X212625440Y-113172000D01*
X212625440Y-112976540D01*
X212737995Y-113248943D01*
X213099155Y-113610735D01*
X213571276Y-113806777D01*
X214082481Y-113807223D01*
X214554943Y-113612005D01*
X214916735Y-113250845D01*
X215112777Y-112778724D01*
X215113223Y-112267519D01*
X214918005Y-111795057D01*
X214556845Y-111433265D01*
X214084724Y-111237223D01*
X213573519Y-111236777D01*
X213101057Y-111431995D01*
X212739265Y-111793155D01*
X212625440Y-112067276D01*
X212625440Y-111872000D01*
X212581162Y-111636683D01*
X212442090Y-111420559D01*
X212229890Y-111275569D01*
X211978000Y-111224560D01*
X210678000Y-111224560D01*
X210442683Y-111268838D01*
X210226559Y-111407910D01*
X210081569Y-111620110D01*
X210052836Y-111762000D01*
X204597000Y-111762000D01*
X204306161Y-111819852D01*
X204059599Y-111984599D01*
X201405083Y-114639115D01*
X201240547Y-114570794D01*
X200590306Y-114570226D01*
X199989345Y-114818538D01*
X199529154Y-115277927D01*
X199279794Y-115878453D01*
X199279226Y-116528694D01*
X187045408Y-116528694D01*
X188435202Y-115138900D01*
X193302820Y-115138900D01*
X193312686Y-115162777D01*
X193702113Y-115552884D01*
X194211184Y-115764269D01*
X194762398Y-115764750D01*
X195271837Y-115554254D01*
X195661944Y-115164827D01*
X195873329Y-114655756D01*
X195873810Y-114104542D01*
X195663314Y-113595103D01*
X195273887Y-113204996D01*
X194764816Y-112993611D01*
X194213602Y-112993130D01*
X193704163Y-113203626D01*
X193314056Y-113593053D01*
X193303323Y-113618900D01*
X188120400Y-113618900D01*
X187829561Y-113676752D01*
X187582999Y-113841499D01*
X184664463Y-116760035D01*
X184518890Y-116660569D01*
X184267000Y-116609560D01*
X184071540Y-116609560D01*
X184343943Y-116497005D01*
X184705735Y-116135845D01*
X184901777Y-115663724D01*
X184902223Y-115152519D01*
X184707005Y-114680057D01*
X184345845Y-114318265D01*
X183873724Y-114122223D01*
X183406617Y-114121815D01*
X183405502Y-114120700D01*
X183937399Y-113588803D01*
X184059839Y-113564448D01*
X184306401Y-113399701D01*
X184454725Y-113177718D01*
X184654317Y-113140162D01*
X184870441Y-113001090D01*
X185015431Y-112788890D01*
X185066440Y-112537000D01*
X185066440Y-111237000D01*
X185022162Y-111001683D01*
X184883090Y-110785559D01*
X184670890Y-110640569D01*
X184419000Y-110589560D01*
X184223540Y-110589560D01*
X184495943Y-110477005D01*
X184716233Y-110257100D01*
X193302853Y-110257100D01*
X193312686Y-110280897D01*
X193702113Y-110671004D01*
X194211184Y-110882389D01*
X194762398Y-110882870D01*
X195271837Y-110672374D01*
X195661944Y-110282947D01*
X195873329Y-109773876D01*
X195873810Y-109222662D01*
X195663314Y-108713223D01*
X195273887Y-108323116D01*
X194764816Y-108111731D01*
X194213602Y-108111250D01*
X193704163Y-108321746D01*
X193314056Y-108711173D01*
X193303290Y-108737100D01*
X184890839Y-108737100D01*
X184859005Y-108660057D01*
X184497845Y-108298265D01*
X184025724Y-108102223D01*
X183514519Y-108101777D01*
X183138852Y-108257000D01*
X180079995Y-108257000D01*
X179909811Y-108002302D01*
X179527725Y-107747000D01*
X179909811Y-107491698D01*
X180220880Y-107026151D01*
X180330113Y-106477000D01*
X180220880Y-105927849D01*
X179909811Y-105462302D01*
X179609022Y-105261321D01*
X179589947Y-105165424D01*
X179909811Y-104951698D01*
X180079995Y-104697000D01*
X200117700Y-104697000D01*
X200117700Y-107145503D01*
X199989345Y-107198538D01*
X199529154Y-107657927D01*
X199279794Y-108258453D01*
X199279226Y-108908694D01*
X199527538Y-109509655D01*
X199986927Y-109969846D01*
X200587453Y-110219206D01*
X201237694Y-110219774D01*
X201838655Y-109971462D01*
X202298846Y-109512073D01*
X202548206Y-108911547D01*
X202548774Y-108261306D01*
X202300462Y-107660345D01*
X201841073Y-107200154D01*
X201637700Y-107115706D01*
X201637700Y-104878440D01*
X202859000Y-104878440D01*
X203094317Y-104834162D01*
X203310441Y-104695090D01*
X203455431Y-104482890D01*
X203506440Y-104231000D01*
X203506440Y-104161642D01*
X203913000Y-104568202D01*
X203913000Y-107257504D01*
X203748345Y-107325538D01*
X203288154Y-107784927D01*
X203038794Y-108385453D01*
X203038226Y-109035694D01*
X203286538Y-109636655D01*
X203745927Y-110096846D01*
X204346453Y-110346206D01*
X204996694Y-110346774D01*
X205597655Y-110098462D01*
X206057846Y-109639073D01*
X206307206Y-109038547D01*
X206307774Y-108388306D01*
X206059462Y-107787345D01*
X205600073Y-107327154D01*
X205433000Y-107257779D01*
X205433000Y-104253400D01*
X205375148Y-103962561D01*
X205210401Y-103715999D01*
X202354001Y-100859599D01*
X202107439Y-100694852D01*
X201816600Y-100637000D01*
X191115518Y-100637000D01*
X191576655Y-100446462D01*
X192036846Y-99987073D01*
X192106221Y-99820000D01*
X202373198Y-99820000D01*
X205924182Y-103370984D01*
X205923777Y-103835481D01*
X206118995Y-104307943D01*
X206480155Y-104669735D01*
X206952276Y-104865777D01*
X207463481Y-104866223D01*
X207935943Y-104671005D01*
X208164347Y-104443000D01*
X209467504Y-104443000D01*
X209535538Y-104607655D01*
X209994927Y-105067846D01*
X210595453Y-105317206D01*
X211245694Y-105317774D01*
X211846655Y-105069462D01*
X212306846Y-104610073D01*
X212556206Y-104009547D01*
X212556774Y-103359306D01*
X212308462Y-102758345D01*
X212233758Y-102683510D01*
X213085070Y-102683510D01*
X213085070Y-104682490D01*
X213129348Y-104917807D01*
X213268420Y-105133931D01*
X213480620Y-105278921D01*
X213732510Y-105329930D01*
X215731490Y-105329930D01*
X215966807Y-105285652D01*
X216182931Y-105146580D01*
X216327921Y-104934380D01*
X216378930Y-104682490D01*
X216378930Y-102683510D01*
X216334652Y-102448193D01*
X216195580Y-102232069D01*
X215983380Y-102087079D01*
X215731490Y-102036070D01*
X213732510Y-102036070D01*
X213497193Y-102080348D01*
X213281069Y-102219420D01*
X213136079Y-102431620D01*
X213085070Y-102683510D01*
X212233758Y-102683510D01*
X211849073Y-102298154D01*
X211248547Y-102048794D01*
X210598306Y-102048226D01*
X209997345Y-102296538D01*
X209537154Y-102755927D01*
X209467779Y-102923000D01*
X208327492Y-102923000D01*
X208299005Y-102854057D01*
X207937845Y-102492265D01*
X207465724Y-102296223D01*
X206998617Y-102295815D01*
X203703112Y-99000310D01*
X209579070Y-99000310D01*
X209579070Y-100999290D01*
X209623348Y-101234607D01*
X209762420Y-101450731D01*
X209974620Y-101595721D01*
X210226510Y-101646730D01*
X212225490Y-101646730D01*
X212460807Y-101602452D01*
X212676931Y-101463380D01*
X212821921Y-101251180D01*
X212872930Y-100999290D01*
X212872930Y-100323494D01*
X213401226Y-100323494D01*
X213649538Y-100924455D01*
X214108927Y-101384646D01*
X214709453Y-101634006D01*
X215359694Y-101634574D01*
X215960655Y-101386262D01*
X215978286Y-101368661D01*
X217575758Y-101368661D01*
X217787990Y-101882303D01*
X218180630Y-102275629D01*
X218693900Y-102488757D01*
X219249661Y-102489242D01*
X219763303Y-102277010D01*
X220156629Y-101884370D01*
X220369757Y-101371100D01*
X220370242Y-100815339D01*
X220158010Y-100301697D01*
X219765370Y-99908371D01*
X219252100Y-99695243D01*
X218696339Y-99694758D01*
X218182697Y-99906990D01*
X217789371Y-100299630D01*
X217576243Y-100812900D01*
X217575758Y-101368661D01*
X215978286Y-101368661D01*
X216420846Y-100926873D01*
X216670206Y-100326347D01*
X216670774Y-99676106D01*
X216422462Y-99075145D01*
X215963073Y-98614954D01*
X215362547Y-98365594D01*
X214712306Y-98365026D01*
X214111345Y-98613338D01*
X213651154Y-99072727D01*
X213401794Y-99673253D01*
X213401226Y-100323494D01*
X212872930Y-100323494D01*
X212872930Y-99000310D01*
X212828652Y-98764993D01*
X212689580Y-98548869D01*
X212477380Y-98403879D01*
X212225490Y-98352870D01*
X210226510Y-98352870D01*
X209991193Y-98397148D01*
X209775069Y-98536220D01*
X209630079Y-98748420D01*
X209579070Y-99000310D01*
X203703112Y-99000310D01*
X203225401Y-98522599D01*
X202978839Y-98357852D01*
X202688000Y-98300000D01*
X192106496Y-98300000D01*
X192038462Y-98135345D01*
X191579073Y-97675154D01*
X190978547Y-97425794D01*
X190328306Y-97425226D01*
X190161111Y-97494309D01*
X189135300Y-96468498D01*
X189135300Y-95522894D01*
X189602226Y-95522894D01*
X189850538Y-96123855D01*
X190309927Y-96584046D01*
X190910453Y-96833406D01*
X191560694Y-96833974D01*
X192161655Y-96585662D01*
X192621846Y-96126273D01*
X192871206Y-95525747D01*
X192871774Y-94875506D01*
X192623462Y-94274545D01*
X192164073Y-93814354D01*
X191563547Y-93564994D01*
X190913306Y-93564426D01*
X190312345Y-93812738D01*
X189852154Y-94272127D01*
X189602794Y-94872653D01*
X189602226Y-95522894D01*
X189135300Y-95522894D01*
X189135300Y-91539302D01*
X189168984Y-91505618D01*
X189633481Y-91506023D01*
X190105943Y-91310805D01*
X190467735Y-90949645D01*
X190663777Y-90477524D01*
X190664223Y-89966319D01*
X190469005Y-89493857D01*
X190107845Y-89132065D01*
X189635724Y-88936023D01*
X189124519Y-88935577D01*
X188652057Y-89130795D01*
X188290265Y-89491955D01*
X188094223Y-89964076D01*
X188093815Y-90431183D01*
X187837899Y-90687099D01*
X187673152Y-90933661D01*
X187615300Y-91224500D01*
X187615300Y-95790100D01*
X185141437Y-95790100D01*
X185251206Y-95525747D01*
X185251774Y-94875506D01*
X185003462Y-94274545D01*
X184544073Y-93814354D01*
X183943547Y-93564994D01*
X183293306Y-93564426D01*
X182692345Y-93812738D01*
X182232154Y-94272127D01*
X181982794Y-94872653D01*
X181982226Y-95522894D01*
X182092633Y-95790100D01*
X180540202Y-95790100D01*
X180529701Y-95779599D01*
X180283139Y-95614852D01*
X180093437Y-95577118D01*
X179909811Y-95302302D01*
X179444264Y-94991233D01*
X178895113Y-94882000D01*
X178838887Y-94882000D01*
X178289736Y-94991233D01*
X177824189Y-95302302D01*
X177654005Y-95557000D01*
X176423102Y-95557000D01*
X171798583Y-90932481D01*
X173208777Y-90932481D01*
X173403995Y-91404943D01*
X173765155Y-91766735D01*
X174237276Y-91962777D01*
X174748481Y-91963223D01*
X175220943Y-91768005D01*
X175582735Y-91406845D01*
X175778777Y-90934724D01*
X175779223Y-90423519D01*
X175584005Y-89951057D01*
X175222845Y-89589265D01*
X175178377Y-89570800D01*
X183081560Y-89570800D01*
X183081560Y-90870800D01*
X183125838Y-91106117D01*
X183264910Y-91322241D01*
X183477110Y-91467231D01*
X183729000Y-91518240D01*
X185029000Y-91518240D01*
X185264317Y-91473962D01*
X185480441Y-91334890D01*
X185625431Y-91122690D01*
X185676440Y-90870800D01*
X185676440Y-89570800D01*
X185632162Y-89335483D01*
X185493090Y-89119359D01*
X185280890Y-88974369D01*
X185029000Y-88923360D01*
X183729000Y-88923360D01*
X183493683Y-88967638D01*
X183277559Y-89106710D01*
X183132569Y-89318910D01*
X183081560Y-89570800D01*
X175178377Y-89570800D01*
X174750724Y-89393223D01*
X174239519Y-89392777D01*
X173767057Y-89587995D01*
X173405265Y-89949155D01*
X173209223Y-90421276D01*
X173208777Y-90932481D01*
X171798583Y-90932481D01*
X171006701Y-90140599D01*
X170784718Y-89992275D01*
X170747162Y-89792683D01*
X170608090Y-89576559D01*
X170395890Y-89431569D01*
X170144000Y-89380560D01*
X168844000Y-89380560D01*
X168608683Y-89424838D01*
X168392559Y-89563910D01*
X168247569Y-89776110D01*
X168196560Y-90028000D01*
X129374011Y-90028000D01*
X129402777Y-89958724D01*
X129403223Y-89447519D01*
X129326246Y-89261221D01*
X129328100Y-89251900D01*
X129328100Y-86209700D01*
X144776100Y-86209700D01*
X145066939Y-86151848D01*
X145313501Y-85987101D01*
X145609917Y-85690685D01*
X145774453Y-85759006D01*
X146424694Y-85759574D01*
X147025655Y-85511262D01*
X147485846Y-85051873D01*
X147735206Y-84451347D01*
X147735774Y-83801106D01*
X147487462Y-83200145D01*
X147028073Y-82739954D01*
X146427547Y-82490594D01*
X145777306Y-82490026D01*
X145176345Y-82738338D01*
X144716154Y-83197727D01*
X144466794Y-83798253D01*
X144466226Y-84448494D01*
X144535309Y-84615689D01*
X144461298Y-84689700D01*
X143937930Y-84689700D01*
X143937930Y-83125310D01*
X143893652Y-82889993D01*
X143754580Y-82673869D01*
X143542380Y-82528879D01*
X143290490Y-82477870D01*
X141291510Y-82477870D01*
X141056193Y-82522148D01*
X140840069Y-82661220D01*
X140695079Y-82873420D01*
X140644070Y-83125310D01*
X140644070Y-84689700D01*
X129046961Y-84689700D01*
X129047223Y-84389119D01*
X128852005Y-83916657D01*
X128490845Y-83554865D01*
X128216724Y-83441040D01*
X128412000Y-83441040D01*
X128647317Y-83396762D01*
X128863441Y-83257690D01*
X129008431Y-83045490D01*
X129059440Y-82793600D01*
X129059440Y-81493600D01*
X129015162Y-81258283D01*
X128876090Y-81042159D01*
X128663890Y-80897169D01*
X128412000Y-80846160D01*
X127112000Y-80846160D01*
X126876683Y-80890438D01*
X126660559Y-81029510D01*
X126515569Y-81241710D01*
X126464560Y-81493600D01*
X126464560Y-82793600D01*
X126508838Y-83028917D01*
X126647910Y-83245041D01*
X126860110Y-83390031D01*
X127112000Y-83441040D01*
X127307460Y-83441040D01*
X127035057Y-83553595D01*
X126673265Y-83914755D01*
X126477223Y-84386876D01*
X126476777Y-84898081D01*
X126671995Y-85370543D01*
X127033155Y-85732335D01*
X127505276Y-85928377D01*
X127808100Y-85928641D01*
X127808100Y-88439676D01*
X127391057Y-88611995D01*
X127029265Y-88973155D01*
X126833223Y-89445276D01*
X126832777Y-89956481D01*
X127027995Y-90428943D01*
X127389155Y-90790735D01*
X127663276Y-90904560D01*
X127468000Y-90904560D01*
X127232683Y-90948838D01*
X127016559Y-91087910D01*
X126871569Y-91300110D01*
X126827875Y-91515878D01*
X126662318Y-91626500D01*
X119989794Y-91626500D01*
X119990223Y-91134719D01*
X119795005Y-90662257D01*
X119433845Y-90300465D01*
X118961724Y-90104423D01*
X118450519Y-90103977D01*
X117978057Y-90299195D01*
X117616265Y-90660355D01*
X117576067Y-90757162D01*
X117495718Y-90703475D01*
X117458162Y-90503883D01*
X117319090Y-90287759D01*
X117106890Y-90142769D01*
X116855000Y-90091760D01*
X115555000Y-90091760D01*
X115319683Y-90136038D01*
X115103559Y-90275110D01*
X114958569Y-90487310D01*
X114907560Y-90739200D01*
X114907560Y-92039200D01*
X114951838Y-92274517D01*
X115090910Y-92490641D01*
X115303110Y-92635631D01*
X115555000Y-92686640D01*
X116855000Y-92686640D01*
X117090317Y-92642362D01*
X117253594Y-92537296D01*
X117640199Y-92923901D01*
X117886760Y-93088648D01*
X118177600Y-93146500D01*
X126902921Y-93146500D01*
X127003910Y-93303441D01*
X127216110Y-93448431D01*
X127431879Y-93492125D01*
X127580599Y-93714701D01*
X127827161Y-93879448D01*
X128067441Y-93927243D01*
X130511469Y-96371271D01*
X130173189Y-96597302D01*
X129862120Y-97062849D01*
X129752887Y-97612000D01*
X129862120Y-98161151D01*
X130173189Y-98626698D01*
X130577703Y-98896986D01*
X130360866Y-98999611D01*
X129984959Y-99414577D01*
X129824096Y-99802961D01*
X129946085Y-100025000D01*
X131089000Y-100025000D01*
X131089000Y-100005000D01*
X131343000Y-100005000D01*
X131343000Y-100025000D01*
X132485915Y-100025000D01*
X132607904Y-99802961D01*
X132447041Y-99414577D01*
X132071134Y-98999611D01*
X131854297Y-98896986D01*
X132258811Y-98626698D01*
X132462321Y-98322123D01*
X136950700Y-102810502D01*
X136950700Y-105802800D01*
X137008552Y-106093639D01*
X137173299Y-106340201D01*
X137711963Y-106878865D01*
X137482120Y-107222849D01*
X137372887Y-107772000D01*
X137482120Y-108321151D01*
X137793189Y-108786698D01*
X138175275Y-109042000D01*
X137793189Y-109297302D01*
X137623005Y-109552000D01*
X133104500Y-109552000D01*
X133104500Y-104712800D01*
X133046648Y-104421961D01*
X132881901Y-104175399D01*
X132320651Y-103614149D01*
X132569880Y-103241151D01*
X132679113Y-102692000D01*
X132569880Y-102142849D01*
X132258811Y-101677302D01*
X131854297Y-101407014D01*
X132071134Y-101304389D01*
X132447041Y-100889423D01*
X132607904Y-100501039D01*
X132485915Y-100279000D01*
X131343000Y-100279000D01*
X131343000Y-100299000D01*
X131089000Y-100299000D01*
X131089000Y-100279000D01*
X129946085Y-100279000D01*
X129824096Y-100501039D01*
X129984959Y-100889423D01*
X130360866Y-101304389D01*
X130577703Y-101407014D01*
X130173189Y-101677302D01*
X129862120Y-102142849D01*
X129752887Y-102692000D01*
X129854332Y-103202000D01*
X124474964Y-103202000D01*
X124475223Y-102905519D01*
X124280005Y-102433057D01*
X123918845Y-102071265D01*
X123614765Y-101945000D01*
X123966310Y-101945000D01*
X124199699Y-101848327D01*
X124378327Y-101669698D01*
X124475000Y-101436309D01*
X124475000Y-100945750D01*
X124316250Y-100787000D01*
X123317000Y-100787000D01*
X123317000Y-100807000D01*
X123063000Y-100807000D01*
X123063000Y-100787000D01*
X122063750Y-100787000D01*
X121905000Y-100945750D01*
X121905000Y-101436309D01*
X122001673Y-101669698D01*
X122180301Y-101848327D01*
X122413690Y-101945000D01*
X122765567Y-101945000D01*
X122463057Y-102069995D01*
X122101265Y-102431155D01*
X121905223Y-102903276D01*
X121904777Y-103414481D01*
X122099995Y-103886943D01*
X122461155Y-104248735D01*
X122933276Y-104444777D01*
X123400383Y-104445185D01*
X123427198Y-104472000D01*
X117727802Y-104472000D01*
X117032818Y-103777016D01*
X117033223Y-103312519D01*
X116838005Y-102840057D01*
X116476845Y-102478265D01*
X116172765Y-102352000D01*
X116524310Y-102352000D01*
X116757699Y-102255327D01*
X116936327Y-102076698D01*
X117033000Y-101843309D01*
X117033000Y-101352750D01*
X116874250Y-101194000D01*
X115875000Y-101194000D01*
X115875000Y-101214000D01*
X115621000Y-101214000D01*
X115621000Y-101194000D01*
X114621750Y-101194000D01*
X114463000Y-101352750D01*
X114463000Y-101843309D01*
X114559673Y-102076698D01*
X114738301Y-102255327D01*
X114971690Y-102352000D01*
X115323567Y-102352000D01*
X115021057Y-102476995D01*
X114659265Y-102838155D01*
X114463223Y-103310276D01*
X114462777Y-103821481D01*
X114657995Y-104293943D01*
X115019155Y-104655735D01*
X115491276Y-104851777D01*
X115958383Y-104852185D01*
X116875599Y-105769401D01*
X117122161Y-105934148D01*
X117413000Y-105992000D01*
X117426000Y-105992000D01*
X117426000Y-108375258D01*
X117300683Y-108398838D01*
X117084559Y-108537910D01*
X116939569Y-108750110D01*
X116888560Y-109002000D01*
X116888560Y-110302000D01*
X116932838Y-110537317D01*
X117071910Y-110753441D01*
X117284110Y-110898431D01*
X117536000Y-110949440D01*
X118836000Y-110949440D01*
X119071317Y-110905162D01*
X119287441Y-110766090D01*
X119432431Y-110553890D01*
X119433012Y-110551016D01*
X122466590Y-110551016D01*
X122522271Y-110781611D01*
X123005078Y-110949622D01*
X123515428Y-110920083D01*
X123849729Y-110781611D01*
X123905410Y-110551016D01*
X123186000Y-109831605D01*
X122466590Y-110551016D01*
X119433012Y-110551016D01*
X119483440Y-110302000D01*
X119483440Y-109471078D01*
X121888378Y-109471078D01*
X121917917Y-109981428D01*
X122056389Y-110315729D01*
X122286984Y-110371410D01*
X123006395Y-109652000D01*
X123365605Y-109652000D01*
X124085016Y-110371410D01*
X124315611Y-110315729D01*
X124483622Y-109832922D01*
X124454083Y-109322572D01*
X124315611Y-108988271D01*
X124085016Y-108932590D01*
X123365605Y-109652000D01*
X123006395Y-109652000D01*
X122286984Y-108932590D01*
X122056389Y-108988271D01*
X121888378Y-109471078D01*
X119483440Y-109471078D01*
X119483440Y-109002000D01*
X119439162Y-108766683D01*
X119430347Y-108752984D01*
X122466590Y-108752984D01*
X123186000Y-109472395D01*
X123905410Y-108752984D01*
X123849729Y-108522389D01*
X123366922Y-108354378D01*
X122856572Y-108383917D01*
X122522271Y-108522389D01*
X122466590Y-108752984D01*
X119430347Y-108752984D01*
X119300090Y-108550559D01*
X119087890Y-108405569D01*
X118946000Y-108376836D01*
X118946000Y-105992000D01*
X130003005Y-105992000D01*
X130173189Y-106246698D01*
X130555275Y-106502000D01*
X130173189Y-106757302D01*
X129862120Y-107222849D01*
X129752887Y-107772000D01*
X129862120Y-108321151D01*
X130173189Y-108786698D01*
X130555275Y-109042000D01*
X130173189Y-109297302D01*
X129862120Y-109762849D01*
X129752887Y-110312000D01*
X129862120Y-110861151D01*
X130173189Y-111326698D01*
X130555275Y-111582000D01*
X130173189Y-111837302D01*
X129862120Y-112302849D01*
X129752887Y-112852000D01*
X129848297Y-113331656D01*
X129686299Y-113439899D01*
X109715931Y-133410267D01*
X109639526Y-133026152D01*
X109314670Y-132539971D01*
X108828489Y-132215115D01*
X108255000Y-132101041D01*
X107681511Y-132215115D01*
X107195330Y-132539971D01*
X106985000Y-132854752D01*
X106774670Y-132539971D01*
X106288489Y-132215115D01*
X105715000Y-132101041D01*
X105141511Y-132215115D01*
X104655330Y-132539971D01*
X104330474Y-133026152D01*
X104216400Y-133599641D01*
X96850200Y-133599641D01*
X96850200Y-115923623D01*
X101440071Y-115923623D01*
X101711343Y-116580151D01*
X102213207Y-117082892D01*
X102869260Y-117355309D01*
X103579623Y-117355929D01*
X104236151Y-117084657D01*
X104738892Y-116582793D01*
X105011309Y-115926740D01*
X105011929Y-115216377D01*
X104740657Y-114559849D01*
X104238793Y-114057108D01*
X103582740Y-113784691D01*
X102872377Y-113784071D01*
X102215849Y-114055343D01*
X101713108Y-114557207D01*
X101440691Y-115213260D01*
X101440071Y-115923623D01*
X96850200Y-115923623D01*
X96850200Y-100290691D01*
X114463000Y-100290691D01*
X114463000Y-100781250D01*
X114621750Y-100940000D01*
X115621000Y-100940000D01*
X115621000Y-99940750D01*
X115875000Y-99940750D01*
X115875000Y-100940000D01*
X116874250Y-100940000D01*
X117033000Y-100781250D01*
X117033000Y-100290691D01*
X116936327Y-100057302D01*
X116762717Y-99883691D01*
X121905000Y-99883691D01*
X121905000Y-100374250D01*
X122063750Y-100533000D01*
X123063000Y-100533000D01*
X123063000Y-99533750D01*
X123317000Y-99533750D01*
X123317000Y-100533000D01*
X124316250Y-100533000D01*
X124475000Y-100374250D01*
X124475000Y-99883691D01*
X124378327Y-99650302D01*
X124199699Y-99471673D01*
X123966310Y-99375000D01*
X123475750Y-99375000D01*
X123317000Y-99533750D01*
X123063000Y-99533750D01*
X122904250Y-99375000D01*
X122413690Y-99375000D01*
X122180301Y-99471673D01*
X122001673Y-99650302D01*
X121905000Y-99883691D01*
X116762717Y-99883691D01*
X116757699Y-99878673D01*
X116524310Y-99782000D01*
X116033750Y-99782000D01*
X115875000Y-99940750D01*
X115621000Y-99940750D01*
X115462250Y-99782000D01*
X114971690Y-99782000D01*
X114738301Y-99878673D01*
X114559673Y-100057302D01*
X114463000Y-100290691D01*
X96850200Y-100290691D01*
X96850200Y-85923623D01*
X101440071Y-85923623D01*
X101711343Y-86580151D01*
X102213207Y-87082892D01*
X102869260Y-87355309D01*
X103579623Y-87355929D01*
X104236151Y-87084657D01*
X104738892Y-86582793D01*
X105011309Y-85926740D01*
X105011929Y-85216377D01*
X104740657Y-84559849D01*
X104238793Y-84057108D01*
X103582740Y-83784691D01*
X102872377Y-83784071D01*
X102215849Y-84055343D01*
X101713108Y-84557207D01*
X101440691Y-85213260D01*
X101440071Y-85923623D01*
X96850200Y-85923623D01*
X96850200Y-75930111D01*
X98064320Y-75930111D01*
X98064320Y-78044689D01*
X98207783Y-78765925D01*
X98616330Y-79377359D01*
X99227764Y-79785906D01*
X99949000Y-79929369D01*
X100670236Y-79785906D01*
X101281670Y-79377359D01*
X101690217Y-78765925D01*
X101833680Y-78044689D01*
X101833680Y-75930111D01*
X103652320Y-75930111D01*
X103652320Y-78044689D01*
X103795783Y-78765925D01*
X104204330Y-79377359D01*
X104815764Y-79785906D01*
X105537000Y-79929369D01*
X106258236Y-79785906D01*
X106869670Y-79377359D01*
X107278217Y-78765925D01*
X107421680Y-78044689D01*
X107421680Y-75930111D01*
X109240320Y-75930111D01*
X109240320Y-78044689D01*
X109383783Y-78765925D01*
X109792330Y-79377359D01*
X110403764Y-79785906D01*
X111125000Y-79929369D01*
X111846236Y-79785906D01*
X112457670Y-79377359D01*
X112866217Y-78765925D01*
X112955395Y-78317597D01*
X112956000Y-78318202D01*
X112956000Y-81207870D01*
X112716510Y-81207870D01*
X112481193Y-81252148D01*
X112265069Y-81391220D01*
X112120079Y-81603420D01*
X112069070Y-81855310D01*
X112069070Y-83854290D01*
X112113348Y-84089607D01*
X112252420Y-84305731D01*
X112464620Y-84450721D01*
X112716510Y-84501730D01*
X114715490Y-84501730D01*
X114950807Y-84457452D01*
X115166931Y-84318380D01*
X115311921Y-84106180D01*
X115362930Y-83854290D01*
X115362930Y-83178494D01*
X115891226Y-83178494D01*
X116139538Y-83779455D01*
X116598927Y-84239646D01*
X117199453Y-84489006D01*
X117849694Y-84489574D01*
X118450655Y-84241262D01*
X118910846Y-83781873D01*
X119160206Y-83181347D01*
X119160774Y-82531106D01*
X118912462Y-81930145D01*
X118453073Y-81469954D01*
X117852547Y-81220594D01*
X117202306Y-81220026D01*
X116601345Y-81468338D01*
X116141154Y-81927727D01*
X115891794Y-82528253D01*
X115891226Y-83178494D01*
X115362930Y-83178494D01*
X115362930Y-81855310D01*
X115318652Y-81619993D01*
X115179580Y-81403869D01*
X114967380Y-81258879D01*
X114715490Y-81207870D01*
X114476000Y-81207870D01*
X114476000Y-79698694D01*
X140478226Y-79698694D01*
X140726538Y-80299655D01*
X141185927Y-80759846D01*
X141786453Y-81009206D01*
X142436694Y-81009774D01*
X143037655Y-80761462D01*
X143497846Y-80302073D01*
X143747206Y-79701547D01*
X143747208Y-79698694D01*
X148098226Y-79698694D01*
X148346538Y-80299655D01*
X148805927Y-80759846D01*
X149406453Y-81009206D01*
X150056694Y-81009774D01*
X150657655Y-80761462D01*
X151117846Y-80302073D01*
X151367206Y-79701547D01*
X151367774Y-79051306D01*
X151119462Y-78450345D01*
X150660073Y-77990154D01*
X150059547Y-77740794D01*
X149409306Y-77740226D01*
X148808345Y-77988538D01*
X148348154Y-78447927D01*
X148098794Y-79048453D01*
X148098226Y-79698694D01*
X143747208Y-79698694D01*
X143747774Y-79051306D01*
X143499462Y-78450345D01*
X143040073Y-77990154D01*
X142439547Y-77740794D01*
X141789306Y-77740226D01*
X141188345Y-77988538D01*
X140728154Y-78447927D01*
X140478794Y-79048453D01*
X140478226Y-79698694D01*
X114476000Y-79698694D01*
X114476000Y-78636400D01*
X118052504Y-78636400D01*
X118120538Y-78801055D01*
X118579927Y-79261246D01*
X119180453Y-79510606D01*
X119830694Y-79511174D01*
X120431655Y-79262862D01*
X120891846Y-78803473D01*
X121141206Y-78202947D01*
X121141208Y-78200094D01*
X125492226Y-78200094D01*
X125740538Y-78801055D01*
X126199927Y-79261246D01*
X126800453Y-79510606D01*
X127450694Y-79511174D01*
X128051655Y-79262862D01*
X128511846Y-78803473D01*
X128761206Y-78202947D01*
X128761774Y-77552706D01*
X128513462Y-76951745D01*
X128054073Y-76491554D01*
X127453547Y-76242194D01*
X126803306Y-76241626D01*
X126202345Y-76489938D01*
X125742154Y-76949327D01*
X125492794Y-77549853D01*
X125492226Y-78200094D01*
X121141208Y-78200094D01*
X121141774Y-77552706D01*
X120893462Y-76951745D01*
X120434073Y-76491554D01*
X119833547Y-76242194D01*
X119183306Y-76241626D01*
X118582345Y-76489938D01*
X118122154Y-76949327D01*
X118052779Y-77116400D01*
X113903802Y-77116400D01*
X113237401Y-76449999D01*
X113009680Y-76297841D01*
X113009680Y-75930111D01*
X112866217Y-75208875D01*
X112457670Y-74597441D01*
X111846236Y-74188894D01*
X111125000Y-74045431D01*
X110403764Y-74188894D01*
X109792330Y-74597441D01*
X109383783Y-75208875D01*
X109240320Y-75930111D01*
X107421680Y-75930111D01*
X107278217Y-75208875D01*
X106869670Y-74597441D01*
X106258236Y-74188894D01*
X105537000Y-74045431D01*
X104815764Y-74188894D01*
X104204330Y-74597441D01*
X103795783Y-75208875D01*
X103652320Y-75930111D01*
X101833680Y-75930111D01*
X101690217Y-75208875D01*
X101281670Y-74597441D01*
X100670236Y-74188894D01*
X99949000Y-74045431D01*
X99227764Y-74188894D01*
X98616330Y-74597441D01*
X98207783Y-75208875D01*
X98064320Y-75930111D01*
X96850200Y-75930111D01*
X96850200Y-72831311D01*
X138196320Y-72831311D01*
X138196320Y-74945889D01*
X138339783Y-75667125D01*
X138748330Y-76278559D01*
X139359764Y-76687106D01*
X140081000Y-76830569D01*
X140802236Y-76687106D01*
X141413670Y-76278559D01*
X141822217Y-75667125D01*
X141965680Y-74945889D01*
X141965680Y-74015600D01*
X143784320Y-74015600D01*
X143784320Y-75016360D01*
X143976384Y-75727929D01*
X144426133Y-76311833D01*
X145065097Y-76679178D01*
X145249405Y-76726738D01*
X145542000Y-76610611D01*
X145542000Y-74015600D01*
X145796000Y-74015600D01*
X145796000Y-76610611D01*
X146088595Y-76726738D01*
X146272903Y-76679178D01*
X146911867Y-76311833D01*
X147361616Y-75727929D01*
X147553680Y-75016360D01*
X147553680Y-74015600D01*
X145796000Y-74015600D01*
X145542000Y-74015600D01*
X143784320Y-74015600D01*
X141965680Y-74015600D01*
X141965680Y-72831311D01*
X141951663Y-72760840D01*
X143784320Y-72760840D01*
X143784320Y-73761600D01*
X145542000Y-73761600D01*
X145542000Y-71166589D01*
X145796000Y-71166589D01*
X145796000Y-73761600D01*
X147553680Y-73761600D01*
X147553680Y-72831311D01*
X149372320Y-72831311D01*
X149372320Y-74945889D01*
X149515783Y-75667125D01*
X149924330Y-76278559D01*
X150535764Y-76687106D01*
X151257000Y-76830569D01*
X151978236Y-76687106D01*
X152589670Y-76278559D01*
X152998217Y-75667125D01*
X153141680Y-74945889D01*
X153141680Y-72831311D01*
X152998217Y-72110075D01*
X152589670Y-71498641D01*
X151978236Y-71090094D01*
X151257000Y-70946631D01*
X150535764Y-71090094D01*
X149924330Y-71498641D01*
X149515783Y-72110075D01*
X149372320Y-72831311D01*
X147553680Y-72831311D01*
X147553680Y-72760840D01*
X147361616Y-72049271D01*
X146911867Y-71465367D01*
X146272903Y-71098022D01*
X146088595Y-71050462D01*
X145796000Y-71166589D01*
X145542000Y-71166589D01*
X145249405Y-71050462D01*
X145065097Y-71098022D01*
X144426133Y-71465367D01*
X143976384Y-72049271D01*
X143784320Y-72760840D01*
X141951663Y-72760840D01*
X141822217Y-72110075D01*
X141413670Y-71498641D01*
X140802236Y-71090094D01*
X140081000Y-70946631D01*
X139359764Y-71090094D01*
X138748330Y-71498641D01*
X138339783Y-72110075D01*
X138196320Y-72831311D01*
X96850200Y-72831311D01*
X96850200Y-68375600D01*
X263677400Y-68375600D01*
X263677400Y-88087200D01*
X263677400Y-88087200D01*
G37*
X263677400Y-88087200D02*
X234289600Y-88087200D01*
X234223592Y-88105701D01*
X234186580Y-88139931D01*
X234165802Y-88185862D01*
X234164530Y-88236259D01*
X234182966Y-88283180D01*
X234218205Y-88319232D01*
X234264693Y-88338734D01*
X234289600Y-88343715D01*
X234289600Y-124231400D01*
X234298285Y-124277559D01*
X234325565Y-124319953D01*
X234367190Y-124348394D01*
X234416600Y-124358400D01*
X244297200Y-124358400D01*
X244297200Y-138582400D01*
X244305885Y-138628559D01*
X244333165Y-138670953D01*
X244374790Y-138699394D01*
X244424200Y-138709400D01*
X263677400Y-138709400D01*
X263677400Y-152960000D01*
X96850200Y-152960000D01*
X96850200Y-147742510D01*
X147222070Y-147742510D01*
X147222070Y-149741490D01*
X147266348Y-149976807D01*
X147405420Y-150192931D01*
X147617620Y-150337921D01*
X147869510Y-150388930D01*
X149868490Y-150388930D01*
X150103807Y-150344652D01*
X150319931Y-150205580D01*
X150426544Y-150049546D01*
X151671999Y-151295001D01*
X151918561Y-151459748D01*
X152209400Y-151517600D01*
X221606400Y-151517600D01*
X221897239Y-151459748D01*
X222143801Y-151295001D01*
X222901917Y-150536885D01*
X223066453Y-150605206D01*
X223716694Y-150605774D01*
X224317655Y-150357462D01*
X224777846Y-149898073D01*
X225027206Y-149297547D01*
X225027208Y-149294694D01*
X229378226Y-149294694D01*
X229626538Y-149895655D01*
X230085927Y-150355846D01*
X230686453Y-150605206D01*
X231336694Y-150605774D01*
X231937655Y-150357462D01*
X232397846Y-149898073D01*
X232647206Y-149297547D01*
X232647774Y-148647306D01*
X232399462Y-148046345D01*
X231940073Y-147586154D01*
X231339547Y-147336794D01*
X230689306Y-147336226D01*
X230088345Y-147584538D01*
X229628154Y-148043927D01*
X229378794Y-148644453D01*
X229378226Y-149294694D01*
X225027208Y-149294694D01*
X225027774Y-148647306D01*
X224779462Y-148046345D01*
X224320073Y-147586154D01*
X223719547Y-147336794D01*
X223069306Y-147336226D01*
X222468345Y-147584538D01*
X222008154Y-148043927D01*
X221758794Y-148644453D01*
X221758226Y-149294694D01*
X221827309Y-149461889D01*
X221291598Y-149997600D01*
X202795871Y-149997600D01*
X202879724Y-149795659D01*
X202880275Y-149165107D01*
X202639481Y-148582343D01*
X202541971Y-148484663D01*
X202746441Y-148353090D01*
X202891431Y-148140890D01*
X202942440Y-147889000D01*
X202942440Y-146630963D01*
X235584714Y-146630963D01*
X235835534Y-147237995D01*
X236299563Y-147702834D01*
X236906155Y-147954713D01*
X237562963Y-147955286D01*
X238169995Y-147704466D01*
X238634834Y-147240437D01*
X238886713Y-146633845D01*
X238887286Y-145977037D01*
X238636466Y-145370005D01*
X238172437Y-144905166D01*
X237565845Y-144653287D01*
X236909037Y-144652714D01*
X236302005Y-144903534D01*
X235837166Y-145367563D01*
X235585287Y-145974155D01*
X235584714Y-146630963D01*
X202942440Y-146630963D01*
X202942440Y-145989000D01*
X202898162Y-145753683D01*
X202759090Y-145537559D01*
X202546890Y-145392569D01*
X202295000Y-145341560D01*
X202055000Y-145341560D01*
X202055000Y-141804963D01*
X202564714Y-141804963D01*
X202815534Y-142411995D01*
X203279563Y-142876834D01*
X203886155Y-143128713D01*
X204542963Y-143129286D01*
X205149995Y-142878466D01*
X205614834Y-142414437D01*
X205866713Y-141807845D01*
X205867286Y-141151037D01*
X205786286Y-140955000D01*
X225524560Y-140955000D01*
X225524560Y-142255000D01*
X225568838Y-142490317D01*
X225707910Y-142706441D01*
X225920110Y-142851431D01*
X226172000Y-142902440D01*
X227472000Y-142902440D01*
X227707317Y-142858162D01*
X227923441Y-142719090D01*
X228068431Y-142506890D01*
X228119440Y-142255000D01*
X228119440Y-142059540D01*
X228231995Y-142331943D01*
X228593155Y-142693735D01*
X229065276Y-142889777D01*
X229576481Y-142890223D01*
X230048943Y-142695005D01*
X230410735Y-142333845D01*
X230606777Y-141861724D01*
X230607048Y-141550963D01*
X235584714Y-141550963D01*
X235835534Y-142157995D01*
X236299563Y-142622834D01*
X236906155Y-142874713D01*
X237562963Y-142875286D01*
X238169995Y-142624466D01*
X238634834Y-142160437D01*
X238886713Y-141553845D01*
X238887286Y-140897037D01*
X238636466Y-140290005D01*
X238172437Y-139825166D01*
X237565845Y-139573287D01*
X236909037Y-139572714D01*
X236302005Y-139823534D01*
X235837166Y-140287563D01*
X235585287Y-140894155D01*
X235584714Y-141550963D01*
X230607048Y-141550963D01*
X230607223Y-141350519D01*
X230412005Y-140878057D01*
X230050845Y-140516265D01*
X229578724Y-140320223D01*
X229067519Y-140319777D01*
X228595057Y-140514995D01*
X228233265Y-140876155D01*
X228119440Y-141150276D01*
X228119440Y-140955000D01*
X228075162Y-140719683D01*
X227936090Y-140503559D01*
X227723890Y-140358569D01*
X227472000Y-140307560D01*
X226172000Y-140307560D01*
X225936683Y-140351838D01*
X225720559Y-140490910D01*
X225575569Y-140703110D01*
X225524560Y-140955000D01*
X205786286Y-140955000D01*
X205616466Y-140544005D01*
X205152437Y-140079166D01*
X204545845Y-139827287D01*
X203889037Y-139826714D01*
X203282005Y-140077534D01*
X202817166Y-140541563D01*
X202565287Y-141148155D01*
X202564714Y-141804963D01*
X202055000Y-141804963D01*
X202055000Y-139264963D01*
X212724714Y-139264963D01*
X212975534Y-139871995D01*
X213439563Y-140336834D01*
X214046155Y-140588713D01*
X214702963Y-140589286D01*
X215309995Y-140338466D01*
X215774834Y-139874437D01*
X216026713Y-139267845D01*
X216027286Y-138611037D01*
X215776466Y-138004005D01*
X215312437Y-137539166D01*
X214705845Y-137287287D01*
X214049037Y-137286714D01*
X213442005Y-137537534D01*
X212977166Y-138001563D01*
X212725287Y-138608155D01*
X212724714Y-139264963D01*
X202055000Y-139264963D01*
X202055000Y-136724963D01*
X202564714Y-136724963D01*
X202815534Y-137331995D01*
X203279563Y-137796834D01*
X203886155Y-138048713D01*
X204542963Y-138049286D01*
X205149995Y-137798466D01*
X205614834Y-137334437D01*
X205866713Y-136727845D01*
X205867286Y-136071037D01*
X205616466Y-135464005D01*
X205152437Y-134999166D01*
X204545845Y-134747287D01*
X203889037Y-134746714D01*
X203282005Y-134997534D01*
X202817166Y-135461563D01*
X202565287Y-136068155D01*
X202564714Y-136724963D01*
X202055000Y-136724963D01*
X202055000Y-136068000D01*
X201997148Y-135777161D01*
X201832401Y-135530599D01*
X196874312Y-130572510D01*
X218038070Y-130572510D01*
X218038070Y-132571490D01*
X218082348Y-132806807D01*
X218221420Y-133022931D01*
X218433620Y-133167921D01*
X218685510Y-133218930D01*
X220684490Y-133218930D01*
X220919807Y-133174652D01*
X221135931Y-133035580D01*
X221280921Y-132823380D01*
X221331930Y-132571490D01*
X221331930Y-131895694D01*
X221860226Y-131895694D01*
X222108538Y-132496655D01*
X222567927Y-132956846D01*
X223168453Y-133206206D01*
X223818694Y-133206774D01*
X224419655Y-132958462D01*
X224879846Y-132499073D01*
X225129206Y-131898547D01*
X225129774Y-131248306D01*
X224881462Y-130647345D01*
X224422073Y-130187154D01*
X223821547Y-129937794D01*
X223171306Y-129937226D01*
X222570345Y-130185538D01*
X222110154Y-130644927D01*
X221860794Y-131245453D01*
X221860226Y-131895694D01*
X221331930Y-131895694D01*
X221331930Y-130572510D01*
X221287652Y-130337193D01*
X221148580Y-130121069D01*
X220936380Y-129976079D01*
X220684490Y-129925070D01*
X218685510Y-129925070D01*
X218450193Y-129969348D01*
X218234069Y-130108420D01*
X218089079Y-130320620D01*
X218038070Y-130572510D01*
X196874312Y-130572510D01*
X194793496Y-128491694D01*
X195850226Y-128491694D01*
X196098538Y-129092655D01*
X196557927Y-129552846D01*
X197158453Y-129802206D01*
X197808694Y-129802774D01*
X198409655Y-129554462D01*
X198869846Y-129095073D01*
X199119206Y-128494547D01*
X199119774Y-127844306D01*
X198871462Y-127243345D01*
X198412073Y-126783154D01*
X197811547Y-126533794D01*
X197161306Y-126533226D01*
X196560345Y-126781538D01*
X196100154Y-127240927D01*
X195850794Y-127841453D01*
X195850226Y-128491694D01*
X194793496Y-128491694D01*
X192787496Y-126485694D01*
X209871226Y-126485694D01*
X210119538Y-127086655D01*
X210578927Y-127546846D01*
X211179453Y-127796206D01*
X211829694Y-127796774D01*
X212430655Y-127548462D01*
X212890846Y-127089073D01*
X213140206Y-126488547D01*
X213140774Y-125838306D01*
X212892462Y-125237345D01*
X212433073Y-124777154D01*
X211832547Y-124527794D01*
X211182306Y-124527226D01*
X210581345Y-124775538D01*
X210121154Y-125234927D01*
X209871794Y-125835453D01*
X209871226Y-126485694D01*
X192787496Y-126485694D01*
X191125885Y-124824083D01*
X191194206Y-124659547D01*
X191194208Y-124656694D01*
X195545226Y-124656694D01*
X195793538Y-125257655D01*
X196252927Y-125717846D01*
X196853453Y-125967206D01*
X197503694Y-125967774D01*
X198104655Y-125719462D01*
X198564846Y-125260073D01*
X198814206Y-124659547D01*
X198814774Y-124009306D01*
X198566462Y-123408345D01*
X198107073Y-122948154D01*
X197506547Y-122698794D01*
X196856306Y-122698226D01*
X196255345Y-122946538D01*
X195795154Y-123405927D01*
X195545794Y-124006453D01*
X195545226Y-124656694D01*
X191194208Y-124656694D01*
X191194774Y-124009306D01*
X190946462Y-123408345D01*
X190487073Y-122948154D01*
X189886547Y-122698794D01*
X189236306Y-122698226D01*
X188635345Y-122946538D01*
X188175154Y-123405927D01*
X187925794Y-124006453D01*
X187925226Y-124656694D01*
X188173538Y-125257655D01*
X188632927Y-125717846D01*
X189233453Y-125967206D01*
X189883694Y-125967774D01*
X190050889Y-125898691D01*
X200535000Y-136382802D01*
X200535000Y-145341560D01*
X200295000Y-145341560D01*
X200059683Y-145385838D01*
X199843559Y-145524910D01*
X199698569Y-145737110D01*
X199647560Y-145989000D01*
X199647560Y-147889000D01*
X199691838Y-148124317D01*
X199830910Y-148340441D01*
X200043110Y-148485431D01*
X200046192Y-148486055D01*
X199952086Y-148579997D01*
X199710276Y-149162341D01*
X199709725Y-149792893D01*
X199794308Y-149997600D01*
X194363386Y-149997600D01*
X194520019Y-149942208D01*
X194738188Y-149350602D01*
X194713352Y-148720539D01*
X194520019Y-148253792D01*
X194258352Y-148161256D01*
X194292483Y-148127125D01*
X194377317Y-148111162D01*
X194593441Y-147972090D01*
X194738431Y-147759890D01*
X194789440Y-147508000D01*
X194789440Y-145608000D01*
X194745162Y-145372683D01*
X194606090Y-145156559D01*
X194393890Y-145011569D01*
X194142000Y-144960560D01*
X193902000Y-144960560D01*
X193902000Y-143205000D01*
X193844148Y-142914161D01*
X193679401Y-142667599D01*
X192370885Y-141359083D01*
X192439206Y-141194547D01*
X192439774Y-140544306D01*
X192191462Y-139943345D01*
X191732073Y-139483154D01*
X191131547Y-139233794D01*
X190481306Y-139233226D01*
X189880345Y-139481538D01*
X189420154Y-139940927D01*
X189170794Y-140541453D01*
X189170226Y-141191694D01*
X189418538Y-141792655D01*
X189877927Y-142252846D01*
X190478453Y-142502206D01*
X191128694Y-142502774D01*
X191295889Y-142433691D01*
X192382000Y-143519802D01*
X192382000Y-144960560D01*
X192142000Y-144960560D01*
X191906683Y-145004838D01*
X191690559Y-145143910D01*
X191545569Y-145356110D01*
X191494560Y-145608000D01*
X191494560Y-147508000D01*
X191538838Y-147743317D01*
X191677910Y-147959441D01*
X191890110Y-148104431D01*
X191988810Y-148124418D01*
X192025648Y-148161256D01*
X191763981Y-148253792D01*
X191545812Y-148845398D01*
X191570648Y-149475461D01*
X191763981Y-149942208D01*
X191920614Y-149997600D01*
X180952826Y-149997600D01*
X180975355Y-149992144D01*
X181533317Y-149678922D01*
X181928942Y-149176020D01*
X182102000Y-148560000D01*
X182102000Y-148260000D01*
X180594000Y-148260000D01*
X180594000Y-148280000D01*
X180340000Y-148280000D01*
X180340000Y-148260000D01*
X180320000Y-148260000D01*
X180320000Y-148006000D01*
X180340000Y-148006000D01*
X180340000Y-146362223D01*
X180594000Y-146362223D01*
X180594000Y-148006000D01*
X182102000Y-148006000D01*
X182102000Y-147706000D01*
X181928942Y-147089980D01*
X181586751Y-146655000D01*
X183569560Y-146655000D01*
X183569560Y-149255000D01*
X183613838Y-149490317D01*
X183752910Y-149706441D01*
X183965110Y-149851431D01*
X184217000Y-149902440D01*
X186217000Y-149902440D01*
X186452317Y-149858162D01*
X186668441Y-149719090D01*
X186782349Y-149552380D01*
X187248645Y-149814144D01*
X187376566Y-149845124D01*
X187630000Y-149725777D01*
X187630000Y-148082000D01*
X187884000Y-148082000D01*
X187884000Y-149725777D01*
X188137434Y-149845124D01*
X188265355Y-149814144D01*
X188823317Y-149500922D01*
X189218942Y-148998020D01*
X189392000Y-148382000D01*
X189392000Y-148082000D01*
X187884000Y-148082000D01*
X187630000Y-148082000D01*
X187610000Y-148082000D01*
X187610000Y-147828000D01*
X187630000Y-147828000D01*
X187630000Y-146184223D01*
X187884000Y-146184223D01*
X187884000Y-147828000D01*
X189392000Y-147828000D01*
X189392000Y-147528000D01*
X189218942Y-146911980D01*
X188823317Y-146409078D01*
X188265355Y-146095856D01*
X188137434Y-146064876D01*
X187884000Y-146184223D01*
X187630000Y-146184223D01*
X187376566Y-146064876D01*
X187248645Y-146095856D01*
X186780789Y-146358495D01*
X186681090Y-146203559D01*
X186468890Y-146058569D01*
X186217000Y-146007560D01*
X184217000Y-146007560D01*
X183981683Y-146051838D01*
X183765559Y-146190910D01*
X183620569Y-146403110D01*
X183569560Y-146655000D01*
X181586751Y-146655000D01*
X181533317Y-146587078D01*
X180975355Y-146273856D01*
X180847434Y-146242876D01*
X180594000Y-146362223D01*
X180340000Y-146362223D01*
X180086566Y-146242876D01*
X179958645Y-146273856D01*
X179490789Y-146536495D01*
X179391090Y-146381559D01*
X179178890Y-146236569D01*
X178927000Y-146185560D01*
X176927000Y-146185560D01*
X176691683Y-146229838D01*
X176475559Y-146368910D01*
X176330569Y-146581110D01*
X176279560Y-146833000D01*
X176279560Y-149433000D01*
X176323838Y-149668317D01*
X176462910Y-149884441D01*
X176628524Y-149997600D01*
X173633019Y-149997600D01*
X174065317Y-149754922D01*
X174460942Y-149252020D01*
X174634000Y-148636000D01*
X174634000Y-148336000D01*
X173126000Y-148336000D01*
X173126000Y-148356000D01*
X172872000Y-148356000D01*
X172872000Y-148336000D01*
X172852000Y-148336000D01*
X172852000Y-148082000D01*
X172872000Y-148082000D01*
X172872000Y-146438223D01*
X173126000Y-146438223D01*
X173126000Y-148082000D01*
X174634000Y-148082000D01*
X174634000Y-147782000D01*
X174460942Y-147165980D01*
X174065317Y-146663078D01*
X173507355Y-146349856D01*
X173379434Y-146318876D01*
X173126000Y-146438223D01*
X172872000Y-146438223D01*
X172618566Y-146318876D01*
X172490645Y-146349856D01*
X172022789Y-146612495D01*
X171923090Y-146457559D01*
X171710890Y-146312569D01*
X171459000Y-146261560D01*
X169459000Y-146261560D01*
X169223683Y-146305838D01*
X169007559Y-146444910D01*
X168862569Y-146657110D01*
X168811560Y-146909000D01*
X168811560Y-149509000D01*
X168855838Y-149744317D01*
X168994910Y-149960441D01*
X169049294Y-149997600D01*
X165637262Y-149997600D01*
X166078120Y-149703029D01*
X166432543Y-149172596D01*
X166557000Y-148546909D01*
X166557000Y-147871091D01*
X166432543Y-147245404D01*
X166078120Y-146714971D01*
X165547687Y-146360548D01*
X164922000Y-146236091D01*
X164296313Y-146360548D01*
X163937808Y-146600093D01*
X163846090Y-146457559D01*
X163633890Y-146312569D01*
X163382000Y-146261560D01*
X161382000Y-146261560D01*
X161146683Y-146305838D01*
X160930559Y-146444910D01*
X160785569Y-146657110D01*
X160734560Y-146909000D01*
X160734560Y-149509000D01*
X160778838Y-149744317D01*
X160917910Y-149960441D01*
X160972294Y-149997600D01*
X157562717Y-149997600D01*
X158156687Y-149879452D01*
X158687120Y-149525029D01*
X159041543Y-148994596D01*
X159166000Y-148368909D01*
X159166000Y-147693091D01*
X159041543Y-147067404D01*
X158687120Y-146536971D01*
X158260396Y-146251844D01*
X158233148Y-146114861D01*
X158068401Y-145868299D01*
X156817300Y-144617198D01*
X156817300Y-142921930D01*
X158479490Y-142921930D01*
X158714807Y-142877652D01*
X158930931Y-142738580D01*
X159075921Y-142526380D01*
X159126930Y-142274490D01*
X159126930Y-141090694D01*
X183125226Y-141090694D01*
X183373538Y-141691655D01*
X183832927Y-142151846D01*
X184433453Y-142401206D01*
X185083694Y-142401774D01*
X185684655Y-142153462D01*
X186144846Y-141694073D01*
X186394206Y-141093547D01*
X186394774Y-140443306D01*
X186146462Y-139842345D01*
X185687073Y-139382154D01*
X185086547Y-139132794D01*
X184436306Y-139132226D01*
X183835345Y-139380538D01*
X183375154Y-139839927D01*
X183125794Y-140440453D01*
X183125226Y-141090694D01*
X159126930Y-141090694D01*
X159126930Y-140275510D01*
X159082652Y-140040193D01*
X158943580Y-139824069D01*
X158731380Y-139679079D01*
X158479490Y-139628070D01*
X156480510Y-139628070D01*
X156245193Y-139672348D01*
X156029069Y-139811420D01*
X155884079Y-140023620D01*
X155833070Y-140275510D01*
X155833070Y-140593760D01*
X155617799Y-140737598D01*
X155519899Y-140835499D01*
X155355152Y-141082061D01*
X155297300Y-141372900D01*
X155297300Y-144172000D01*
X150323496Y-144172000D01*
X150255462Y-144007345D01*
X149796073Y-143547154D01*
X149195547Y-143297794D01*
X148545306Y-143297226D01*
X147944345Y-143545538D01*
X147484154Y-144004927D01*
X147234794Y-144605453D01*
X147234226Y-145255694D01*
X147482538Y-145856655D01*
X147941927Y-146316846D01*
X148542453Y-146566206D01*
X149192694Y-146566774D01*
X149793655Y-146318462D01*
X150253846Y-145859073D01*
X150323221Y-145692000D01*
X155742498Y-145692000D01*
X156170384Y-146119886D01*
X155991000Y-146083560D01*
X153991000Y-146083560D01*
X153755683Y-146127838D01*
X153539559Y-146266910D01*
X153394569Y-146479110D01*
X153343560Y-146731000D01*
X153343560Y-149331000D01*
X153387838Y-149566317D01*
X153526910Y-149782441D01*
X153739110Y-149927431D01*
X153991000Y-149978440D01*
X155991000Y-149978440D01*
X156226317Y-149934162D01*
X156442441Y-149795090D01*
X156547951Y-149640671D01*
X156905313Y-149879452D01*
X157499283Y-149997600D01*
X152524202Y-149997600D01*
X150731201Y-148204599D01*
X150515930Y-148060760D01*
X150515930Y-147742510D01*
X150471652Y-147507193D01*
X150332580Y-147291069D01*
X150120380Y-147146079D01*
X149868490Y-147095070D01*
X147869510Y-147095070D01*
X147634193Y-147139348D01*
X147418069Y-147278420D01*
X147273079Y-147490620D01*
X147222070Y-147742510D01*
X96850200Y-147742510D01*
X96850200Y-133599641D01*
X104216400Y-133599641D01*
X104216400Y-133658359D01*
X104330474Y-134231848D01*
X104655330Y-134718029D01*
X104926172Y-134899000D01*
X104655330Y-135079971D01*
X104330474Y-135566152D01*
X104216400Y-136139641D01*
X104216400Y-136198359D01*
X104330474Y-136771848D01*
X104655330Y-137258029D01*
X104926172Y-137439000D01*
X104655330Y-137619971D01*
X104330474Y-138106152D01*
X104216400Y-138679641D01*
X104216400Y-138738359D01*
X104330474Y-139311848D01*
X104655330Y-139798029D01*
X104926172Y-139979000D01*
X104655330Y-140159971D01*
X104330474Y-140646152D01*
X104216400Y-141219641D01*
X104216400Y-141278359D01*
X104330474Y-141851848D01*
X104655330Y-142338029D01*
X104926172Y-142519000D01*
X104655330Y-142699971D01*
X104330474Y-143186152D01*
X104216400Y-143759641D01*
X104216400Y-143818359D01*
X104330474Y-144391848D01*
X104655330Y-144878029D01*
X105141511Y-145202885D01*
X105715000Y-145316959D01*
X106288489Y-145202885D01*
X106774670Y-144878029D01*
X106783805Y-144864358D01*
X106788238Y-144887917D01*
X106927310Y-145104041D01*
X107139510Y-145249031D01*
X107391400Y-145300040D01*
X109118600Y-145300040D01*
X109353917Y-145255762D01*
X109570041Y-145116690D01*
X109715031Y-144904490D01*
X109766040Y-144652600D01*
X109766040Y-142925400D01*
X109721762Y-142690083D01*
X109582690Y-142473959D01*
X109370490Y-142328969D01*
X109326655Y-142320092D01*
X109534520Y-142009000D01*
X131945700Y-142009000D01*
X132236539Y-141951148D01*
X132483101Y-141786401D01*
X133993992Y-140275510D01*
X147121070Y-140275510D01*
X147121070Y-142274490D01*
X147165348Y-142509807D01*
X147304420Y-142725931D01*
X147516620Y-142870921D01*
X147768510Y-142921930D01*
X149767490Y-142921930D01*
X150002807Y-142877652D01*
X150218931Y-142738580D01*
X150363921Y-142526380D01*
X150414930Y-142274490D01*
X150414930Y-140275510D01*
X150394354Y-140166156D01*
X151503562Y-141275364D01*
X151541052Y-141463839D01*
X151705799Y-141710401D01*
X151921070Y-141854240D01*
X151921070Y-142172490D01*
X151965348Y-142407807D01*
X152104420Y-142623931D01*
X152316620Y-142768921D01*
X152568510Y-142819930D01*
X154567490Y-142819930D01*
X154802807Y-142775652D01*
X155018931Y-142636580D01*
X155163921Y-142424380D01*
X155214930Y-142172490D01*
X155214930Y-140173510D01*
X155170652Y-139938193D01*
X155031580Y-139722069D01*
X154819380Y-139577079D01*
X154567490Y-139526070D01*
X152568510Y-139526070D01*
X152333193Y-139570348D01*
X152117069Y-139709420D01*
X152104954Y-139727152D01*
X150333885Y-137956083D01*
X150402206Y-137791547D01*
X150402774Y-137141306D01*
X150154462Y-136540345D01*
X149695073Y-136080154D01*
X149094547Y-135830794D01*
X148444306Y-135830226D01*
X147843345Y-136078538D01*
X147383154Y-136537927D01*
X147133794Y-137138453D01*
X147133226Y-137788694D01*
X147381538Y-138389655D01*
X147840927Y-138849846D01*
X148441453Y-139099206D01*
X149091694Y-139099774D01*
X149258889Y-139030691D01*
X149878811Y-139650613D01*
X149767490Y-139628070D01*
X147768510Y-139628070D01*
X147533193Y-139672348D01*
X147317069Y-139811420D01*
X147172079Y-140023620D01*
X147121070Y-140275510D01*
X133993992Y-140275510D01*
X136489223Y-137780279D01*
X136498189Y-137793698D01*
X136963736Y-138104767D01*
X137512887Y-138214000D01*
X137569113Y-138214000D01*
X138118264Y-138104767D01*
X138583811Y-137793698D01*
X138894880Y-137328151D01*
X139004113Y-136779000D01*
X138894880Y-136229849D01*
X138583811Y-135764302D01*
X138201725Y-135509000D01*
X138583811Y-135253698D01*
X138635511Y-135176324D01*
X138895300Y-135228000D01*
X139744258Y-135228000D01*
X139767838Y-135353317D01*
X139906910Y-135569441D01*
X140119110Y-135714431D01*
X140371000Y-135765440D01*
X141671000Y-135765440D01*
X141906317Y-135721162D01*
X142122441Y-135582090D01*
X142267431Y-135369890D01*
X142318440Y-135118000D01*
X142318440Y-133818000D01*
X142274162Y-133582683D01*
X142135090Y-133366559D01*
X141922890Y-133221569D01*
X141671000Y-133170560D01*
X140692542Y-133170560D01*
X140953702Y-132909400D01*
X148301498Y-132909400D01*
X147502898Y-133708000D01*
X147078006Y-133708000D01*
X146749845Y-133379265D01*
X146277724Y-133183223D01*
X145766519Y-133182777D01*
X145294057Y-133377995D01*
X144932265Y-133739155D01*
X144736223Y-134211276D01*
X144735777Y-134722481D01*
X144930995Y-135194943D01*
X145292155Y-135556735D01*
X145764276Y-135752777D01*
X146275481Y-135753223D01*
X146747943Y-135558005D01*
X147078525Y-135228000D01*
X147817700Y-135228000D01*
X148108539Y-135170148D01*
X148355101Y-135005401D01*
X149015537Y-134344965D01*
X149161110Y-134444431D01*
X149413000Y-134495440D01*
X150713000Y-134495440D01*
X150948317Y-134451162D01*
X151111594Y-134346096D01*
X152713181Y-135947683D01*
X152643345Y-135976538D01*
X152183154Y-136435927D01*
X151933794Y-137036453D01*
X151933226Y-137686694D01*
X152181538Y-138287655D01*
X152640927Y-138747846D01*
X153241453Y-138997206D01*
X153891694Y-138997774D01*
X154492655Y-138749462D01*
X154952846Y-138290073D01*
X154979867Y-138225000D01*
X156025504Y-138225000D01*
X156093538Y-138389655D01*
X156552927Y-138849846D01*
X157153453Y-139099206D01*
X157803694Y-139099774D01*
X158404655Y-138851462D01*
X158864846Y-138392073D01*
X159114206Y-137791547D01*
X159114774Y-137141306D01*
X158972964Y-136798100D01*
X165659998Y-136798100D01*
X168007299Y-139145401D01*
X168229282Y-139293726D01*
X168266838Y-139493317D01*
X168405910Y-139709441D01*
X168618110Y-139854431D01*
X168870000Y-139905440D01*
X170170000Y-139905440D01*
X170405317Y-139861162D01*
X170621441Y-139722090D01*
X170766431Y-139509890D01*
X170817440Y-139258000D01*
X170817440Y-138862481D01*
X173234777Y-138862481D01*
X173429995Y-139334943D01*
X173791155Y-139696735D01*
X174263276Y-139892777D01*
X174774481Y-139893223D01*
X175246943Y-139698005D01*
X175608735Y-139336845D01*
X175804777Y-138864724D01*
X175805223Y-138353519D01*
X175610005Y-137881057D01*
X175248845Y-137519265D01*
X174776724Y-137323223D01*
X174265519Y-137322777D01*
X173793057Y-137517995D01*
X173431265Y-137879155D01*
X173235223Y-138351276D01*
X173234777Y-138862481D01*
X170817440Y-138862481D01*
X170817440Y-137958000D01*
X170773162Y-137722683D01*
X170634090Y-137506559D01*
X170421890Y-137361569D01*
X170170000Y-137310560D01*
X168870000Y-137310560D01*
X168634683Y-137354838D01*
X168471406Y-137459904D01*
X166512201Y-135500699D01*
X166265639Y-135335952D01*
X165974800Y-135278100D01*
X164772442Y-135278100D01*
X164980880Y-134966151D01*
X165090113Y-134417000D01*
X164980880Y-133867849D01*
X164669811Y-133402302D01*
X164287725Y-133147000D01*
X164669811Y-132891698D01*
X164980880Y-132426151D01*
X165090113Y-131877000D01*
X164980880Y-131327849D01*
X164669811Y-130862302D01*
X164287725Y-130607000D01*
X164669811Y-130351698D01*
X164980880Y-129886151D01*
X165090113Y-129337000D01*
X164980880Y-128787849D01*
X164669811Y-128322302D01*
X164287725Y-128067000D01*
X164669811Y-127811698D01*
X164980880Y-127346151D01*
X165090113Y-126797000D01*
X164980880Y-126247849D01*
X164669811Y-125782302D01*
X164287725Y-125527000D01*
X164669811Y-125271698D01*
X164980880Y-124806151D01*
X165090113Y-124257000D01*
X177403887Y-124257000D01*
X177513120Y-124806151D01*
X177824189Y-125271698D01*
X178206275Y-125527000D01*
X177824189Y-125782302D01*
X177513120Y-126247849D01*
X177403887Y-126797000D01*
X177513120Y-127346151D01*
X177824189Y-127811698D01*
X178206275Y-128067000D01*
X177824189Y-128322302D01*
X177513120Y-128787849D01*
X177403887Y-129337000D01*
X177513120Y-129886151D01*
X177824189Y-130351698D01*
X178206275Y-130607000D01*
X177824189Y-130862302D01*
X177513120Y-131327849D01*
X177403887Y-131877000D01*
X177513120Y-132426151D01*
X177824189Y-132891698D01*
X178206275Y-133147000D01*
X177824189Y-133402302D01*
X177513120Y-133867849D01*
X177403887Y-134417000D01*
X177513120Y-134966151D01*
X177824189Y-135431698D01*
X178289736Y-135742767D01*
X178838887Y-135852000D01*
X178895113Y-135852000D01*
X179444264Y-135742767D01*
X179909811Y-135431698D01*
X180220880Y-134966151D01*
X180330113Y-134417000D01*
X180220880Y-133867849D01*
X179955510Y-133470694D01*
X183125226Y-133470694D01*
X183373538Y-134071655D01*
X183832927Y-134531846D01*
X184433453Y-134781206D01*
X185083694Y-134781774D01*
X185684655Y-134533462D01*
X186144846Y-134074073D01*
X186214221Y-133907000D01*
X189308772Y-133907000D01*
X189418538Y-134172655D01*
X189877927Y-134632846D01*
X190478453Y-134882206D01*
X191128694Y-134882774D01*
X191729655Y-134634462D01*
X192189846Y-134175073D01*
X192439206Y-133574547D01*
X192439774Y-132924306D01*
X192191462Y-132323345D01*
X191732073Y-131863154D01*
X191131547Y-131613794D01*
X190481306Y-131613226D01*
X189880345Y-131861538D01*
X189420154Y-132320927D01*
X189392718Y-132387000D01*
X186214496Y-132387000D01*
X186146462Y-132222345D01*
X185687073Y-131762154D01*
X185086547Y-131512794D01*
X184436306Y-131512226D01*
X183835345Y-131760538D01*
X183375154Y-132219927D01*
X183125794Y-132820453D01*
X183125226Y-133470694D01*
X179955510Y-133470694D01*
X179909811Y-133402302D01*
X179527725Y-133147000D01*
X179909811Y-132891698D01*
X180220880Y-132426151D01*
X180330113Y-131877000D01*
X180220880Y-131327849D01*
X179909811Y-130862302D01*
X179527725Y-130607000D01*
X179909811Y-130351698D01*
X180220880Y-129886151D01*
X180330113Y-129337000D01*
X180326764Y-129320163D01*
X188892443Y-129320163D01*
X188991042Y-129586965D01*
X189600582Y-129813401D01*
X190250377Y-129789341D01*
X190738958Y-129586965D01*
X190837557Y-129320163D01*
X189865000Y-128347605D01*
X188892443Y-129320163D01*
X180326764Y-129320163D01*
X180220880Y-128787849D01*
X179909811Y-128322302D01*
X179527725Y-128067000D01*
X179772297Y-127903582D01*
X188219599Y-127903582D01*
X188243659Y-128553377D01*
X188446035Y-129041958D01*
X188712837Y-129140557D01*
X189685395Y-128168000D01*
X190044605Y-128168000D01*
X191017163Y-129140557D01*
X191283965Y-129041958D01*
X191510401Y-128432418D01*
X191486341Y-127782623D01*
X191283965Y-127294042D01*
X191017163Y-127195443D01*
X190044605Y-128168000D01*
X189685395Y-128168000D01*
X188712837Y-127195443D01*
X188446035Y-127294042D01*
X188219599Y-127903582D01*
X179772297Y-127903582D01*
X179909811Y-127811698D01*
X180220880Y-127346151D01*
X180286583Y-127015837D01*
X188892443Y-127015837D01*
X189865000Y-127988395D01*
X190837557Y-127015837D01*
X190738958Y-126749035D01*
X190129418Y-126522599D01*
X189479623Y-126546659D01*
X188991042Y-126749035D01*
X188892443Y-127015837D01*
X180286583Y-127015837D01*
X180330113Y-126797000D01*
X180220880Y-126247849D01*
X179909811Y-125782302D01*
X179527725Y-125527000D01*
X179909811Y-125271698D01*
X180220880Y-124806151D01*
X180330113Y-124257000D01*
X180220880Y-123707849D01*
X179909811Y-123242302D01*
X179505297Y-122972014D01*
X179722134Y-122869389D01*
X180098041Y-122454423D01*
X180258904Y-122066039D01*
X180136915Y-121844000D01*
X178994000Y-121844000D01*
X178994000Y-121864000D01*
X178740000Y-121864000D01*
X178740000Y-121844000D01*
X177597085Y-121844000D01*
X177475096Y-122066039D01*
X177635959Y-122454423D01*
X178011866Y-122869389D01*
X178228703Y-122972014D01*
X177824189Y-123242302D01*
X177513120Y-123707849D01*
X177403887Y-124257000D01*
X165090113Y-124257000D01*
X164980880Y-123707849D01*
X164669811Y-123242302D01*
X164287725Y-122987000D01*
X164669811Y-122731698D01*
X164980880Y-122266151D01*
X165090113Y-121717000D01*
X164980880Y-121167849D01*
X164669811Y-120702302D01*
X164265297Y-120432014D01*
X164482134Y-120329389D01*
X164858041Y-119914423D01*
X165018904Y-119526039D01*
X164896915Y-119304000D01*
X163754000Y-119304000D01*
X163754000Y-119324000D01*
X163500000Y-119324000D01*
X163500000Y-119304000D01*
X162357085Y-119304000D01*
X162235096Y-119526039D01*
X162395959Y-119914423D01*
X162771866Y-120329389D01*
X162988703Y-120432014D01*
X162584189Y-120702302D01*
X162273120Y-121167849D01*
X162163887Y-121717000D01*
X162273120Y-122266151D01*
X162584189Y-122731698D01*
X162966275Y-122987000D01*
X162584189Y-123242302D01*
X162273120Y-123707849D01*
X162163887Y-124257000D01*
X162273120Y-124806151D01*
X162584189Y-125271698D01*
X162966275Y-125527000D01*
X162584189Y-125782302D01*
X162400563Y-126057118D01*
X162210861Y-126094852D01*
X161964299Y-126259599D01*
X160519398Y-127704500D01*
X160077001Y-127704500D01*
X160181206Y-127453547D01*
X160181774Y-126803306D01*
X159933462Y-126202345D01*
X159474073Y-125742154D01*
X158873547Y-125492794D01*
X158223306Y-125492226D01*
X157622345Y-125740538D01*
X157162154Y-126199927D01*
X156912794Y-126800453D01*
X156912226Y-127450694D01*
X157017096Y-127704500D01*
X144531920Y-127704500D01*
X144623735Y-127612845D01*
X144819777Y-127140724D01*
X144820223Y-126629519D01*
X144625005Y-126157057D01*
X144263845Y-125795265D01*
X143989724Y-125681440D01*
X144185000Y-125681440D01*
X144420317Y-125637162D01*
X144636441Y-125498090D01*
X144781431Y-125285890D01*
X144832440Y-125034000D01*
X144832440Y-123734000D01*
X144788162Y-123498683D01*
X144649090Y-123282559D01*
X144436890Y-123137569D01*
X144185000Y-123086560D01*
X142885000Y-123086560D01*
X142649683Y-123130838D01*
X142433559Y-123269910D01*
X142382630Y-123344447D01*
X142254700Y-123319000D01*
X138753995Y-123319000D01*
X138583811Y-123064302D01*
X138201725Y-122809000D01*
X138583811Y-122553698D01*
X138894880Y-122088151D01*
X139004113Y-121539000D01*
X138894880Y-120989849D01*
X138673923Y-120659163D01*
X157574443Y-120659163D01*
X157673042Y-120925965D01*
X158282582Y-121152401D01*
X158932377Y-121128341D01*
X159420958Y-120925965D01*
X159519557Y-120659163D01*
X158547000Y-119686605D01*
X157574443Y-120659163D01*
X138673923Y-120659163D01*
X138583811Y-120524302D01*
X138118264Y-120213233D01*
X137569113Y-120104000D01*
X137512887Y-120104000D01*
X136963736Y-120213233D01*
X136498189Y-120524302D01*
X136314563Y-120799118D01*
X136124861Y-120836852D01*
X135878299Y-121001599D01*
X132290898Y-124589000D01*
X131246236Y-124589000D01*
X131312904Y-124428039D01*
X131190915Y-124206000D01*
X130048000Y-124206000D01*
X130048000Y-124226000D01*
X129794000Y-124226000D01*
X129794000Y-124206000D01*
X128651085Y-124206000D01*
X128529096Y-124428039D01*
X128610975Y-124625725D01*
X128504761Y-124646852D01*
X128258199Y-124811599D01*
X125261904Y-127807894D01*
X125262223Y-127442519D01*
X125067005Y-126970057D01*
X124705845Y-126608265D01*
X124401765Y-126482000D01*
X124753310Y-126482000D01*
X124986699Y-126385327D01*
X125165327Y-126206698D01*
X125262000Y-125973309D01*
X125262000Y-125482750D01*
X125103250Y-125324000D01*
X124104000Y-125324000D01*
X124104000Y-125344000D01*
X123850000Y-125344000D01*
X123850000Y-125324000D01*
X122850750Y-125324000D01*
X122692000Y-125482750D01*
X122692000Y-125973309D01*
X122788673Y-126206698D01*
X122967301Y-126385327D01*
X123200690Y-126482000D01*
X123552567Y-126482000D01*
X123250057Y-126606995D01*
X122888265Y-126968155D01*
X122692223Y-127440276D01*
X122691777Y-127951481D01*
X122886995Y-128423943D01*
X123248155Y-128785735D01*
X123431821Y-128862000D01*
X116413802Y-128862000D01*
X120855111Y-124420691D01*
X122692000Y-124420691D01*
X122692000Y-124911250D01*
X122850750Y-125070000D01*
X123850000Y-125070000D01*
X123850000Y-124070750D01*
X124104000Y-124070750D01*
X124104000Y-125070000D01*
X125103250Y-125070000D01*
X125262000Y-124911250D01*
X125262000Y-124420691D01*
X125165327Y-124187302D01*
X124986699Y-124008673D01*
X124753310Y-123912000D01*
X124262750Y-123912000D01*
X124104000Y-124070750D01*
X123850000Y-124070750D01*
X123691250Y-123912000D01*
X123200690Y-123912000D01*
X122967301Y-124008673D01*
X122788673Y-124187302D01*
X122692000Y-124420691D01*
X120855111Y-124420691D01*
X123736802Y-121539000D01*
X128457887Y-121539000D01*
X128567120Y-122088151D01*
X128878189Y-122553698D01*
X129282703Y-122823986D01*
X129065866Y-122926611D01*
X128689959Y-123341577D01*
X128529096Y-123729961D01*
X128651085Y-123952000D01*
X129794000Y-123952000D01*
X129794000Y-123932000D01*
X130048000Y-123932000D01*
X130048000Y-123952000D01*
X131190915Y-123952000D01*
X131312904Y-123729961D01*
X131152041Y-123341577D01*
X130776134Y-122926611D01*
X130559297Y-122823986D01*
X130963811Y-122553698D01*
X131274880Y-122088151D01*
X131384113Y-121539000D01*
X131274880Y-120989849D01*
X130963811Y-120524302D01*
X130498264Y-120213233D01*
X129949113Y-120104000D01*
X129892887Y-120104000D01*
X129343736Y-120213233D01*
X128878189Y-120524302D01*
X128567120Y-120989849D01*
X128457887Y-121539000D01*
X123736802Y-121539000D01*
X126033220Y-119242582D01*
X156901599Y-119242582D01*
X156925659Y-119892377D01*
X157128035Y-120380958D01*
X157394837Y-120479557D01*
X158367395Y-119507000D01*
X158726605Y-119507000D01*
X159699163Y-120479557D01*
X159965965Y-120380958D01*
X160192401Y-119771418D01*
X160168341Y-119121623D01*
X159965965Y-118633042D01*
X159699163Y-118534443D01*
X158726605Y-119507000D01*
X158367395Y-119507000D01*
X157394837Y-118534443D01*
X157128035Y-118633042D01*
X156901599Y-119242582D01*
X126033220Y-119242582D01*
X126920965Y-118354837D01*
X157574443Y-118354837D01*
X158547000Y-119327395D01*
X159519557Y-118354837D01*
X159420958Y-118088035D01*
X158811418Y-117861599D01*
X158161623Y-117885659D01*
X157673042Y-118088035D01*
X157574443Y-118354837D01*
X126920965Y-118354837D01*
X128328052Y-116947750D01*
X142962000Y-116947750D01*
X142962000Y-117438309D01*
X143058673Y-117671698D01*
X143237301Y-117850327D01*
X143470690Y-117947000D01*
X143961250Y-117947000D01*
X144120000Y-117788250D01*
X144120000Y-116789000D01*
X144374000Y-116789000D01*
X144374000Y-117788250D01*
X144532750Y-117947000D01*
X145023310Y-117947000D01*
X145256699Y-117850327D01*
X145435327Y-117671698D01*
X145532000Y-117438309D01*
X145532000Y-116947750D01*
X145373250Y-116789000D01*
X144374000Y-116789000D01*
X144120000Y-116789000D01*
X143120750Y-116789000D01*
X142962000Y-116947750D01*
X128328052Y-116947750D01*
X129390111Y-115885691D01*
X142962000Y-115885691D01*
X142962000Y-116376250D01*
X143120750Y-116535000D01*
X144120000Y-116535000D01*
X144120000Y-115535750D01*
X144374000Y-115535750D01*
X144374000Y-116535000D01*
X145373250Y-116535000D01*
X145532000Y-116376250D01*
X145532000Y-115885691D01*
X145435327Y-115652302D01*
X145256699Y-115473673D01*
X145023310Y-115377000D01*
X144532750Y-115377000D01*
X144374000Y-115535750D01*
X144120000Y-115535750D01*
X143961250Y-115377000D01*
X143470690Y-115377000D01*
X143237301Y-115473673D01*
X143058673Y-115652302D01*
X142962000Y-115885691D01*
X129390111Y-115885691D01*
X130538502Y-114737300D01*
X136585400Y-114737300D01*
X136876239Y-114679448D01*
X137122801Y-114514701D01*
X137784223Y-113853279D01*
X137793189Y-113866698D01*
X138258736Y-114177767D01*
X138807887Y-114287000D01*
X138864113Y-114287000D01*
X139413264Y-114177767D01*
X139878811Y-113866698D01*
X140189880Y-113401151D01*
X140299113Y-112852000D01*
X140189880Y-112302849D01*
X139878811Y-111837302D01*
X139496725Y-111582000D01*
X139878811Y-111326698D01*
X139937692Y-111238576D01*
X140175100Y-111285800D01*
X143011834Y-111285800D01*
X142962223Y-111405276D01*
X142961777Y-111916481D01*
X143156995Y-112388943D01*
X143518155Y-112750735D01*
X143990276Y-112946777D01*
X144501481Y-112947223D01*
X144973943Y-112752005D01*
X145335735Y-112390845D01*
X145531777Y-111918724D01*
X145532223Y-111407519D01*
X145337005Y-110935057D01*
X145124961Y-110722641D01*
X145537602Y-110310000D01*
X151326258Y-110310000D01*
X151349838Y-110435317D01*
X151488910Y-110651441D01*
X151701110Y-110796431D01*
X151953000Y-110847440D01*
X153253000Y-110847440D01*
X153488317Y-110803162D01*
X153704441Y-110664090D01*
X153849431Y-110451890D01*
X153900440Y-110200000D01*
X153900440Y-109017000D01*
X162163887Y-109017000D01*
X162273120Y-109566151D01*
X162584189Y-110031698D01*
X162966275Y-110287000D01*
X162584189Y-110542302D01*
X162273120Y-111007849D01*
X162163887Y-111557000D01*
X162273120Y-112106151D01*
X162584189Y-112571698D01*
X162966275Y-112827000D01*
X162584189Y-113082302D01*
X162273120Y-113547849D01*
X162163887Y-114097000D01*
X162273120Y-114646151D01*
X162584189Y-115111698D01*
X162966275Y-115367000D01*
X162584189Y-115622302D01*
X162273120Y-116087849D01*
X162163887Y-116637000D01*
X162273120Y-117186151D01*
X162584189Y-117651698D01*
X162988703Y-117921986D01*
X162771866Y-118024611D01*
X162395959Y-118439577D01*
X162235096Y-118827961D01*
X162357085Y-119050000D01*
X163500000Y-119050000D01*
X163500000Y-119030000D01*
X163754000Y-119030000D01*
X163754000Y-119050000D01*
X164896915Y-119050000D01*
X165018904Y-118827961D01*
X164858041Y-118439577D01*
X164482134Y-118024611D01*
X164265297Y-117921986D01*
X164669811Y-117651698D01*
X164980880Y-117186151D01*
X165090113Y-116637000D01*
X164980880Y-116087849D01*
X164669811Y-115622302D01*
X164287725Y-115367000D01*
X164669811Y-115111698D01*
X164980880Y-114646151D01*
X165090113Y-114097000D01*
X164980880Y-113547849D01*
X164669811Y-113082302D01*
X164287725Y-112827000D01*
X164669811Y-112571698D01*
X164980880Y-112106151D01*
X165090113Y-111557000D01*
X164980880Y-111007849D01*
X164669811Y-110542302D01*
X164287725Y-110287000D01*
X164669811Y-110031698D01*
X164980880Y-109566151D01*
X165090113Y-109017000D01*
X164980880Y-108467849D01*
X164669811Y-108002302D01*
X164265297Y-107732014D01*
X164482134Y-107629389D01*
X164858041Y-107214423D01*
X165018904Y-106826039D01*
X164896915Y-106604000D01*
X163754000Y-106604000D01*
X163754000Y-106624000D01*
X163500000Y-106624000D01*
X163500000Y-106604000D01*
X162357085Y-106604000D01*
X162235096Y-106826039D01*
X162395959Y-107214423D01*
X162771866Y-107629389D01*
X162988703Y-107732014D01*
X162584189Y-108002302D01*
X162273120Y-108467849D01*
X162163887Y-109017000D01*
X153900440Y-109017000D01*
X153900440Y-108900000D01*
X153856162Y-108664683D01*
X153717090Y-108448559D01*
X153504890Y-108303569D01*
X153253000Y-108252560D01*
X151953000Y-108252560D01*
X151717683Y-108296838D01*
X151501559Y-108435910D01*
X151356569Y-108648110D01*
X151327836Y-108790000D01*
X145222800Y-108790000D01*
X144931961Y-108847852D01*
X144685399Y-109012599D01*
X143932198Y-109765800D01*
X140485532Y-109765800D01*
X140252139Y-109609852D01*
X140062437Y-109572118D01*
X139878811Y-109297302D01*
X139496725Y-109042000D01*
X139878811Y-108786698D01*
X140189880Y-108321151D01*
X140299113Y-107772000D01*
X140189880Y-107222849D01*
X139878811Y-106757302D01*
X139578022Y-106556321D01*
X139558947Y-106460424D01*
X139878811Y-106246698D01*
X140189880Y-105781151D01*
X140299113Y-105232000D01*
X140189880Y-104682849D01*
X140154835Y-104630400D01*
X142687600Y-104630400D01*
X142978439Y-104572548D01*
X143225001Y-104407801D01*
X143456802Y-104176000D01*
X144193560Y-104176000D01*
X144193560Y-105476000D01*
X144237838Y-105711317D01*
X144376910Y-105927441D01*
X144589110Y-106072431D01*
X144841000Y-106123440D01*
X145036460Y-106123440D01*
X144764057Y-106235995D01*
X144402265Y-106597155D01*
X144206223Y-107069276D01*
X144205777Y-107580481D01*
X144400995Y-108052943D01*
X144762155Y-108414735D01*
X145234276Y-108610777D01*
X145745481Y-108611223D01*
X146217943Y-108416005D01*
X146579735Y-108054845D01*
X146775777Y-107582724D01*
X146776223Y-107071519D01*
X146581005Y-106599057D01*
X146219845Y-106237265D01*
X145945724Y-106123440D01*
X146141000Y-106123440D01*
X146376317Y-106079162D01*
X146592441Y-105940090D01*
X146737431Y-105727890D01*
X146788440Y-105476000D01*
X146788440Y-104804481D01*
X151317777Y-104804481D01*
X151512995Y-105276943D01*
X151874155Y-105638735D01*
X152346276Y-105834777D01*
X152857481Y-105835223D01*
X153329943Y-105640005D01*
X153691735Y-105278845D01*
X153887777Y-104806724D01*
X153888223Y-104295519D01*
X153693005Y-103823057D01*
X153331845Y-103461265D01*
X152859724Y-103265223D01*
X152348519Y-103264777D01*
X151876057Y-103459995D01*
X151514265Y-103821155D01*
X151318223Y-104293276D01*
X151317777Y-104804481D01*
X146788440Y-104804481D01*
X146788440Y-104176000D01*
X146744162Y-103940683D01*
X146605090Y-103724559D01*
X146392890Y-103579569D01*
X146141000Y-103528560D01*
X144841000Y-103528560D01*
X144605683Y-103572838D01*
X144389559Y-103711910D01*
X144244569Y-103924110D01*
X144193560Y-104176000D01*
X143456802Y-104176000D01*
X145787917Y-101844885D01*
X145952453Y-101913206D01*
X146602694Y-101913774D01*
X147203655Y-101665462D01*
X147663846Y-101206073D01*
X147913206Y-100605547D01*
X147913774Y-99955306D01*
X147665462Y-99354345D01*
X147206073Y-98894154D01*
X147116597Y-98857000D01*
X162163887Y-98857000D01*
X162273120Y-99406151D01*
X162584189Y-99871698D01*
X162966275Y-100127000D01*
X162584189Y-100382302D01*
X162273120Y-100847849D01*
X162163887Y-101397000D01*
X162273120Y-101946151D01*
X162584189Y-102411698D01*
X162966275Y-102667000D01*
X162584189Y-102922302D01*
X162273120Y-103387849D01*
X162163887Y-103937000D01*
X162273120Y-104486151D01*
X162584189Y-104951698D01*
X162988703Y-105221986D01*
X162771866Y-105324611D01*
X162395959Y-105739577D01*
X162235096Y-106127961D01*
X162357085Y-106350000D01*
X163500000Y-106350000D01*
X163500000Y-106330000D01*
X163754000Y-106330000D01*
X163754000Y-106350000D01*
X164896915Y-106350000D01*
X165018904Y-106127961D01*
X164858041Y-105739577D01*
X164482134Y-105324611D01*
X164265297Y-105221986D01*
X164669811Y-104951698D01*
X164980880Y-104486151D01*
X165090113Y-103937000D01*
X164980880Y-103387849D01*
X164669811Y-102922302D01*
X164287725Y-102667000D01*
X164669811Y-102411698D01*
X164980880Y-101946151D01*
X165090113Y-101397000D01*
X164980880Y-100847849D01*
X164669811Y-100382302D01*
X164287725Y-100127000D01*
X164669811Y-99871698D01*
X164980880Y-99406151D01*
X165090113Y-98857000D01*
X164980880Y-98307849D01*
X164669811Y-97842302D01*
X164265297Y-97572014D01*
X164482134Y-97469389D01*
X164858041Y-97054423D01*
X165018904Y-96666039D01*
X164896915Y-96444000D01*
X163754000Y-96444000D01*
X163754000Y-96464000D01*
X163500000Y-96464000D01*
X163500000Y-96444000D01*
X162357085Y-96444000D01*
X162235096Y-96666039D01*
X162395959Y-97054423D01*
X162771866Y-97469389D01*
X162988703Y-97572014D01*
X162584189Y-97842302D01*
X162273120Y-98307849D01*
X162163887Y-98857000D01*
X147116597Y-98857000D01*
X146605547Y-98644794D01*
X145955306Y-98644226D01*
X145354345Y-98892538D01*
X144894154Y-99351927D01*
X144644794Y-99952453D01*
X144644226Y-100602694D01*
X144713309Y-100769889D01*
X144093387Y-101389811D01*
X144115930Y-101278490D01*
X144115930Y-99279510D01*
X144071652Y-99044193D01*
X143932580Y-98828069D01*
X143720380Y-98683079D01*
X143468490Y-98632070D01*
X141469510Y-98632070D01*
X141234193Y-98676348D01*
X141018069Y-98815420D01*
X140873079Y-99027620D01*
X140822070Y-99279510D01*
X140822070Y-101278490D01*
X140866348Y-101513807D01*
X141005420Y-101729931D01*
X141217620Y-101874921D01*
X141469510Y-101925930D01*
X143468490Y-101925930D01*
X143577844Y-101905354D01*
X142372798Y-103110400D01*
X140215888Y-103110400D01*
X140299113Y-102692000D01*
X140189880Y-102142849D01*
X139878811Y-101677302D01*
X139496725Y-101422000D01*
X139878811Y-101166698D01*
X140189880Y-100701151D01*
X140299113Y-100152000D01*
X140189880Y-99602849D01*
X139878811Y-99137302D01*
X139496725Y-98882000D01*
X139878811Y-98626698D01*
X140189880Y-98161151D01*
X140299113Y-97612000D01*
X140189880Y-97062849D01*
X139878811Y-96597302D01*
X139413264Y-96286233D01*
X138864113Y-96177000D01*
X138807887Y-96177000D01*
X138258736Y-96286233D01*
X137793189Y-96597302D01*
X137482120Y-97062849D01*
X137372887Y-97612000D01*
X137482120Y-98161151D01*
X137793189Y-98626698D01*
X138175275Y-98882000D01*
X137793189Y-99137302D01*
X137482120Y-99602849D01*
X137372887Y-100152000D01*
X137482120Y-100701151D01*
X137793189Y-101166698D01*
X138175275Y-101422000D01*
X137897443Y-101607641D01*
X132257763Y-95967961D01*
X162235096Y-95967961D01*
X162357085Y-96190000D01*
X163500000Y-96190000D01*
X163500000Y-95046371D01*
X163754000Y-95046371D01*
X163754000Y-96190000D01*
X164896915Y-96190000D01*
X165018904Y-95967961D01*
X164858041Y-95579577D01*
X164482134Y-95164611D01*
X163976041Y-94925086D01*
X163754000Y-95046371D01*
X163500000Y-95046371D01*
X163277959Y-94925086D01*
X162771866Y-95164611D01*
X162395959Y-95579577D01*
X162235096Y-95967961D01*
X132257763Y-95967961D01*
X129369359Y-93079557D01*
X129415440Y-92852000D01*
X129415440Y-91552000D01*
X129371162Y-91316683D01*
X129232090Y-91100559D01*
X129019890Y-90955569D01*
X128768000Y-90904560D01*
X128572540Y-90904560D01*
X128844943Y-90792005D01*
X129206735Y-90430845D01*
X129374011Y-90028000D01*
X168196560Y-90028000D01*
X168196560Y-91328000D01*
X168240838Y-91563317D01*
X168379910Y-91779441D01*
X168592110Y-91924431D01*
X168844000Y-91975440D01*
X170144000Y-91975440D01*
X170379317Y-91931162D01*
X170542594Y-91826096D01*
X175570899Y-96854401D01*
X175817460Y-97019148D01*
X176108300Y-97077000D01*
X176979700Y-97077000D01*
X176979700Y-104505700D01*
X177037552Y-104796539D01*
X177202299Y-105043101D01*
X177743003Y-105583805D01*
X177513120Y-105927849D01*
X177403887Y-106477000D01*
X177513120Y-107026151D01*
X177824189Y-107491698D01*
X178206275Y-107747000D01*
X177824189Y-108002302D01*
X177513120Y-108467849D01*
X177403887Y-109017000D01*
X177513120Y-109566151D01*
X177824189Y-110031698D01*
X178206275Y-110287000D01*
X177824189Y-110542302D01*
X177513120Y-111007849D01*
X177403887Y-111557000D01*
X177513120Y-112106151D01*
X177824189Y-112571698D01*
X178206275Y-112827000D01*
X177824189Y-113082302D01*
X177513120Y-113547849D01*
X177403887Y-114097000D01*
X177513120Y-114646151D01*
X177824189Y-115111698D01*
X178206275Y-115367000D01*
X177824189Y-115622302D01*
X177513120Y-116087849D01*
X177403887Y-116637000D01*
X177513120Y-117186151D01*
X177824189Y-117651698D01*
X178206275Y-117907000D01*
X177824189Y-118162302D01*
X177513120Y-118627849D01*
X177403887Y-119177000D01*
X177513120Y-119726151D01*
X177824189Y-120191698D01*
X178228703Y-120461986D01*
X178011866Y-120564611D01*
X177635959Y-120979577D01*
X177475096Y-121367961D01*
X177597085Y-121590000D01*
X178740000Y-121590000D01*
X178740000Y-121570000D01*
X178994000Y-121570000D01*
X178994000Y-121590000D01*
X180136915Y-121590000D01*
X180258904Y-121367961D01*
X180098041Y-120979577D01*
X179722134Y-120564611D01*
X179505297Y-120461986D01*
X179909811Y-120191698D01*
X180220880Y-119726151D01*
X180261187Y-119523510D01*
X210189070Y-119523510D01*
X210189070Y-121522490D01*
X210233348Y-121757807D01*
X210372420Y-121973931D01*
X210584620Y-122118921D01*
X210836510Y-122169930D01*
X212835490Y-122169930D01*
X213070807Y-122125652D01*
X213286931Y-121986580D01*
X213431921Y-121774380D01*
X213470933Y-121581735D01*
X217560115Y-125670917D01*
X217491794Y-125835453D01*
X217491226Y-126485694D01*
X217739538Y-127086655D01*
X218198927Y-127546846D01*
X218799453Y-127796206D01*
X219449694Y-127796774D01*
X220050655Y-127548462D01*
X220510846Y-127089073D01*
X220760206Y-126488547D01*
X220760774Y-125838306D01*
X220512462Y-125237345D01*
X220053073Y-124777154D01*
X219452547Y-124527794D01*
X218802306Y-124527226D01*
X218635111Y-124596309D01*
X216130240Y-122091438D01*
X216570655Y-121909462D01*
X217030846Y-121450073D01*
X217205691Y-121029000D01*
X217902469Y-121029000D01*
X217914990Y-121059303D01*
X218307630Y-121452629D01*
X218820900Y-121665757D01*
X219376661Y-121666242D01*
X219890303Y-121454010D01*
X220283629Y-121061370D01*
X220496757Y-120548100D01*
X220497242Y-119992339D01*
X220285010Y-119478697D01*
X219892370Y-119085371D01*
X219379100Y-118872243D01*
X218823339Y-118871758D01*
X218309697Y-119083990D01*
X217916371Y-119476630D01*
X217902930Y-119509000D01*
X216943273Y-119509000D01*
X216573073Y-119138154D01*
X215972547Y-118888794D01*
X215322306Y-118888226D01*
X214721345Y-119136538D01*
X214261154Y-119595927D01*
X214077358Y-120038556D01*
X214024401Y-119985599D01*
X213777839Y-119820852D01*
X213487000Y-119763000D01*
X213482930Y-119763000D01*
X213482930Y-119523510D01*
X213438652Y-119288193D01*
X213299580Y-119072069D01*
X213087380Y-118927079D01*
X212835490Y-118876070D01*
X210836510Y-118876070D01*
X210601193Y-118920348D01*
X210385069Y-119059420D01*
X210240079Y-119271620D01*
X210189070Y-119523510D01*
X180261187Y-119523510D01*
X180330113Y-119177000D01*
X180220880Y-118627849D01*
X179909811Y-118162302D01*
X179527725Y-117907000D01*
X179909811Y-117651698D01*
X180220880Y-117186151D01*
X180330113Y-116637000D01*
X180220880Y-116087849D01*
X179909811Y-115622302D01*
X179527725Y-115367000D01*
X179909811Y-115111698D01*
X180079995Y-114857000D01*
X181992198Y-114857000D01*
X182332182Y-115196984D01*
X182331777Y-115661481D01*
X182526995Y-116133943D01*
X182888155Y-116495735D01*
X183162276Y-116609560D01*
X182967000Y-116609560D01*
X182731683Y-116653838D01*
X182515559Y-116792910D01*
X182370569Y-117005110D01*
X182319560Y-117257000D01*
X182319560Y-118557000D01*
X182363838Y-118792317D01*
X182502910Y-119008441D01*
X182715110Y-119153431D01*
X182967000Y-119204440D01*
X184267000Y-119204440D01*
X184502317Y-119160162D01*
X184718441Y-119021090D01*
X184863431Y-118808890D01*
X184907125Y-118593121D01*
X185129701Y-118444401D01*
X187045408Y-116528694D01*
X199279226Y-116528694D01*
X199527538Y-117129655D01*
X199986927Y-117589846D01*
X200587453Y-117839206D01*
X201237694Y-117839774D01*
X201838655Y-117591462D01*
X202298846Y-117132073D01*
X202496655Y-116655694D01*
X203038226Y-116655694D01*
X203286538Y-117256655D01*
X203745927Y-117716846D01*
X204346453Y-117966206D01*
X204996694Y-117966774D01*
X205597655Y-117718462D01*
X206057846Y-117259073D01*
X206127221Y-117092000D01*
X219649198Y-117092000D01*
X245817484Y-143260286D01*
X245745287Y-143434155D01*
X245744714Y-144090963D01*
X245995534Y-144697995D01*
X246459563Y-145162834D01*
X247066155Y-145414713D01*
X247722963Y-145415286D01*
X248329995Y-145164466D01*
X248794834Y-144700437D01*
X249046713Y-144093845D01*
X249047286Y-143437037D01*
X248796466Y-142830005D01*
X248332437Y-142365166D01*
X247725845Y-142113287D01*
X247069037Y-142112714D01*
X246892471Y-142185669D01*
X220501401Y-115794599D01*
X220254839Y-115629852D01*
X219964000Y-115572000D01*
X206127496Y-115572000D01*
X206059462Y-115407345D01*
X205600073Y-114947154D01*
X204999547Y-114697794D01*
X204349306Y-114697226D01*
X203748345Y-114945538D01*
X203288154Y-115404927D01*
X203038794Y-116005453D01*
X203038226Y-116655694D01*
X202496655Y-116655694D01*
X202548206Y-116531547D01*
X202548774Y-115881306D01*
X202479691Y-115714111D01*
X204911802Y-113282000D01*
X210051258Y-113282000D01*
X210074838Y-113407317D01*
X210213910Y-113623441D01*
X210426110Y-113768431D01*
X210678000Y-113819440D01*
X211978000Y-113819440D01*
X212213317Y-113775162D01*
X212429441Y-113636090D01*
X212574431Y-113423890D01*
X212625440Y-113172000D01*
X212625440Y-112976540D01*
X212737995Y-113248943D01*
X213099155Y-113610735D01*
X213571276Y-113806777D01*
X214082481Y-113807223D01*
X214554943Y-113612005D01*
X214916735Y-113250845D01*
X215112777Y-112778724D01*
X215113223Y-112267519D01*
X214918005Y-111795057D01*
X214556845Y-111433265D01*
X214084724Y-111237223D01*
X213573519Y-111236777D01*
X213101057Y-111431995D01*
X212739265Y-111793155D01*
X212625440Y-112067276D01*
X212625440Y-111872000D01*
X212581162Y-111636683D01*
X212442090Y-111420559D01*
X212229890Y-111275569D01*
X211978000Y-111224560D01*
X210678000Y-111224560D01*
X210442683Y-111268838D01*
X210226559Y-111407910D01*
X210081569Y-111620110D01*
X210052836Y-111762000D01*
X204597000Y-111762000D01*
X204306161Y-111819852D01*
X204059599Y-111984599D01*
X201405083Y-114639115D01*
X201240547Y-114570794D01*
X200590306Y-114570226D01*
X199989345Y-114818538D01*
X199529154Y-115277927D01*
X199279794Y-115878453D01*
X199279226Y-116528694D01*
X187045408Y-116528694D01*
X188435202Y-115138900D01*
X193302820Y-115138900D01*
X193312686Y-115162777D01*
X193702113Y-115552884D01*
X194211184Y-115764269D01*
X194762398Y-115764750D01*
X195271837Y-115554254D01*
X195661944Y-115164827D01*
X195873329Y-114655756D01*
X195873810Y-114104542D01*
X195663314Y-113595103D01*
X195273887Y-113204996D01*
X194764816Y-112993611D01*
X194213602Y-112993130D01*
X193704163Y-113203626D01*
X193314056Y-113593053D01*
X193303323Y-113618900D01*
X188120400Y-113618900D01*
X187829561Y-113676752D01*
X187582999Y-113841499D01*
X184664463Y-116760035D01*
X184518890Y-116660569D01*
X184267000Y-116609560D01*
X184071540Y-116609560D01*
X184343943Y-116497005D01*
X184705735Y-116135845D01*
X184901777Y-115663724D01*
X184902223Y-115152519D01*
X184707005Y-114680057D01*
X184345845Y-114318265D01*
X183873724Y-114122223D01*
X183406617Y-114121815D01*
X183405502Y-114120700D01*
X183937399Y-113588803D01*
X184059839Y-113564448D01*
X184306401Y-113399701D01*
X184454725Y-113177718D01*
X184654317Y-113140162D01*
X184870441Y-113001090D01*
X185015431Y-112788890D01*
X185066440Y-112537000D01*
X185066440Y-111237000D01*
X185022162Y-111001683D01*
X184883090Y-110785559D01*
X184670890Y-110640569D01*
X184419000Y-110589560D01*
X184223540Y-110589560D01*
X184495943Y-110477005D01*
X184716233Y-110257100D01*
X193302853Y-110257100D01*
X193312686Y-110280897D01*
X193702113Y-110671004D01*
X194211184Y-110882389D01*
X194762398Y-110882870D01*
X195271837Y-110672374D01*
X195661944Y-110282947D01*
X195873329Y-109773876D01*
X195873810Y-109222662D01*
X195663314Y-108713223D01*
X195273887Y-108323116D01*
X194764816Y-108111731D01*
X194213602Y-108111250D01*
X193704163Y-108321746D01*
X193314056Y-108711173D01*
X193303290Y-108737100D01*
X184890839Y-108737100D01*
X184859005Y-108660057D01*
X184497845Y-108298265D01*
X184025724Y-108102223D01*
X183514519Y-108101777D01*
X183138852Y-108257000D01*
X180079995Y-108257000D01*
X179909811Y-108002302D01*
X179527725Y-107747000D01*
X179909811Y-107491698D01*
X180220880Y-107026151D01*
X180330113Y-106477000D01*
X180220880Y-105927849D01*
X179909811Y-105462302D01*
X179609022Y-105261321D01*
X179589947Y-105165424D01*
X179909811Y-104951698D01*
X180079995Y-104697000D01*
X200117700Y-104697000D01*
X200117700Y-107145503D01*
X199989345Y-107198538D01*
X199529154Y-107657927D01*
X199279794Y-108258453D01*
X199279226Y-108908694D01*
X199527538Y-109509655D01*
X199986927Y-109969846D01*
X200587453Y-110219206D01*
X201237694Y-110219774D01*
X201838655Y-109971462D01*
X202298846Y-109512073D01*
X202548206Y-108911547D01*
X202548774Y-108261306D01*
X202300462Y-107660345D01*
X201841073Y-107200154D01*
X201637700Y-107115706D01*
X201637700Y-104878440D01*
X202859000Y-104878440D01*
X203094317Y-104834162D01*
X203310441Y-104695090D01*
X203455431Y-104482890D01*
X203506440Y-104231000D01*
X203506440Y-104161642D01*
X203913000Y-104568202D01*
X203913000Y-107257504D01*
X203748345Y-107325538D01*
X203288154Y-107784927D01*
X203038794Y-108385453D01*
X203038226Y-109035694D01*
X203286538Y-109636655D01*
X203745927Y-110096846D01*
X204346453Y-110346206D01*
X204996694Y-110346774D01*
X205597655Y-110098462D01*
X206057846Y-109639073D01*
X206307206Y-109038547D01*
X206307774Y-108388306D01*
X206059462Y-107787345D01*
X205600073Y-107327154D01*
X205433000Y-107257779D01*
X205433000Y-104253400D01*
X205375148Y-103962561D01*
X205210401Y-103715999D01*
X202354001Y-100859599D01*
X202107439Y-100694852D01*
X201816600Y-100637000D01*
X191115518Y-100637000D01*
X191576655Y-100446462D01*
X192036846Y-99987073D01*
X192106221Y-99820000D01*
X202373198Y-99820000D01*
X205924182Y-103370984D01*
X205923777Y-103835481D01*
X206118995Y-104307943D01*
X206480155Y-104669735D01*
X206952276Y-104865777D01*
X207463481Y-104866223D01*
X207935943Y-104671005D01*
X208164347Y-104443000D01*
X209467504Y-104443000D01*
X209535538Y-104607655D01*
X209994927Y-105067846D01*
X210595453Y-105317206D01*
X211245694Y-105317774D01*
X211846655Y-105069462D01*
X212306846Y-104610073D01*
X212556206Y-104009547D01*
X212556774Y-103359306D01*
X212308462Y-102758345D01*
X212233758Y-102683510D01*
X213085070Y-102683510D01*
X213085070Y-104682490D01*
X213129348Y-104917807D01*
X213268420Y-105133931D01*
X213480620Y-105278921D01*
X213732510Y-105329930D01*
X215731490Y-105329930D01*
X215966807Y-105285652D01*
X216182931Y-105146580D01*
X216327921Y-104934380D01*
X216378930Y-104682490D01*
X216378930Y-102683510D01*
X216334652Y-102448193D01*
X216195580Y-102232069D01*
X215983380Y-102087079D01*
X215731490Y-102036070D01*
X213732510Y-102036070D01*
X213497193Y-102080348D01*
X213281069Y-102219420D01*
X213136079Y-102431620D01*
X213085070Y-102683510D01*
X212233758Y-102683510D01*
X211849073Y-102298154D01*
X211248547Y-102048794D01*
X210598306Y-102048226D01*
X209997345Y-102296538D01*
X209537154Y-102755927D01*
X209467779Y-102923000D01*
X208327492Y-102923000D01*
X208299005Y-102854057D01*
X207937845Y-102492265D01*
X207465724Y-102296223D01*
X206998617Y-102295815D01*
X203703112Y-99000310D01*
X209579070Y-99000310D01*
X209579070Y-100999290D01*
X209623348Y-101234607D01*
X209762420Y-101450731D01*
X209974620Y-101595721D01*
X210226510Y-101646730D01*
X212225490Y-101646730D01*
X212460807Y-101602452D01*
X212676931Y-101463380D01*
X212821921Y-101251180D01*
X212872930Y-100999290D01*
X212872930Y-100323494D01*
X213401226Y-100323494D01*
X213649538Y-100924455D01*
X214108927Y-101384646D01*
X214709453Y-101634006D01*
X215359694Y-101634574D01*
X215960655Y-101386262D01*
X215978286Y-101368661D01*
X217575758Y-101368661D01*
X217787990Y-101882303D01*
X218180630Y-102275629D01*
X218693900Y-102488757D01*
X219249661Y-102489242D01*
X219763303Y-102277010D01*
X220156629Y-101884370D01*
X220369757Y-101371100D01*
X220370242Y-100815339D01*
X220158010Y-100301697D01*
X219765370Y-99908371D01*
X219252100Y-99695243D01*
X218696339Y-99694758D01*
X218182697Y-99906990D01*
X217789371Y-100299630D01*
X217576243Y-100812900D01*
X217575758Y-101368661D01*
X215978286Y-101368661D01*
X216420846Y-100926873D01*
X216670206Y-100326347D01*
X216670774Y-99676106D01*
X216422462Y-99075145D01*
X215963073Y-98614954D01*
X215362547Y-98365594D01*
X214712306Y-98365026D01*
X214111345Y-98613338D01*
X213651154Y-99072727D01*
X213401794Y-99673253D01*
X213401226Y-100323494D01*
X212872930Y-100323494D01*
X212872930Y-99000310D01*
X212828652Y-98764993D01*
X212689580Y-98548869D01*
X212477380Y-98403879D01*
X212225490Y-98352870D01*
X210226510Y-98352870D01*
X209991193Y-98397148D01*
X209775069Y-98536220D01*
X209630079Y-98748420D01*
X209579070Y-99000310D01*
X203703112Y-99000310D01*
X203225401Y-98522599D01*
X202978839Y-98357852D01*
X202688000Y-98300000D01*
X192106496Y-98300000D01*
X192038462Y-98135345D01*
X191579073Y-97675154D01*
X190978547Y-97425794D01*
X190328306Y-97425226D01*
X190161111Y-97494309D01*
X189135300Y-96468498D01*
X189135300Y-95522894D01*
X189602226Y-95522894D01*
X189850538Y-96123855D01*
X190309927Y-96584046D01*
X190910453Y-96833406D01*
X191560694Y-96833974D01*
X192161655Y-96585662D01*
X192621846Y-96126273D01*
X192871206Y-95525747D01*
X192871774Y-94875506D01*
X192623462Y-94274545D01*
X192164073Y-93814354D01*
X191563547Y-93564994D01*
X190913306Y-93564426D01*
X190312345Y-93812738D01*
X189852154Y-94272127D01*
X189602794Y-94872653D01*
X189602226Y-95522894D01*
X189135300Y-95522894D01*
X189135300Y-91539302D01*
X189168984Y-91505618D01*
X189633481Y-91506023D01*
X190105943Y-91310805D01*
X190467735Y-90949645D01*
X190663777Y-90477524D01*
X190664223Y-89966319D01*
X190469005Y-89493857D01*
X190107845Y-89132065D01*
X189635724Y-88936023D01*
X189124519Y-88935577D01*
X188652057Y-89130795D01*
X188290265Y-89491955D01*
X188094223Y-89964076D01*
X188093815Y-90431183D01*
X187837899Y-90687099D01*
X187673152Y-90933661D01*
X187615300Y-91224500D01*
X187615300Y-95790100D01*
X185141437Y-95790100D01*
X185251206Y-95525747D01*
X185251774Y-94875506D01*
X185003462Y-94274545D01*
X184544073Y-93814354D01*
X183943547Y-93564994D01*
X183293306Y-93564426D01*
X182692345Y-93812738D01*
X182232154Y-94272127D01*
X181982794Y-94872653D01*
X181982226Y-95522894D01*
X182092633Y-95790100D01*
X180540202Y-95790100D01*
X180529701Y-95779599D01*
X180283139Y-95614852D01*
X180093437Y-95577118D01*
X179909811Y-95302302D01*
X179444264Y-94991233D01*
X178895113Y-94882000D01*
X178838887Y-94882000D01*
X178289736Y-94991233D01*
X177824189Y-95302302D01*
X177654005Y-95557000D01*
X176423102Y-95557000D01*
X171798583Y-90932481D01*
X173208777Y-90932481D01*
X173403995Y-91404943D01*
X173765155Y-91766735D01*
X174237276Y-91962777D01*
X174748481Y-91963223D01*
X175220943Y-91768005D01*
X175582735Y-91406845D01*
X175778777Y-90934724D01*
X175779223Y-90423519D01*
X175584005Y-89951057D01*
X175222845Y-89589265D01*
X175178377Y-89570800D01*
X183081560Y-89570800D01*
X183081560Y-90870800D01*
X183125838Y-91106117D01*
X183264910Y-91322241D01*
X183477110Y-91467231D01*
X183729000Y-91518240D01*
X185029000Y-91518240D01*
X185264317Y-91473962D01*
X185480441Y-91334890D01*
X185625431Y-91122690D01*
X185676440Y-90870800D01*
X185676440Y-89570800D01*
X185632162Y-89335483D01*
X185493090Y-89119359D01*
X185280890Y-88974369D01*
X185029000Y-88923360D01*
X183729000Y-88923360D01*
X183493683Y-88967638D01*
X183277559Y-89106710D01*
X183132569Y-89318910D01*
X183081560Y-89570800D01*
X175178377Y-89570800D01*
X174750724Y-89393223D01*
X174239519Y-89392777D01*
X173767057Y-89587995D01*
X173405265Y-89949155D01*
X173209223Y-90421276D01*
X173208777Y-90932481D01*
X171798583Y-90932481D01*
X171006701Y-90140599D01*
X170784718Y-89992275D01*
X170747162Y-89792683D01*
X170608090Y-89576559D01*
X170395890Y-89431569D01*
X170144000Y-89380560D01*
X168844000Y-89380560D01*
X168608683Y-89424838D01*
X168392559Y-89563910D01*
X168247569Y-89776110D01*
X168196560Y-90028000D01*
X129374011Y-90028000D01*
X129402777Y-89958724D01*
X129403223Y-89447519D01*
X129326246Y-89261221D01*
X129328100Y-89251900D01*
X129328100Y-86209700D01*
X144776100Y-86209700D01*
X145066939Y-86151848D01*
X145313501Y-85987101D01*
X145609917Y-85690685D01*
X145774453Y-85759006D01*
X146424694Y-85759574D01*
X147025655Y-85511262D01*
X147485846Y-85051873D01*
X147735206Y-84451347D01*
X147735774Y-83801106D01*
X147487462Y-83200145D01*
X147028073Y-82739954D01*
X146427547Y-82490594D01*
X145777306Y-82490026D01*
X145176345Y-82738338D01*
X144716154Y-83197727D01*
X144466794Y-83798253D01*
X144466226Y-84448494D01*
X144535309Y-84615689D01*
X144461298Y-84689700D01*
X143937930Y-84689700D01*
X143937930Y-83125310D01*
X143893652Y-82889993D01*
X143754580Y-82673869D01*
X143542380Y-82528879D01*
X143290490Y-82477870D01*
X141291510Y-82477870D01*
X141056193Y-82522148D01*
X140840069Y-82661220D01*
X140695079Y-82873420D01*
X140644070Y-83125310D01*
X140644070Y-84689700D01*
X129046961Y-84689700D01*
X129047223Y-84389119D01*
X128852005Y-83916657D01*
X128490845Y-83554865D01*
X128216724Y-83441040D01*
X128412000Y-83441040D01*
X128647317Y-83396762D01*
X128863441Y-83257690D01*
X129008431Y-83045490D01*
X129059440Y-82793600D01*
X129059440Y-81493600D01*
X129015162Y-81258283D01*
X128876090Y-81042159D01*
X128663890Y-80897169D01*
X128412000Y-80846160D01*
X127112000Y-80846160D01*
X126876683Y-80890438D01*
X126660559Y-81029510D01*
X126515569Y-81241710D01*
X126464560Y-81493600D01*
X126464560Y-82793600D01*
X126508838Y-83028917D01*
X126647910Y-83245041D01*
X126860110Y-83390031D01*
X127112000Y-83441040D01*
X127307460Y-83441040D01*
X127035057Y-83553595D01*
X126673265Y-83914755D01*
X126477223Y-84386876D01*
X126476777Y-84898081D01*
X126671995Y-85370543D01*
X127033155Y-85732335D01*
X127505276Y-85928377D01*
X127808100Y-85928641D01*
X127808100Y-88439676D01*
X127391057Y-88611995D01*
X127029265Y-88973155D01*
X126833223Y-89445276D01*
X126832777Y-89956481D01*
X127027995Y-90428943D01*
X127389155Y-90790735D01*
X127663276Y-90904560D01*
X127468000Y-90904560D01*
X127232683Y-90948838D01*
X127016559Y-91087910D01*
X126871569Y-91300110D01*
X126827875Y-91515878D01*
X126662318Y-91626500D01*
X119989794Y-91626500D01*
X119990223Y-91134719D01*
X119795005Y-90662257D01*
X119433845Y-90300465D01*
X118961724Y-90104423D01*
X118450519Y-90103977D01*
X117978057Y-90299195D01*
X117616265Y-90660355D01*
X117576067Y-90757162D01*
X117495718Y-90703475D01*
X117458162Y-90503883D01*
X117319090Y-90287759D01*
X117106890Y-90142769D01*
X116855000Y-90091760D01*
X115555000Y-90091760D01*
X115319683Y-90136038D01*
X115103559Y-90275110D01*
X114958569Y-90487310D01*
X114907560Y-90739200D01*
X114907560Y-92039200D01*
X114951838Y-92274517D01*
X115090910Y-92490641D01*
X115303110Y-92635631D01*
X115555000Y-92686640D01*
X116855000Y-92686640D01*
X117090317Y-92642362D01*
X117253594Y-92537296D01*
X117640199Y-92923901D01*
X117886760Y-93088648D01*
X118177600Y-93146500D01*
X126902921Y-93146500D01*
X127003910Y-93303441D01*
X127216110Y-93448431D01*
X127431879Y-93492125D01*
X127580599Y-93714701D01*
X127827161Y-93879448D01*
X128067441Y-93927243D01*
X130511469Y-96371271D01*
X130173189Y-96597302D01*
X129862120Y-97062849D01*
X129752887Y-97612000D01*
X129862120Y-98161151D01*
X130173189Y-98626698D01*
X130577703Y-98896986D01*
X130360866Y-98999611D01*
X129984959Y-99414577D01*
X129824096Y-99802961D01*
X129946085Y-100025000D01*
X131089000Y-100025000D01*
X131089000Y-100005000D01*
X131343000Y-100005000D01*
X131343000Y-100025000D01*
X132485915Y-100025000D01*
X132607904Y-99802961D01*
X132447041Y-99414577D01*
X132071134Y-98999611D01*
X131854297Y-98896986D01*
X132258811Y-98626698D01*
X132462321Y-98322123D01*
X136950700Y-102810502D01*
X136950700Y-105802800D01*
X137008552Y-106093639D01*
X137173299Y-106340201D01*
X137711963Y-106878865D01*
X137482120Y-107222849D01*
X137372887Y-107772000D01*
X137482120Y-108321151D01*
X137793189Y-108786698D01*
X138175275Y-109042000D01*
X137793189Y-109297302D01*
X137623005Y-109552000D01*
X133104500Y-109552000D01*
X133104500Y-104712800D01*
X133046648Y-104421961D01*
X132881901Y-104175399D01*
X132320651Y-103614149D01*
X132569880Y-103241151D01*
X132679113Y-102692000D01*
X132569880Y-102142849D01*
X132258811Y-101677302D01*
X131854297Y-101407014D01*
X132071134Y-101304389D01*
X132447041Y-100889423D01*
X132607904Y-100501039D01*
X132485915Y-100279000D01*
X131343000Y-100279000D01*
X131343000Y-100299000D01*
X131089000Y-100299000D01*
X131089000Y-100279000D01*
X129946085Y-100279000D01*
X129824096Y-100501039D01*
X129984959Y-100889423D01*
X130360866Y-101304389D01*
X130577703Y-101407014D01*
X130173189Y-101677302D01*
X129862120Y-102142849D01*
X129752887Y-102692000D01*
X129854332Y-103202000D01*
X124474964Y-103202000D01*
X124475223Y-102905519D01*
X124280005Y-102433057D01*
X123918845Y-102071265D01*
X123614765Y-101945000D01*
X123966310Y-101945000D01*
X124199699Y-101848327D01*
X124378327Y-101669698D01*
X124475000Y-101436309D01*
X124475000Y-100945750D01*
X124316250Y-100787000D01*
X123317000Y-100787000D01*
X123317000Y-100807000D01*
X123063000Y-100807000D01*
X123063000Y-100787000D01*
X122063750Y-100787000D01*
X121905000Y-100945750D01*
X121905000Y-101436309D01*
X122001673Y-101669698D01*
X122180301Y-101848327D01*
X122413690Y-101945000D01*
X122765567Y-101945000D01*
X122463057Y-102069995D01*
X122101265Y-102431155D01*
X121905223Y-102903276D01*
X121904777Y-103414481D01*
X122099995Y-103886943D01*
X122461155Y-104248735D01*
X122933276Y-104444777D01*
X123400383Y-104445185D01*
X123427198Y-104472000D01*
X117727802Y-104472000D01*
X117032818Y-103777016D01*
X117033223Y-103312519D01*
X116838005Y-102840057D01*
X116476845Y-102478265D01*
X116172765Y-102352000D01*
X116524310Y-102352000D01*
X116757699Y-102255327D01*
X116936327Y-102076698D01*
X117033000Y-101843309D01*
X117033000Y-101352750D01*
X116874250Y-101194000D01*
X115875000Y-101194000D01*
X115875000Y-101214000D01*
X115621000Y-101214000D01*
X115621000Y-101194000D01*
X114621750Y-101194000D01*
X114463000Y-101352750D01*
X114463000Y-101843309D01*
X114559673Y-102076698D01*
X114738301Y-102255327D01*
X114971690Y-102352000D01*
X115323567Y-102352000D01*
X115021057Y-102476995D01*
X114659265Y-102838155D01*
X114463223Y-103310276D01*
X114462777Y-103821481D01*
X114657995Y-104293943D01*
X115019155Y-104655735D01*
X115491276Y-104851777D01*
X115958383Y-104852185D01*
X116875599Y-105769401D01*
X117122161Y-105934148D01*
X117413000Y-105992000D01*
X117426000Y-105992000D01*
X117426000Y-108375258D01*
X117300683Y-108398838D01*
X117084559Y-108537910D01*
X116939569Y-108750110D01*
X116888560Y-109002000D01*
X116888560Y-110302000D01*
X116932838Y-110537317D01*
X117071910Y-110753441D01*
X117284110Y-110898431D01*
X117536000Y-110949440D01*
X118836000Y-110949440D01*
X119071317Y-110905162D01*
X119287441Y-110766090D01*
X119432431Y-110553890D01*
X119433012Y-110551016D01*
X122466590Y-110551016D01*
X122522271Y-110781611D01*
X123005078Y-110949622D01*
X123515428Y-110920083D01*
X123849729Y-110781611D01*
X123905410Y-110551016D01*
X123186000Y-109831605D01*
X122466590Y-110551016D01*
X119433012Y-110551016D01*
X119483440Y-110302000D01*
X119483440Y-109471078D01*
X121888378Y-109471078D01*
X121917917Y-109981428D01*
X122056389Y-110315729D01*
X122286984Y-110371410D01*
X123006395Y-109652000D01*
X123365605Y-109652000D01*
X124085016Y-110371410D01*
X124315611Y-110315729D01*
X124483622Y-109832922D01*
X124454083Y-109322572D01*
X124315611Y-108988271D01*
X124085016Y-108932590D01*
X123365605Y-109652000D01*
X123006395Y-109652000D01*
X122286984Y-108932590D01*
X122056389Y-108988271D01*
X121888378Y-109471078D01*
X119483440Y-109471078D01*
X119483440Y-109002000D01*
X119439162Y-108766683D01*
X119430347Y-108752984D01*
X122466590Y-108752984D01*
X123186000Y-109472395D01*
X123905410Y-108752984D01*
X123849729Y-108522389D01*
X123366922Y-108354378D01*
X122856572Y-108383917D01*
X122522271Y-108522389D01*
X122466590Y-108752984D01*
X119430347Y-108752984D01*
X119300090Y-108550559D01*
X119087890Y-108405569D01*
X118946000Y-108376836D01*
X118946000Y-105992000D01*
X130003005Y-105992000D01*
X130173189Y-106246698D01*
X130555275Y-106502000D01*
X130173189Y-106757302D01*
X129862120Y-107222849D01*
X129752887Y-107772000D01*
X129862120Y-108321151D01*
X130173189Y-108786698D01*
X130555275Y-109042000D01*
X130173189Y-109297302D01*
X129862120Y-109762849D01*
X129752887Y-110312000D01*
X129862120Y-110861151D01*
X130173189Y-111326698D01*
X130555275Y-111582000D01*
X130173189Y-111837302D01*
X129862120Y-112302849D01*
X129752887Y-112852000D01*
X129848297Y-113331656D01*
X129686299Y-113439899D01*
X109715931Y-133410267D01*
X109639526Y-133026152D01*
X109314670Y-132539971D01*
X108828489Y-132215115D01*
X108255000Y-132101041D01*
X107681511Y-132215115D01*
X107195330Y-132539971D01*
X106985000Y-132854752D01*
X106774670Y-132539971D01*
X106288489Y-132215115D01*
X105715000Y-132101041D01*
X105141511Y-132215115D01*
X104655330Y-132539971D01*
X104330474Y-133026152D01*
X104216400Y-133599641D01*
X96850200Y-133599641D01*
X96850200Y-115923623D01*
X101440071Y-115923623D01*
X101711343Y-116580151D01*
X102213207Y-117082892D01*
X102869260Y-117355309D01*
X103579623Y-117355929D01*
X104236151Y-117084657D01*
X104738892Y-116582793D01*
X105011309Y-115926740D01*
X105011929Y-115216377D01*
X104740657Y-114559849D01*
X104238793Y-114057108D01*
X103582740Y-113784691D01*
X102872377Y-113784071D01*
X102215849Y-114055343D01*
X101713108Y-114557207D01*
X101440691Y-115213260D01*
X101440071Y-115923623D01*
X96850200Y-115923623D01*
X96850200Y-100290691D01*
X114463000Y-100290691D01*
X114463000Y-100781250D01*
X114621750Y-100940000D01*
X115621000Y-100940000D01*
X115621000Y-99940750D01*
X115875000Y-99940750D01*
X115875000Y-100940000D01*
X116874250Y-100940000D01*
X117033000Y-100781250D01*
X117033000Y-100290691D01*
X116936327Y-100057302D01*
X116762717Y-99883691D01*
X121905000Y-99883691D01*
X121905000Y-100374250D01*
X122063750Y-100533000D01*
X123063000Y-100533000D01*
X123063000Y-99533750D01*
X123317000Y-99533750D01*
X123317000Y-100533000D01*
X124316250Y-100533000D01*
X124475000Y-100374250D01*
X124475000Y-99883691D01*
X124378327Y-99650302D01*
X124199699Y-99471673D01*
X123966310Y-99375000D01*
X123475750Y-99375000D01*
X123317000Y-99533750D01*
X123063000Y-99533750D01*
X122904250Y-99375000D01*
X122413690Y-99375000D01*
X122180301Y-99471673D01*
X122001673Y-99650302D01*
X121905000Y-99883691D01*
X116762717Y-99883691D01*
X116757699Y-99878673D01*
X116524310Y-99782000D01*
X116033750Y-99782000D01*
X115875000Y-99940750D01*
X115621000Y-99940750D01*
X115462250Y-99782000D01*
X114971690Y-99782000D01*
X114738301Y-99878673D01*
X114559673Y-100057302D01*
X114463000Y-100290691D01*
X96850200Y-100290691D01*
X96850200Y-85923623D01*
X101440071Y-85923623D01*
X101711343Y-86580151D01*
X102213207Y-87082892D01*
X102869260Y-87355309D01*
X103579623Y-87355929D01*
X104236151Y-87084657D01*
X104738892Y-86582793D01*
X105011309Y-85926740D01*
X105011929Y-85216377D01*
X104740657Y-84559849D01*
X104238793Y-84057108D01*
X103582740Y-83784691D01*
X102872377Y-83784071D01*
X102215849Y-84055343D01*
X101713108Y-84557207D01*
X101440691Y-85213260D01*
X101440071Y-85923623D01*
X96850200Y-85923623D01*
X96850200Y-75930111D01*
X98064320Y-75930111D01*
X98064320Y-78044689D01*
X98207783Y-78765925D01*
X98616330Y-79377359D01*
X99227764Y-79785906D01*
X99949000Y-79929369D01*
X100670236Y-79785906D01*
X101281670Y-79377359D01*
X101690217Y-78765925D01*
X101833680Y-78044689D01*
X101833680Y-75930111D01*
X103652320Y-75930111D01*
X103652320Y-78044689D01*
X103795783Y-78765925D01*
X104204330Y-79377359D01*
X104815764Y-79785906D01*
X105537000Y-79929369D01*
X106258236Y-79785906D01*
X106869670Y-79377359D01*
X107278217Y-78765925D01*
X107421680Y-78044689D01*
X107421680Y-75930111D01*
X109240320Y-75930111D01*
X109240320Y-78044689D01*
X109383783Y-78765925D01*
X109792330Y-79377359D01*
X110403764Y-79785906D01*
X111125000Y-79929369D01*
X111846236Y-79785906D01*
X112457670Y-79377359D01*
X112866217Y-78765925D01*
X112955395Y-78317597D01*
X112956000Y-78318202D01*
X112956000Y-81207870D01*
X112716510Y-81207870D01*
X112481193Y-81252148D01*
X112265069Y-81391220D01*
X112120079Y-81603420D01*
X112069070Y-81855310D01*
X112069070Y-83854290D01*
X112113348Y-84089607D01*
X112252420Y-84305731D01*
X112464620Y-84450721D01*
X112716510Y-84501730D01*
X114715490Y-84501730D01*
X114950807Y-84457452D01*
X115166931Y-84318380D01*
X115311921Y-84106180D01*
X115362930Y-83854290D01*
X115362930Y-83178494D01*
X115891226Y-83178494D01*
X116139538Y-83779455D01*
X116598927Y-84239646D01*
X117199453Y-84489006D01*
X117849694Y-84489574D01*
X118450655Y-84241262D01*
X118910846Y-83781873D01*
X119160206Y-83181347D01*
X119160774Y-82531106D01*
X118912462Y-81930145D01*
X118453073Y-81469954D01*
X117852547Y-81220594D01*
X117202306Y-81220026D01*
X116601345Y-81468338D01*
X116141154Y-81927727D01*
X115891794Y-82528253D01*
X115891226Y-83178494D01*
X115362930Y-83178494D01*
X115362930Y-81855310D01*
X115318652Y-81619993D01*
X115179580Y-81403869D01*
X114967380Y-81258879D01*
X114715490Y-81207870D01*
X114476000Y-81207870D01*
X114476000Y-79698694D01*
X140478226Y-79698694D01*
X140726538Y-80299655D01*
X141185927Y-80759846D01*
X141786453Y-81009206D01*
X142436694Y-81009774D01*
X143037655Y-80761462D01*
X143497846Y-80302073D01*
X143747206Y-79701547D01*
X143747208Y-79698694D01*
X148098226Y-79698694D01*
X148346538Y-80299655D01*
X148805927Y-80759846D01*
X149406453Y-81009206D01*
X150056694Y-81009774D01*
X150657655Y-80761462D01*
X151117846Y-80302073D01*
X151367206Y-79701547D01*
X151367774Y-79051306D01*
X151119462Y-78450345D01*
X150660073Y-77990154D01*
X150059547Y-77740794D01*
X149409306Y-77740226D01*
X148808345Y-77988538D01*
X148348154Y-78447927D01*
X148098794Y-79048453D01*
X148098226Y-79698694D01*
X143747208Y-79698694D01*
X143747774Y-79051306D01*
X143499462Y-78450345D01*
X143040073Y-77990154D01*
X142439547Y-77740794D01*
X141789306Y-77740226D01*
X141188345Y-77988538D01*
X140728154Y-78447927D01*
X140478794Y-79048453D01*
X140478226Y-79698694D01*
X114476000Y-79698694D01*
X114476000Y-78636400D01*
X118052504Y-78636400D01*
X118120538Y-78801055D01*
X118579927Y-79261246D01*
X119180453Y-79510606D01*
X119830694Y-79511174D01*
X120431655Y-79262862D01*
X120891846Y-78803473D01*
X121141206Y-78202947D01*
X121141208Y-78200094D01*
X125492226Y-78200094D01*
X125740538Y-78801055D01*
X126199927Y-79261246D01*
X126800453Y-79510606D01*
X127450694Y-79511174D01*
X128051655Y-79262862D01*
X128511846Y-78803473D01*
X128761206Y-78202947D01*
X128761774Y-77552706D01*
X128513462Y-76951745D01*
X128054073Y-76491554D01*
X127453547Y-76242194D01*
X126803306Y-76241626D01*
X126202345Y-76489938D01*
X125742154Y-76949327D01*
X125492794Y-77549853D01*
X125492226Y-78200094D01*
X121141208Y-78200094D01*
X121141774Y-77552706D01*
X120893462Y-76951745D01*
X120434073Y-76491554D01*
X119833547Y-76242194D01*
X119183306Y-76241626D01*
X118582345Y-76489938D01*
X118122154Y-76949327D01*
X118052779Y-77116400D01*
X113903802Y-77116400D01*
X113237401Y-76449999D01*
X113009680Y-76297841D01*
X113009680Y-75930111D01*
X112866217Y-75208875D01*
X112457670Y-74597441D01*
X111846236Y-74188894D01*
X111125000Y-74045431D01*
X110403764Y-74188894D01*
X109792330Y-74597441D01*
X109383783Y-75208875D01*
X109240320Y-75930111D01*
X107421680Y-75930111D01*
X107278217Y-75208875D01*
X106869670Y-74597441D01*
X106258236Y-74188894D01*
X105537000Y-74045431D01*
X104815764Y-74188894D01*
X104204330Y-74597441D01*
X103795783Y-75208875D01*
X103652320Y-75930111D01*
X101833680Y-75930111D01*
X101690217Y-75208875D01*
X101281670Y-74597441D01*
X100670236Y-74188894D01*
X99949000Y-74045431D01*
X99227764Y-74188894D01*
X98616330Y-74597441D01*
X98207783Y-75208875D01*
X98064320Y-75930111D01*
X96850200Y-75930111D01*
X96850200Y-72831311D01*
X138196320Y-72831311D01*
X138196320Y-74945889D01*
X138339783Y-75667125D01*
X138748330Y-76278559D01*
X139359764Y-76687106D01*
X140081000Y-76830569D01*
X140802236Y-76687106D01*
X141413670Y-76278559D01*
X141822217Y-75667125D01*
X141965680Y-74945889D01*
X141965680Y-74015600D01*
X143784320Y-74015600D01*
X143784320Y-75016360D01*
X143976384Y-75727929D01*
X144426133Y-76311833D01*
X145065097Y-76679178D01*
X145249405Y-76726738D01*
X145542000Y-76610611D01*
X145542000Y-74015600D01*
X145796000Y-74015600D01*
X145796000Y-76610611D01*
X146088595Y-76726738D01*
X146272903Y-76679178D01*
X146911867Y-76311833D01*
X147361616Y-75727929D01*
X147553680Y-75016360D01*
X147553680Y-74015600D01*
X145796000Y-74015600D01*
X145542000Y-74015600D01*
X143784320Y-74015600D01*
X141965680Y-74015600D01*
X141965680Y-72831311D01*
X141951663Y-72760840D01*
X143784320Y-72760840D01*
X143784320Y-73761600D01*
X145542000Y-73761600D01*
X145542000Y-71166589D01*
X145796000Y-71166589D01*
X145796000Y-73761600D01*
X147553680Y-73761600D01*
X147553680Y-72831311D01*
X149372320Y-72831311D01*
X149372320Y-74945889D01*
X149515783Y-75667125D01*
X149924330Y-76278559D01*
X150535764Y-76687106D01*
X151257000Y-76830569D01*
X151978236Y-76687106D01*
X152589670Y-76278559D01*
X152998217Y-75667125D01*
X153141680Y-74945889D01*
X153141680Y-72831311D01*
X152998217Y-72110075D01*
X152589670Y-71498641D01*
X151978236Y-71090094D01*
X151257000Y-70946631D01*
X150535764Y-71090094D01*
X149924330Y-71498641D01*
X149515783Y-72110075D01*
X149372320Y-72831311D01*
X147553680Y-72831311D01*
X147553680Y-72760840D01*
X147361616Y-72049271D01*
X146911867Y-71465367D01*
X146272903Y-71098022D01*
X146088595Y-71050462D01*
X145796000Y-71166589D01*
X145542000Y-71166589D01*
X145249405Y-71050462D01*
X145065097Y-71098022D01*
X144426133Y-71465367D01*
X143976384Y-72049271D01*
X143784320Y-72760840D01*
X141951663Y-72760840D01*
X141822217Y-72110075D01*
X141413670Y-71498641D01*
X140802236Y-71090094D01*
X140081000Y-70946631D01*
X139359764Y-71090094D01*
X138748330Y-71498641D01*
X138339783Y-72110075D01*
X138196320Y-72831311D01*
X96850200Y-72831311D01*
X96850200Y-68375600D01*
X263677400Y-68375600D01*
X263677400Y-88087200D01*
G36*
X193335748Y-149083858D02*
X193321605Y-149098000D01*
X193335748Y-149112143D01*
X193156143Y-149291748D01*
X193142000Y-149277605D01*
X193127858Y-149291748D01*
X192948253Y-149112143D01*
X192962395Y-149098000D01*
X192948253Y-149083858D01*
X193127858Y-148904253D01*
X193142000Y-148918395D01*
X193156143Y-148904253D01*
X193335748Y-149083858D01*
X193335748Y-149083858D01*
G37*
X193335748Y-149083858D02*
X193321605Y-149098000D01*
X193335748Y-149112143D01*
X193156143Y-149291748D01*
X193142000Y-149277605D01*
X193127858Y-149291748D01*
X192948253Y-149112143D01*
X192962395Y-149098000D01*
X192948253Y-149083858D01*
X193127858Y-148904253D01*
X193142000Y-148918395D01*
X193156143Y-148904253D01*
X193335748Y-149083858D01*
G36*
X128567120Y-127168151D02*
X128878189Y-127633698D01*
X129260275Y-127889000D01*
X128878189Y-128144302D01*
X128567120Y-128609849D01*
X128457887Y-129159000D01*
X128567120Y-129708151D01*
X128878189Y-130173698D01*
X129260275Y-130429000D01*
X128878189Y-130684302D01*
X128567120Y-131149849D01*
X128457887Y-131699000D01*
X128567120Y-132248151D01*
X128878189Y-132713698D01*
X129260275Y-132969000D01*
X128878189Y-133224302D01*
X128567120Y-133689849D01*
X128457887Y-134239000D01*
X128567120Y-134788151D01*
X128878189Y-135253698D01*
X129260275Y-135509000D01*
X128878189Y-135764302D01*
X128567120Y-136229849D01*
X128457887Y-136779000D01*
X128567120Y-137328151D01*
X128878189Y-137793698D01*
X129343736Y-138104767D01*
X129892887Y-138214000D01*
X129949113Y-138214000D01*
X130498264Y-138104767D01*
X130963811Y-137793698D01*
X131274880Y-137328151D01*
X131384113Y-136779000D01*
X131274880Y-136229849D01*
X130963811Y-135764302D01*
X130581725Y-135509000D01*
X130963811Y-135253698D01*
X131133995Y-134999000D01*
X136328005Y-134999000D01*
X136498189Y-135253698D01*
X136880275Y-135509000D01*
X136498189Y-135764302D01*
X136314563Y-136039118D01*
X136124861Y-136076852D01*
X135878299Y-136241599D01*
X131630898Y-140489000D01*
X109534520Y-140489000D01*
X109314670Y-140159971D01*
X109043828Y-139979000D01*
X109314670Y-139798029D01*
X109639526Y-139311848D01*
X109753600Y-138738359D01*
X109753600Y-138679641D01*
X109639526Y-138106152D01*
X109314670Y-137619971D01*
X109043828Y-137439000D01*
X109314670Y-137258029D01*
X109548411Y-136908211D01*
X109734739Y-136871148D01*
X109981301Y-136706401D01*
X112742702Y-133945000D01*
X119454560Y-133945000D01*
X119454560Y-135245000D01*
X119498838Y-135480317D01*
X119637910Y-135696441D01*
X119850110Y-135841431D01*
X120102000Y-135892440D01*
X121402000Y-135892440D01*
X121637317Y-135848162D01*
X121853441Y-135709090D01*
X121998431Y-135496890D01*
X121999012Y-135494016D01*
X125032590Y-135494016D01*
X125088271Y-135724611D01*
X125571078Y-135892622D01*
X126081428Y-135863083D01*
X126415729Y-135724611D01*
X126471410Y-135494016D01*
X125752000Y-134774605D01*
X125032590Y-135494016D01*
X121999012Y-135494016D01*
X122049440Y-135245000D01*
X122049440Y-134414078D01*
X124454378Y-134414078D01*
X124483917Y-134924428D01*
X124622389Y-135258729D01*
X124852984Y-135314410D01*
X125572395Y-134595000D01*
X125931605Y-134595000D01*
X126651016Y-135314410D01*
X126881611Y-135258729D01*
X127049622Y-134775922D01*
X127020083Y-134265572D01*
X126881611Y-133931271D01*
X126651016Y-133875590D01*
X125931605Y-134595000D01*
X125572395Y-134595000D01*
X124852984Y-133875590D01*
X124622389Y-133931271D01*
X124454378Y-134414078D01*
X122049440Y-134414078D01*
X122049440Y-133945000D01*
X122005162Y-133709683D01*
X121996347Y-133695984D01*
X125032590Y-133695984D01*
X125752000Y-134415395D01*
X126471410Y-133695984D01*
X126415729Y-133465389D01*
X125932922Y-133297378D01*
X125422572Y-133326917D01*
X125088271Y-133465389D01*
X125032590Y-133695984D01*
X121996347Y-133695984D01*
X121866090Y-133493559D01*
X121653890Y-133348569D01*
X121402000Y-133297560D01*
X120102000Y-133297560D01*
X119866683Y-133341838D01*
X119650559Y-133480910D01*
X119505569Y-133693110D01*
X119454560Y-133945000D01*
X112742702Y-133945000D01*
X116305702Y-130382000D01*
X124522600Y-130382000D01*
X124813439Y-130324148D01*
X125060001Y-130159401D01*
X128481532Y-126737870D01*
X128567120Y-127168151D01*
X128567120Y-127168151D01*
G37*
X128567120Y-127168151D02*
X128878189Y-127633698D01*
X129260275Y-127889000D01*
X128878189Y-128144302D01*
X128567120Y-128609849D01*
X128457887Y-129159000D01*
X128567120Y-129708151D01*
X128878189Y-130173698D01*
X129260275Y-130429000D01*
X128878189Y-130684302D01*
X128567120Y-131149849D01*
X128457887Y-131699000D01*
X128567120Y-132248151D01*
X128878189Y-132713698D01*
X129260275Y-132969000D01*
X128878189Y-133224302D01*
X128567120Y-133689849D01*
X128457887Y-134239000D01*
X128567120Y-134788151D01*
X128878189Y-135253698D01*
X129260275Y-135509000D01*
X128878189Y-135764302D01*
X128567120Y-136229849D01*
X128457887Y-136779000D01*
X128567120Y-137328151D01*
X128878189Y-137793698D01*
X129343736Y-138104767D01*
X129892887Y-138214000D01*
X129949113Y-138214000D01*
X130498264Y-138104767D01*
X130963811Y-137793698D01*
X131274880Y-137328151D01*
X131384113Y-136779000D01*
X131274880Y-136229849D01*
X130963811Y-135764302D01*
X130581725Y-135509000D01*
X130963811Y-135253698D01*
X131133995Y-134999000D01*
X136328005Y-134999000D01*
X136498189Y-135253698D01*
X136880275Y-135509000D01*
X136498189Y-135764302D01*
X136314563Y-136039118D01*
X136124861Y-136076852D01*
X135878299Y-136241599D01*
X131630898Y-140489000D01*
X109534520Y-140489000D01*
X109314670Y-140159971D01*
X109043828Y-139979000D01*
X109314670Y-139798029D01*
X109639526Y-139311848D01*
X109753600Y-138738359D01*
X109753600Y-138679641D01*
X109639526Y-138106152D01*
X109314670Y-137619971D01*
X109043828Y-137439000D01*
X109314670Y-137258029D01*
X109548411Y-136908211D01*
X109734739Y-136871148D01*
X109981301Y-136706401D01*
X112742702Y-133945000D01*
X119454560Y-133945000D01*
X119454560Y-135245000D01*
X119498838Y-135480317D01*
X119637910Y-135696441D01*
X119850110Y-135841431D01*
X120102000Y-135892440D01*
X121402000Y-135892440D01*
X121637317Y-135848162D01*
X121853441Y-135709090D01*
X121998431Y-135496890D01*
X121999012Y-135494016D01*
X125032590Y-135494016D01*
X125088271Y-135724611D01*
X125571078Y-135892622D01*
X126081428Y-135863083D01*
X126415729Y-135724611D01*
X126471410Y-135494016D01*
X125752000Y-134774605D01*
X125032590Y-135494016D01*
X121999012Y-135494016D01*
X122049440Y-135245000D01*
X122049440Y-134414078D01*
X124454378Y-134414078D01*
X124483917Y-134924428D01*
X124622389Y-135258729D01*
X124852984Y-135314410D01*
X125572395Y-134595000D01*
X125931605Y-134595000D01*
X126651016Y-135314410D01*
X126881611Y-135258729D01*
X127049622Y-134775922D01*
X127020083Y-134265572D01*
X126881611Y-133931271D01*
X126651016Y-133875590D01*
X125931605Y-134595000D01*
X125572395Y-134595000D01*
X124852984Y-133875590D01*
X124622389Y-133931271D01*
X124454378Y-134414078D01*
X122049440Y-134414078D01*
X122049440Y-133945000D01*
X122005162Y-133709683D01*
X121996347Y-133695984D01*
X125032590Y-133695984D01*
X125752000Y-134415395D01*
X126471410Y-133695984D01*
X126415729Y-133465389D01*
X125932922Y-133297378D01*
X125422572Y-133326917D01*
X125088271Y-133465389D01*
X125032590Y-133695984D01*
X121996347Y-133695984D01*
X121866090Y-133493559D01*
X121653890Y-133348569D01*
X121402000Y-133297560D01*
X120102000Y-133297560D01*
X119866683Y-133341838D01*
X119650559Y-133480910D01*
X119505569Y-133693110D01*
X119454560Y-133945000D01*
X112742702Y-133945000D01*
X116305702Y-130382000D01*
X124522600Y-130382000D01*
X124813439Y-130324148D01*
X125060001Y-130159401D01*
X128481532Y-126737870D01*
X128567120Y-127168151D01*
M02*
